<svg version="1.1" xmlns="http://www.w3.org/2000/svg" xmlns:xlink="http://www.w3.org/1999/xlink" width="261" height="141"><title>Created with blocklayer.com</title><defs/><g><g transform="translate(20,20)"><path fill="none" stroke="#000000" paint-order="fill stroke markers" d=" M 58.01059137213833 -7.105427357601002e-15 A 71.2697558059552 71.2697558059552 0 0 0 163.48439386693528 -7.105427357601002e-15 L 221.4949852390736 52.733469265256744 A 149.66648719250594 149.66648719250594 0 0 1 0 52.733469265256744 Z" stroke-miterlimit="10" stroke-dasharray=""/><path fill="none" stroke="Silver" paint-order="fill stroke markers" d=" M 206.49721463869489 67.0911224121886 L 156.34259834294542 6.836977689015157 M 189.65679953071103 79.23508164548537 L 148.3233530534293 12.619815419156474 M 171.2978233458635 88.93164393907107 L 139.58098344159714 17.23722603514966 M 151.7735932887988 95.99420491565719 L 130.2837310334711 20.6003503097145 M 131.45984115822304 100.28684993320935 L 120.61051573319692 22.64446698473934 M 110.74749261953681 101.72696967863617 L 110.7474926195368 23.330238292085426 M 90.03514408085057 100.28684993320935 L 100.8844695058767 22.64446698473934 M 69.7213919502748 95.99420491565719 L 91.21125420560253 20.6003503097145 M 50.197161893210115 88.93164393907107 L 81.91400179747647 17.23722603514966 M 31.8381857083626 79.2350816454854 L 73.17163218564433 12.619815419156481 M 14.997770600378715 67.0911224121886 L 65.15238689612818 6.836977689015157" stroke-miterlimit="10" stroke-dasharray=""/></g></g></svg>