<?xml version="1.0" encoding="UTF-8"?><svg id="Calque_1" xmlns="http://www.w3.org/2000/svg" xmlns:xlink="http://www.w3.org/1999/xlink" viewBox="0 0 841.89 1190.55"><defs><style>.cls-1{fill:#e2bc06;}.cls-1,.cls-2,.cls-3{stroke-width:0px;}.cls-2{fill:none;}.cls-3{fill:#231f20;}.cls-4{clip-path:url(#clippath);}</style><clipPath id="clippath"><rect class="cls-2" x="-841.89" y=".25" width="1683.78" height="1190.3"/></clipPath></defs><g class="cls-4"><path class="cls-1" d="M-1116.39,676.99c13.07-15.32,293.24,56.64,313.9,64.05,28.26,10.14,48.97,34.24,74.64,49.81,72.28,43.84,181.2-.15,202.75-81.89,16.86-63.94-6.9-148.84,48.25-185.32,24.03-15.89,55.68-15.25,81.11-28.79,44.94-23.93,56.24-81.43,74.35-129.02,18.11-47.59,66.93-97.04,112.76-74.87,28,13.54,38.54,47.2,57.16,72.11,26.87,35.96,75.22,54.46,119.23,45.61,44.01-8.84,81.46-44.58,92.36-88.13,11.14-44.53,3.4-105.08,45.57-123.2,39.25-16.86,79.63,24.21,122.28,26.58,75.39,4.18,123.26-109.63,197.33-95,36.5,7.21,72.37,45.38,104,25.79,24.28-15.04,20.63-50.34,25.3-78.51,7.14-43.09,40.35-78.27,78.85-98.9,38.5-20.63,82.18-131.32,125.1-139.44L-884.73-21.17l-231.66,698.16Z"/><path class="cls-3" d="M-663.4,822.96c-25.93,0-50.93-6.52-72.17-19.39-10.68-6.48-20.32-14.13-29.66-21.53-13.99-11.1-27.2-21.58-42.3-27-9.26-3.32-78.6-21.64-149.14-37.99-98.39-22.8-134.16-26.92-146.72-27.34l.12-3.57c12.69.43,48.72,4.56,147.41,27.43,70.66,16.37,140.22,34.76,149.54,38.1,15.65,5.62,29.09,16.27,43.31,27.56,9.24,7.33,18.8,14.92,29.29,21.27,36.98,22.43,85.77,25.03,130.5,6.97,44.73-18.07,78.02-53.82,89.05-95.64,6.02-22.85,7.11-47.79,8.16-71.92,2.01-46.1,3.74-85.92,35.4-106.85,11.34-7.5,25.19-10.93,39.85-14.57,13.47-3.34,27.39-6.79,40.33-13.68,40.6-21.62,55.63-65.68,70.16-108.29,3.17-9.3,6.17-18.08,9.44-26.68,12.13-31.88,36.5-59.75,60.65-69.34,12.86-5.11,25.19-4.9,36.63.63,16.19,7.83,26.06,24.77,36.52,42.71,5.09,8.73,10.34,17.73,16.51,25.99,29.59,39.6,82.05,59.66,130.52,49.93,48.47-9.74,89.1-48.51,101.1-96.47,3.22-12.88,4.93-26.86,6.57-40.38,4.9-40.22,9.52-65.31,32.49-75.18,18.72-8.04,38.81.72,62.07,10.86,17.53,7.64,35.66,15.54,55.12,16.62,41.01,2.29,73.13-25.12,104.18-51.61,30.21-25.76,58.71-50.07,91.58-43.6,11.61,2.29,24.05,8.59,36.09,14.68,23.63,11.96,50.4,25.52,76.06,9.63,23.45-14.52,26-42.25,28.25-66.72.63-6.91,1.24-13.43,2.25-19.55,5.88-35.49,33.19-69.42,73.04-90.78,19.74-10.58,38.51-38.62,58.39-68.31,19.8-29.58,44.44-66.39,63.47-69.99l.66,3.51c-17.56,3.32-41.74,39.44-61.17,68.46-20.13,30.07-39.14,58.47-59.66,69.47-38.88,20.84-65.5,53.81-71.2,88.22-.99,5.99-1.59,12.45-2.22,19.3-2.33,25.3-4.97,53.97-29.93,69.43-27.34,16.94-55.08,2.9-79.55-9.48-11.82-5.98-24.04-12.17-35.17-14.36-31.15-6.14-59.04,17.62-88.55,42.79-31.61,26.96-64.28,54.82-106.72,52.48-20.11-1.12-38.53-9.15-56.35-16.92-22.5-9.81-41.94-18.27-59.24-10.85-21.21,9.11-25.62,33.38-30.35,72.26-1.67,13.7-3.39,27.79-6.66,40.88-12.33,49.27-54.07,89.09-103.86,99.1-49.8,10.01-103.68-10.61-134.08-51.29-6.3-8.42-11.6-17.52-16.72-26.31-10.18-17.47-19.79-33.96-35-41.31-10.5-5.08-21.86-5.25-33.75-.53-23.27,9.25-46.83,36.3-58.63,67.3-3.25,8.54-6.23,17.29-9.39,26.56-14.76,43.27-30.02,88.01-71.87,110.29-13.33,7.1-27.47,10.6-41.14,13.99-14.36,3.56-27.92,6.92-38.75,14.08-30.14,19.93-31.84,58.9-33.8,104.03-1.06,24.31-2.15,49.45-8.27,72.67-11.31,42.9-45.39,79.55-91.17,98.04-20.15,8.14-41.12,12.17-61.52,12.17Z"/><path class="cls-3" d="M-663.39,835.45c-28.2,0-55.46-7.12-78.66-21.2-11.34-6.88-21.3-14.78-30.94-22.42-13.17-10.45-25.6-20.31-38.76-25.03-7.61-2.73-74.74-20.66-147.74-37.57-75.28-17.45-112.8-23.7-131.02-25.88l.28-2.36c18.28,2.18,55.89,8.46,131.27,25.93,73.08,16.93,140.37,34.91,148.01,37.65,13.53,4.86,26.11,14.83,39.43,25.4,9.58,7.6,19.48,15.45,30.7,22.26,40.65,24.66,94,27.63,142.72,7.95,48.72-19.68,85.04-58.87,97.16-104.84,6.4-24.28,7.52-49.97,8.6-74.81,1.92-44.11,3.44-78.95,29.27-96.03,9.37-6.2,22.11-9.35,35.59-12.7,14.28-3.54,29.03-7.19,43.47-14.89,45.37-24.16,62.01-72.93,76.68-115.96,3.13-9.18,6.08-17.84,9.27-26.23,10.68-28.07,32.44-53.35,52.92-61.49,9.28-3.69,17.66-3.61,25.61.23,12.42,6.01,21.28,21.21,30.66,37.3,5.28,9.06,10.72,18.4,17.36,27.28,32.69,43.74,90.63,65.91,144.18,55.15,53.54-10.76,98.42-53.58,111.68-106.56,3.42-13.68,5.18-28.1,6.88-42.05,4.88-40.06,9.33-57.82,24.31-64.25,13.28-5.7,30.01,1.59,51.19,10.82,18.65,8.13,37.92,16.53,59.85,17.75,46.52,2.57,82.23-27.92,113.78-54.83,28.86-24.61,53.75-45.82,80.08-40.62,9.77,1.93,21.36,7.79,32.56,13.47,24.17,12.24,57.27,28.99,89.44,9.06,29.24-18.11,32.25-50.82,34.67-77.09.62-6.76,1.2-12.99,2.12-18.57,5.19-31.33,29.86-61.59,66-80.96,22.75-12.19,42.44-41.61,63.29-72.76,19.96-29.81,42.29-61.81,54.65-64.15l.44,2.34c-12.41,2.35-39.9,43.41-53.11,63.14-21.02,31.4-40.88,61.06-64.15,73.54-35.49,19.02-59.7,48.64-64.78,79.25-.91,5.5-1.48,11.69-2.08,18.24-2.48,26.96-5.55,60.32-35.8,79.06-33.31,20.64-67.1,3.54-91.77-8.95-11.07-5.6-22.51-11.39-31.95-13.26-25.24-4.97-49.69,15.88-78.02,40.04-31.95,27.25-68.12,58.08-115.52,55.44-22.35-1.24-41.82-9.73-60.66-17.94-20.67-9.01-36.98-16.12-49.31-10.82-13.89,5.97-18.12,23.25-22.88,62.29-1.72,14.08-3.49,28.58-6.94,42.4-13.48,53.85-59.1,97.38-113.52,108.32-9.15,1.84-18.44,2.73-27.7,2.73-45.82,0-91.21-21.81-118.85-58.79-6.72-8.99-12.2-18.39-17.5-27.48-9.2-15.79-17.88-30.69-29.65-36.38-7.32-3.54-15.07-3.59-23.7-.17-19.9,7.91-41.11,32.64-51.57,60.13-3.17,8.35-6.12,16.99-9.25,26.15-14.82,43.45-31.61,92.69-77.82,117.29-14.7,7.83-29.6,11.52-44.01,15.09-13.29,3.29-25.84,6.4-34.86,12.37-24.82,16.42-26.32,50.72-28.21,94.15-1.09,24.97-2.21,50.79-8.68,75.32-12.31,46.69-49.16,86.48-98.57,106.44-21.64,8.74-44.2,13.07-66.18,13.07Z"/><path class="cls-3" d="M-663.37,848.53c-30.58,0-60.2-7.76-85.47-23.08-12.02-7.29-22.29-15.43-32.22-23.31-12.35-9.8-23.97-19.01-35.1-23.01-6.59-2.36-73.04-20.17-146.28-37.14-49.51-11.48-88.28-19.42-115.24-23.63l.37-2.35c27.01,4.21,65.84,12.17,115.41,23.66,73.32,16.99,139.91,34.85,146.54,37.22,11.51,4.13,23.27,13.46,35.72,23.34,9.93,7.88,20.14,15.97,32.04,23.19,44.16,26.79,101.89,30.11,154.41,8.9,52.53-21.21,91.75-63.7,104.92-113.64,6.76-25.64,7.91-52.04,9.02-77.57,1.83-41.97,3.15-72.28,23.42-85.69,7.49-4.95,19.17-7.85,31.53-10.91,15.04-3.73,30.59-7.58,46.47-16.04,49.94-26.59,68.23-80.21,82.92-123.29,3.11-9.13,6.02-17.66,9.12-25.8,9.33-24.5,28.47-47.21,45.52-53.98,7.48-2.97,11.99-1.64,15.08-.15,8.83,4.27,17.08,18.43,25.06,32.13,5.47,9.38,11.1,19.03,18.17,28.49,29.08,38.91,77.94,63.08,127.53,63.08,10.05,0,20.04-.99,29.71-2.93,58.39-11.73,107.34-58.44,121.8-116.22,3.62-14.48,5.43-29.34,7.19-43.71,4.59-37.73,8.44-50.29,16.47-53.74,8.07-3.47,23.22,3.13,40.74,10.77,19.76,8.61,40.13,17.49,64.4,18.84,2.06.11,4.14.17,6.19.17,48.68,0,86.49-32.25,116.87-58.16,26.21-22.36,48.84-41.65,68.99-37.68,8,1.58,18.78,7.03,29.2,12.31,25.43,12.87,63.82,32.3,102.24,8.5,34.79-21.55,38.28-59.48,40.82-87.18.58-6.34,1.14-12.33,1.99-17.47,4.53-27.35,26.69-54.1,59.27-71.56,25.63-13.73,46.21-44.47,67.99-77.02,24.23-36.19,39.39-55.35,46.36-58.56l1,2.16c-4.45,2.05-15.93,13.73-45.38,57.73-21.95,32.8-42.68,63.77-68.84,77.79-31.93,17.11-53.63,43.22-58.04,69.85-.84,5.06-1.39,11.01-1.96,17.3-2.59,28.2-6.15,66.81-41.94,88.99-39.57,24.5-78.67,4.71-104.55-8.39-10.29-5.21-20.92-10.59-28.6-12.1-19.03-3.76-41.24,15.2-66.98,37.16-30.68,26.16-68.86,58.73-118.42,58.73-2.1,0-4.22-.06-6.32-.18-24.7-1.37-45.27-10.34-65.16-19.01-17.09-7.45-31.79-13.86-38.92-10.8-6.89,2.96-10.69,16.04-15.05,51.84-1.76,14.44-3.58,29.37-7.24,44-14.68,58.65-64.37,106.06-123.65,117.97-9.82,1.97-19.98,2.97-30.18,2.98-50.32,0-99.91-24.53-129.43-64.03-7.15-9.57-12.82-19.28-18.29-28.68-7.83-13.43-15.89-27.28-24.07-31.23-2.66-1.28-6.55-2.42-13.17.21-16.48,6.55-35.06,28.68-44.17,52.62-3.08,8.1-5.98,16.61-9.06,25.62-14.86,43.58-33.32,97.68-84.09,124.72-16.13,8.59-31.83,12.48-47.01,16.24-12.16,3.01-23.65,5.86-30.79,10.59-19.26,12.74-20.56,42.54-22.35,83.8-1.12,25.67-2.27,52.2-9.1,78.09-13.36,50.67-53.11,93.75-106.33,115.24-23.2,9.37-47.42,14.01-71.07,14.02Z"/><path class="cls-3" d="M-173.94,1279.59c-59.43-17.42-92.34-77.44-103.33-127.82-9.58-43.9-7.72-89.73-5.91-134.04.49-12.14,1-24.69,1.27-36.99,1.08-50.12-1.87-114.1-34.57-164.37-23.1-35.52-59.98-61.59-101.18-71.52-2.27-.55-4.58-1.06-6.89-1.58-12.93-2.87-26.31-5.85-35.63-15.28-11.99-12.13-13.18-30.7-13.38-48.69-.27-24.72-.58-52.73,9.47-77.42,9.25-22.73,31.03-45.55,58.92-45.55.15,0,.3,0,.45,0,13.35.12,26.19,5.6,37.52,10.44l192.58,82.21c20.51,8.75,41.71,17.8,64.35,19.16,19.5,1.16,45.18-4.68,58.81-24.59,13.43-19.62,10.46-49.61-6.91-69.76-16.1-18.69-42.52-29.38-72.54-29.38-.22,0-.45,0-.67,0-3.71,0-6.84-.49-9.55-1.5-6.19-2.31-10.05-6.31-11.49-11.91-2.55-9.9,3.36-22.52,10.34-30.64l.28-.32c22.53-26.14,55.41-42.07,90.22-43.71,58.28-2.75,101.85,5.77,137.12,26.82,23.22,13.85,42.66,33.41,61.45,52.32,18.17,18.28,36.95,37.18,59.07,50.81,49.51,30.51,119.19,35.12,191.14,12.65,46.38-14.48,90.15-37.81,132.47-60.36,15.22-8.11,30.97-16.5,46.61-24.37,51.39-25.82,119.46-54.87,190.29-50.4,49.84,3.16,98,23.48,139.27,58.75,39.68,33.91,69.42,79.42,83.75,128.13l-2.28.67c-29.73-101.06-122.63-178.94-220.89-185.18-70.27-4.46-137.95,24.46-189.07,50.15-15.62,7.85-31.35,16.23-46.56,24.34-42.42,22.61-86.28,45.99-132.88,60.54-72.62,22.67-143,17.97-193.1-12.9-22.36-13.78-41.24-32.78-59.51-51.16-18.69-18.81-38.02-38.26-60.98-51.96-34.86-20.8-78.01-29.2-135.8-26.48-34.16,1.61-66.43,17.24-88.53,42.89l-.27.32c-6.58,7.66-12.17,19.44-9.84,28.5,1.24,4.8,4.61,8.25,10.02,10.27,2.48.92,5.34,1.37,8.88,1.35,30.9-.21,58.2,10.89,74.85,30.2,18.04,20.94,21.08,52.17,7.07,72.66-14.19,20.73-40.77,26.81-60.92,25.62-23.05-1.38-44.45-10.52-65.14-19.35l-192.58-82.21c-11.13-4.75-23.74-10.13-36.61-10.24-26.97-.17-48.15,21.96-57.15,44.07-9.87,24.25-9.57,52.01-9.29,76.5.19,17.5,1.33,35.55,12.69,47.04,8.83,8.94,21.86,11.83,34.46,14.63,2.33.52,4.65,1.03,6.93,1.58,41.78,10.07,79.18,36.51,102.61,72.53,33.05,50.82,36.04,115.26,34.96,165.72-.27,12.32-.78,24.89-1.27,37.04-1.8,44.16-3.65,89.83,5.86,133.44,10.85,49.7,43.25,108.92,101.68,126.04l-.67,2.28Z"/><path class="cls-3" d="M961.09,541.7c-42-44.88-91.82-77.64-144.09-94.73-57.72-18.87-118.38-18.5-170.79,1.03-9.76,3.64-19.77,8.05-29.45,12.33-32.76,14.46-66.64,29.41-100.36,19.15-34.5-10.49-55.76-43.95-74.59-77.32-19.13-33.91-38.92-68.98-55.38-105.06-6.65-14.58-13.73-31.6-13.61-49.12.11-15.99,7.8-35.4,24.74-42.71,17.88-7.72,36.68.56,54.87,8.56,5.29,2.33,10.76,4.74,16.05,6.66,26.89,9.78,58.2,7.95,83.76-4.92,25.56-12.86,45.69-36.91,53.85-64.34,2.8-9.41,4.31-19.35,5.77-28.96,1.74-11.43,3.53-23.24,7.51-34.34,11.25-31.41,37.94-53.6,63.75-75.05l3.63-3.02c25.54-21.27,53.32-46.86,59.69-81.29l2.34.43c-6.2,33.54-32.75,59.56-60.51,82.68l-3.63,3.02c-25.57,21.25-52.01,43.22-63.03,74.02-3.9,10.88-5.67,22.58-7.39,33.89-1.47,9.69-3,19.72-5.84,29.28-8.35,28.04-28.93,52.63-55.06,65.79-26.13,13.15-58.15,15.03-85.64,5.03-5.36-1.95-10.87-4.37-16.19-6.72-17.72-7.8-36.04-15.86-52.97-8.56-15.96,6.89-23.21,25.33-23.31,40.55-.11,17.03,6.86,33.77,13.4,48.11,16.41,35.99,36.17,71.01,55.28,104.88,18.59,32.95,39.56,65.98,73.21,76.21,32.88,10,66.34-4.77,98.71-19.05,9.71-4.29,19.76-8.72,29.58-12.38,52.93-19.72,114.14-20.1,172.37-1.06,52.65,17.21,102.82,50.19,145.09,95.36l-1.74,1.63Z"/><path class="cls-3" d="M945.96,548c-34.24-43.95-82.65-76.44-136.3-91.47-53.65-15.03-111.88-12.42-163.98,7.34-9.27,3.52-18.51,7.63-27.44,11.61-12.49,5.56-25.4,11.32-38.67,15.56-26.91,8.6-51.38,8.9-70.77.88-18.86-7.8-33.37-23.3-46.22-38.89-39.79-48.24-70.91-102.45-92.49-161.15-6.19-16.84-10.33-31.12-10.41-46.1-.09-17.84,6.33-33.57,17.62-43.16,18.98-16.13,46.83-11.9,61.73-7.95,7.2,1.91,14.39,4.36,21.34,6.72,12.82,4.37,26.08,8.88,39.68,10.08,30.58,2.69,62.31-12.86,78.91-38.71,9.3-14.48,13.99-31.54,18.52-48.04,2.38-8.67,4.85-17.63,7.96-26.19,20.93-57.52,72.65-99.89,114.2-133.93l1.51,1.84c-41.33,33.86-92.76,76-113.47,132.9-3.08,8.46-5.53,17.38-7.9,26-4.58,16.67-9.32,33.9-18.81,48.69-17.06,26.58-49.67,42.57-81.12,39.79-13.89-1.22-27.29-5.79-40.24-10.2-6.91-2.35-14.06-4.79-21.18-6.68-14.46-3.84-41.43-7.97-59.58,7.46-10.75,9.13-16.86,24.19-16.78,41.33.07,14.63,4.16,28.69,10.26,45.29,21.48,58.44,52.47,112.43,92.09,160.45,12.66,15.35,26.92,30.6,45.3,38.21,18.87,7.8,42.77,7.48,69.14-.95,13.14-4.2,26-9.93,38.42-15.46,8.96-3.99,18.23-8.12,27.57-11.67,52.56-19.95,111.32-22.58,165.46-7.41,54.14,15.17,102.98,47.94,137.53,92.3l-1.88,1.46Z"/><path class="cls-3" d="M609.17,73.18c-.16,0-.32,0-.48-.02-1.33-.13-2.55-.85-3.42-2.02-1.09-1.47-1.53-3.5-1.16-5.29.62-2.99,2.87-5.29,4.51-6.98,1.62-1.66,3.45-3.54,3.98-5.77h-.03c.3-2.18,1.93-4.71,3.77-6.68,1.2-1.28,3.09-1.98,4.89-1.8,1.43.15,2.59.86,3.26,1.98,1.43,2.39.01,5.32-.59,6.57-2.51,5.19-5.33,10.3-8.37,15.19-1.31,2.11-3.37,4.84-6.36,4.84ZM614.84,53.95c-.75,2.72-2.74,4.76-4.51,6.58-1.87,1.91-3.44,3.66-3.89,5.79-.23,1.14.06,2.47.74,3.4.33.44.89.99,1.73,1.07,1.47.13,2.96-1.07,4.59-3.7,3-4.82,5.78-9.85,8.25-14.97.72-1.49,1.37-3.18.69-4.31-.36-.6-1-.79-1.47-.84-1.06-.11-2.2.32-2.9,1.06-1.34,1.44-2.96,3.39-3.3,5.87l.05.05Z"/><path class="cls-3" d="M311.17,600.95c-9.26,0-18.5-.39-27.77-1.17-34.23-2.88-63.2-12.17-86.11-27.61-15.63-10.53-28.94-24.31-41.81-37.64-6.01-6.22-12.22-12.65-18.58-18.66-26.69-25.21-59.02-45.54-93.5-58.79-5.32-2.05-9.04-6.61-9.94-12.21-.88-5.46,1.15-10.81,5.43-14.31,46.9-38.39,75.65-99.21,75.04-158.72v-.53c-.11-9.46-.22-20.17,9.56-25.61,2.95-1.64,6.52-2.45,10.23-2.32,8.44.27,15.52,4.28,22.37,8.16,1.1.62,2.2,1.24,3.3,1.85,53.69,29.51,126.84,19.09,170.16-24.24,3.74-3.74,10.7-10.7,18.02-5.26,2.5,1.85,4.18,4.9,4.61,8.35,13.66,109.4,76.54,211.16,168.22,272.21,4.52,3.01,7.8,6.98,9.49,11.49,5.23,13.92-6.05,22.15-16.47,27.77h0c-15.28,8.24-31.15,15.84-47.19,22.6-55.53,23.41-105.51,34.65-155.04,34.65ZM132.98,245.74c-3.07,0-5.94.7-8.34,2.04-8.54,4.75-8.44,14.29-8.34,23.51v.53c.63,60.22-28.46,121.75-75.91,160.58-3.61,2.96-5.33,7.48-4.59,12.09.76,4.75,3.92,8.62,8.44,10.36,34.77,13.36,67.37,33.86,94.28,59.28,6.4,6.05,12.63,12.5,18.66,18.74,12.79,13.24,26.01,26.92,41.43,37.32,22.57,15.21,51.16,24.36,84.98,27.21,58.42,4.9,116.15-5.67,181.69-33.3,15.96-6.73,31.77-14.3,46.98-22.5l.56,1.05-.56-1.05c10.16-5.48,19.93-12.71,15.38-24.84-1.52-4.04-4.49-7.61-8.59-10.34-92.24-61.42-155.52-163.81-169.26-273.89-.35-2.81-1.69-5.26-3.66-6.73-5.23-3.89-10.24.36-14.92,5.04-44.03,44.05-118.4,54.64-172.99,24.64-1.11-.61-2.22-1.24-3.32-1.86-6.6-3.74-13.42-7.6-21.27-7.85-.22,0-.44-.01-.66-.01Z"/><path class="cls-3" d="M309.26,595.54c-13.18,0-25.39-.86-36.76-2.56-25.3-3.8-53.21-17.35-85.33-41.42-26.32-19.73-49.76-43.51-72.43-66.5-18.55-18.82-36.67-39.28-36.93-64.21-.2-20.02,11.24-37.16,22.32-53.74,9.25-13.86,18.82-28.18,21.7-44.22.77-4.28,1.14-8.9,1.5-13.37.99-12.32,2.02-25.06,11.35-33.09,12.14-10.43,29.7-5.85,45.2-1.81l3.17.82c35.42,9.09,73.3,5.88,106.68-9.04,1.28-.57,2.58-1.16,3.88-1.76,12.55-5.72,26.77-12.22,39.84-6.9,14.73,5.99,19.97,23.59,24.19,37.73,18.32,61.44,51.95,117.89,97.26,163.25l2.28,2.27c16.96,16.93,36.18,36.11,34.69,60.22-.84,13.54-8.68,27.02-21.52,36.97-11.83,9.17-26.42,14.48-39.14,18.47-18.91,5.93-38.49,10.46-58.18,13.48-23.55,3.61-44.68,5.41-63.78,5.41ZM153.94,272.43c-6.58,0-12.71,1.5-17.7,5.79-8.59,7.38-9.53,19.08-10.53,31.47-.36,4.53-.74,9.21-1.53,13.6-2.97,16.53-12.68,31.06-22.07,45.12-11.37,17.03-22.11,33.11-21.92,52.4.25,24.05,18.04,44.09,36.25,62.57,22.61,22.93,45.99,46.65,72.16,66.27,31.79,23.83,59.35,37.23,84.25,40.97,27.62,4.15,60.27,3.22,99.83-2.84,19.58-3,39.03-7.51,57.83-13.39l.36,1.14-.36-1.14c13.14-4.12,26.89-9.16,38.39-18.08,12.3-9.54,19.81-22.38,20.6-35.24,1.42-23.04-17.4-41.82-34-58.39l-2.28-2.27c-45.59-45.64-79.43-102.43-97.86-164.25-4.07-13.65-9.13-30.64-22.8-36.21-12.12-4.93-25.26,1.06-37.96,6.86-1.31.6-2.61,1.19-3.9,1.77-33.87,15.13-72.31,18.39-108.24,9.17l-3.18-.83c-8.27-2.16-17.16-4.48-25.35-4.48Z"/><path class="cls-3" d="M316.3,585.69c-47.64,0-97.39-19.05-139.05-54.34-41.83-35.43-66.27-80.66-67.04-124.09-.5-27.97,8.3-54.57,16.97-76.91,4.53-11.67,10.28-24.76,21.24-32.39,12.07-8.41,27.35-8.49,42.13-8.57l3.99-.03c32.97-.33,65.42-6.14,96.46-17.25l1.28-.46c8.74-3.14,17.79-6.4,26.87-4.24,13.09,3.1,20.62,15.86,26.65,27.57,7.03,13.65,13.33,28.02,19.43,41.91,6.94,15.79,14.11,32.13,22.33,47.38,6.28,11.64,15.03,22.17,23.5,32.34,11.84,14.23,24.08,28.94,29.92,47.07h0c7.94,24.65,1.73,53.88-16.2,76.29-15.52,19.39-39.7,33.92-68.08,40.9-13.13,3.23-26.67,4.81-40.4,4.81ZM313.04,269.11c-6.64,0-13.4,2.43-19.98,4.79l-1.28.46c-31.29,11.2-64.01,17.05-97.24,17.38l-4,.03c-14.41.08-29.32.16-40.78,8.14-10.41,7.25-15.98,19.96-20.38,31.3-8.59,22.12-17.3,48.45-16.81,76,.76,42.74,24.89,87.32,66.2,122.31,52.29,44.29,120.25,63.07,177.34,49.03,27.88-6.86,51.6-21.09,66.79-40.07,17.44-21.8,23.5-50.18,15.8-74.08h0c-5.7-17.69-17.79-32.22-29.49-46.28-8.54-10.27-17.38-20.89-23.77-32.74-8.27-15.34-15.46-31.72-22.42-47.56-6.08-13.86-12.38-28.19-19.37-41.77-5.79-11.24-12.97-23.47-25.09-26.34-1.84-.43-3.69-.62-5.54-.62Z"/><path class="cls-3" d="M287.77,570.57c-5.49,0-11.01-.33-16.54-1-32.5-3.95-64.56-19.57-90.25-44.01-37.62-35.77-57.79-86.86-53.94-136.68,2.43-31.54,15.19-57.74,35-71.88,18.61-13.28,41.87-15.81,64.38-18.26,14.94-1.62,30.39-3.31,44.48-8.09,2.38-.81,4.76-1.71,7.15-2.61,8.86-3.36,18.02-6.83,27.53-5.56,11.8,1.56,21.21,10.22,27.26,16.6,13.61,14.34,21.28,30.47,29.4,47.55,3.34,7.03,6.8,14.29,10.69,21.39,2.75,5.01,5.65,10.02,8.45,14.85,13.07,22.58,25.42,43.9,27.1,70.9h0c2.07,33.32-13.66,67.7-41.06,89.71-21.87,17.57-50.21,27.08-79.63,27.08ZM301.51,284.59c-7.65,0-15.24,2.88-22.62,5.67-2.41.91-4.82,1.82-7.22,2.64-14.34,4.87-29.93,6.56-45,8.2-23.22,2.53-45.15,4.91-63.25,17.83-19.24,13.73-31.63,39.29-34.01,70.13-3.79,49.11,16.1,99.49,53.21,134.77,25.33,24.08,56.9,39.48,88.9,43.37,34.55,4.2,68.94-5.13,94.39-25.57,26.8-21.54,42.2-55.14,40.17-87.71h0c-1.64-26.44-13.86-47.53-26.79-69.86-2.81-4.85-5.71-9.86-8.48-14.9-3.93-7.16-7.4-14.45-10.75-21.51-8.04-16.91-15.63-32.87-28.97-46.94-5.8-6.11-14.79-14.41-25.84-15.88-1.25-.17-2.5-.24-3.75-.24Z"/><path class="cls-3" d="M257.83,551.51c-3.7,0-7.41-.2-11.15-.65-20.91-2.5-41.69-12.78-58.51-28.96-30.26-29.1-44.29-75.26-35.75-117.6,8.28-40.99,37.44-78.37,76.12-97.55,26.05-12.92,53.31-16.37,76.78-9.73,22.14,6.27,40.7,22.52,48.44,42.4,4.44,11.42,10.78,22.25,16.9,32.72,6.8,11.62,13.82,23.64,18.49,36.75h0c5.83,16.38,10.97,40.93,2.33,64.86-9.65,26.71-34.14,47.67-74.87,64.09-16.27,6.56-37.01,13.67-58.77,13.67ZM280.83,296.1c-16.61,0-34.18,4.32-51.24,12.78-38.03,18.86-66.7,55.61-74.84,95.89-8.39,41.56,5.37,86.87,35.06,115.41,16.45,15.82,36.74,25.87,57.15,28.31,25.19,3.01,49.98-5.29,68.76-12.86,40.06-16.16,64.11-36.66,73.51-62.7,8.41-23.27,3.37-47.24-2.33-63.25-4.6-12.9-11.57-24.82-18.31-36.34-6.17-10.55-12.55-21.46-17.06-33.06-7.47-19.2-25.43-34.91-46.87-40.98-7.59-2.15-15.59-3.21-23.83-3.21Z"/><path class="cls-3" d="M249.14,530.25c-1.37,0-2.73-.02-4.08-.07-33.95-1.12-64.55-18.42-77.95-44.1-11.15-21.36-11.18-49.61-.08-75.56,8.78-20.54,23.76-39.86,47.14-60.8,16.95-15.18,31.03-24.76,45.68-31.03,18.64-7.99,38.01-9.86,54.58-5.27,19.39,5.37,33.21,18.95,37.91,37.26,2.73,10.64,8.57,19.93,14.75,29.76,5.14,8.18,10.45,16.64,13.74,25.88,8.29,23.27,7.26,46.57-2.82,63.91-9.85,16.95-27.73,27.63-43.93,35.85-32.41,16.43-59.53,24.16-84.94,24.16ZM295.68,313.34c-11.3,0-23.24,2.54-34.89,7.54-14.4,6.17-28.29,15.61-45.03,30.62-23.11,20.71-37.9,39.76-46.54,59.97-10.82,25.3-10.82,52.79,0,73.52,13.01,24.92,42.8,41.73,75.91,42.82,26.19.85,54.1-6.72,87.87-23.84,15.88-8.06,33.41-18.5,42.95-34.92,9.73-16.74,10.69-39.31,2.64-61.92h0c-3.2-9-8.45-17.34-13.52-25.41-6-9.56-12.21-19.44-15.04-30.43-4.55-17.72-17.43-30.35-36.24-35.56-5.73-1.59-11.83-2.38-18.11-2.38Z"/><path class="cls-3" d="M257.09,523.01c-35.86,0-69.23-16.32-85.53-42.02-1.24-1.95-5.01-7.89-5.27-17.16h0c-.84-30.59,10.44-62.67,31.77-90.34,19.84-25.73,47.97-44.81,79.23-53.7,8.1-2.31,20.19-5.03,31.65-2.06,14.63,3.79,24.72,15.56,30.6,24.77,4.77,7.47,8.48,15.66,12.07,23.57,1.77,3.9,3.6,7.94,5.52,11.82,1.94,3.92,4.06,7.84,6.11,11.63,3.35,6.2,6.82,12.61,9.63,19.23,5.43,12.78,7.34,23.99,5.84,34.29-2.09,14.32-11.03,28.11-27.33,42.15-27.48,23.68-60.07,37.1-91.75,37.79-.85.02-1.71.03-2.56.03ZM298.13,318.8c-7.55,0-14.78,1.73-20.18,3.27-30.77,8.76-58.47,27.53-77.99,52.86-21,27.24-32.11,58.78-31.28,88.82h0c.24,8.62,3.62,13.94,4.89,15.95,16.26,25.62,50.03,41.67,86.03,40.89,31.13-.67,63.18-13.89,90.25-37.21,15.84-13.65,24.52-26.96,26.53-40.69,1.44-9.85-.42-20.65-5.68-33.02-2.77-6.52-6.21-12.88-9.54-19.03-2.06-3.81-4.19-7.75-6.15-11.7-1.95-3.92-3.78-7.98-5.56-11.9-3.55-7.84-7.22-15.94-11.9-23.27-5.66-8.85-15.31-20.16-29.2-23.75-3.38-.87-6.83-1.22-10.22-1.22Z"/><path class="cls-3" d="M251.35,516.04c-13.97,0-26.68-2.53-37.9-7.55-15.66-7.01-28.01-19.18-33.91-33.41-5.25-12.68-6.06-28.03-2.41-45.61,9.38-45.18,43.71-83.84,87.46-98.49,18.05-6.04,33.93-6.65,47.22-1.8,16.87,6.15,23.21,19.63,27.18,32.01,2.38,7.41,6.6,14.3,10.69,20.97,3.47,5.66,7.06,11.51,9.6,17.76h0c4.43,10.87,8.83,27.34,4.68,44.01-3.04,12.24-10.66,24.26-22.63,35.73-21.8,20.89-50.38,33.67-80.48,36.01-3.23.25-6.4.38-9.51.38ZM292.58,328.32c-8.35,0-17.46,1.64-27.23,4.91-42.96,14.39-76.68,52.35-85.89,96.72-3.55,17.11-2.78,31.98,2.28,44.22,5.66,13.67,17.57,25.39,32.68,32.15,13.35,5.97,28.93,8.33,46.25,6.97,29.55-2.3,57.61-14.85,79.02-35.36,11.64-11.15,19.03-22.79,21.96-34.59,3.99-16.05-.29-31.99-4.58-42.53h0c-2.47-6.08-6.01-11.84-9.43-17.42-4.16-6.78-8.46-13.8-10.93-21.48-5.38-16.76-13.07-25.88-25.73-30.5-5.65-2.06-11.8-3.09-18.42-3.09Z"/><path class="cls-3" d="M249.18,510.24c-13.38,0-27.31-2.73-39.36-10.76-22.13-14.77-32.52-45.61-25.24-75.01,7.55-30.51,30.45-52.89,48.34-66.29,15.54-11.64,29.84-18.44,43.72-20.77,17.74-2.99,34.91,1.71,45.91,12.55,6.72,6.62,10.86,15.09,14.86,23.29,1.03,2.11,2.06,4.22,3.13,6.3,1.74,3.38,3.98,6.59,6.14,9.7,2.84,4.1,5.79,8.33,7.73,13.07,8.02,19.62,4.25,44.64-9.62,63.75h0c-17.37,23.94-45.21,35.06-65.49,40.17-8.8,2.22-19.28,4.01-30.12,4.01ZM286.81,338.94c-3.23,0-6.5.27-9.77.82-13.49,2.27-27.45,8.92-42.68,20.33-17.58,13.17-40.08,35.13-47.46,64.96-7.04,28.44,2.94,58.23,24.25,72.45,21.08,14.06,48.38,11.26,67.57,6.43,19.91-5.01,47.2-15.89,64.15-39.26h0c13.39-18.46,17.06-42.58,9.34-61.46-1.84-4.5-4.7-8.62-7.48-12.61-2.2-3.17-4.48-6.45-6.3-9.96-1.08-2.09-2.12-4.21-3.16-6.34-3.91-8.01-7.96-16.3-14.39-22.63-8.3-8.17-20.79-12.72-34.08-12.72Z"/><path class="cls-3" d="M247.64,505.34c-7.3,0-14.99-1-22.26-3.93-15.25-6.16-27.54-20.98-32.08-38.68-5.03-19.63-.44-38.43,4.29-50.75,10.09-26.28,30.39-48.44,55.69-60.79,11.73-5.73,29.49-11.61,47.51-7.14,15.3,3.8,26.23,14.46,31.6,30.84,1.88,5.71,4.38,10.96,6.8,16.03,4.69,9.83,9.11,19.12,9.38,31.44h0c.37,17.11-5.68,34.48-16.59,47.66-13.59,16.41-34.83,27.52-63.15,33.02-5.93,1.15-13.33,2.31-21.19,2.31ZM287.58,344.85c-12.77,0-24.67,4.28-33.25,8.48-24.76,12.09-44.63,33.78-54.51,59.51-4.61,12-9.08,30.29-4.21,49.31,4.35,16.97,16.1,31.17,30.66,37.06,14.49,5.86,30.97,3.66,42.1,1.5,27.76-5.39,48.55-16.22,61.77-32.2,10.55-12.74,16.4-29.54,16.04-46.09h0c-.25-11.8-4.57-20.87-9.15-30.47-2.45-5.14-4.99-10.46-6.91-16.31-5.11-15.56-15.46-25.68-29.92-29.27-4.25-1.06-8.49-1.51-12.64-1.51Z"/><path class="cls-3" d="M250.5,498.83c-2.57,0-5.05-.13-7.47-.39-22.49-2.42-31.36-14.63-37.74-32.22-7.33-20.17-6.31-43.01,2.8-62.67h0c12.18-26.27,37.73-46.37,68.35-53.74,12.55-3.02,22.5-2.68,30.42,1.05,10.4,4.89,16.7,15.48,20.54,23.02,8.73,17.16,13.07,34.85,12.56,51.18-.6,18.81-7.82,36.45-19.82,48.39-10.4,10.35-25.2,17.62-45.25,22.23-9.23,2.13-17.16,3.16-24.39,3.16ZM210.25,404.55c-8.72,18.81-9.73,41.56-2.73,60.85,6.26,17.23,14.43,28.37,35.76,30.67,8.93.96,18.81.1,31.06-2.73,19.61-4.51,34.03-11.58,44.11-21.6,11.57-11.51,18.54-28.56,19.12-46.77.5-15.93-3.75-33.22-12.3-50.02-3.68-7.23-9.69-17.36-19.43-21.94-7.41-3.49-16.85-3.78-28.85-.89-29.93,7.21-54.88,26.81-66.75,52.43h0Z"/><path class="cls-3" d="M226.63,485.21c-.44,0-.87-.02-1.3-.05-3.85-.31-6.99-2.2-9.33-5.63-9.1-13.34-3.44-45.68-1.03-53.64h0c5.09-16.78,15.07-32.84,29.67-47.74,10.22-10.43,19.53-16.77,29.29-19.96,12.55-4.1,25.8-2.22,34.56,4.91,8.08,6.57,12.74,17.67,12.8,30.47.08,19.95-10.5,40.6-29.04,56.65-8.65,7.49-19.03,14.21-32.67,21.15-1.89.96-4.03,2.17-6.33,3.47-8.24,4.65-18.39,10.37-26.6,10.37ZM217.24,426.58c-3.02,9.97-7.24,39.95.71,51.61,1.94,2.84,4.41,4.35,7.56,4.6,7.71.62,18.15-5.29,26.55-10.02,2.34-1.32,4.51-2.54,6.42-3.52,13.46-6.85,23.69-13.46,32.19-20.82,18.01-15.59,28.3-35.58,28.22-54.84-.05-12.08-4.4-22.52-11.92-28.63-8.14-6.62-20.54-8.34-32.32-4.49-9.38,3.06-18.38,9.21-28.33,19.36-14.33,14.62-24.11,30.36-29.09,46.76h0Z"/><path class="cls-3" d="M227.48,468.39c-.46,0-.92-.04-1.37-.11-2.56-.44-4.54-2.1-5.89-4.94-3.19-6.7.81-18.5,3.46-26.31.45-1.32.86-2.53,1.18-3.57,6.91-22.04,18.73-42.52,34.19-59.22,4.14-4.47,9.76-9.53,16.58-9.11,5.66.36,11.05,4.99,13.09,11.26,1.56,4.78,1.49,10.29-.21,17.35-6.51,26.97-27.87,48.31-45.03,65.46-2.88,2.88-9.91,9.21-16,9.21ZM274.82,367.48c-5.54,0-10.38,4.45-14.02,8.38h0c-15.23,16.45-26.87,36.61-33.67,58.32-.33,1.06-.75,2.28-1.2,3.63-2.52,7.44-6.34,18.7-3.57,24.52,1.01,2.13,2.37,3.31,4.15,3.61,5.4.94,13.07-6.22,15.28-8.43,16.95-16.94,38.05-38.02,44.4-64.33,1.59-6.61,1.68-11.71.26-16.05-1.75-5.36-6.26-9.31-10.98-9.62-.22-.01-.44-.02-.66-.02Z"/><path class="cls-3" d="M1021.77,574.3c-65.73-74.28-154.41-130.36-249.7-157.9-53.64-15.5-98.16-17.93-136.12-7.42-10.72,2.97-21.38,7.11-31.68,11.11-18.4,7.15-37.43,14.53-57.46,15.51-34.82,1.68-71.76-16.92-98.82-49.8-23.73-28.83-37.99-64.26-51.68-101.08-7.7-20.69-13-47.97,5.42-60.46,14.58-9.88,33.04-2.32,49.34,4.35,2.52,1.03,5,2.05,7.44,2.99,52.78,20.39,119.99-4.5,146.75-54.37,7.8-14.54,12.53-30.75,17.1-46.43,3.71-12.72,7.54-25.87,13.01-38.17,20.66-46.47,62.95-78.9,100.26-107.52l1.45,1.89c-37.09,28.44-79.12,60.68-99.53,106.6-5.41,12.15-9.22,25.23-12.9,37.87-4.61,15.8-9.37,32.13-17.29,46.89-27.29,50.87-95.85,76.27-149.71,55.47-2.45-.94-4.95-1.97-7.48-3.01-16.51-6.76-33.59-13.75-47.11-4.58-17.14,11.62-11.92,37.77-4.53,57.66,13.62,36.62,27.79,71.85,51.29,100.4,26.59,32.3,62.76,50.61,96.87,48.93,19.64-.96,38.49-8.28,56.71-15.35,10.36-4.02,21.08-8.19,31.91-11.18,38.39-10.63,83.34-8.2,137.42,7.43,95.71,27.67,184.79,83.99,250.82,158.61l-1.78,1.58Z"/><path class="cls-3" d="M1063.73,543.23c-63.85-91.56-168.69-134.95-245.4-155.22-90.25-23.86-168.73-23.19-233.26,2-5.66,2.21-11.35,4.66-16.85,7.04-11.01,4.75-22.39,9.66-34.18,12.89-14.52,3.98-35.72,6.75-54.25-2.62-19.99-10.11-33.45-32.13-40-65.45-3.96-20.14-4.22-35.99-.82-49.89,4.39-17.95,15.58-32.51,29.94-38.95,11.27-5.05,23.81-5.11,35.94-5.17,7.12-.03,14.49-.07,21.51-1.12,29.63-4.42,56.91-27.11,81.08-67.45,10.69-17.85,20.15-36.81,29.3-55.15,9.46-18.96,19.25-38.57,30.42-57.02,26.36-43.51,57.03-72.61,91.15-86.49l.9,2.21c-33.64,13.68-63.93,42.45-90.02,85.52-11.12,18.36-20.89,37.92-30.33,56.85-9.17,18.38-18.65,37.38-29.39,55.31-24.55,40.98-52.4,64.06-82.77,68.59-7.19,1.07-14.64,1.11-21.84,1.14-12.43.06-24.17.12-34.98,4.96-13.69,6.14-24.38,20.1-28.6,37.34-3.31,13.55-3.05,29.08.84,48.87,6.41,32.56,19.44,54.02,38.74,63.79,17.86,9.03,38.43,6.32,52.55,2.44,11.63-3.19,22.93-8.06,33.87-12.78,5.52-2.38,11.23-4.85,16.93-7.07,65.01-25.37,143.99-26.08,234.74-2.08,77.09,20.38,182.48,64.02,246.74,156.16l-1.95,1.36Z"/><path class="cls-3" d="M973.58,453.79c-110.04-77.94-254.82-109.47-387.31-84.38-1.96.37-3.93.75-5.9,1.14-19.89,3.87-40.46,7.86-59.8,1.78-21.99-6.91-38.77-26.91-41.75-49.76-2.94-22.51,8.43-46.68,27.63-58.78,7.85-4.94,16.73-7.98,25.32-10.93,4.32-1.48,8.8-3.01,13.06-4.76,30-12.32,56.59-38.1,79-76.65,10.07-17.31,18.69-35.79,27.03-53.66,7.31-15.67,14.87-31.87,23.39-47.26,22.27-40.23,47.43-66.77,76.92-81.14l1.04,2.14c-29.04,14.15-53.86,40.37-75.88,80.15-8.48,15.32-16.02,31.48-23.32,47.11-8.36,17.92-17.01,36.45-27.13,53.85-22.69,39.01-49.66,65.13-80.16,77.65-4.33,1.78-8.83,3.32-13.19,4.81-8.46,2.9-17.21,5.9-24.82,10.69-18.45,11.62-29.36,34.83-26.54,56.46,2.82,21.61,19.31,41.26,40.11,47.8,18.77,5.9,39.04,1.96,58.64-1.85,1.98-.38,3.95-.77,5.92-1.14,65.76-12.46,135.98-11.31,203.08,3.3,67.1,14.62,131.44,42.79,186.05,81.47l-1.38,1.94Z"/><path class="cls-3" d="M951.26,434.31c-70.89-47.31-153.33-74.93-238.41-79.9-12.85-.75-25.97-.99-38.65-1.22-20.84-.38-42.39-.77-63.44-3.44-14.65-1.86-33.44-5.33-48.8-15.77-15.78-10.72-25.05-28.03-23.63-44.1,1.46-16.55,13.25-29.65,22.88-37.72,5.75-4.82,12.04-9.11,18.12-13.25,5.95-4.05,12.09-8.24,17.69-12.91,29.43-24.52,43.87-61.5,57.84-97.26,7.24-18.53,14.72-37.7,24.24-55.14,32.21-59.04,91.88-100.93,155.7-109.33l.31,2.36c-63.09,8.31-122.07,49.73-153.92,108.11-9.44,17.31-16.9,36.4-24.11,54.86-14.08,36.04-28.63,73.31-58.53,98.22-5.68,4.73-11.88,8.96-17.87,13.04-6.03,4.11-12.27,8.36-17.93,13.11-9.29,7.78-20.65,20.36-22.04,36.11-1.34,15.22,7.53,31.68,22.6,41.92,14.95,10.15,33.38,13.55,47.76,15.38,20.92,2.66,42.41,3.05,63.19,3.42,12.71.23,25.84.47,38.75,1.22,85.5,4.99,168.35,32.76,239.59,80.3l-1.32,1.98Z"/><path class="cls-3" d="M953.37,427.97c-71.11-51.1-159.24-81.46-254.86-87.82-3.12-.21-6.25-.39-9.39-.58-20.16-1.18-41-2.41-59.92-10.13-20.79-8.49-41.48-28.29-40.81-53.39.54-20.27,14.38-36.25,27.78-51.71,3.93-4.54,7.99-9.23,11.61-13.91,18.59-24.12,28.46-53.77,38-82.45,6.83-20.52,13.88-41.73,24.11-61.02,23.93-45.14,65.62-79.74,114.4-94.94l.71,2.27c-48.18,15.01-89.37,49.19-113.01,93.78-10.13,19.11-17.16,40.23-23.95,60.65-9.6,28.87-19.54,58.72-38.38,83.16-3.65,4.74-7.74,9.46-11.69,14.02-13.12,15.14-26.68,30.8-27.19,50.22-.64,23.96,19.3,42.94,39.33,51.13,18.55,7.57,39.19,8.79,59.16,9.96,3.14.18,6.28.37,9.4.58,96.06,6.39,184.62,36.91,256.09,88.26l-1.39,1.93Z"/><path class="cls-3" d="M952.5,423.91c-18.29-24.32-47-42.71-87.77-56.24-15.45-5.12-31.49-9.28-47-13.31-18.33-4.76-37.29-9.67-55.43-16.22-40.08-14.46-68.9-35.14-85.66-61.46-13.13-20.63-19.86-46.39-19.45-74.49.33-23.11,5.38-47.93,15.44-75.88,14.56-40.47,34.54-73.25,59.37-97.44,29.31-28.56,66.8-45.39,102.86-46.19l.05,2.38c-35.46.79-72.36,17.38-101.25,45.51-24.57,23.94-44.35,56.42-58.79,96.55-9.96,27.69-14.97,52.26-15.3,75.1-.4,27.64,6.2,52.94,19.08,73.18,16.47,25.87,44.89,46.23,84.46,60.5,18.03,6.5,36.93,11.41,55.21,16.15,15.55,4.04,31.64,8.21,47.16,13.35,41.25,13.68,70.34,32.35,88.92,57.07l-1.9,1.43Z"/><path class="cls-3" d="M951.83,414.56c-14.31-27.86-42.4-43.79-63.44-52.24-18.46-7.41-38.21-12.13-57.31-16.68-7.95-1.9-16.17-3.86-24.2-5.99-23.57-6.26-53.54-16.05-76.34-36.41-19.4-17.32-34-42.91-42.23-74-15.86-59.89-4.58-124.19,30.17-172.01,36.09-49.66,97.39-78.78,156.2-74.19l-.19,2.37c-57.98-4.53-118.47,24.2-154.09,73.21-34.33,47.24-45.47,110.79-29.79,170,8.11,30.64,22.47,55.83,41.51,72.84,22.42,20.03,52.05,29.7,75.36,35.89,8,2.12,16.21,4.08,24.14,5.98,19.18,4.58,39.02,9.31,57.65,16.79,21.42,8.6,50.02,24.84,64.67,53.36l-2.12,1.09Z"/><path class="cls-3" d="M947.82,402.43c-12.82-26.1-40.78-45.14-85.47-58.18-6.62-1.93-13.45-3.77-20.06-5.54-27.93-7.51-56.81-15.27-80.08-32.84-29.27-22.09-44.08-55.73-51.34-80.05-16.56-55.46-10.8-113.54,15.82-159.35,28.66-49.32,81.65-81.19,135.01-81.19h0v2.38c-52.53,0-104.71,31.4-132.95,80.01-26.29,45.24-31.97,102.64-15.6,157.47,7.16,23.98,21.74,57.13,50.49,78.83,22.91,17.29,51.56,24.99,79.27,32.44,6.62,1.78,13.46,3.62,20.11,5.56,45.37,13.24,73.82,32.68,86.94,59.42l-2.14,1.05Z"/><path class="cls-3" d="M950.21,394.95c-11.58-23.55-35.5-41.62-73.13-55.23-8.27-2.99-16.84-5.73-25.13-8.38-21.54-6.89-43.82-14.01-63.22-26.3-29.44-18.65-52.1-49.23-63.82-86.09-16.9-53.2-8.65-112.79,22.08-159.39,30.73-46.6,82.25-77.66,137.81-83.08l.23,2.37c-54.85,5.35-105.71,36.01-136.06,82.02-30.34,46.01-38.49,104.83-21.8,157.36,11.54,36.33,33.85,66.44,62.82,84.8,19.14,12.13,41.27,19.2,62.67,26.04,8.31,2.66,16.9,5.4,25.21,8.41,38.24,13.83,62.59,32.29,74.45,56.42l-2.14,1.05Z"/><path class="cls-3" d="M953.87,386.45c-11.41-19.55-30.91-35.38-61.37-49.83-8.16-3.87-16.64-7.48-24.83-10.98-16.3-6.95-33.15-14.13-48.42-23.73-59.1-37.16-91.28-111.94-78.26-181.85,12.76-68.48,67.37-127.08,135.92-145.82l.63,2.3c-67.68,18.5-121.61,76.36-134.21,143.96-12.84,68.97,18.89,142.74,77.19,179.4,15.11,9.5,31.87,16.65,48.08,23.55,8.22,3.5,16.72,7.12,24.92,11.01,30.91,14.67,50.74,30.81,62.4,50.78l-2.05,1.2Z"/><path class="cls-3" d="M959.3,374.52c-19.23-20.97-44.58-35.49-69.1-49.53-21.52-12.32-43.77-25.07-62.08-42.2-26.41-24.72-45.73-59.76-55.85-101.32-11.35-46.61-8.47-92.48,8.14-129.14,19.16-42.33,58.3-72.9,99.7-77.88l.28,2.36c-40.59,4.89-78.99,34.92-97.82,76.5-16.38,36.18-19.22,81.5-7.99,127.6,10.01,41.11,29.09,75.74,55.16,100.14,18.1,16.95,40.23,29.62,61.63,41.87,24.67,14.13,50.19,28.74,69.67,49.98l-1.75,1.61Z"/><path class="cls-3" d="M954.72,357.01c-17.44-14.54-37.5-26.46-56.91-38-27.19-16.16-55.32-32.88-76.49-57-35.28-40.2-49.96-102.18-39.26-165.8,5.95-35.4,18.11-64.57,36.15-86.7,21.49-26.36,52.16-42.22,82.05-42.42v2.38c-29.17.19-59.17,15.72-80.21,41.54-17.77,21.8-29.76,50.6-35.64,85.59-10.58,62.92,3.89,124.17,38.7,163.84,20.92,23.84,48.88,40.46,75.91,56.53,19.48,11.58,39.62,23.55,57.22,38.21l-1.52,1.83Z"/><path class="cls-3" d="M950.55,342.26c-14.12-13.17-31.32-22.9-47.94-32.32-11.02-6.24-22.43-12.7-32.92-20.13-56.1-39.74-87.65-112.22-78.51-180.35,9.14-68.14,58.68-129.74,123.27-153.28l.81,2.24c-63.78,23.25-112.7,84.08-121.73,151.36-9.03,67.28,22.13,138.85,77.52,178.1,10.39,7.36,21.74,13.79,32.71,20,16.75,9.49,34.07,19.29,48.39,32.65l-1.62,1.74Z"/><path class="cls-3" d="M952.1,333.02c-14.22-15.2-32.39-26.4-49.96-37.22-14.48-8.92-29.44-18.15-42.3-29.63-31.38-28.01-51.4-70.5-56.39-119.65-3.75-36.95,1.75-71.02,15.92-98.54,16.5-32.05,45.24-54.9,76.85-61.12,34.53-6.79,71.76,8.56,88.49,36.5l-2.04,1.22c-16.23-27.11-52.4-42-85.99-35.39-30.91,6.08-59.02,28.46-75.2,59.87-13.96,27.1-19.37,60.72-15.67,97.21,4.93,48.55,24.68,90.5,55.61,118.11,12.7,11.34,27.58,20.51,41.97,29.38,17.7,10.91,36,22.19,50.45,37.62l-1.74,1.63Z"/><path class="cls-3" d="M950.18,322.26c-12.19-13.09-27.01-23.8-41.34-34.16-10.52-7.6-21.4-15.47-31.23-24.25-46.27-41.33-70.15-105.24-62.32-166.78,3.68-28.95,14.03-53.07,29.92-69.74,19.01-19.94,47.38-28.64,70.61-21.67,15.07,4.52,28.53,15.46,36.94,30.02,7.72,13.38,11.3,29.99,10.07,46.77l-2.38-.17c1.19-16.31-2.27-32.44-9.76-45.41-8.11-14.04-21.07-24.58-35.56-28.93-22.39-6.72-49.81,1.73-68.21,21.04-19.63,20.59-26.76,48.56-29.28,68.4-7.73,60.78,15.85,123.89,61.55,164.71,9.74,8.7,20.57,16.53,31.04,24.1,14.42,10.43,29.34,21.21,41.69,34.47l-1.74,1.62Z"/><path class="cls-3" d="M948.32,306.79c-39.31-31.46-87.73-74.9-113.47-132.06-8.72-19.37-13.66-37.98-14.67-55.3-1.2-20.63,3.06-39.86,12.32-55.62,9.52-16.2,23.79-25.9,38.17-25.93h.09c11.4,0,23.15,5.91,34.92,17.58,20.56,20.36,35.05,49.24,41.91,83.5,6.29,31.42,5.77,63.78,4.27,94.06l-2.38-.12c1.49-30.13,2.02-62.31-4.23-93.48-6.77-33.8-21.03-62.25-41.25-82.28-11.31-11.21-22.5-16.89-33.25-16.89h-.08c-13.53.04-27.03,9.29-36.12,24.76-9.02,15.35-13.17,34.12-12,54.28.99,17.03,5.86,35.36,14.47,54.47,25.53,56.7,73.69,99.89,112.79,131.18l-1.49,1.86Z"/><path class="cls-3" d="M298.41,1319.38l-2.07-1.18c46.73-81.82,36.41-193.36-24.54-265.21-13.48-15.89-29.3-30.13-44.6-43.91-18.09-16.29-36.79-33.14-51.79-52.83-23.2-30.46-37.46-68.27-40.17-106.46-2.42-34.14,4.06-68.49,10.31-101.7l.2-1.08c5.94-31.53,12.67-67.26,9.58-102.2-3.35-37.86-19.01-70.61-42.96-89.85-28.24-22.68-68.72-24.89-94.16-5.13-22.23,17.27-29.18,44.58-36.53,73.49-5.18,20.36-10.54,41.41-21.72,58.82-13.64,21.23-35.04,35.66-55.75,49.63-8.43,5.69-17.14,11.56-25.2,17.81-37.1,28.77-67.49,71.76-87.88,124.32-19.58,50.46-28.36,104.25-34.37,150.22-4.11,31.48-8.02,67.97-2.26,102.68,6.25,37.67,23.49,68.74,48.53,87.5l-1.43,1.91c-25.53-19.13-43.09-50.74-49.45-89.01-5.82-35.03-1.89-71.73,2.25-103.38,6.02-46.11,14.84-100.08,34.51-150.78,20.55-52.96,51.2-96.3,88.64-125.34,8.12-6.29,16.87-12.2,25.33-17.9,20.5-13.83,41.7-28.12,55.07-48.94,10.98-17.08,16.29-37.94,21.42-58.12,7.13-28.03,14.51-57.01,37.38-74.78,26.28-20.42,68.03-18.2,97.11,5.15,24.46,19.64,40.44,52.99,43.84,91.49,3.12,35.27-3.64,71.17-9.61,102.85l-.2,1.08c-6.23,33.07-12.67,67.26-10.28,101.1,2.67,37.74,16.77,75.09,39.68,105.19,14.86,19.52,33.48,36.28,51.49,52.5,15.36,13.83,31.24,28.13,44.82,44.14,61.58,72.59,72.01,185.27,24.8,267.93Z"/><path class="cls-3" d="M395.24,1258.96l-2.28-.7c12.47-40.72,3.09-89.93-25.73-135.02-23.12-36.17-55.27-66.21-86.35-95.25-3.34-3.12-6.67-6.23-9.99-9.36-34.03-31.98-69.01-66.86-89.9-110.56-25.11-52.51-27.85-115.36-7.52-172.45,9.23-25.91,31.63-72.19,77.98-91.1,21.76-8.88,45.7-10.2,68.85-11.48,9.71-.53,19.74-1.09,29.47-2.19,68.38-7.77,129.94-43.45,189.48-77.97,12.66-7.34,25.74-14.92,38.64-22.09,96.71-53.73,175.33-68.93,240.38-46.49,52.32,18.05,97.57,61.91,127.45,123.5,26.6,54.86,38.21,115.48,49.44,174.1l-2.34.45c-11.2-58.47-22.78-118.94-49.24-173.51-29.59-61.02-74.37-104.45-126.08-122.29-64.38-22.21-142.38-7.05-238.45,46.32-12.88,7.16-25.96,14.74-38.6,22.07-59.75,34.63-121.53,70.45-190.4,78.27-9.79,1.11-19.87,1.67-29.6,2.2-22.95,1.27-46.69,2.58-68.09,11.3-33.23,13.56-61.16,46.25-76.64,89.69-20.12,56.49-17.41,118.68,7.43,170.62,20.72,43.33,55.52,78.02,89.39,109.85,3.32,3.12,6.65,6.23,9.99,9.35,31.19,29.15,63.45,59.29,86.73,95.71,29.21,45.68,38.68,95.62,26.01,137Z"/><path class="cls-3" d="M-32.87,571.81c-7.61,0-14.76-4.11-19.74-7.9-2.34-1.78-4.59-3.72-6.78-5.61-3.98-3.44-8.1-6.99-12.74-9.51-7.45-4.04-16.15-5.37-24.55-6.66-3.89-.6-7.91-1.21-11.8-2.09-12.31-2.77-26.24-10.45-28.39-23.68-2.24-13.75,9.21-25.03,16.23-30.54,17.8-13.96,41.49-22.49,68.51-24.67,25.63-2.08,51.32,1.63,73.06,5.52,14.69,2.63,31.68,6.03,47.39,13.12h0c14.95,6.75,42.73,24.33,40.91,42.53-.36,3.64-1.9,6.53-4.58,8.6-8.23,6.35-25.61,3.6-38.3,1.59-4.79-.76-9.02-1.45-11.43-1.39-23.29.18-46.29,9.52-63.12,25.62-.9.86-1.8,1.75-2.7,2.65-5.17,5.12-10.51,10.41-17.71,11.97-1.42.31-2.84.45-4.25.45ZM-36.89,462.96c-5,0-10.03.18-15.06.59-26.55,2.14-49.79,10.5-67.23,24.17-5.32,4.17-17.47,15.28-15.35,28.28,1.96,12.06,15.01,19.13,26.57,21.74,3.81.86,7.79,1.47,11.64,2.06,8.61,1.32,17.51,2.68,25.33,6.92,4.86,2.64,9.08,6.28,13.16,9.8,2.15,1.86,4.38,3.78,6.66,5.51,5.5,4.18,13.8,8.81,22.04,7.02,6.52-1.41,11.61-6.45,16.53-11.33.91-.9,1.82-1.8,2.73-2.68,17.26-16.52,40.86-26.1,64.75-26.28,2.72.02,6.93.65,11.82,1.42,12.27,1.94,29.07,4.6,36.48-1.12,2.17-1.67,3.37-3.95,3.67-6.95,1.74-17.48-27.94-34.89-39.53-40.12h0c-13.9-6.28-28.77-9.72-46.82-12.95-17.31-3.1-37.14-6.07-57.39-6.07Z"/><path class="cls-3" d="M179.52,685.9c-2.27,0-4.46-.49-6.38-1.48-4.61-2.38-7.76-7.61-8.42-13.99-.49-4.78.34-9.54,1.15-14.15l.33-1.89c2.18-12.82,2.47-23.78.9-33.5h0c-1.43-8.9-4.72-17.26-9.78-24.85-4.71-7.09-7.74-13.02-9.82-19.23-1.49-4.45-1.66-9.98,2.32-12.15,3.16-1.72,7.13-.38,11.18,3.77,2.7,2.76,5.28,5.76,7.78,8.66,6.37,7.38,12.95,15.02,21.71,19.07,6.58,3.04,14.07,3.88,21.31,4.7,1.52.17,3.05.34,4.56.53,8.12,1.02,18.35,3.05,25.37,9.69,2.18,2.06,4.96,5.46,5.8,9.96.79,4.22-.45,8.51-3.22,11.21-2.32,2.25-5.37,3.22-8.32,4.15-.79.25-1.57.5-2.33.77-6.56,2.33-12.9,7.04-18.84,13.99-3.84,4.5-7.22,9.54-10.49,14.4-1.19,1.78-2.39,3.55-3.6,5.31-2.9,4.18-6.39,8.9-11.18,11.96-3.19,2.04-6.7,3.08-10.02,3.08ZM169.44,620.51c1.61,9.99,1.32,21.2-.9,34.29l-.33,1.91c-.78,4.44-1.58,9.04-1.12,13.49.44,4.31,2.55,9.75,7.14,12.12,3.93,2.03,9.44,1.45,14.03-1.49,4.42-2.82,7.74-7.32,10.51-11.31,1.21-1.75,2.4-3.51,3.58-5.28,3.31-4.92,6.72-10.01,10.66-14.62,6.21-7.28,12.89-12.23,19.85-14.7.79-.28,1.6-.53,2.41-.79,2.81-.89,5.46-1.72,7.37-3.58,2.22-2.15,3.19-5.62,2.55-9.06-.73-3.87-3.18-6.85-5.1-8.67-6.48-6.12-15.79-8.01-24.03-9.05-1.5-.19-3.02-.36-4.53-.53-7.43-.84-15.11-1.7-22.04-4.9-9.23-4.26-15.99-12.1-22.52-19.67-2.48-2.87-5.04-5.84-7.68-8.56-1.51-1.55-5.36-4.97-8.33-3.35-3.48,1.9-1.61,8.09-1.2,9.31,2.01,6,4.96,11.76,9.55,18.67,5.24,7.88,8.66,16.56,10.14,25.79h0Z"/><path class="cls-3" d="M-38.34,547.5c-1.42,0-2.86-.16-4.3-.54-5.18-1.35-9.08-5.08-12.85-8.67-1.27-1.22-2.59-2.47-3.92-3.59-4.32-3.66-9.46-6.43-14.42-9.11-1.39-.75-2.77-1.5-4.14-2.26-6.08-3.4-12.88-7.77-17.2-14.34-3.9-5.94-5.82-15.07-1.32-22.09,3.2-5,8.88-7.7,13.47-9.51,28.42-11.16,60.46-7.82,88.26-3.8,14.2,2.05,29.23,4.5,43.29,9.89h0c11.59,4.44,21.19,10.35,28.54,17.59,2.64,2.6,8.13,8,4.75,13.93-2.68,4.71-8.37,6.1-13.59,6.84-8.58,1.22-17.36,1.55-25.85,1.87-5.19.2-10.55.4-15.8.8-16.92,1.3-29.4,4.72-39.27,10.76-1.88,1.15-3.74,2.45-5.54,3.7-2.56,1.79-5.21,3.63-8.04,5.15-3.13,1.67-7.47,3.4-12.09,3.4ZM-37.96,472.17c-15.01,0-30.08,1.89-44.18,7.42-4.25,1.67-9.5,4.16-12.34,8.58-3.93,6.12-2.17,14.21,1.3,19.5,4.04,6.14,10.54,10.31,16.37,13.57,1.36.76,2.74,1.5,4.11,2.25,5.08,2.74,10.32,5.57,14.83,9.39,1.38,1.17,2.72,2.45,4.02,3.69,3.71,3.54,7.22,6.89,11.8,8.09,5.38,1.41,10.95-.67,14.66-2.66,2.7-1.45,5.29-3.25,7.8-5,1.83-1.27,3.71-2.59,5.66-3.78,13.41-8.2,29.44-10.26,40.33-11.1,5.29-.41,10.68-.61,15.89-.81,8.43-.32,17.15-.65,25.61-1.85,4.65-.66,9.69-1.84,11.86-5.66,2.17-3.82-.81-7.57-4.35-11.05-7.11-7-16.44-12.74-27.72-17.06h0c-13.83-5.3-28.72-7.72-42.78-9.76-13.59-1.96-28.21-3.77-42.88-3.77Z"/><path class="cls-3" d="M-21.38,530.58c-7.36,0-14.7-.81-21.87-1.61-5.49-.61-11.18-1.24-16.54-3.18-6.08-2.19-10.87-5.92-13.47-10.5-5.43-9.54-1.06-21.73,5.81-28.34,6.2-5.97,14.9-9.73,27.4-11.83,24.2-4.06,48.51-1.13,77.57,4.51l-.06.32c7.5,1.7,13.11,4.46,17.11,8.43,5.57,5.52,7.52,13.7,4.74,19.89-2.13,4.75-7.05,8.52-13.48,10.33-3.81,1.07-7.77,1.45-11.59,1.82-1.64.16-3.27.32-4.9.53-6.74.87-13.47,2.7-19.97,4.47-7.06,1.92-14.36,3.9-21.79,4.71-2.98.32-5.97.46-8.95.46ZM-16.47,475.61c-7.85,0-15.53.57-23.19,1.86-12,2.01-20.3,5.57-26.14,11.19-6.22,6-10.23,16.95-5.39,25.46,2.32,4.08,6.66,7.44,12.21,9.44,5.1,1.84,10.64,2.45,15.99,3.05,9.94,1.11,20.22,2.24,30.3,1.15,7.24-.78,14.45-2.74,21.43-4.64,6.58-1.79,13.39-3.64,20.29-4.53,1.65-.21,3.31-.37,4.97-.53,3.72-.36,7.57-.73,11.18-1.74,5.75-1.62,10.11-4.9,11.95-9.01,2.38-5.3.63-12.39-4.25-17.22-3.95-3.91-9.68-6.57-17.55-8.13-2.83-.56-5.76-.97-8.59-1.36-3.78-.53-7.69-1.07-11.49-2l.09-.38c-11.12-1.63-21.62-2.6-31.82-2.6Z"/><path class="cls-3" d="M-22.59,521.89c-7.88,0-16-1-24.17-3.01-3.31-.82-6.78-1.85-9.71-3.88-3.35-2.32-5.46-5.75-5.65-9.17-.36-6.37,5.27-11.03,10.05-13.81,18.6-10.83,41.09-12.36,58.6-12.48,4.35-.02,8.59.07,12.52,1.58,4.68,1.8,8.22,5.35,9.71,9.72,1.37,4,.85,8.29-1.44,12.09-2.84,4.69-7.71,7.7-11.12,9.56-11.45,6.23-24.74,9.41-38.79,9.41ZM7.63,481.91c-.36,0-.72,0-1.08,0-17.22.12-39.31,1.61-57.42,12.16-4.21,2.45-9.16,6.46-8.87,11.62.15,2.7,1.89,5.45,4.63,7.35,2.61,1.8,5.83,2.76,8.92,3.52,21.83,5.39,44.15,3.14,61.25-6.17,5.11-2.78,8.27-5.47,10.23-8.71h0c1.93-3.18,2.36-6.76,1.23-10.09-1.27-3.71-4.3-6.72-8.32-8.27-3.23-1.25-6.83-1.43-10.56-1.43Z"/><path class="cls-3" d="M-13.53,514.91c-1.63,0-3.25-.11-4.87-.35-3.78-.55-6.65-1.67-8.78-3.45-2.81-2.35-4.17-6-3.37-9.1,1.01-3.92,4.74-6.09,8.26-7.7,7.67-3.5,15.73-6.22,23.97-8.06,2.84-.64,11.49-2.58,14.62,2.91,2.73,4.78-.31,10.75-4.07,14.73h0c-6.61,7.01-16.15,11.02-25.75,11.02ZM8.26,487.79c-1.69,0-3.7.26-6.06.79-8.07,1.81-15.98,4.47-23.5,7.91-3.01,1.37-6.18,3.17-6.94,6.12-.66,2.57.83,5.21,2.59,6.68,1.78,1.48,4.26,2.44,7.59,2.92,10.41,1.5,21.34-2.3,28.55-9.95h0c3.03-3.21,5.83-8.26,3.74-11.92-.98-1.71-2.95-2.56-5.97-2.56Z"/><path class="cls-3" d="M265.65,1312.22l-2.05-1.2c43.03-73.81,55.82-131.7,40.23-182.16-13.45-43.53-47.58-76.1-80.58-107.6-18.37-17.53-37.37-35.66-52.91-55.66-40.35-51.92-58.59-119.09-50.04-184.29,1.43-10.88,3.61-21.81,5.71-32.37,2.31-11.57,4.7-23.54,6.08-35.43,3.18-27.21.25-48.96-8.96-66.5-11.27-21.46-33.62-34.99-54.34-32.95-18.61,1.85-33.5,14.92-42.7,25.56-6.33,7.31-11.91,15.46-17.3,23.35-4.22,6.16-8.57,12.52-13.28,18.49-20.63,26.13-48.55,45.41-75.54,64.06-20.8,14.37-42.3,29.22-60.4,47.13-61.94,61.33-80.64,152.63-93.3,233.4-5,31.92-9.14,63.08-4.83,93.39,4.87,34.3,20.98,63.12,44.19,79.07l-1.35,1.96c-23.76-16.33-40.24-45.74-45.2-80.7-4.35-30.63-.2-61.98,4.84-94.09,12.72-81.14,31.52-172.89,93.98-234.73,18.24-18.06,39.83-32.97,60.72-47.4,26.85-18.55,54.62-37.73,75.02-63.57,4.66-5.9,9-12.24,13.19-18.36,5.43-7.93,11.05-16.14,17.47-23.56,9.49-10.97,24.87-24.44,44.26-26.37,21.64-2.14,44.97,11.91,56.68,34.21,9.44,17.98,12.46,40.18,9.22,67.89-1.4,11.99-3.8,24-6.12,35.62-2.1,10.53-4.27,21.42-5.69,32.22-8.47,64.57,9.6,131.1,49.56,182.52,15.44,19.86,34.37,37.93,52.68,55.4,33.22,31.71,67.58,64.5,81.21,108.62,15.8,51.14,2.95,109.63-40.45,184.06Z"/><path class="cls-3" d="M201.54,1329l-1.76-1.6c25.23-27.81,51.32-56.57,69.52-90.16,20.19-37.27,27.12-76.12,19.51-109.38-6.72-29.38-24.79-57.83-56.86-89.51-8.38-8.28-17.22-16.4-25.78-24.25-17.63-16.19-35.86-32.93-51.04-51.97-25.52-32.01-42.33-70.31-48.63-110.76-.98-6.31-1.74-12.82-2.47-19.12-2.33-20.06-4.73-40.81-14.84-58.23-12.81-22.08-38.68-37.79-67.51-40.99-24.8-2.75-51.61,2.7-79.67,16.22-53.34,25.7-98.23,74.23-126.42,136.65-23.08,51.11-35.71,111.69-38.63,185.2-.87,22.04-.88,45.48,4.93,67.51,6.36,24.11,19.3,43.63,36.45,54.96l-1.31,1.98c-17.64-11.65-30.93-31.65-37.44-56.33-5.89-22.34-5.88-45.98-5-68.21,2.93-73.82,15.63-134.69,38.84-186.09,28.41-62.93,73.71-111.88,127.55-137.81,28.47-13.72,55.7-19.25,80.96-16.44,29.57,3.28,56.12,19.43,69.3,42.16,10.35,17.85,12.79,38.85,15.14,59.15.73,6.27,1.48,12.76,2.45,19.03,6.23,40.05,22.87,77.96,48.13,109.65,15.07,18.9,33.23,35.57,50.8,51.7,8.57,7.87,17.43,16.01,25.84,24.31,32.41,32.01,50.68,60.82,57.51,90.67,7.74,33.83.73,73.27-19.74,111.05-18.33,33.85-44.52,62.71-69.85,90.63Z"/><path class="cls-3" d="M87.68,1379.48l-1.44-1.9c48.42-36.66,103.29-78.21,137.12-133.8,37.36-61.4,40.71-132.68,8.53-181.61-11.61-17.65-27.57-32.25-43-46.37-10.85-9.92-22.06-20.18-31.78-31.48-20.76-24.15-34.97-53.32-48.72-81.52-6.03-12.37-12.26-25.17-18.96-37.36-27.61-50.25-60.64-79.77-98.15-87.73-39.71-8.43-86.28,9.8-118.62,46.45-29.96,33.94-45.94,77.54-58.74,119.6-11.64,38.23-23.5,83.59-23.25,130.17.26,48.37,14.47,92.2,39.99,123.43l-1.84,1.51c-25.87-31.65-40.26-76.01-40.53-124.92-.26-46.89,11.66-92.47,23.35-130.87,12.88-42.32,28.98-86.2,59.23-120.48,32.9-37.27,80.35-55.81,120.9-47.2,38.22,8.11,71.77,38.03,99.74,88.91,6.73,12.24,12.97,25.06,19.01,37.46,13.68,28.07,27.82,57.1,48.38,81.02,9.63,11.2,20.79,21.41,31.58,31.28,15.54,14.22,31.61,28.91,43.38,46.81,32.68,49.69,29.34,121.97-8.49,184.15-34.06,55.98-89.13,97.67-137.72,134.46Z"/><path class="cls-3" d="M96.16,1346.46l-1.52-1.83c49.28-40.78,82.85-81.17,102.64-123.48,24.58-52.56,27.1-110.99,6.75-156.32-10.21-22.74-26.06-42.79-41.37-62.18-3.75-4.74-7.49-9.48-11.16-14.26-8.07-10.51-15.94-21.46-23.55-32.06-17.14-23.85-34.86-48.5-55.87-69.58-34.97-35.07-74.93-54.15-112.78-53.64-36.49.46-74.59,19.89-101.92,51.97-22.75,26.71-39.06,61.45-49.85,106.2-9.54,39.57-12.02,74.64-7.56,107.21,5.17,37.83,20.6,72.22,43.45,96.84l-1.75,1.62c-23.17-24.97-38.82-59.83-44.06-98.13-4.49-32.86-2.01-68.22,7.61-108.09,10.88-45.12,27.35-80.18,50.35-107.18,27.77-32.6,66.54-52.34,103.7-52.81,38.44-.58,79.07,18.81,114.49,54.34,21.15,21.21,38.92,45.95,56.11,69.87,7.6,10.58,15.46,21.52,23.51,32,3.66,4.77,7.4,9.5,11.14,14.24,15.41,19.5,31.35,39.67,41.68,62.68,20.64,45.95,18.11,105.13-6.76,158.31-19.94,42.63-53.72,83.29-103.28,124.3Z"/><path class="cls-3" d="M102.8,1306.42l-1.67-1.7c23.09-22.77,46.98-46.32,66.04-73.21,21.43-30.23,33.63-60.56,36.27-90.15,4.68-52.35-20.76-100.07-42.92-130.88-40.5-56.31-94.78-93.79-152.86-105.53-65.25-13.2-133.82,9.93-170.63,57.56-25.79,33.37-37.06,79.98-30.16,124.7,6.41,41.55,27.91,82.37,60.52,114.94l-1.68,1.68c-32.97-32.92-54.7-74.21-61.19-116.26-7-45.35,4.45-92.65,30.63-126.52,37.36-48.33,106.88-71.82,172.99-58.44,58.66,11.87,113.47,49.68,154.32,106.47,22.4,31.14,48.1,79.41,43.36,132.49-2.68,30.02-15.03,60.74-36.7,91.32-19.19,27.07-43.15,50.69-66.32,73.53Z"/><path class="cls-3" d="M63.3,1308.42l-1.63-1.74c32.44-30.39,65.98-61.81,90.58-99.76,27.33-42.17,38.95-87.42,32.72-127.41-4.69-30.11-19.71-60.08-43.45-86.67-48.86-54.74-126.67-82.9-198.23-71.71-44,6.87-80.11,28-99.06,57.97-15.66,24.76-21.51,57.43-17.4,97.1,3.31,31.93,15.82,90.82,62.52,126.49l-1.45,1.89c-47.4-36.22-60.1-95.83-63.44-128.14-4.16-40.22,1.81-73.39,17.76-98.62,19.32-30.55,56.02-52.07,100.7-59.05,72.34-11.29,150.99,17.16,200.38,72.48,24.04,26.94,39.27,57.33,44.03,87.89,6.32,40.57-5.43,86.4-33.07,129.07-24.75,38.2-58.4,69.72-90.95,100.21Z"/><path class="cls-3" d="M14.96,1328.52l-1.58-1.78c49.36-43.92,90.73-95.43,122.96-153.12,14.42-25.81,30.75-59.98,28.96-95.32-1.39-27.43-13.68-55.09-34.62-77.88-18-19.59-42.24-35.73-72.06-47.95-33.46-13.72-65.57-19.18-95.44-16.24-34.28,3.38-65.4,18.65-85.39,41.89-24.14,28.08-33.84,69.9-25.94,111.86,6.48,34.39,24.38,69.83,53.21,105.35l-1.85,1.5c-29.09-35.82-47.15-71.62-53.71-106.41-8.04-42.66,1.86-85.23,26.47-113.86,20.38-23.7,52.07-39.27,86.96-42.71,30.25-2.98,62.75,2.54,96.58,16.41,30.14,12.36,54.67,28.69,72.91,48.55,21.31,23.2,33.82,51.39,35.24,79.37,1.82,35.95-14.68,70.51-29.26,96.6-32.36,57.91-73.89,109.64-123.45,153.74Z"/><path class="cls-3" d="M-27.59,1325.07l-1.45-1.88c34.93-26.99,71.04-54.89,101.67-87.7,34.34-36.79,57.11-75.2,67.68-114.17,6.06-22.34,12.94-65.23-9.1-101.43-16.13-26.49-43.31-41.46-63.26-49.36-30.25-11.96-61.12-15.19-89.3-9.34-31.15,6.47-58.01,24.28-73.68,48.86-16.91,26.53-21.71,61.95-13.52,99.73,7.24,33.37,23.05,64.19,40,95.44l-2.09,1.13c-17.04-31.41-32.94-62.39-40.24-96.07-8.32-38.4-3.41-74.45,13.84-101.51,16.01-25.12,43.42-43.31,75.2-49.91,28.63-5.95,59.98-2.68,90.65,9.46,20.3,8.03,47.94,23.27,64.42,50.33,22.5,36.95,15.52,80.57,9.36,103.28-10.67,39.34-33.63,78.09-68.24,115.16-30.76,32.96-66.96,60.92-101.96,87.96Z"/><path class="cls-3" d="M-27.19,1287.87l-1.31-1.99c57.51-37.84,104.6-90.19,136.18-151.37,18.19-35.24,24.38-63.4,19.49-88.63-6.81-35.13-38.66-64.78-75.74-70.48-35.42-5.46-73.9,9.97-98.02,39.29-22.57,27.44-32.51,66.36-26.58,104.1,5.48,34.89,23.97,68.88,52.07,95.72l-1.64,1.72c-28.48-27.19-47.22-61.67-52.78-97.07-6.03-38.4,4.1-78.02,27.1-105.98,24.64-29.96,63.97-45.72,100.22-40.14,38.03,5.86,70.72,36.3,77.71,72.38,5,25.78-1.26,54.44-19.71,90.18-31.77,61.54-79.14,114.19-136.99,152.26Z"/><path class="cls-3" d="M-9.35,1247.14l-1.46-1.88c52.95-41.17,93.12-99.1,113.1-163.13,5.29-16.94,10.94-41.61-.95-60.27-9.16-14.38-28.24-22.4-47.43-19.95-20.68,2.63-37.12,15.48-47.27,25.79-22.32,22.68-35.55,53.93-36.32,85.74-.77,31.81,10.95,63.66,32.15,87.39l-1.78,1.59c-21.6-24.18-33.54-56.62-32.76-89.03.78-32.41,14.27-64.25,37-87.35,10.41-10.58,27.31-23.76,48.66-26.48,20.11-2.54,40.1,5.9,49.74,21.04,12.42,19.5,6.64,44.87,1.21,62.26-20.12,64.48-60.57,122.83-113.91,164.3Z"/><path class="cls-3" d="M-7.97,1236.35l-1.74-1.63c21.78-23.27,44.31-47.33,61.89-74.57,19.76-30.62,30.29-60.95,31.31-90.17.25-7.18-.46-24.44-12.4-29.7-13.48-5.94-27.62,8.79-31.63,13.44-32.84,38.14-42.96,93.36-25.78,140.67l-2.24.81c-17.47-48.11-7.18-104.26,26.21-143.04,4.28-4.97,19.41-20.67,34.4-14.06,13.27,5.85,14.09,24.3,13.82,31.96-1.03,29.65-11.69,60.4-31.69,91.38-17.69,27.42-40.3,51.56-62.16,74.91Z"/><path class="cls-3" d="M418.67,1221.15l-2.3-.61c9.84-36.85-2.22-81.34-33.07-122.06-15.74-20.77-34.7-39.38-53.05-57.37-12.59-12.35-25.6-25.11-37.5-38.51-30.92-34.79-69.02-90.92-74.96-160.8-5.45-64.2,19.7-125.7,65.63-160.48,28.21-21.36,62.75-32.05,96.15-42.39,14.77-4.57,30.05-9.3,44.57-14.88,39.12-15.05,75.54-37.47,110.76-59.15,14.2-8.74,28.89-17.78,43.56-26.23,40.87-23.52,102.63-54.4,167.34-51.17,57.64,2.88,114.51,32.58,156.02,81.46,36.03,42.43,60.58,99.04,70.98,163.73l-2.35.38c-10.33-64.26-34.69-120.47-70.45-162.56-41.1-48.39-97.35-77.77-154.33-80.62-64.04-3.22-125.43,27.49-166.04,50.86-14.64,8.42-29.31,17.46-43.5,26.19-35.31,21.74-71.83,44.22-111.15,59.35-14.6,5.62-29.91,10.35-44.72,14.94-33.21,10.28-67.54,20.9-95.42,42.01-44.6,33.78-70,95.94-64.69,158.38,5.88,69.23,43.69,124.91,74.37,159.42,11.85,13.33,24.84,26.07,37.39,38.39,18.4,18.06,37.43,36.72,53.28,57.63,31.3,41.31,43.5,86.54,33.48,124.11Z"/><path class="cls-3" d="M440.84,1208.06l-1.96-1.35c30-43.37,10.36-102.58-15.58-140.1-12.63-18.28-27.77-35.21-42.41-51.59-18.58-20.78-37.78-42.27-52.08-66.74-38.56-66-37.36-153.97,2.99-218.89,23.22-37.36,59.23-69.78,110.09-99.12,27.58-15.91,56.93-29.55,85.31-42.73,15.97-7.42,32.48-15.09,48.48-23.08,6.93-3.46,13.86-7.01,20.8-10.58,41.34-21.21,84.08-43.13,130.64-46.17,67.51-4.41,138.99,34.45,182.12,98.99,35.61,53.29,54.15,122.69,55.1,206.27l-2.38.03c-.95-83.11-19.35-152.07-54.7-204.98-42.66-63.85-113.3-102.28-179.98-97.93-46.06,3.01-88.58,24.82-129.7,45.92-6.95,3.57-13.89,7.13-20.83,10.59-16.04,8-32.56,15.68-48.55,23.11-28.34,13.16-57.64,26.78-85.13,42.64-50.51,29.14-86.25,61.3-109.26,98.32-39.9,64.19-41.09,151.17-2.96,216.44,14.18,24.26,33.3,45.66,51.8,66.35,14.69,16.43,29.87,33.42,42.59,51.82,26.36,38.15,46.26,98.44,15.58,142.81Z"/><path class="cls-3" d="M467.4,1209.64l-1.8-1.56c33.8-38.96,29.42-96,14.05-136.39-13.2-34.7-35.11-65.77-56.3-95.82-6.36-9.01-12.93-18.34-19.17-27.62-23.87-35.51-51.08-82.93-49.54-134.85,1.29-43.33,22.14-78.95,39.42-101.19,19.3-24.85,45.3-48.02,81.82-72.91,59.13-40.3,123.78-71.44,192.14-92.56,35.6-11,81.93-21.98,124.72-9.2,35.51,10.61,68.25,37.31,97.3,79.36,59.44,86.03,80.42,198.11,56.13,299.82l-2.32-.55c24.14-101.06,3.29-212.43-55.77-297.91-28.74-41.59-61.04-67.98-96.02-78.43-42.16-12.6-88.06-1.7-123.34,9.19-68.14,21.05-132.57,52.09-191.51,92.26-36.31,24.75-62.14,47.75-81.28,72.41-17.05,21.96-37.65,57.11-38.92,99.8-1.52,51.25,25.46,98.24,49.13,133.45,6.22,9.26,12.79,18.57,19.14,27.57,21.27,30.17,43.27,61.37,56.58,96.35,15.61,41.04,20.01,99.05-14.48,138.8Z"/><path class="cls-3" d="M569.21,1271.72c-24.17-10.86-41.82-37.6-48.41-73.36-2.65-14.38-3.65-29.2-4.62-43.54-1.03-15.24-2.1-31-5.15-46.17-9.64-47.93-38.55-89.51-66.51-129.72-2.91-4.19-5.82-8.37-8.7-12.55-31.4-45.57-60.38-95.18-59.81-149.13.84-79.32,64.24-138.38,101.96-166.52,55.07-41.09,119.89-69.42,187.45-81.92,58.42-10.81,108.16-6.79,147.83,11.97,59.09,27.94,93.41,87.07,111.81,131.75,13.46,32.71,23.02,67.36,32.26,100.88,6.11,22.16,12.43,45.07,19.82,67.2l-2.26.75c-7.41-22.19-13.73-45.13-19.85-67.32-9.22-33.45-18.76-68.03-32.17-100.61-18.23-44.29-52.23-102.89-110.63-130.51-39.2-18.54-88.45-22.5-146.38-11.78-67.2,12.44-131.68,40.61-186.46,81.49-37.37,27.88-100.18,86.34-101,164.64-.56,53.29,28.21,102.51,59.39,147.76,2.88,4.17,5.78,8.35,8.69,12.54,28.1,40.41,57.15,82.19,66.89,130.6,3.08,15.32,4.15,31.16,5.19,46.48.96,14.27,1.96,29.02,4.59,43.27,6.45,34.99,23.59,61.09,47.04,71.62l-.98,2.17Z"/><path class="cls-3" d="M670.19,1176.27c-36.86,0-62.47-8.28-78.28-25.32-18.1-19.5-23.32-49.98-15.53-90.6,1.26-6.6,2.75-13.32,4.2-19.82,5.31-23.97,10.8-48.76,6.35-72.87-7.4-40-41.02-70.93-68.03-95.78-30.61-28.16-60.95-58.95-66.42-98.42-4.93-35.59,13-75.18,45.68-100.86,26.62-20.92,61.59-33.76,106.91-39.27,64.91-7.89,120.59,5.02,156.8,36.33,31.7,27.4,48.06,67.24,63.89,105.77,13.5,32.87,27.46,66.87,50.91,93.32,23.16,26.13,56.04,45.71,97.73,58.17,37.03,11.08,76.09,15.22,113.87,19.22l-.25,2.37c-37.88-4.02-77.06-8.17-114.3-19.31-42.11-12.6-75.36-32.41-98.82-58.87-23.71-26.76-37.75-60.94-51.33-94-15.72-38.27-31.97-77.84-63.24-104.88-35.7-30.86-90.74-43.56-154.96-35.77-44.87,5.45-79.45,18.13-105.73,38.78-32.03,25.17-49.62,63.9-44.8,98.66,5.36,38.68,35.38,69.12,65.68,96.99,27.28,25.09,61.22,56.32,68.76,97.1,4.55,24.58-1,49.61-6.36,73.82-1.44,6.48-2.92,13.19-4.18,19.75-7.64,39.84-2.61,69.62,14.94,88.54,15.34,16.52,40.37,24.56,76.54,24.56h.34c118.01-.17,232.99-60.59,300.07-157.67l1.96,1.35c-67.52,97.72-183.25,158.52-302.02,158.69h-.35Z"/><path class="cls-3" d="M725.8,1089.11c-23.37,0-51.31-7.84-66.18-30.77-13.83-21.33-11.93-48.89-8.73-70.51.54-3.66,1.13-7.33,1.72-11,3.19-19.81,6.48-40.3,1.99-59.81-4.66-20.23-17.29-37.66-29.51-54.52-3.13-4.32-6.37-8.79-9.42-13.23-19.61-28.57-26.21-53.76-19.62-74.88,5.23-16.74,19.4-31.18,37.92-38.61,15.46-6.21,33.85-7.9,54.65-5.04,45.36,6.24,87.92,32.49,113.86,70.21,8.11,11.8,14.76,24.79,21.19,37.35,8.88,17.35,18.06,35.28,31.11,50,30.99,34.95,79.59,48.13,126.72,58.64l-.52,2.32c-47.51-10.59-96.53-23.9-127.99-59.38-13.25-14.95-22.5-33.02-31.45-50.49-6.4-12.5-13.01-25.42-21.03-37.09-25.56-37.18-67.51-63.06-112.22-69.21-20.39-2.8-38.37-1.16-53.43,4.89-17.86,7.17-31.52,21.04-36.54,37.11-6.36,20.39.13,44.89,19.31,72.82,3.03,4.42,6.26,8.87,9.38,13.18,12.36,17.05,25.13,34.67,29.9,55.38,4.6,19.96,1.26,40.68-1.96,60.72-.59,3.67-1.18,7.33-1.72,10.98-3.14,21.21-5.03,48.21,8.37,68.87,16.81,25.92,51.12,31.87,75.36,29.05,23.55-2.71,45.99-12.2,67.69-21.37,4.57-1.93,9.14-3.87,13.72-5.73,76.27-31.16,146.76-40.55,209.52-27.91l-.47,2.33c-62.29-12.55-132.32-3.2-208.15,27.78-4.57,1.87-9.13,3.79-13.69,5.72-21.86,9.24-44.45,18.79-68.34,21.54-3.63.42-7.48.64-11.45.64Z"/><path class="cls-3" d="M1006.96,1025.01c-74.38-23.79-156.87-25.71-232.27-5.38-15.37,4.15-31.27,7.37-41.85-2.45-8.25-7.66-8.86-20.18-7.92-29.33.3-2.88.73-5.81,1.16-8.63,1.05-7.03,2.14-14.29,1.06-21.3-1.93-12.47-10.42-23.04-18.63-33.26-9.44-11.75-19.19-23.89-18.93-38.96.34-19.79,19.29-34.46,36.64-36.71,16.26-2.1,34.63,3.82,51.76,16.66,10.03,7.52,18.94,16.59,27.56,25.37,4.02,4.1,8.18,8.33,12.39,12.34,42.13,40.14,97.22,65.39,155.13,71.09l-.23,2.37c-58.44-5.75-114.03-31.23-156.54-71.73-4.24-4.04-8.41-8.29-12.45-12.4-8.56-8.71-17.4-17.72-27.29-25.13-16.63-12.47-34.4-18.22-50.03-16.2-16.37,2.12-34.24,15.87-34.56,34.39-.25,14.2,8.82,25.48,18.41,37.42,8.41,10.47,17.1,21.29,19.13,34.39,1.14,7.36.02,14.81-1.06,22.01-.42,2.8-.85,5.69-1.14,8.52-.89,8.61-.36,20.35,7.17,27.34,9.69,9,24.88,5.87,39.61,1.9,75.83-20.44,158.79-18.52,233.61,5.41l-.72,2.27Z"/><path class="cls-3" d="M756.86,1050.18c-11.49,0-24.07-3.43-32.12-13.16-10.61-12.82-9.25-31.78-7.3-44.92.25-1.68.51-3.36.77-5.05,2.09-13.42,4.26-27.29-.43-39.75-3.71-9.85-11.39-17.76-18.82-25.42-7.92-8.16-16.11-16.6-19.74-27.51-6.01-18.05,2.82-40.1,20.55-51.29,15.34-9.69,36.61-11.57,56.91-5.03,15.86,5.11,31.48,14.89,49.18,30.8,6.14,5.52,12.13,11.37,17.93,17.03,7.8,7.61,15.86,15.48,24.32,22.59,32.11,26.97,72.71,44.73,114.32,50l-.3,2.36c-42.06-5.34-83.09-23.29-115.55-50.54-8.53-7.17-16.63-15.07-24.45-22.71-5.78-5.64-11.76-11.48-17.86-16.96-17.44-15.68-32.79-25.3-48.32-30.31-19.63-6.32-40.16-4.54-54.91,4.77-16.83,10.62-25.23,31.49-19.56,48.52,3.46,10.4,11.46,18.64,19.19,26.6,7.6,7.83,15.46,15.93,19.34,26.24,4.91,13.04,2.7,27.23.56,40.95-.26,1.69-.53,3.36-.77,5.03-2.04,13.77-3.11,31.11,6.78,43.06,9.79,11.83,26.92,13.71,39.68,11.5,11.07-1.91,21.65-6.55,31.88-11.03,3.2-1.4,6.39-2.81,9.61-4.13,64.64-26.65,138.44-22.52,208.57-14.08l-.28,2.36c-69.81-8.4-143.24-12.52-207.38,13.92-3.2,1.32-6.38,2.71-9.56,4.11-10.36,4.54-21.07,9.24-32.43,11.2-3.07.53-6.39.83-9.8.83Z"/><path class="cls-3" d="M745.62,1074.27c-5.9,0-11.52-.63-16.85-1.89-19.11-4.5-34.55-18-39.34-34.39-4.04-13.81-.75-28.1,2.43-41.92,2.16-9.39,4.4-19.1,4.34-28.61-.13-21.62-11.29-40.03-23.1-59.52-9.25-15.25-18.81-31.02-22.5-48.43-3.54-16.7-.63-32.46,7.97-43.22,8.39-10.49,22.74-16.8,39.35-17.31,24.14-.73,50.24,10.11,75.5,31.36,11.11,9.35,21.42,19.9,31.38,30.1,9.01,9.22,18.32,18.76,28.17,27.35,32.77,28.55,72.67,47.82,115.41,55.73l-.43,2.34c-43.15-7.98-83.45-27.44-116.54-56.27-9.93-8.65-19.28-18.22-28.31-27.48-9.92-10.16-20.19-20.67-31.21-29.94-24.81-20.87-50.46-31.54-73.89-30.8-15.91.49-29.61,6.47-37.56,16.41-8.16,10.2-10.9,25.23-7.51,41.24,3.61,17.01,13.07,32.61,22.21,47.69,11.46,18.91,23.32,38.46,23.45,60.74.06,9.79-2.21,19.64-4.4,29.16-3.26,14.15-6.33,27.51-2.47,40.71,4.56,15.58,19.32,28.44,37.6,32.75,15.02,3.54,32.48,1.92,51.91-4.83,11.01-3.83,21.78-8.89,32.19-13.79,5.45-2.57,11.09-5.22,16.71-7.67,62.67-27.31,133.85-33.84,200.44-18.38l-.54,2.32c-66.09-15.35-136.75-8.86-198.95,18.24-5.59,2.44-11.21,5.08-16.65,7.64-10.46,4.93-21.29,10.02-32.42,13.88-13.01,4.52-25.19,6.78-36.38,6.78Z"/><path class="cls-3" d="M696.79,1139.99c-24.55,0-47.5-9.73-61.91-26.39-23.86-27.58-21.8-68.38-18.19-96.67.63-4.93,1.33-9.89,2.04-14.87,3.98-28.15,8.1-57.26-.62-84.12-6.01-18.49-17.79-34.61-29.18-50.2-7.62-10.42-15.49-21.2-21.69-32.7-21.65-40.17-19.08-89,6.25-118.75,25.08-29.45,72.46-39.92,115.22-25.46,33.66,11.38,65.28,36.17,96.68,75.77,11.07,13.96,21.49,28.76,31.56,43.08,13.3,18.9,27.06,38.44,42.41,56.19,31.92,36.88,65.94,59.14,101.13,66.17l-.46,2.33c-35.72-7.13-70.19-29.66-102.46-66.94-15.43-17.83-29.22-37.42-42.56-56.37-10.06-14.29-20.46-29.07-31.48-42.98-31.1-39.23-62.37-63.76-95.58-75-41.86-14.15-88.18-3.98-112.64,24.75-24.71,29.02-27.16,76.75-5.96,116.08,6.12,11.35,13.94,22.06,21.51,32.42,11.5,15.74,23.4,32.03,29.52,50.87,8.9,27.38,4.74,56.76.71,85.19-.7,4.96-1.4,9.91-2.03,14.84-3.56,27.84-5.61,67.95,17.62,94.81,14.61,16.88,38.29,26.44,63.41,25.51,33.77-1.23,63.84-19.65,92.93-37.47,7.81-4.78,15.88-9.73,23.88-14.25,60.21-34.01,135.8-53.06,224.68-56.64l.1,2.38c-88.5,3.56-163.73,22.51-223.6,56.33-7.96,4.5-16.01,9.43-23.81,14.2-29.35,17.98-59.7,36.57-94.08,37.82-1.13.04-2.26.06-3.39.06Z"/><path class="cls-3" d="M957.51,914.68c-31.41-23.24-67.02-49.59-87.03-86.71-8.11-15.06-13.46-31.58-18.62-47.56-3.97-12.27-8.07-24.95-13.39-36.86-14.73-32.97-40.09-63.62-77.53-93.72l-1.55-1.24c-6.24-5-12.69-10.16-17.32-16.87-5.79-8.37-7.44-17.95-4.41-25.62,5.07-12.87,21.01-16.57,27.63-17.56,15.97-2.4,32.86-.02,47.54,6.7,21.07,9.65,39.25,28.32,55.57,57.08,16.57,29.21,27.93,61.44,38.91,92.6,4.34,12.3,8.82,25.03,13.56,37.38,14.4,37.53,35.98,84.56,75.37,115.33l-1.46,1.88c-39.86-31.13-61.62-78.53-76.13-116.35-4.75-12.38-9.24-25.12-13.58-37.44-10.95-31.06-22.26-63.19-38.73-92.21-16.06-28.31-33.89-46.66-54.49-56.1-14.27-6.53-30.68-8.85-46.2-6.51-6.21.93-21.15,4.37-25.77,16.08-2.73,6.93-1.18,15.67,4.15,23.39,4.43,6.42,10.75,11.47,16.85,16.36l1.56,1.25c37.74,30.34,63.32,61.29,78.21,94.61,5.37,12.02,9.5,24.77,13.48,37.1,5.13,15.88,10.44,32.3,18.45,47.16,19.75,36.66,55.13,62.83,86.35,85.93l-1.42,1.92Z"/><path class="cls-3" d="M975,891.39c-28.64-20.52-51.93-51.69-71.17-95.3-9.45-21.41-17.19-43.89-24.68-65.63-5.3-15.4-10.78-31.33-16.83-46.73-9.51-24.22-22.4-50.86-45.93-64.7-6.5-3.82-12.34-5.69-17.87-5.72h-.08c-6.67,0-12.69,2.98-15.73,7.8-2.8,4.44-3.18,10.74-1.02,16.84,2.04,5.73,5.85,10.69,9.59,15.28,6.17,7.58,12.84,15,19.3,22.19,13.74,15.3,27.95,31.12,38.21,49.34,10.11,17.95,16.25,38.01,22.2,57.4l1.29,4.21c6.59,21.43,13.49,42.15,25.34,60.13,13.39,20.3,31.41,33.69,50.76,37.71l-.48,2.33c-19.97-4.15-38.53-17.9-52.26-38.73-12.03-18.24-18.99-39.14-25.63-60.74l-1.29-4.21c-5.91-19.27-12.02-39.2-22-56.93-10.13-18-24.25-33.71-37.91-48.91-6.47-7.21-13.17-14.66-19.37-22.28-3.87-4.74-7.82-9.89-9.99-15.98-2.41-6.78-1.94-13.85,1.25-18.9,3.47-5.5,10.26-8.91,17.74-8.91h.09c5.95.02,12.19,2,19.07,6.05,24.15,14.21,37.28,41.27,46.93,65.88,6.06,15.45,11.55,31.4,16.86,46.82,7.47,21.69,15.19,44.12,24.6,65.44,19.07,43.21,42.1,74.06,70.38,94.32l-1.39,1.93Z"/><path class="cls-3" d="M972.85,882.14c-23.09-13.61-49.06-30.95-66.54-56.37-15.25-22.18-22.76-48.82-30.02-74.59-7.98-28.34-16.24-57.65-34.85-80.48-1.98-2.42-4.57-5.17-7.73-4.98-1.71.11-2.89,1.14-3.58,1.99-1.37,1.69-2.06,4.19-1.75,6.38.55,3.91,3.16,7.31,5.69,10.6l.19.24c15.26,19.91,27.46,41.92,36.26,65.42,3.38,9.03,6.3,18.4,9.11,27.46,4.54,14.61,9.24,29.71,16,43.65,7.4,15.27,24.12,41.96,52.88,49.07l-.57,2.31c-29.71-7.34-46.87-34.69-54.45-50.34-6.84-14.1-11.56-29.29-16.13-43.98-2.81-9.03-5.71-18.36-9.06-27.33-8.72-23.28-20.8-45.08-35.92-64.8l-.19-.24c-2.71-3.53-5.52-7.19-6.16-11.72-.4-2.86.46-6.01,2.26-8.22,1.4-1.72,3.27-2.73,5.27-2.86,4.21-.29,7.39,2.99,9.73,5.86,18.92,23.22,27.25,52.76,35.3,81.34,7.21,25.58,14.66,52.03,29.69,73.89,17.22,25.04,42.92,42.19,65.79,55.67l-1.21,2.05Z"/><path class="cls-3" d="M816.67,654.4c-2.31,0-4.79-.76-6.86-2h0c-6.39-3.82-10.63-13.66-10.45-20.11.09-3.12,1.17-5.31,3.12-6.33,2.53-1.32,6.15-.47,10.76,2.54,3.98,2.6,6.99,6.83,9.46,13.3,1.03,2.68,2.15,6.61.09,9.68-1.39,2.07-3.66,2.93-6.11,2.93ZM811.03,650.36c2.85,1.7,7.77,2.77,9.77-.21,1.1-1.64,1-4.02-.33-7.5-2.28-5.98-5-9.84-8.54-12.16-3.72-2.43-6.68-3.29-8.35-2.42-1.44.76-1.8,2.75-1.84,4.29-.16,5.77,3.77,14.7,9.29,18h0Z"/><path class="cls-3" d="M687.89,617.35c-1.97,0-3.92-.06-5.83-.15h0c-27.47-1.27-55.13-5.17-81.87-8.93-1.81-.25-4.28-.6-5.97-2.29-2.68-2.66-1.92-7.1.3-9.68,2.11-2.44,5.19-3.64,8.16-4.66,27.79-9.5,70.05-18.65,105.33-15.84,5.79.46,10.19,2.9,12.74,7.04,2.98,4.84,3.08,11.56.27,18.42-5.51,13.46-19.75,16.09-33.13,16.09ZM682.17,614.83c14.9.68,30.92-.49,36.64-14.47,2.52-6.15,2.48-12.08-.09-16.27-2.13-3.47-5.9-5.52-10.9-5.92-34.91-2.79-76.8,6.29-104.37,15.72-2.78.95-5.41,1.97-7.13,3.96-1.51,1.75-2.05,4.83-.43,6.44,1.05,1.04,2.71,1.35,4.63,1.62,26.69,3.76,54.29,7.64,81.65,8.91h0Z"/><path class="cls-3" d="M538.36,1046.32c-5.88,0-12-1.49-17.57-4.5-9.31-5.02-17.26-13.63-24.3-26.33-3.01-5.44-5.64-11.16-8.18-16.69-2.34-5.09-4.76-10.36-7.45-15.35-7.91-14.66-18.7-27.87-29.13-40.65-10.14-12.42-20.62-25.26-28.55-39.5-20.21-36.28-22.79-82.62-6.72-120.92,2.21-5.26,5.53-11.51,11.74-13.17,6.9-1.85,13.65,3.26,16.47,9.02,2.81,5.72,2.94,12.18,3.06,18.43v.4c.39,18.93,1.76,39,9.14,57.55,7.63,19.18,23.21,35.88,41.69,44.68l3.09,1.47c21.03,9.98,39.2,18.6,53.06,38.72,14.93,21.66,20.62,49.97,15.22,75.73-2.56,12.21-7.17,20.64-14.1,25.76-4.84,3.58-11.01,5.38-17.46,5.38ZM431.06,771.2c-.75,0-1.5.09-2.25.3-5.21,1.39-8.17,7.04-10.16,11.79-15.78,37.64-13.25,83.18,6.61,118.84,7.83,14.06,18.25,26.82,28.32,39.16,10.5,12.86,21.36,26.16,29.38,41.02,2.73,5.06,5.17,10.36,7.52,15.49,2.52,5.49,5.13,11.18,8.1,16.53,6.81,12.29,14.44,20.6,23.34,25.39,10.91,5.88,23.97,5.6,32.49-.7,6.35-4.69,10.78-12.88,13.19-24.34,5.26-25.13-.29-52.75-14.85-73.89h0c-13.5-19.59-31.39-28.08-52.12-37.91l-3.09-1.47c-19-9.04-35.03-26.22-42.88-45.94-7.52-18.9-8.91-39.22-9.3-58.38v-.4c-.13-5.99-.26-12.18-2.83-17.43-2.11-4.3-6.72-8.06-11.47-8.06Z"/><path class="cls-3" d="M540.11,1010.75c-3.57,0-7.3-1.89-11.36-5.75-9.36-8.91-15.64-20.46-21.72-31.63-5.5-10.12-11.2-20.59-19.14-28.96-6.6-6.95-14.75-12.44-22.63-17.75-4.99-3.36-10.14-6.84-14.91-10.67-11.71-9.42-21.12-23.38-25.19-37.34-1.92-6.59-5.38-28.71,1.06-37.9,1.76-2.5,4.1-3.87,6.98-4.05,2.83-.17,5.63,1.23,8.57,4.31,8.68,9.1,11.78,21.58,14.78,33.65,2.63,10.59,5.35,21.54,11.83,30.06,8.51,11.2,21.56,16.4,35.37,21.9,10.05,4,20.43,8.15,28.94,14.82,16.2,12.7,24.32,34.78,20.2,54.95-.63,3.06-3.29,13.13-11.41,14.26-.46.07-.92.1-1.39.1ZM433.37,839.07c-2.15.14-3.84,1.13-5.18,3.04-5.55,7.91-2.77,28.86-.73,35.86,3.93,13.51,13.05,27.02,24.39,36.15,4.69,3.77,9.8,7.22,14.75,10.55,7.99,5.38,16.25,10.95,23.02,18.09,8.16,8.59,13.93,19.2,19.51,29.46,5.99,11.01,12.17,22.39,21.27,31.05,4.02,3.83,7.54,5.48,10.78,5.03,6.56-.91,8.86-9.71,9.4-12.38,3.94-19.31-3.82-40.45-19.33-52.6-8.24-6.46-18.47-10.54-28.35-14.48-13.51-5.39-27.47-10.95-36.39-22.68-6.78-8.91-9.55-20.11-12.24-30.93-3.06-12.31-5.94-23.95-14.19-32.58-2.43-2.54-4.62-3.72-6.7-3.58h0Z"/><path class="cls-3" d="M530.65,978.19c-3.28,0-6.17-2.26-7.74-3.79-5.67-5.51-8.78-13.51-8.33-21.4l.49.03-.31-.85c5.13-1.85,11.14-1.14,15.69,1.87,4.55,3.01,7.57,8.26,7.88,13.7.23,4.02-1.47,8.91-5.73,10.16-.66.2-1.32.28-1.96.28ZM516.93,954.01c-.15,6.92,2.68,13.86,7.65,18.69,1.21,1.17,4.36,3.81,7.36,2.93,2.88-.84,4.21-4.53,4.03-7.74-.27-4.71-2.88-9.25-6.81-11.85-3.54-2.34-8.12-3.07-12.22-2.03Z"/><rect class="cls-2" x="-841.89" y=".25" width="1785.06" height="1190.04"/></g></svg>