<?xml version="1.0" encoding="UTF-8"?><svg id="Calque_1" xmlns="http://www.w3.org/2000/svg" xmlns:xlink="http://www.w3.org/1999/xlink" viewBox="0 0 841.89 1190.55"><defs><style>.cls-1{fill:#e2bc06;}.cls-1,.cls-2,.cls-3{stroke-width:0px;}.cls-2{fill:none;}.cls-3{fill:#231f20;}.cls-4{clip-path:url(#clippath);}</style><clipPath id="clippath"><rect class="cls-2" y=".25" width="1683.78" height="1190.3"/></clipPath></defs><g class="cls-4"><path class="cls-1" d="M-274.5,676.99c13.07-15.32,293.24,56.64,313.9,64.05,28.26,10.14,48.97,34.24,74.64,49.81,72.28,43.84,181.2-.15,202.75-81.89,16.86-63.94-6.9-148.84,48.25-185.32,24.03-15.89,55.68-15.25,81.11-28.79,44.94-23.93,56.24-81.43,74.35-129.02,18.11-47.59,66.93-97.04,112.76-74.87,28,13.54,38.54,47.2,57.16,72.11,26.87,35.96,75.22,54.46,119.23,45.61,44.01-8.84,81.46-44.58,92.36-88.13,11.14-44.53,3.4-105.08,45.57-123.2,39.25-16.86,79.63,24.21,122.28,26.58,75.39,4.18,123.26-109.63,197.33-95,36.5,7.21,72.37,45.38,104,25.79,24.28-15.04,20.63-50.34,25.3-78.51,7.14-43.09,40.35-78.27,78.85-98.9,38.5-20.63,82.18-131.32,125.1-139.44L-42.84-21.17l-231.66,698.16Z"/><path class="cls-3" d="M178.49,822.96c-25.93,0-50.93-6.52-72.17-19.39-10.68-6.48-20.32-14.13-29.66-21.53-13.99-11.1-27.2-21.58-42.3-27-9.26-3.32-78.6-21.64-149.14-37.99-98.39-22.8-134.16-26.92-146.72-27.34l.12-3.57c12.69.43,48.72,4.56,147.41,27.43,70.66,16.37,140.22,34.76,149.54,38.1,15.65,5.62,29.09,16.27,43.31,27.56,9.24,7.33,18.8,14.92,29.29,21.27,36.98,22.43,85.77,25.03,130.5,6.97,44.73-18.07,78.02-53.82,89.05-95.64,6.02-22.85,7.11-47.79,8.16-71.92,2.01-46.1,3.74-85.92,35.4-106.85,11.34-7.5,25.19-10.93,39.85-14.57,13.47-3.34,27.39-6.79,40.33-13.68,40.6-21.62,55.63-65.68,70.16-108.29,3.17-9.3,6.17-18.08,9.44-26.68,12.13-31.88,36.5-59.75,60.65-69.34,12.86-5.11,25.19-4.9,36.63.63,16.19,7.83,26.06,24.77,36.52,42.71,5.09,8.73,10.34,17.73,16.51,25.99,29.59,39.6,82.05,59.66,130.52,49.93,48.47-9.74,89.1-48.51,101.1-96.47,3.22-12.88,4.93-26.86,6.57-40.38,4.9-40.22,9.52-65.31,32.49-75.18,18.72-8.04,38.81.72,62.07,10.86,17.53,7.64,35.66,15.54,55.12,16.62,41.01,2.29,73.13-25.12,104.18-51.61,30.21-25.76,58.71-50.07,91.58-43.6,11.61,2.29,24.05,8.59,36.09,14.68,23.63,11.96,50.4,25.52,76.06,9.63,23.45-14.52,26-42.25,28.25-66.72.63-6.91,1.24-13.43,2.25-19.55,5.88-35.49,33.19-69.42,73.04-90.78,19.74-10.58,38.51-38.62,58.39-68.31,19.8-29.58,44.44-66.39,63.47-69.99l.66,3.51c-17.56,3.32-41.74,39.44-61.17,68.46-20.13,30.07-39.14,58.47-59.66,69.47-38.88,20.84-65.5,53.81-71.2,88.22-.99,5.99-1.59,12.45-2.22,19.3-2.33,25.3-4.97,53.97-29.93,69.43-27.34,16.94-55.08,2.9-79.55-9.48-11.82-5.98-24.04-12.17-35.17-14.36-31.15-6.14-59.04,17.62-88.55,42.79-31.61,26.96-64.28,54.82-106.72,52.48-20.11-1.12-38.53-9.15-56.35-16.92-22.5-9.81-41.94-18.27-59.24-10.85-21.21,9.11-25.62,33.38-30.35,72.26-1.67,13.7-3.39,27.79-6.66,40.88-12.33,49.27-54.07,89.09-103.86,99.1-49.8,10.01-103.68-10.61-134.08-51.29-6.3-8.42-11.6-17.52-16.72-26.31-10.18-17.47-19.79-33.96-35-41.31-10.5-5.08-21.86-5.25-33.75-.53-23.27,9.25-46.83,36.3-58.63,67.3-3.25,8.54-6.23,17.29-9.39,26.56-14.76,43.27-30.02,88.01-71.87,110.29-13.33,7.1-27.47,10.6-41.14,13.99-14.36,3.56-27.92,6.92-38.75,14.08-30.14,19.93-31.84,58.9-33.8,104.03-1.06,24.31-2.15,49.45-8.27,72.67-11.31,42.9-45.39,79.55-91.17,98.04-20.15,8.14-41.12,12.17-61.52,12.17Z"/><path class="cls-3" d="M178.5,835.45c-28.2,0-55.46-7.12-78.66-21.2-11.34-6.88-21.3-14.78-30.94-22.42-13.17-10.45-25.6-20.31-38.76-25.03-7.61-2.73-74.74-20.66-147.74-37.57-75.28-17.45-112.8-23.7-131.02-25.88l.28-2.36c18.28,2.18,55.89,8.46,131.27,25.93,73.08,16.93,140.37,34.91,148.01,37.65,13.53,4.86,26.11,14.83,39.43,25.4,9.58,7.6,19.48,15.45,30.7,22.26,40.65,24.66,94,27.63,142.72,7.95,48.72-19.68,85.04-58.87,97.16-104.84,6.4-24.28,7.52-49.97,8.6-74.81,1.92-44.11,3.44-78.95,29.27-96.03,9.37-6.2,22.11-9.35,35.59-12.7,14.28-3.54,29.03-7.19,43.47-14.89,45.37-24.16,62.01-72.93,76.68-115.96,3.13-9.18,6.08-17.84,9.27-26.23,10.68-28.07,32.44-53.35,52.92-61.49,9.28-3.69,17.66-3.61,25.61.23,12.42,6.01,21.28,21.21,30.66,37.3,5.28,9.06,10.72,18.4,17.36,27.28,32.69,43.74,90.63,65.91,144.18,55.15,53.54-10.76,98.42-53.58,111.68-106.56,3.42-13.68,5.18-28.1,6.88-42.05,4.88-40.06,9.33-57.82,24.31-64.25,13.28-5.7,30.01,1.59,51.19,10.82,18.65,8.13,37.92,16.53,59.85,17.75,46.52,2.57,82.23-27.92,113.78-54.83,28.86-24.61,53.75-45.82,80.08-40.62,9.77,1.93,21.36,7.79,32.56,13.47,24.17,12.24,57.27,28.99,89.44,9.06,29.24-18.11,32.25-50.82,34.67-77.09.62-6.76,1.2-12.99,2.12-18.57,5.19-31.33,29.86-61.59,66-80.96,22.75-12.19,42.44-41.61,63.29-72.76,19.96-29.81,42.29-61.81,54.65-64.15l.44,2.34c-12.41,2.35-39.9,43.41-53.11,63.14-21.02,31.4-40.88,61.06-64.15,73.54-35.49,19.02-59.7,48.64-64.78,79.25-.91,5.5-1.48,11.69-2.08,18.24-2.48,26.96-5.55,60.32-35.8,79.06-33.31,20.64-67.1,3.54-91.77-8.95-11.07-5.6-22.51-11.39-31.95-13.26-25.24-4.97-49.69,15.88-78.02,40.04-31.95,27.25-68.12,58.08-115.52,55.44-22.35-1.24-41.82-9.73-60.66-17.94-20.67-9.01-36.98-16.12-49.31-10.82-13.89,5.97-18.12,23.25-22.88,62.29-1.72,14.08-3.49,28.58-6.94,42.4-13.48,53.85-59.1,97.38-113.52,108.32-9.15,1.84-18.44,2.73-27.7,2.73-45.82,0-91.21-21.81-118.85-58.79-6.72-8.99-12.2-18.39-17.5-27.48-9.2-15.79-17.88-30.69-29.65-36.38-7.32-3.54-15.07-3.59-23.7-.17-19.9,7.91-41.11,32.64-51.57,60.13-3.17,8.35-6.12,16.99-9.25,26.15-14.82,43.45-31.61,92.69-77.82,117.29-14.7,7.83-29.6,11.52-44.01,15.09-13.29,3.29-25.84,6.4-34.86,12.37-24.82,16.42-26.32,50.72-28.21,94.15-1.09,24.97-2.21,50.79-8.68,75.32-12.31,46.69-49.16,86.48-98.57,106.44-21.64,8.74-44.2,13.07-66.18,13.07Z"/><path class="cls-3" d="M178.52,848.53c-30.58,0-60.2-7.76-85.47-23.08-12.02-7.29-22.29-15.43-32.22-23.31-12.35-9.8-23.97-19.01-35.1-23.01-6.59-2.36-73.04-20.17-146.28-37.14-49.51-11.48-88.28-19.42-115.24-23.63l.37-2.35c27.01,4.21,65.84,12.17,115.41,23.66,73.32,16.99,139.91,34.85,146.54,37.22,11.51,4.13,23.27,13.46,35.72,23.34,9.93,7.88,20.14,15.97,32.04,23.19,44.16,26.79,101.89,30.11,154.41,8.9,52.53-21.21,91.75-63.7,104.92-113.64,6.76-25.64,7.91-52.04,9.02-77.57,1.83-41.97,3.15-72.28,23.42-85.69,7.49-4.95,19.17-7.85,31.53-10.91,15.04-3.73,30.59-7.58,46.47-16.04,49.94-26.59,68.23-80.21,82.92-123.29,3.11-9.13,6.02-17.66,9.12-25.8,9.33-24.5,28.47-47.21,45.52-53.98,7.48-2.97,11.99-1.64,15.08-.15,8.83,4.27,17.08,18.43,25.06,32.13,5.47,9.38,11.1,19.03,18.17,28.49,29.08,38.91,77.94,63.08,127.53,63.08,10.05,0,20.04-.99,29.71-2.93,58.39-11.73,107.34-58.44,121.8-116.22,3.62-14.48,5.43-29.34,7.19-43.71,4.59-37.73,8.44-50.29,16.47-53.74,8.07-3.47,23.22,3.13,40.74,10.77,19.76,8.61,40.13,17.49,64.4,18.84,2.06.11,4.14.17,6.19.17,48.68,0,86.49-32.25,116.87-58.16,26.21-22.36,48.84-41.65,68.99-37.68,8,1.58,18.78,7.03,29.2,12.31,25.43,12.87,63.82,32.3,102.24,8.5,34.79-21.55,38.28-59.48,40.82-87.18.58-6.34,1.14-12.33,1.99-17.47,4.53-27.35,26.69-54.1,59.27-71.56,25.63-13.73,46.21-44.47,67.99-77.02,24.23-36.19,39.39-55.35,46.36-58.56l1,2.16c-4.45,2.05-15.93,13.73-45.38,57.73-21.95,32.8-42.68,63.77-68.84,77.79-31.93,17.11-53.63,43.22-58.04,69.85-.84,5.06-1.39,11.01-1.96,17.3-2.59,28.2-6.15,66.81-41.94,88.99-39.57,24.5-78.67,4.71-104.55-8.39-10.29-5.21-20.92-10.59-28.6-12.1-19.03-3.76-41.24,15.2-66.98,37.16-30.68,26.16-68.86,58.73-118.42,58.73-2.1,0-4.22-.06-6.32-.18-24.7-1.37-45.27-10.34-65.16-19.01-17.09-7.45-31.79-13.86-38.92-10.8-6.89,2.96-10.69,16.04-15.05,51.84-1.76,14.44-3.58,29.37-7.24,44-14.68,58.65-64.37,106.06-123.65,117.97-9.82,1.97-19.98,2.97-30.18,2.98-50.32,0-99.91-24.53-129.43-64.03-7.15-9.57-12.82-19.28-18.29-28.68-7.83-13.43-15.89-27.28-24.07-31.23-2.66-1.28-6.55-2.42-13.17.21-16.48,6.55-35.06,28.68-44.17,52.62-3.08,8.1-5.98,16.61-9.06,25.62-14.86,43.58-33.32,97.68-84.09,124.72-16.13,8.59-31.83,12.48-47.01,16.24-12.16,3.01-23.65,5.86-30.79,10.59-19.26,12.74-20.56,42.54-22.35,83.8-1.12,25.67-2.27,52.2-9.1,78.09-13.36,50.67-53.11,93.75-106.33,115.24-23.2,9.37-47.42,14.01-71.07,14.02Z"/><path class="cls-3" d="M742.26,651.76c-17.79,0-37.16-4.84-60.37-15.01-8.12-3.56-16.21-7.5-24.04-11.32-12.28-5.99-24.98-12.18-37.98-16.97-29.38-10.82-62.15-14.99-88.48-18.34-11.44-1.45-23.26-2.96-33.73-8.27-9.31-4.73-19.54-14.41-20.33-27.43-.63-10.36,5-19.53,9.83-25.39,3.54-4.29,7.63-8.15,11.58-11.88,2.51-2.36,5.1-4.8,7.5-7.32,20.49-21.41,30.32-50.4,39.83-78.43,7.72-22.78,15.71-46.33,29.39-66.22,6.14-8.93,12.06-14.82,18.64-18.54,8.52-4.8,18.48-5.54,26.01-1.94,9.15,4.39,13.84,13.81,18.38,22.92.56,1.13,1.12,2.25,1.68,3.35h0c8.32,16.31,20.23,31.23,34.44,43.16,2.73,2.29,6.04,4.47,9.55,6.77,10.86,7.14,23.16,15.23,21.52,29.7-.48,4.27-1.84,8.37-3.14,12.33-1.21,3.66-2.45,7.43-2.97,11.24-.25,1.87-.34,3.84-.43,5.74-.2,4.41-.41,8.97-2.57,12.99-3.36,6.26-10.02,8.98-16.47,11.6-5.18,2.11-10.55,4.3-14.04,8.3-7.03,8.04-4.15,21.11,2.94,28.28,6.37,6.44,16.27,10.27,29.43,11.38,4.25.36,8.61.46,12.83.57,6.66.16,13.55.33,20.26,1.49,24.38,4.23,46.09,22.82,54.01,46.27,2.43,7.21,5.5,21.04-1.28,32.73-6.02,10.38-19.08,16.94-35.81,18.02-2.04.13-4.09.2-6.17.2ZM609.6,344.82c-4.74,0-9.75,1.32-14.33,3.9-6.25,3.53-11.92,9.18-17.85,17.81-13.49,19.62-21.42,43.01-29.1,65.63-9.59,28.28-19.51,57.52-40.37,79.32-2.45,2.56-5.06,5.02-7.59,7.41-3.9,3.68-7.94,7.48-11.38,11.66-4.56,5.53-9.87,14.14-9.29,23.73.73,12.01,10.31,21.02,19.03,25.45,10.1,5.13,21.72,6.61,32.95,8.04,26.45,3.37,59.37,7.56,89.01,18.47,13.12,4.83,25.87,11.05,38.2,17.06,7.81,3.8,15.88,7.74,23.95,11.28,25.55,11.2,46.35,15.84,65.43,14.62,7.54-.49,25.93-3.1,33.91-16.84,6.32-10.88,3.39-23.95,1.09-30.78-7.65-22.64-28.61-40.6-52.16-44.68-6.54-1.13-13.33-1.3-19.91-1.46-4.25-.1-8.65-.21-12.97-.58-13.73-1.16-24.14-5.23-30.92-12.08-7.85-7.92-10.94-22.48-3.04-31.52,3.87-4.43,9.5-6.72,14.94-8.94,6.34-2.58,12.32-5.02,15.27-10.53,1.9-3.55,2.09-7.64,2.29-11.98.09-1.96.18-3.98.45-5.95.54-4.03,1.82-7.91,3.06-11.67,1.27-3.85,2.58-7.83,3.04-11.85,1.47-13.02-9.68-20.35-20.47-27.45-3.57-2.35-6.93-4.56-9.77-6.94-14.45-12.13-26.57-27.31-35.04-43.9h0c-.57-1.11-1.13-2.24-1.69-3.37-4.36-8.75-8.86-17.8-17.28-21.84-2.85-1.37-6.1-2.04-9.48-2.04Z"/><path class="cls-3" d="M722.39,637.06c-1.78,0-3.53-.1-5.24-.3-14.5-1.69-27.7-8.65-40.47-15.38-2.09-1.1-4.18-2.2-6.27-3.28-39.9-20.53-84.69-33.17-129.54-36.55l-3.26-.24c-10.27-.73-20.89-1.49-30.28-6.07-10.25-5.01-19.22-16.38-16.53-28.43,1.99-8.9,9.38-14.76,16.51-20.42,1.43-1.13,2.84-2.25,4.21-3.39,20.1-16.83,30.51-41.75,37.33-61.59,2.36-6.85,4.55-13.91,6.67-20.73,5.07-16.29,10.3-33.13,18.17-48.61,3.55-6.99,9.31-17.08,18.29-24.07,6.12-4.76,16.44-9.7,25.41-7.95,7.19,1.4,9.77,7.02,12.26,12.46l.79,1.71c8.19,17.42,20.44,31.63,35.43,41.08,1.63,1.03,3.31,2.02,5,3.02,6.96,4.12,14.15,8.37,18.41,15.39,5.12,8.41,4.84,18.39,4.01,29.61-.56,7.59-1.27,17.05-6.55,24.13-3.22,4.32-7.76,7.26-12.15,10.1-2.86,1.85-5.83,3.77-8.34,6.03-6.2,5.57-9.76,14.07-9.78,23.31-.02,9.24,3.51,17.75,9.68,23.35,9.76,8.85,23.66,10.61,37.11,12.31,3.42.43,6.96.88,10.36,1.44,15.12,2.48,26.5,7.41,34.79,15.06,10.34,9.55,14.75,23.76,11,35.37-4.95,15.28-21.81,22.64-37.03,22.64ZM613.51,362.07c-7.3,0-15.11,3.98-20.05,7.82-6.55,5.1-12.15,12.49-17.63,23.27-7.78,15.3-12.98,32.04-18.02,48.24-2.13,6.84-4.33,13.92-6.7,20.8-6.92,20.13-17.5,45.43-38.06,62.64-1.38,1.15-2.81,2.29-4.25,3.44-6.81,5.41-13.86,11-15.67,19.08-2.4,10.72,6.06,21.28,15.25,25.77,8.97,4.38,19.36,5.12,29.4,5.84l3.26.24c45.16,3.4,90.27,16.13,130.45,36.81,2.09,1.08,4.19,2.18,6.29,3.29,12.57,6.63,25.57,13.48,39.63,15.12,15.43,1.79,34.6-4.85,39.74-20.71,3.48-10.74-.68-23.95-10.35-32.88-7.93-7.33-18.91-12.06-33.56-14.46-3.36-.55-6.87-1-10.27-1.43-13.81-1.75-28.09-3.56-38.41-12.91-6.67-6.05-10.48-15.2-10.46-25.12.02-9.91,3.88-19.05,10.57-25.07,2.66-2.39,5.7-4.36,8.64-6.26,4.41-2.85,8.57-5.55,11.54-9.52,4.87-6.53,5.54-15.6,6.08-22.88.8-10.81,1.08-20.39-3.67-28.2-3.96-6.5-10.89-10.61-17.59-14.57-1.7-1.01-3.41-2.02-5.06-3.06h0c-15.38-9.7-27.94-24.25-36.32-42.08l-.8-1.73c-2.45-5.34-4.56-9.95-10.55-11.12-1.13-.22-2.28-.32-3.45-.32Z"/><path class="cls-3" d="M709.45,621.31c-1.61,0-3.15-.11-4.55-.28-12.32-1.46-23.47-7.45-34.26-13.24-1.8-.96-3.59-1.93-5.39-2.87-37.89-19.85-80.53-30.75-123.29-31.53l-2.08-.03c-6.26-.09-12.74-.19-18.85-2.08-7.92-2.45-13.72-7.77-15.53-14.23-3.08-10.98,5.09-20.83,13.71-29.98,22.31-23.67,38.05-48.7,46.78-74.4,1.08-3.18,2.07-6.4,3.05-9.63,2.73-8.92,5.56-18.15,10.42-26.34,6.06-10.21,17.58-20.85,31.82-19.99,8.05.47,15.3,4.6,21.7,8.25l31.03,17.68c21.24,12.11,29.2,29.11,21.81,46.66h0c-3.82,9.08-10.91,16.2-17.77,23.08l-.42.42c-7.45,7.47-13.87,14.37-17.01,23.11-5.32,14.81,1.42,33.59,15.33,42.75,7.47,4.92,16.45,7.28,25.13,9.57,1.74.46,3.47.91,5.19,1.39,10.19,2.81,21.58,6.91,28.83,15.94,6.99,8.7,8.35,23.64-.86,31.17-4.38,3.58-9.93,4.59-14.79,4.59ZM609.77,399.04c-12.55,0-23.01,10.03-28.26,18.87-4.72,7.94-7.5,17.03-10.19,25.82-.99,3.25-1.99,6.49-3.08,9.69-8.84,26.02-24.76,51.34-47.31,75.27-8.16,8.66-15.89,17.93-13.15,27.71,1.87,6.68,8.43,10.89,13.94,12.6,5.79,1.8,12.09,1.89,18.18,1.98l2.09.03c43.14.79,86.14,11.78,124.35,31.8,1.8.95,3.6,1.91,5.41,2.88,10.59,5.69,21.54,11.57,33.41,12.97,5.15.6,12.37.45,17.56-3.79,8.13-6.65,6.79-20,.51-27.83-6.82-8.5-17.78-12.42-27.61-15.13-1.71-.47-3.43-.93-5.16-1.38-8.87-2.33-18.03-4.75-25.83-9.88-15.04-9.91-22.03-29.48-16.26-45.54,3.3-9.2,9.91-16.31,17.56-23.99l.42-.42c6.7-6.72,13.62-13.67,17.26-22.33h0c9.74-23.16-11.3-38.25-20.8-43.67l-31.03-17.68c-6.17-3.52-13.16-7.5-20.66-7.94-.46-.03-.92-.04-1.38-.04Z"/><path class="cls-3" d="M671.04,596.94c-.52,0-1.02-.02-1.51-.07-4.99-.47-9.5-2.71-13.87-4.88l-.96-.47c-26.64-13.14-56.38-21.16-86.01-23.2-1.26-.09-2.52-.16-3.78-.24-6.58-.4-13.38-.81-19.86-2.69-8.89-2.57-15.81-7.86-18.99-14.5-6.34-13.27,2.44-27.9,6.52-33.58,2.36-3.29,5-6.45,7.56-9.5,4.74-5.65,7.52-9.46,12.18-16.29l3.41-5.59,21.09-38.77c3.82-6.9,7.77-14.02,13.79-19.52,9.02-8.24,22.86-12.41,38.88-11.75,11.19.46,20.77,2.97,28.48,7.47,9.34,5.44,15.86,13.89,17.89,23.19,2.03,9.26-.27,20.06-6.64,31.22-2.84,4.98-6.22,9.7-9.48,14.27-2.8,3.92-5.7,7.98-8.22,12.15-6.47,10.7-9.13,20.57-7.9,29.32,1.67,11.86,10.26,22.68,26.26,33.09l1.11.72c3.63,2.34,7.39,4.77,10.18,8.24,3.6,4.49,4.62,10.14,2.62,14.4-2.31,4.91-7.94,6.98-12.75,6.98ZM550.14,498.34c-2.59,3.77-5.29,7.54-8.18,10.99-2.53,3.02-5.15,6.14-7.45,9.36-3.83,5.33-12.1,19.04-6.3,31.16,2.88,6.03,9.26,10.86,17.5,13.24,6.22,1.8,12.89,2.21,19.34,2.6,1.27.08,2.54.15,3.8.24,29.94,2.06,59.99,10.17,86.9,23.44l.96.48c4.18,2.07,8.49,4.21,13.04,4.64,4.28.41,9.81-1.16,11.88-5.55,1.97-4.18-.02-9.02-2.32-11.9-2.54-3.17-6.14-5.49-9.61-7.73l-1.12-.72c-16.62-10.81-25.56-22.18-27.32-34.76-1.31-9.31,1.46-19.7,8.22-30.88,2.57-4.25,5.49-8.34,8.32-12.3,3.23-4.52,6.57-9.19,9.35-14.07,4.24-7.42,8.78-18.57,6.39-29.53-1.89-8.65-8-16.54-16.77-21.64-7.37-4.3-16.59-6.7-27.38-7.15-15.42-.64-28.62,3.31-37.18,11.13-5.73,5.23-9.59,12.19-13.31,18.91l-25.65,45.69-3.1,4.35Z"/><path class="cls-3" d="M622.53,567.38c-3.82,0-7.61-.54-11.12-1.04l-28.02-4c-6.35-.91-13.55-1.94-19.51-5.66-8.18-5.11-13.51-15.29-14.27-27.22-.92-14.65,4.44-28.7,9.81-40.51,7.08-15.57,14.74-28.5,23.41-39.53.49-.62.99-1.28,1.5-1.95,2.84-3.75,6.06-7.99,10.44-9.84,6.55-2.76,14.79-2.49,19.11-2.09,8.4.79,16.16,3.76,22.43,8.58h0c12.76,9.82,18.64,27.67,13.98,42.43-1.56,4.96-4.17,9.5-6.69,13.9-2.48,4.33-5.05,8.82-6.53,13.58-2.37,7.63-1.9,16.2,1.29,23.53.48,1.1,1.02,2.19,1.56,3.28,1.77,3.58,3.6,7.27,3.42,11.4-.31,7.3-6.84,12.43-12.76,14.11-2.65.75-5.37,1.02-8.07,1.02ZM608.51,437.67c-3.97,0-8.77.45-12.8,2.16-3.8,1.6-6.81,5.58-9.47,9.08-.52.68-1.03,1.35-1.52,1.98-8.56,10.88-16.12,23.65-23.12,39.04-5.25,11.55-10.49,25.25-9.6,39.38.7,11.17,5.62,20.64,13.15,25.35,5.53,3.45,12.46,4.44,18.58,5.32l28.02,4c5.77.82,12.31,1.76,18.21.09,5.13-1.45,10.77-5.8,11.03-11.92.15-3.52-1.47-6.79-3.18-10.25-.56-1.13-1.12-2.25-1.61-3.39-3.42-7.84-3.92-17.02-1.39-25.18,1.56-5.02,4.19-9.61,6.74-14.06,2.46-4.29,5-8.72,6.49-13.43,4.37-13.84-1.17-30.59-13.16-39.82h0c-5.92-4.55-13.25-7.35-21.2-8.1-1.37-.13-3.16-.25-5.16-.25Z"/><path class="cls-3" d="M584.24,554.46c-4.95,0-9.64-.95-13.58-3.78-4.98-3.57-8.16-9.71-9.72-18.78-3.09-17.95.81-35.85,10.01-51.56l2.17-4.66c2.2-4.04,2.86-4.48,5.92-8.1,3.53-4.18,9.39-9.5,17.28-11.15,4.98-1.04,10.05-.45,14.96.11,1.99.23,4.04.47,6.04.59.73.04,1.47.07,2.21.11,3.46.14,7.04.29,10.3,1.83,6.9,3.27,9.51,11.45,9.04,18.11-.47,6.63-3.36,12.71-6.15,18.6l-.35.74c-2.92,6.17-5.54,12.24-5.46,18.59.03,1.97.33,4.01.62,5.98.41,2.81.84,5.71.54,8.65-.69,6.72-5.31,13.16-12.36,17.25-6.23,3.61-13.42,5.09-20.25,6.3-3.75.66-7.55,1.18-11.21,1.18ZM568.77,488.72c-6.72,14.12-8.13,27.41-5.49,42.77,1.45,8.42,4.32,14.07,8.76,17.25,6.15,4.41,14.69,3.66,23,2.19,6.62-1.17,13.58-2.6,19.47-6.02,6.39-3.7,10.57-9.47,11.18-15.43.27-2.64-.11-5.27-.53-8.06-.3-2.05-.61-4.16-.64-6.29-.09-6.86,2.64-13.2,5.69-19.64l.35-.75c2.7-5.69,5.48-11.56,5.92-17.74.4-5.66-1.83-13.02-7.68-15.79-2.82-1.33-6-1.47-9.38-1.6-.76-.03-1.51-.06-2.26-.11-2.06-.12-4.15-.37-6.17-.6-4.94-.57-9.6-1.11-14.2-.15-7.23,1.51-12.66,6.46-15.94,10.35-4.32,5.12-7.55,11.38-10.4,16.9l-1.69,2.7Z"/><path class="cls-3" d="M589.57,539.37c-3.85,0-7.69-1.07-10.83-3.28-6.56-4.6-9.14-12.4-10.15-18.13h0c-1.07-6.09-.88-12.62.55-18.88,2.58-11.28,11.12-25.8,23.75-31.04,7.49-3.1,15.3-2.33,22.6,2.24,5.15,3.23,9.89,9.7,8.15,16.3-.78,2.94-2.65,5.26-4.47,7.52-.78.97-1.59,1.97-2.28,2.99-3.22,4.78-4.37,10.85-5.48,16.73-1.36,7.24-2.78,14.72-8.06,20.06-3.57,3.61-8.69,5.49-13.79,5.49ZM602.07,468.54c-2.75,0-5.51.57-8.26,1.71-11.85,4.91-19.89,18.67-22.34,29.37-1.36,5.95-1.54,12.15-.53,17.93h0c1.32,7.48,4.57,13.37,9.17,16.6,6.39,4.48,16.06,3.62,21.56-1.94,4.77-4.82,6.06-11.63,7.41-18.83,1.15-6.11,2.34-12.43,5.84-17.62.74-1.1,1.58-2.15,2.4-3.16,1.74-2.15,3.38-4.19,4.02-6.63,1.44-5.43-2.68-10.9-7.11-13.68-4.01-2.51-8.08-3.77-12.17-3.77Z"/><path class="cls-3" d="M590.49,515.25c-4.2,0-8.54-2.46-10.93-6.39-2.39-3.92-2.99-9.2-1.67-14.49,1.31-5.22,4.18-9.56,8.09-12.22,4.89-3.34,10.74-3.84,15.27-1.31,4.32,2.42,6.73,7.2,6.46,12.8h0c-.22,4.5-2.05,9.2-5.45,13.97-3,4.21-6.12,6.63-9.54,7.39-.73.16-1.47.24-2.23.24ZM594.94,481.6c-2.53,0-5.17.85-7.62,2.52-3.42,2.34-5.95,6.18-7.12,10.83-1.17,4.67-.67,9.29,1.39,12.67,2.31,3.79,6.77,5.91,10.61,5.06,2.82-.63,5.47-2.74,8.12-6.45,3.13-4.39,4.81-8.67,5.01-12.71h0c.23-4.75-1.68-8.61-5.24-10.61-1.58-.89-3.34-1.32-5.15-1.32Z"/><path class="cls-3" d="M590.83,506.39c-3.91,0-6.8-3.8-7.27-7.45h0c-.43-3.31,1.2-7.81,3.86-10.7,1.92-2.08,4.16-3.13,6.44-3.02,3.25.15,4.84,1.84,5.61,3.24,2.02,3.7.58,9.44-1.09,12.34-2.02,3.5-4.52,5.43-7.22,5.58-.11,0-.22,0-.33,0ZM593.55,487.6c-1.89,0-3.41,1.22-4.38,2.26-2.19,2.38-3.58,6.15-3.25,8.78h0c.35,2.7,2.5,5.52,5.1,5.36,2.35-.13,4.17-2.46,5.28-4.39,1.62-2.81,2.43-7.5,1.06-10.01-.69-1.27-1.88-1.92-3.63-2-.07,0-.14,0-.2,0Z"/><path class="cls-3" d="M577.29,1211.72c-26.85-6.45-41.82-34.17-44.76-58.78-2.6-21.79,1.89-43.75,6.23-64.99.8-3.94,1.61-7.87,2.37-11.79,10.89-56.35,11.51-109.22,1.84-157.16-11.07-54.87-35.57-102.84-70.84-138.71-19.77-20.1-39.18-30.29-57.71-30.29h-.22c-24.1.1-44.17,16.42-63.58,32.19l-1.94,1.58c-40.19,32.62-75.22,53.28-110.27,65.03-44.58,14.95-89.46,14.65-126.36-.84-18.63-7.82-35.49-19.57-51.79-30.93-5.84-4.07-11.87-8.27-17.89-12.23-18.19-11.96-45.74-27.92-75.14-27.29l-.04-2.38c30-.43,58.03,15.55,76.49,27.68,6.05,3.98,12.09,8.19,17.94,12.27,16.2,11.29,32.95,22.97,51.34,30.69,36.37,15.26,80.65,15.54,124.68.78,34.77-11.66,69.57-32.2,109.53-64.63l1.94-1.57c18.81-15.29,40.13-32.62,65.07-32.73h.23c19.19,0,39.18,10.43,59.41,31,35.6,36.21,60.32,84.59,71.48,139.91,9.73,48.24,9.11,101.43-1.83,158.08-.76,3.93-1.56,7.87-2.37,11.82-4.3,21.05-8.75,42.82-6.2,64.23,2.74,23.02,17.35,50.6,42.95,56.75l-.56,2.31Z"/><path class="cls-3" d="M543.8,1208.15c-15.8-15.58-24.43-39.94-24.29-68.57.09-18.4,3.48-36.8,6.76-54.59,1.12-6.09,2.28-12.4,3.29-18.59,16.2-99.55-4.89-195.52-57.86-263.3-18.21-23.3-36.21-35.62-55.01-37.65-27.19-2.94-51.77,16.05-73.44,32.8l-1.39,1.08c-38.97,30.1-72.73,49.36-106.24,60.62-42.25,14.2-85.22,15.02-120.99,2.31-21.72-7.72-41.76-20.57-61.14-32.99-26.95-17.28-54.83-35.15-86.7-38.42l.24-2.37c32.43,3.33,60.55,21.35,87.74,38.78,19.27,12.35,39.19,25.13,60.66,32.75,35.27,12.53,77.69,11.71,119.44-2.32,33.25-11.17,66.78-30.32,105.54-60.25l1.39-1.08c22.03-17.03,47.01-36.32,75.15-33.28,19.47,2.11,38,14.72,56.63,38.55,53.38,68.3,74.64,164.94,58.33,265.14-1.01,6.22-2.18,12.54-3.3,18.64-3.26,17.69-6.63,35.98-6.72,54.17-.14,27.99,8.24,51.73,23.58,66.86l-1.67,1.7Z"/><path class="cls-3" d="M523.06,1207.89c-18.4-27.64-25.78-63.6-23.22-113.17.63-12.2,1.75-24.59,2.83-36.57,2.36-26.2,4.8-53.28,2.26-79.8-4.71-49.19-27.51-97.36-62.58-132.18-15.4-15.28-46.68-40.46-83.26-37.17-22.89,2.05-43.2,14.8-62.85,27.12-4.24,2.66-8.46,5.31-12.7,7.85-60.59,36.32-125.84,46.5-179.03,27.92-22.99-8.03-44.11-21.43-64.53-34.38-25.82-16.39-52.52-33.33-82.72-38.97l.44-2.34c30.65,5.72,57.55,22.79,83.56,39.3,20.31,12.89,41.3,26.21,64.04,34.15,52.52,18.34,117.04,8.24,177.02-27.72,4.22-2.53,8.43-5.17,12.66-7.82,19.88-12.48,40.44-25.38,63.9-27.48,37.52-3.35,69.46,22.27,85.15,37.85,35.45,35.2,58.51,83.91,63.27,133.64,2.56,26.73.11,53.94-2.26,80.24-1.08,11.96-2.19,24.33-2.82,36.48-2.53,49.03,4.72,84.54,22.83,111.73l-1.98,1.32Z"/><path class="cls-3" d="M515.31,1214.92c-16.98-38.89-25.07-81.42-32.89-122.54-1.01-5.29-2.01-10.58-3.04-15.86-8.8-45.38-19.49-93.16-44.57-134.67-27.15-44.95-68.98-74.45-111.9-78.91-31.17-3.24-62.27,6.18-92.33,15.3-30.12,9.13-61.27,18.57-92.75,15.45-33.98-3.36-64.47-20.92-93.96-37.9-29.03-16.72-59.04-34.01-92.2-37.55l.25-2.37c33.66,3.59,63.9,21.01,93.14,37.85,29.27,16.86,59.53,34.29,93,37.6,31.01,3.08,61.93-6.3,91.82-15.36,30.29-9.18,61.61-18.67,93.27-15.38,43.65,4.54,86.15,34.46,113.68,80.04,25.28,41.84,36.03,89.86,44.87,135.45,1.02,5.28,2.03,10.57,3.04,15.86,7.8,41,15.86,83.39,32.73,122.03l-2.18.95Z"/><path class="cls-3" d="M498.32,1208.88c-11.43-28.56-17.69-59.23-23.75-88.9-1.88-9.21-3.82-18.73-5.89-28.03-8.01-36.04-19.71-77.27-45.76-109.84-20.95-26.19-51.47-46.8-88.25-59.6-30.27-10.53-64.08-16-106.4-17.2-9.77-.28-19.77-.33-29.45-.37-35.99-.18-73.2-.36-107.61-12.17-17.04-5.85-33.42-14.56-49.27-22.99-25.56-13.6-51.98-27.66-80.94-29.24l.13-2.38c29.49,1.61,56.15,15.79,81.93,29.51,15.76,8.39,32.06,17.06,48.92,22.85,34.04,11.68,71.06,11.86,106.85,12.04,9.69.05,19.71.1,29.5.37,42.57,1.21,76.61,6.71,107.12,17.33,37.21,12.95,68.1,33.82,89.33,60.36,26.36,32.95,38.16,74.51,46.22,110.81,2.07,9.33,4.02,18.86,5.9,28.08,6.03,29.56,12.27,60.12,23.63,88.49l-2.21.88Z"/><path class="cls-3" d="M488.58,1203.23c-11.52-64.5-29.49-137.6-75.47-190.8-36.24-41.93-90.94-71.97-154.04-84.6-21.98-4.4-44.77-6.75-66.82-9.02-34.36-3.54-69.89-7.2-103.05-18.71-15.98-5.55-31.62-12.99-46.75-20.19-25.52-12.14-51.9-24.7-80.17-28.12l.29-2.36c28.65,3.46,55.21,16.11,80.9,28.33,15.06,7.17,30.64,14.58,46.5,20.09,32.89,11.42,68.29,15.06,102.51,18.59,22.1,2.28,44.96,4.63,67.04,9.05,63.61,12.73,118.79,43.05,155.37,85.38,46.35,53.63,64.43,127.12,76.01,191.93l-2.34.42Z"/><path class="cls-3" d="M481.9,1208.87c-3.79-58.46-25.89-115.97-62.22-161.92-36.33-45.96-87.18-80.73-143.19-97.92-29.21-8.96-60.21-13.39-90.19-17.66-39.7-5.66-80.75-11.52-117.96-28-8.09-3.58-16.3-7.75-24.24-11.78-26.87-13.65-54.66-27.76-83.61-22.42l-.43-2.34c29.75-5.48,57.9,8.81,85.12,22.64,7.91,4.02,16.1,8.17,24.13,11.73,36.9,16.35,77.79,22.18,117.33,27.82,30.07,4.29,61.17,8.73,90.55,17.75,56.46,17.33,107.73,52.39,144.36,98.72,36.63,46.34,58.9,104.31,62.73,163.25l-2.38.15Z"/><path class="cls-3" d="M464.04,1257.31l-2.28-.69c15.7-51.91,8.49-112.48-19.3-162.02-26.81-47.79-71.29-85.66-125.24-106.65-50.16-19.5-108.83-23.9-165.19-12.39-36.15,7.39-62.42,20.02-80.3,38.63-26.39,27.47-36.3,72.02-25.86,116.27,10.16,43.05,36.91,80.8,59.08,108.87l-1.87,1.47c-22.32-28.27-49.26-66.29-59.53-109.8-10.63-45.03-.49-90.42,26.46-118.47,18.22-18.97,44.9-31.82,81.54-39.31,56.8-11.61,115.94-7.17,166.53,12.5,54.47,21.18,99.38,59.43,126.46,107.7,28.1,50.1,35.39,111.36,19.51,163.87Z"/><path class="cls-3" d="M448.48,1262.53l-2.09-1.13c24.66-45.39,23.19-105.21-3.83-156.13-29.84-56.23-81.23-89.4-119.08-107.32-39.52-18.71-76.72-26.65-110.56-23.62-57.5,5.14-110.21,44.74-131.16,98.54-20.95,53.8-8.9,118.61,29.99,161.29l-1.76,1.6c-39.48-43.33-51.71-109.13-30.44-163.75,21.27-54.62,74.78-94.83,133.17-100.05,34.27-3.07,71.88,4.96,111.79,23.84,38.18,18.07,90.02,51.54,120.17,108.35,27.38,51.61,28.85,112.3,3.81,158.38Z"/><path class="cls-3" d="M411.17,1268.68l-1.39-1.93c28.22-20.24,44.29-57.18,41.93-96.41-1.99-33.17-16.57-67.74-42.16-99.97-29.09-36.64-67.43-64.06-107.96-77.22-44.19-14.35-92-12.03-131.15,6.36-41.52,19.5-72.98,57.91-82.09,100.26-9.6,44.6,6.37,93.31,39.75,121.21l-1.53,1.83c-34.04-28.45-50.33-78.1-40.55-123.54,9.27-43.05,41.23-82.1,83.41-101.91,39.7-18.64,88.14-21,132.9-6.47,40.98,13.3,79.72,41,109.09,78.01,25.89,32.62,40.65,67.65,42.67,101.31,2.41,40.04-14.04,77.78-42.91,98.49Z"/><path class="cls-3" d="M421.94,1235.06l-1.59-1.77c20.68-18.59,30.17-49.82,24.76-81.49-4.4-25.79-18.14-52.14-40.84-78.31-32.15-37.05-70.95-62.15-112.21-72.58-46.02-11.63-94.38-3.52-129.35,21.71-38.12,27.5-58.15,74.85-49.85,117.83,6.01,31.1,26.91,61.54,58.87,85.71l-1.44,1.9c-32.42-24.52-53.65-55.48-59.76-87.15-8.47-43.87,11.94-92.18,50.79-120.21,35.53-25.63,84.62-33.89,131.32-22.08,41.74,10.55,80.96,35.9,113.43,73.32,22.99,26.5,36.92,53.24,41.39,79.47,5.54,32.47-4.24,64.52-25.52,83.66Z"/><path class="cls-3" d="M408.48,1233.19l-1.18-2.06c24.26-13.89,37.57-46.02,32.39-78.14-4.2-25.99-18.58-51.42-43.98-77.74-25.01-25.93-65.92-58.28-118.77-65.19-37.79-4.95-74.82,5.52-99.04,28-25.69,23.83-38.02,61.88-32.18,99.31,5.3,33.93,25.37,67.16,55.08,91.17l-1.5,1.85c-30.16-24.37-50.55-58.14-55.93-92.65-5.96-38.2,6.65-77.06,32.91-101.42,24.74-22.95,62.49-33.65,100.97-28.62,53.53,7,94.9,39.7,120.17,65.89,25.74,26.68,40.33,52.53,44.61,79.01,5.34,33.08-8.46,66.22-33.55,80.59Z"/><path class="cls-3" d="M291.11,1259.7c-29.5-7.72-70.54-24.19-98.58-58.77-26.26-32.38-34.51-75.5-21.02-109.85,11.1-28.28,37.56-51.5,69.06-60.62,29.02-8.4,61.95-5.69,92.73,7.61,27.02,11.68,51.97,31,74.15,57.43,10.82,12.9,18.01,24.13,22.6,35.35,4.09,10,8.18,25.33,4.42,41.59-5.46,23.57-24.92,40.34-46.1,56.84l-1.46-1.88c20.83-16.23,39.96-32.68,45.25-55.5,3.63-15.65-.34-30.47-4.3-40.15-4.5-10.99-11.56-22.02-22.22-34.72-21.94-26.14-46.6-45.24-73.27-56.78-30.27-13.09-62.64-15.76-91.12-7.51-30.8,8.91-56.67,31.6-67.51,59.2-13.18,33.57-5.07,75.76,20.65,107.49,27.63,34.08,68.18,50.33,97.33,57.97l-.6,2.3Z"/><path class="cls-3" d="M260.25,1237.07c-31.88-22.81-53.37-52.78-60.51-84.39-8.25-36.51,4.84-75.84,31.83-95.65,18.78-13.78,44.7-19.53,72.97-16.16,45.49,5.4,87.99,33.4,110.91,73.08,9.1,15.76,13.02,29.81,11.97,42.96-1.17,14.75-9.02,29.6-22.11,41.8-11.02,10.28-24.07,17.65-40.26,25.55l-1.04-2.14c16-7.81,28.87-15.08,39.68-25.15,12.65-11.8,20.23-26.09,21.36-40.25,1.01-12.65-2.81-26.25-11.66-41.57-22.55-39.04-64.37-66.59-109.13-71.91-27.67-3.27-52.99,2.3-71.28,15.72-26.25,19.27-38.97,57.59-30.92,93.2,7.02,31.04,28.18,60.51,59.58,82.98l-1.39,1.93Z"/><path class="cls-3" d="M292.67,1220.21c-20.79-9.38-37.96-25.73-48.33-46.04-10.38-20.31-13.57-43.8-8.99-66.14,2.49-12.14,7.05-21.52,13.57-27.86,5.85-5.69,13.93-9.75,24.72-12.38,33.64-8.23,72.85,1.36,107.59,26.31,12.89,9.26,21.77,18.13,27.95,27.9,7.71,12.2,10.78,26.16,8.42,38.31-2.63,13.53-11.22,23.58-17.97,29.63-9.19,8.24-20.07,13.88-29.5,18.31l-1.01-2.15c9.27-4.36,19.95-9.89,28.92-17.93,6.48-5.8,14.72-15.43,17.22-28.31,2.25-11.55-.7-24.89-8.09-36.58-6-9.5-14.68-18.16-27.32-27.23-34.17-24.54-72.67-34-105.63-25.93-10.36,2.53-18.09,6.38-23.62,11.77-6.17,6-10.5,14.97-12.9,26.64-4.47,21.81-1.35,44.75,8.78,64.58,10.13,19.83,26.89,35.79,47.19,44.95l-.98,2.17Z"/><path class="cls-3" d="M331.85,1219.89c-31.11,0-61.41-19.61-74.04-48.07-4.87-10.98-6.83-22.27-5.68-32.65,1.31-11.75,6.77-22.46,14.99-29.39,9.08-7.66,21.62-11.47,39.46-11.98,21.36-.63,43.26,2.97,63.3,10.39,17.1,6.32,27.98,14.58,33.26,25.24,6.28,12.68,4.28,29.53-5.1,42.94-7.51,10.73-19.08,19.39-35.39,26.47l-.95-2.18c15.89-6.9,27.14-15.29,34.39-25.65,8.88-12.71,10.81-28.61,4.91-40.52-5-10.09-15.45-17.96-31.95-24.07-19.76-7.31-41.35-10.87-62.41-10.24-17.27.5-29.35,4.13-37.99,11.42-7.76,6.54-12.91,16.69-14.15,27.84-1.11,9.95.79,20.82,5.49,31.41,12.25,27.63,41.66,46.66,71.86,46.66.44,0,.88,0,1.33-.01l.04,2.38c-.46,0-.91.01-1.37.01Z"/><path class="cls-3" d="M304.81,1202.58c-18.72-8.74-30.13-22.91-30.52-37.89-.45-17.39,14.38-31.65,29.27-36.73,16.15-5.53,33.68-3.48,48.85-1.13,13.44,2.08,29.7,6.13,36.26,19.07,6.13,12.08.56,26.74-7.2,35.24-8.57,9.39-20.66,14.9-31.34,19.77l-.99-2.17c10.46-4.77,22.32-10.18,30.57-19.21,7.23-7.92,12.45-21.49,6.83-32.56-6.08-11.98-21.63-15.81-34.51-17.8-14.88-2.31-32.07-4.32-47.71,1.03-14.07,4.81-28.09,18.18-27.66,34.42.43,16.56,15.34,29.35,29.15,35.8l-1.01,2.16Z"/><path class="cls-3" d="M330.02,1200.07c-9.71,0-17.39-5.79-20.64-15.64-3.4-10.29-1.26-24.51,9.41-31.79h0c8.22-5.61,19.7-5.79,27.91-.44,8.98,5.86,12.56,15.79,9.59,26.57-3.33,12.08-13.74,20.83-25.3,21.28-.33.01-.65.02-.97.02ZM320.13,1154.6c-9.7,6.62-11.61,19.64-8.49,29.08,3.01,9.11,10.27,14.36,19.26,13.99,12.3-.48,20.6-10.46,23.1-19.53,2.69-9.73-.52-18.69-8.59-23.95-7.43-4.85-17.82-4.68-25.27.41h0Z"/><path class="cls-3" d="M-11.57,1145.55c-4.66,0-9.32-1.08-13.61-3.58l1.2-2.06c11.93,6.94,27.1,1.92,35.91-6.63,8.14-7.9,13.56-19.59,16.56-35.73,1-5.39,1.72-10.95,2.4-16.32,1.01-7.91,2.06-16.08,4.06-23.97,8.5-33.64,35.18-63.62,71.36-80.2,29.7-13.61,66.11-18.96,108.22-15.93,3.56.26,7.16.52,10.17-.83,2.73-1.21,5-4.48,3.9-7.23-.76-1.9-2.81-3.08-4.85-4.13-13.68-7.01-28.28-11.94-43.41-14.65-14.64-2.63-29.81-3.15-44.49-3.66-6.32-.22-12.85-.44-19.27-.83-18.4-1.12-42.08-3.9-62.13-15.6-5.84-3.41-11.31-7.54-16.59-11.54-5.47-4.14-11.13-8.42-17.16-11.84-13.71-7.79-27.92-9.21-38.02-3.79l-1.13-2.1c10.82-5.81,25.9-4.38,40.32,3.82,6.16,3.5,11.88,7.83,17.42,12.01,5.23,3.95,10.64,8.04,16.36,11.38,19.62,11.45,42.94,14.18,61.08,15.28,6.38.39,12.9.61,19.21.83,14.76.51,30.02,1.04,44.83,3.7,15.36,2.76,30.18,7.76,44.07,14.88,2.33,1.2,4.91,2.7,5.98,5.36,1.62,4.06-1.35,8.6-5.14,10.29-3.56,1.59-7.46,1.3-11.22,1.03-41.8-3.02-77.82,2.28-107.15,15.71-35.54,16.28-61.72,45.67-70.05,78.61-1.96,7.75-3,15.86-4,23.69-.69,5.41-1.41,11-2.43,16.46-3.09,16.64-8.73,28.75-17.24,37.01-6.32,6.14-15.73,10.56-25.15,10.56Z"/><path class="cls-3" d="M-6.38,1134.02l-1.05-2.14c15.05-7.36,21.68-24.54,24.29-34.13,1.97-7.24,3.16-14.81,4.31-22.13,1.1-7,2.23-14.24,4.05-21.23,7.08-27.19,24.95-52.22,50.32-70.46,22.18-15.95,49.53-26.66,81.27-31.82,4.6-.75,6.96-2.08,7.41-4.2.72-3.39-4.08-5.72-7.03-6.56-13.16-3.74-27.26-4.69-40.9-5.61-17.68-1.19-35.96-2.41-52.39-9.76-8.09-3.62-15.52-8.64-22.71-13.5-5.41-3.66-11-7.44-16.81-10.57-7.6-4.09-26.99-12.64-42.97-3.69l-1.16-2.08c17.01-9.53,37.32-.61,45.27,3.67,5.91,3.19,11.55,7,17.01,10.69,7.1,4.8,14.45,9.77,22.35,13.3,16.04,7.17,34.1,8.38,51.57,9.56,13.76.92,27.99,1.88,41.39,5.7,4.65,1.32,9.72,4.57,8.71,9.34-.9,4.21-5.77,5.47-9.36,6.05-31.38,5.1-58.38,15.67-80.27,31.41-24.92,17.92-42.47,42.47-49.41,69.13-1.79,6.88-2.92,14.06-4.01,21-1.16,7.39-2.36,15.03-4.36,22.39-4.69,17.22-13.76,29.88-25.54,35.64Z"/><path class="cls-3" d="M-5.05,1116.85l-1.8-1.56c10.71-12.36,15.47-28.73,18.71-43.11.75-3.34,1.45-6.69,2.16-10.05,2.56-12.23,5.2-24.88,10.37-36.5,7.4-16.65,20.06-31,35.65-40.43,4.79-2.9,9.9-5.37,14.84-7.76,6.49-3.14,13.2-6.39,19.14-10.59,3.48-2.46,11.39-9.04,9.71-16.82-.88-4.06-4.48-7.67-9.63-9.66-3.21-1.24-6.56-1.81-10.12-2.42-1.57-.27-3.15-.54-4.7-.87-12.35-2.6-23.52-8.92-34.31-15.03-3.55-2.01-7.23-4.09-10.88-6-18.66-9.75-33.93-12.27-46.7-7.74l-.8-2.24c13.43-4.77,29.33-2.2,48.6,7.87,3.69,1.93,7.38,4.02,10.95,6.04,10.64,6.02,21.64,12.25,33.63,14.78,1.53.32,3.07.59,4.61.85,3.51.6,7.15,1.22,10.57,2.54,5.9,2.28,10.05,6.53,11.1,11.38,1.98,9.17-6.79,16.53-10.66,19.27-6.1,4.32-12.9,7.61-19.48,10.79-4.89,2.37-9.95,4.81-14.65,7.65-15.18,9.18-27.5,23.16-34.71,39.36-5.07,11.39-7.68,23.91-10.22,36.02-.7,3.37-1.41,6.74-2.16,10.09-3.3,14.67-8.17,31.38-19.23,44.14Z"/><path class="cls-3" d="M-4.24,1091.05l-1.88-1.46c9.97-12.75,13.67-29.26,17.25-45.21.38-1.7.76-3.4,1.15-5.09,4.2-18.32,10.09-36.85,24.58-48.39,4.27-3.4,9.13-6,13.83-8.52,1.4-.75,2.81-1.5,4.2-2.28,5.49-3.06,11.64-6.95,15.68-12.64,4.16-5.86,5.22-13.12,2.7-18.5-2.94-6.27-9.82-9.49-16.48-12.61l-2.34-1.1c-4.56-2.18-9.01-4.72-13.31-7.17-3.82-2.18-7.77-4.43-11.77-6.41-10.06-4.99-18.8-7.29-26.72-6.97-9.96.38-18.75,5.18-22.95,12.51l-2.07-1.18c4.61-8.04,14.16-13.29,24.93-13.71,8.34-.31,17.45,2.04,27.87,7.22,4.05,2.01,8.04,4.28,11.89,6.48,4.27,2.43,8.67,4.95,13.16,7.09l2.32,1.1c7.04,3.3,14.33,6.71,17.63,13.76,2.88,6.14,1.73,14.34-2.91,20.88-4.32,6.08-10.75,10.16-16.47,13.34-1.4.78-2.81,1.54-4.23,2.3-4.61,2.47-9.37,5.02-13.47,8.29-13.92,11.08-19.64,29.17-23.74,47.06-.39,1.69-.77,3.38-1.15,5.08-3.64,16.21-7.4,32.98-17.7,46.16Z"/><path class="cls-3" d="M-2.98,1060.78l-2.05-1.21c5.2-8.81,7.27-19.22,9.28-29.29.41-2.07.82-4.13,1.26-6.18,2.38-11.16,6.42-25.09,16.64-33.76,3.37-2.85,7.24-5,11-7.08,2.18-1.21,4.43-2.46,6.54-3.82,4.73-3.06,10.54-8.16,11.39-15.04.87-7.04-3.63-13.62-8.14-19.13-4.3-5.25-10.18-11.86-17.56-16.49-7.36-4.63-15.39-6.62-22.58-5.62-8.2,1.13-15.2,6.34-17.81,13.26l-2.23-.84c2.92-7.72,10.65-13.53,19.71-14.78,7.75-1.07,16.33,1.05,24.17,5.96,7.67,4.82,13.72,11.62,18.13,17,4.83,5.9,9.64,13,8.66,20.93-.96,7.79-7.31,13.4-12.46,16.74-2.17,1.41-4.46,2.68-6.68,3.9-3.65,2.02-7.43,4.12-10.61,6.82-9.67,8.2-13.55,21.64-15.85,32.44-.43,2.04-.84,4.09-1.25,6.15-2.04,10.26-4.15,20.88-9.56,30.03Z"/><path class="cls-3" d="M-2.97,1030.86l-2.38-.04c.24-14.06,6.52-28.17,16.8-37.77,1.69-1.58,3.52-3.08,5.28-4.53,4.32-3.54,8.41-6.89,10.94-11.51,4.22-7.71,2.86-17.26.97-23.92-1.86-6.56-4.41-11.56-7.79-15.3-4.07-4.5-9.6-7.15-14.76-6.96-4.73.12-9.68,2.47-13.93,6.61-3.9,3.8-6.83,8.56-9.66,13.17l-2.03-1.25c2.91-4.73,5.91-9.63,10.03-13.63,4.68-4.56,10.2-7.15,15.53-7.29,5.87-.15,12.07,2.74,16.59,7.75,3.63,4.02,6.35,9.33,8.31,16.25,2.88,10.16,2.47,19.05-1.18,25.71-2.75,5.02-7.21,8.67-11.52,12.21-1.74,1.42-3.53,2.9-5.17,4.42-9.82,9.16-15.81,22.65-16.05,36.07Z"/><path class="cls-3" d="M-4.01,1001.4l-2.29-.65c1.87-6.62,7.36-10.91,12.66-15.05,4.2-3.28,8.55-6.67,10.97-11.16,2.67-4.96,3.12-11.39,1.33-19.12-1.44-6.22-3.83-10.29-7.29-12.41-5.57-3.42-13.06-1.03-17.58,3.09-4.99,4.56-7.82,11.25-10.32,17.15l-2.19-.93c2.59-6.12,5.53-13.07,10.91-17.98,5.18-4.73,13.86-7.4,20.43-3.36,4.04,2.48,6.77,7.03,8.37,13.9,1.92,8.31,1.4,15.3-1.55,20.79-2.66,4.93-7.2,8.48-11.6,11.91-5.23,4.08-10.18,7.94-11.84,13.81Z"/><path class="cls-3" d="M-5.27,987.06l-1.42-1.91c4.72-3.5,9.6-7.11,12.83-12.05,3.43-5.25,4.14-11.52,1.81-15.97-.94-1.79-2.75-3.74-5.02-3.85-2.49-.06-4.69,1.93-6.36,3.73-6.23,6.72-11.04,14.75-15.7,22.51l-2.04-1.22c4.72-7.87,9.6-16,16-22.91,2.01-2.18,4.76-4.72,8.22-4.49,3.28.15,5.77,2.74,7.02,5.12,3.31,6.32,1.18,13.64-1.92,18.38-3.46,5.3-8.75,9.21-13.41,12.66Z"/><path class="cls-3" d="M62.62,1209.77c-8.08-10.63-17.23-22.68-19.86-36.95-.76-4.14-.97-8.44-1.17-12.59-.36-7.44-.69-14.47-3.95-20.7-1.15-2.2-3.15-5.04-6.15-6.07-5.39-1.85-10.93,2.84-13.07,4.94-2.72,2.68-5.13,5.77-7.46,8.77-1.59,2.05-3.24,4.16-4.99,6.15-5.48,6.24-10.95,9.79-16.71,10.87l-.43-2.34c5.22-.97,10.24-4.27,15.36-10.1,1.7-1.94,3.32-4.02,4.9-6.04,2.38-3.06,4.84-6.22,7.67-9,2.45-2.41,8.87-7.78,15.51-5.49,2.96,1.02,5.55,3.51,7.49,7.22,3.5,6.7,3.86,14.32,4.22,21.69.2,4.08.4,8.29,1.13,12.27,2.53,13.71,11.5,25.52,19.42,35.94l-1.89,1.44Z"/><path class="cls-3" d="M41.2,1206.71c-8.25-7.91-12.91-15.97-13.85-23.97-.39-3.36-.15-6.79.09-10.11.36-5.08.7-9.87-1.09-14.28-.98-2.4-3.16-5.22-6.09-5.28-1.59.04-3.41.8-5.44,2.55-4.94,4.24-8.14,9.88-11.54,15.84-3,5.26-6.09,10.71-10.48,15.05l-1.67-1.69c4.16-4.11,7.17-9.41,10.09-14.54,3.34-5.88,6.8-11.96,12.05-16.47,2.5-2.15,4.77-3.14,7.04-3.13,4.09.08,7,3.7,8.25,6.76,2,4.92,1.62,10.22,1.26,15.35-.23,3.21-.46,6.53-.1,9.66.87,7.43,5.29,15.01,13.13,22.52l-1.65,1.72Z"/><path class="cls-3" d="M27.63,1214.19c-5.19-4.32-8.56-11.16-9.49-19.26-.84-7.32.36-14.84,1.54-21.31.24-1.32.46-2.54.33-3.69-.13-1.14-.65-2.09-1.39-2.53-1.73-1.04-4.21.6-5.2,1.35-4.77,3.64-8.21,8.86-11.54,13.92-.82,1.25-1.65,2.5-2.49,3.73-1.86,2.71-4.47,5.82-8.17,5.88l-.04-2.38c2.61-.04,4.71-2.61,6.24-4.85.83-1.22,1.65-2.45,2.46-3.69,3.44-5.22,6.99-10.62,12.08-14.5,2.91-2.22,5.77-2.76,7.87-1.49,1.38.83,2.3,2.4,2.52,4.3.17,1.51-.09,2.95-.35,4.35-1.21,6.64-2.32,13.66-1.52,20.66.86,7.49,3.93,13.78,8.65,17.7l-1.52,1.83Z"/><path class="cls-3" d="M17.77,1217.81c-5.66-3.4-7.63-10.45-7.59-15.93.03-4.33,1.03-8.56,1.99-12.66.35-1.5.71-3,1.01-4.51.21-1.05.39-2.06.19-2.96-.15-.66-.63-1.4-1.27-1.52-.67-.13-1.54.37-2.63,1.53-3.66,3.89-6.64,8.33-8.85,13.18l-2.17-.99c2.32-5.09,5.44-9.75,9.28-13.83,1.08-1.15,2.76-2.63,4.81-2.24,1.5.29,2.77,1.63,3.15,3.35.3,1.35.07,2.69-.18,3.95-.31,1.53-.67,3.05-1.03,4.58-.93,3.97-1.9,8.07-1.93,12.13-.03,4.82,1.64,10.99,6.44,13.87l-1.23,2.04Z"/><path class="cls-3" d="M667.95,1279.59c-59.43-17.42-92.34-77.44-103.33-127.82-9.58-43.9-7.72-89.73-5.91-134.04.49-12.14,1-24.69,1.27-36.99,1.08-50.12-1.87-114.1-34.57-164.37-23.1-35.52-59.98-61.59-101.18-71.52-2.27-.55-4.58-1.06-6.89-1.58-12.93-2.87-26.31-5.85-35.63-15.28-11.99-12.13-13.18-30.7-13.38-48.69-.27-24.72-.58-52.73,9.47-77.42,9.25-22.73,31.03-45.55,58.92-45.55.15,0,.3,0,.45,0,13.35.12,26.19,5.6,37.52,10.44l192.58,82.21c20.51,8.75,41.71,17.8,64.35,19.16,19.5,1.16,45.18-4.68,58.81-24.59,13.43-19.62,10.46-49.61-6.91-69.76-16.1-18.69-42.52-29.38-72.54-29.38-.22,0-.45,0-.67,0-3.71,0-6.84-.49-9.55-1.5-6.19-2.31-10.05-6.31-11.49-11.91-2.55-9.9,3.36-22.52,10.34-30.64l.28-.32c22.53-26.14,55.41-42.07,90.22-43.71,58.28-2.75,101.85,5.77,137.12,26.82,23.22,13.85,42.66,33.41,61.45,52.32,18.17,18.28,36.95,37.18,59.07,50.81,49.51,30.51,119.19,35.12,191.14,12.65,46.38-14.48,90.15-37.81,132.47-60.36,15.22-8.11,30.97-16.5,46.61-24.37,51.39-25.82,119.46-54.87,190.29-50.4,49.84,3.16,98,23.48,139.27,58.75,39.68,33.91,69.42,79.42,83.75,128.13l-2.28.67c-29.73-101.06-122.63-178.94-220.89-185.18-70.27-4.46-137.95,24.46-189.07,50.15-15.62,7.85-31.35,16.23-46.56,24.34-42.42,22.61-86.28,45.99-132.88,60.54-72.62,22.67-143,17.97-193.1-12.9-22.36-13.78-41.24-32.78-59.51-51.16-18.69-18.81-38.02-38.26-60.98-51.96-34.86-20.8-78.01-29.2-135.8-26.48-34.16,1.61-66.43,17.24-88.53,42.89l-.27.32c-6.58,7.66-12.17,19.44-9.84,28.5,1.24,4.8,4.61,8.25,10.02,10.27,2.48.92,5.34,1.37,8.88,1.35,30.9-.21,58.2,10.89,74.85,30.2,18.04,20.94,21.08,52.17,7.07,72.66-14.19,20.73-40.77,26.81-60.92,25.62-23.05-1.38-44.45-10.52-65.14-19.35l-192.58-82.21c-11.13-4.75-23.74-10.13-36.61-10.24-26.97-.17-48.15,21.96-57.15,44.07-9.87,24.25-9.57,52.01-9.29,76.5.19,17.5,1.33,35.55,12.69,47.04,8.83,8.94,21.86,11.83,34.46,14.63,2.33.52,4.65,1.03,6.93,1.58,41.78,10.07,79.18,36.51,102.61,72.53,33.05,50.82,36.04,115.26,34.96,165.72-.27,12.32-.78,24.89-1.27,37.04-1.8,44.16-3.65,89.83,5.86,133.44,10.85,49.7,43.25,108.92,101.68,126.04l-.67,2.28Z"/><path class="cls-3" d="M708.39,483.93c-.53,0-1.07-.1-1.62-.35-2.37-1.06-2.96-4.03-2.48-6.5.51-2.64,1.77-4.97,2.99-7.23.58-1.07,1.16-2.15,1.66-3.25,2.39-5.34,2.71-11.59.86-17.14-.12-.35-.24-.7-.37-1.06-.47-1.31-.95-2.67-1.05-4.15-.14-2.14.68-4.03,2.22-5.07,1.5-1.01,3.44-1.08,5.31-.17,1.55.75,2.84,1.87,4.09,2.95.91.79,1.76,1.53,2.69,2.12,3.67,2.32,8.65,2.91,13.46,3.48,1.61.19,3.17.38,4.64.62h0c2.35.39,5.02.84,7.26,2.33,2.18,1.45,4.12,4.41,3.21,7.45-1.1,3.73-5.46,4.87-8.34,5.63-10.89,2.86-21.15,8.92-28.91,17.07-.93.98-3.12,3.28-5.62,3.28ZM713.28,440.75c-.5,0-.96.13-1.35.4-.83.56-1.26,1.63-1.17,2.94.08,1.16.49,2.3.92,3.51.13.37.26.74.39,1.11,2.03,6.11,1.68,12.99-.95,18.87-.52,1.16-1.13,2.29-1.73,3.41-1.19,2.2-2.31,4.27-2.75,6.55-.3,1.55-.01,3.38,1.11,3.88,1.09.48,2.53-.28,4.55-2.4,8.17-8.59,18.56-14.72,30.03-17.73,3.13-.82,6-1.74,6.66-4,.53-1.81-.73-3.78-2.25-4.8-1.82-1.21-4.21-1.61-6.33-1.96h0c-1.43-.24-2.96-.42-4.53-.61-4.84-.57-10.32-1.22-14.45-3.83-1.08-.68-2.05-1.52-2.98-2.33-1.18-1.03-2.3-1.99-3.56-2.6-.55-.27-1.09-.4-1.59-.4Z"/><path class="cls-3" d="M716.31,470.6c-.2,0-.4-.03-.62-.09-1.09-.31-1.5-.96-1.66-1.45-.44-1.4.72-2.83,1.58-3.88.16-.2.3-.36.37-.47.99-1.56,1.16-3.46,1.33-5.47l.04-.44c.35-3.96,1.6-6.44,3.82-7.59,2.31-1.2,4.86-.55,7.28.22l4.99,1.58c.59.19,1.47.47,2.03,1.28.78,1.13.53,2.71-.65,4.02-1.54,1.73-3.62,2.55-5.64,3.36-.48.19-.96.38-1.43.59-3.43,1.48-6.48,3.81-8.83,6.71-.38.47-1.32,1.63-2.61,1.63ZM719.72,459.01l-.04.43c-.19,2.21-.39,4.49-1.69,6.55-.11.17-.3.41-.53.7-.24.29-.79.96-1.02,1.42.14-.08.34-.27.64-.64,2.59-3.21,5.95-5.77,9.73-7.41.49-.21.99-.41,1.5-.61,1.84-.73,3.58-1.42,4.74-2.73.41-.46.56-.96.47-1.09-.1-.14-.57-.29-.8-.36l-4.99-1.58c-1.94-.62-3.96-1.15-5.46-.37-1.44.75-2.27,2.61-2.55,5.69h0Z"/><path class="cls-3" d="M1140.3,1319.38l-2.07-1.18c46.73-81.82,36.41-193.36-24.54-265.21-13.48-15.89-29.3-30.13-44.6-43.91-18.09-16.29-36.79-33.14-51.79-52.83-23.2-30.46-37.46-68.27-40.17-106.46-2.42-34.14,4.06-68.49,10.31-101.7l.2-1.08c5.94-31.53,12.67-67.26,9.58-102.2-3.35-37.86-19.01-70.61-42.96-89.85-28.24-22.68-68.72-24.89-94.16-5.13-22.23,17.27-29.18,44.58-36.53,73.49-5.18,20.36-10.54,41.41-21.72,58.82-13.64,21.23-35.04,35.66-55.75,49.63-8.43,5.69-17.14,11.56-25.2,17.81-37.1,28.77-67.49,71.76-87.88,124.32-19.58,50.46-28.36,104.25-34.37,150.22-4.11,31.48-8.02,67.97-2.26,102.68,6.25,37.67,23.49,68.74,48.53,87.5l-1.43,1.91c-25.53-19.13-43.09-50.74-49.45-89.01-5.82-35.03-1.89-71.73,2.25-103.38,6.02-46.11,14.84-100.08,34.51-150.78,20.55-52.96,51.2-96.3,88.64-125.34,8.12-6.29,16.87-12.2,25.33-17.9,20.5-13.83,41.7-28.12,55.07-48.94,10.98-17.08,16.29-37.94,21.42-58.12,7.13-28.03,14.51-57.01,37.38-74.78,26.28-20.42,68.03-18.2,97.11,5.15,24.46,19.64,40.44,52.99,43.84,91.49,3.12,35.27-3.64,71.17-9.61,102.85l-.2,1.08c-6.23,33.07-12.67,67.26-10.28,101.1,2.67,37.74,16.77,75.09,39.68,105.19,14.86,19.52,33.48,36.28,51.49,52.5,15.36,13.83,31.24,28.13,44.82,44.14,61.58,72.59,72.01,185.27,24.8,267.93Z"/><path class="cls-3" d="M809.02,571.81c-7.61,0-14.76-4.11-19.74-7.9-2.34-1.78-4.59-3.72-6.78-5.61-3.98-3.44-8.1-6.99-12.74-9.51-7.45-4.04-16.15-5.37-24.55-6.66-3.89-.6-7.91-1.21-11.8-2.09-12.31-2.77-26.24-10.45-28.39-23.68-2.24-13.75,9.21-25.03,16.23-30.54,17.8-13.96,41.49-22.49,68.51-24.67,25.63-2.08,51.32,1.63,73.06,5.52,14.69,2.63,31.68,6.03,47.39,13.12h0c14.95,6.75,42.73,24.33,40.91,42.53-.36,3.64-1.9,6.53-4.58,8.6-8.23,6.35-25.61,3.6-38.3,1.59-4.79-.76-9.02-1.45-11.43-1.39-23.29.18-46.29,9.52-63.12,25.62-.9.86-1.8,1.75-2.7,2.65-5.17,5.12-10.51,10.41-17.71,11.97-1.42.31-2.84.45-4.25.45ZM805,462.96c-5,0-10.03.18-15.06.59-26.55,2.14-49.79,10.5-67.23,24.17-5.32,4.17-17.47,15.28-15.35,28.28,1.96,12.06,15.01,19.13,26.57,21.74,3.81.86,7.79,1.47,11.64,2.06,8.61,1.32,17.51,2.68,25.33,6.92,4.86,2.64,9.08,6.28,13.16,9.8,2.15,1.86,4.38,3.78,6.66,5.51,5.5,4.18,13.8,8.81,22.04,7.02,6.52-1.41,11.61-6.45,16.53-11.33.91-.9,1.82-1.8,2.73-2.68,17.26-16.52,40.86-26.1,64.75-26.28,2.72.02,6.93.65,11.82,1.42,12.27,1.94,29.07,4.6,36.48-1.12,2.17-1.67,3.37-3.95,3.67-6.95,1.74-17.48-27.94-34.89-39.53-40.12h0c-13.9-6.28-28.77-9.72-46.82-12.95-17.31-3.1-37.14-6.07-57.39-6.07Z"/><path class="cls-3" d="M588.68,947.82c-.49,0-.98-.03-1.46-.07-5.72-.6-11.71-4.74-12.2-12.66l-2.83-45.88c-1.71-27.72-3.64-59.13-18.25-85.05-21.27-37.74-64.27-56.22-99.37-68.1l-2.58-.87c-21.82-7.36-44.38-14.98-56.94-33.84-8.55-12.84-11.62-30.31-9.39-53.39,2.36-24.43,9.57-41.16,22.03-51.15,10.8-8.65,26.08-12.31,43.02-10.32,14.99,1.77,29.1,7.43,42.76,12.91l164.26,65.91c4.59,1.84,9.37,4.36,14,6.79,7.51,3.95,15.27,8.04,22.83,9.65,4.57.98,10.09.43,15.93-.14,11.31-1.12,23.01-2.26,29.87,7.39,2.86,4.02,3.86,9.22,2.73,14.26-2.13,9.53-9.1,15.9-16.05,21.61-9.47,7.78-19.72,15.16-29.62,22.29-25.52,18.38-51.91,37.38-67.13,64.85-13.06,23.58-16.66,51.24-20.14,78-.35,2.68-.7,5.36-1.05,8.03-1.61,12.03-3.76,26.18-7.56,39.96-1.9,6.91-7.61,9.83-12.88,9.83ZM441.84,588.32c-12.82,0-24.19,3.56-32.64,10.33-11.93,9.56-18.85,25.76-21.15,49.52-2.18,22.52.77,39.48,9,51.85,12.11,18.19,34.28,25.67,55.72,32.91l2.58.87c35.49,12.02,79.01,30.75,100.68,69.19,14.87,26.39,16.83,58.1,18.55,86.08l2.83,45.88c.4,6.53,5.35,9.95,10.07,10.44,4.66.49,10.1-1.81,11.81-8.02,3.76-13.64,5.9-27.7,7.49-39.65.36-2.67.7-5.35,1.05-8.03,3.51-26.98,7.13-54.87,20.41-78.85,15.48-27.94,42.09-47.1,67.82-65.63,9.87-7.11,20.09-14.46,29.5-22.2,6.63-5.45,13.27-11.5,15.24-20.29.98-4.38.12-8.89-2.35-12.36h0c-6.07-8.52-17.07-7.45-27.7-6.4-6.03.59-11.72,1.15-16.65.1-7.88-1.68-15.79-5.84-23.44-9.87-4.78-2.52-9.3-4.89-13.77-6.69l-164.26-65.91c-13.51-5.42-27.48-11.03-42.15-12.75-2.93-.35-5.8-.52-8.61-.52Z"/><path class="cls-3" d="M589.41,923.24c-.32,0-.63-.03-.93-.09-1.89-.36-3.8-1.94-3.8-4.62.04-25.35-.5-54.77-7.34-83.12-8.59-35.61-26.71-64.42-51.01-81.12-13.02-8.94-28.13-14.74-42.74-20.35-7.85-3.01-15.97-6.13-23.72-9.71-16.03-7.41-43.77-24-49.4-51.88-3.52-17.43,2.88-36.22,16.29-47.88,14.25-12.39,35.82-16.84,59.16-12.18,17.08,3.4,33.15,10.91,48.68,18.16,2.92,1.37,5.84,2.73,8.77,4.07,23.32,10.66,48.68,20.4,79.81,30.65,6.28,2.07,12.79,4.35,19.08,6.55,17.72,6.22,36.05,12.64,53.98,16.06,2.31.44,4.97.59,7.78.76,9.13.53,19.47,1.12,22.14,12.11h0c1.78,7.32-1.67,15.3-8.38,19.4-43.55,26.58-87.44,56.4-103.77,102.69-5.26,14.92-7.37,31.19-9.41,46.92-2.21,17.09-4.5,34.76-10.86,50.63-.84,2.11-2.66,2.97-4.34,2.97ZM468.17,612.86c-15.74,0-29.73,4.61-39.84,13.4-12.78,11.11-18.87,29.02-15.52,45.62,5.42,26.85,32.44,42.97,48.06,50.19,7.68,3.55,15.76,6.65,23.57,9.65,14.74,5.66,29.98,11.51,43.23,20.61,24.79,17.03,43.25,46.34,51.98,82.53,6.9,28.61,7.44,58.2,7.41,83.69,0,1.41.96,2.1,1.87,2.28.87.18,2.08-.1,2.61-1.42,6.24-15.59,8.51-33.11,10.71-50.05,2.05-15.85,4.18-32.25,9.52-47.41,16.59-47.03,60.86-77.13,104.77-103.93,5.84-3.57,8.85-10.48,7.31-16.8-2.26-9.28-11.26-9.8-19.97-10.3-2.89-.17-5.62-.32-8.09-.79-18.1-3.45-36.51-9.91-54.32-16.15-6.28-2.2-12.77-4.48-19.03-6.54-31.22-10.28-56.65-20.05-80.06-30.74-2.93-1.34-5.86-2.71-8.78-4.07-15.41-7.2-31.34-14.64-48.14-17.98-5.92-1.18-11.72-1.76-17.3-1.76Z"/><path class="cls-3" d="M596.25,816.57c-6.55,0-12.96-3.53-17.1-7.82-5.8-6.02-8.99-13.96-11.8-20.97l-.22-.54c-5.32-13.27-10.83-27-20.19-37.78-6.77-7.79-15.45-13.9-23.86-19.81-2-1.4-3.99-2.81-5.97-4.23-9.91-7.16-20.8-16.14-26.49-28.42-5.08-10.97-5.7-27.31,4.93-37.26,5.23-4.9,12.97-7.75,21.79-8.04,7.81-.24,15.49,1.37,22.92,2.94l53.61,11.3.11-.41,6.17,1.74,3.89.82-.05.26,60.02,16.88c8.83,2.49,18.59,5.84,22.55,14.23,4.42,9.36-.83,20.44-7.22,27.69-7.05,8-15.98,14.11-24.63,20.01-2.21,1.51-4.41,3.01-6.59,4.55-9.94,7.02-20.8,15.87-26.03,28.2-1.45,3.41-2.45,7.1-3.41,10.67-.82,3.02-1.67,6.15-2.79,9.16-3.06,8.15-8.03,13.79-14,15.89-1.86.66-3.76.95-5.66.95ZM518.96,654.05c-.51,0-1.03,0-1.54.03-8.24.26-15.43,2.89-20.24,7.4-9.33,8.73-9.28,23.97-4.39,34.52,5.45,11.78,16.06,20.5,25.72,27.49,1.96,1.42,3.95,2.82,5.94,4.22,8.52,5.99,17.33,12.19,24.28,20.2,9.63,11.09,15.21,25,20.61,38.46l.22.54c2.73,6.81,5.83,14.53,11.31,20.21,4.81,4.98,12.93,8.85,20.25,6.28,7.14-2.51,10.93-10.15,12.56-14.48,1.09-2.9,1.92-5.97,2.72-8.95.99-3.64,2.01-7.41,3.52-10.97,5.46-12.88,16.63-22,26.84-29.22,2.18-1.54,4.4-3.06,6.62-4.57,8.52-5.82,17.33-11.84,24.18-19.62,5.89-6.68,10.78-16.79,6.85-25.1-3.53-7.48-12.71-10.61-21.04-12.95l-63.78-17.94-59.82-12.61c-6.79-1.43-13.8-2.91-20.81-2.91Z"/><path class="cls-3" d="M597.73,788.36c-4.79,0-9.26-2.84-11.97-5.74-3.04-3.25-5.08-7.22-7.05-11.07-.48-.94-.97-1.89-1.46-2.82-5.29-9.9-12.61-18.97-21.16-26.25-2.84-2.42-5.9-4.71-8.86-6.92-5.42-4.06-11.03-8.27-15.63-13.46-6.66-7.52-12.18-19.45-7.67-30.4,2.63-6.4,8.64-11.68,16.48-14.48,7.19-2.57,14.96-2.91,21.68-3.02,26.73-.46,50.54,4.71,75.03,16.25,7.74,3.65,13.28,8.12,15.15,18.09,2.59,13.79-7.29,24.24-18.36,33.47l-.78.65c-7.23,6.03-14.72,12.26-18.12,20.8-.89,2.25-1.5,4.67-2.09,7.01-.53,2.11-1.08,4.29-1.84,6.4-1.18,3.27-4.02,9.03-9.69,10.89-1.22.4-2.44.58-3.65.58ZM565.27,676.55c-1.05,0-2.1,0-3.16.03-6.53.11-14.07.43-20.91,2.88-7.21,2.58-12.7,7.37-15.08,13.15-4.1,9.95,1.34,21.26,7.25,27.92,4.44,5.01,9.95,9.14,15.28,13.13,2.99,2.24,6.08,4.55,8.97,7.01,8.78,7.47,16.29,16.78,21.72,26.94.5.94.99,1.9,1.48,2.85,1.9,3.7,3.86,7.52,6.67,10.53,2.92,3.12,8.12,6.17,13.14,4.53,4.71-1.55,7.16-6.58,8.19-9.44.72-1.99,1.25-4.12,1.77-6.17.61-2.42,1.23-4.92,2.19-7.31,3.62-9.1,11.34-15.53,18.8-21.75l.78-.65c9.79-8.17,20.03-17.99,17.55-31.21-1.69-9.01-6.54-12.95-13.83-16.38-23.17-10.92-45.76-16.05-70.81-16.05Z"/><path class="cls-3" d="M598.2,762.83c-2.63,0-5.45-1.3-7.98-3.72-3.72-3.55-6.02-8.2-8.24-12.68-2.18-4.4-4.25-8.56-7.53-11.81-2.59-2.56-5.74-4.35-9.08-6.25-1.66-.94-3.37-1.92-5-3-3.63-2.4-9.72-7.48-9.71-14.61.01-4.46,2.69-9.08,7.01-12.05,4.12-2.84,9.08-3.97,12.94-4.64,8.98-1.57,17.82-.93,26.37-.31,3.14.23,6.38.46,9.61.59,1.54.06,3.22.04,4.97.03,6.45-.07,13.77-.13,18.94,3.42,7.39,5.08,7.76,16.57,3.16,23.44-2.94,4.39-7.47,7.18-11.85,9.88-5.39,3.32-10.48,6.46-12.64,12.29h0c-.7,1.9-.96,3.93-1.24,6.07-.18,1.41-.37,2.86-.69,4.29-1.07,4.69-3.76,8-7.19,8.86-.6.15-1.21.22-1.83.22ZM582.95,695.46c-3.96,0-7.91.25-11.95.95-3.62.63-8.26,1.69-12,4.26-3.68,2.53-5.97,6.4-5.98,10.09-.01,6,5.41,10.48,8.64,12.62,1.56,1.03,3.24,1.99,4.87,2.91,3.32,1.89,6.76,3.85,9.57,6.63,3.57,3.53,5.82,8.06,7.99,12.45,2.23,4.5,4.34,8.76,7.76,12.02,1.2,1.14,4.33,3.71,7.59,2.91,3.77-.93,5.12-5.65,5.44-7.08.3-1.32.47-2.65.65-4.07.28-2.18.57-4.43,1.37-6.59,2.44-6.6,8.13-10.1,13.62-13.49,4.36-2.68,8.47-5.22,11.12-9.17,3.99-5.95,3.75-15.84-2.53-20.15-4.55-3.13-11.47-3.07-17.57-3-1.79.01-3.51.03-5.08-.03-3.27-.13-6.53-.36-9.69-.59-4.71-.34-9.28-.67-13.84-.67Z"/><path class="cls-3" d="M594.23,742.77c-1.64,0-3.32-.62-4.58-1.5-4.76-3.3-6.12-9.65-7.12-14.28-1.03-4.77-2.47-10.05-6.55-12.44-.58-.34-1.2-.61-1.82-.89-1-.44-2.03-.9-2.97-1.62-1.84-1.42-2.96-4.11-1.66-6.17.86-1.36,2.39-1.87,3.9-2.22,3.4-.78,33.44-7.12,40.91,7.73,3.38,6.72-.55,10.58-5.24,14.26-.74.58-1.51,1.12-2.28,1.66-2.04,1.43-3.97,2.78-5.21,4.83-.57.94-.87,2.23-1.18,3.59-.5,2.17-1.02,4.4-2.75,5.86h0c-1.01.84-2.21,1.19-3.44,1.19ZM591.38,703.97c-8.18,0-15.85,1.64-17.43,2-.95.22-2,.51-2.42,1.17-.55.87.13,2.26,1.1,3.01.71.55,1.57.93,2.49,1.33.7.31,1.4.63,2.05,1.01,4.68,2.74,6.45,8.34,7.67,13.99.97,4.48,2.17,10.06,6.15,12.82,1.54,1.07,3.79,1.56,5.14.44,1.12-.94,1.53-2.7,1.96-4.56.34-1.49.7-3.02,1.47-4.29,1.51-2.48,3.73-4.04,5.88-5.55.74-.51,1.47-1.03,2.18-1.59,5.1-4,6.97-6.58,4.59-11.32-3.38-6.72-12.38-8.48-20.83-8.48Z"/><path class="cls-3" d="M803.55,547.5c-1.42,0-2.86-.16-4.3-.54-5.18-1.35-9.08-5.08-12.85-8.67-1.27-1.22-2.59-2.47-3.92-3.59-4.32-3.66-9.46-6.43-14.42-9.11-1.39-.75-2.77-1.5-4.14-2.26-6.08-3.4-12.88-7.77-17.2-14.34-3.9-5.94-5.82-15.07-1.32-22.09,3.2-5,8.88-7.7,13.47-9.51,28.42-11.16,60.46-7.82,88.26-3.8,14.2,2.05,29.23,4.5,43.29,9.89h0c11.59,4.44,21.19,10.35,28.54,17.59,2.64,2.6,8.13,8,4.75,13.93-2.68,4.71-8.37,6.1-13.59,6.84-8.58,1.22-17.36,1.55-25.85,1.87-5.19.2-10.55.4-15.8.8-16.92,1.3-29.4,4.72-39.27,10.76-1.88,1.15-3.74,2.45-5.54,3.7-2.56,1.79-5.21,3.63-8.04,5.15-3.13,1.67-7.47,3.4-12.09,3.4ZM803.93,472.17c-15.01,0-30.08,1.89-44.18,7.42-4.25,1.67-9.5,4.16-12.34,8.58-3.93,6.12-2.17,14.21,1.3,19.5,4.04,6.14,10.54,10.31,16.37,13.57,1.36.76,2.74,1.5,4.11,2.25,5.08,2.74,10.32,5.57,14.83,9.39,1.38,1.17,2.72,2.45,4.02,3.69,3.71,3.54,7.22,6.89,11.8,8.09,5.38,1.41,10.95-.67,14.66-2.66,2.7-1.45,5.29-3.25,7.8-5,1.83-1.27,3.71-2.59,5.66-3.78,13.41-8.2,29.44-10.26,40.33-11.1,5.29-.41,10.68-.61,15.89-.81,8.43-.32,17.15-.65,25.61-1.85,4.65-.66,9.69-1.84,11.86-5.66,2.17-3.82-.81-7.57-4.35-11.05-7.11-7-16.44-12.74-27.72-17.06h0c-13.83-5.3-28.72-7.72-42.78-9.76-13.59-1.96-28.21-3.77-42.88-3.77Z"/><path class="cls-3" d="M820.51,530.58c-7.36,0-14.7-.81-21.87-1.61-5.49-.61-11.18-1.24-16.54-3.18-6.08-2.19-10.87-5.92-13.47-10.5-5.43-9.54-1.06-21.73,5.81-28.34,6.2-5.97,14.9-9.73,27.4-11.83,24.2-4.06,48.51-1.13,77.57,4.51l-.06.32c7.5,1.7,13.11,4.46,17.11,8.43,5.57,5.52,7.52,13.7,4.74,19.89-2.13,4.75-7.05,8.52-13.48,10.33-3.81,1.07-7.77,1.45-11.59,1.82-1.64.16-3.27.32-4.9.53-6.74.87-13.47,2.7-19.97,4.47-7.06,1.92-14.36,3.9-21.79,4.71-2.98.32-5.97.46-8.95.46ZM825.42,475.61c-7.85,0-15.53.57-23.19,1.86-12,2.01-20.3,5.57-26.14,11.19-6.22,6-10.23,16.95-5.39,25.46,2.32,4.08,6.66,7.44,12.21,9.44,5.1,1.84,10.64,2.45,15.99,3.05,9.94,1.11,20.22,2.24,30.3,1.15,7.24-.78,14.45-2.74,21.43-4.64,6.58-1.79,13.39-3.64,20.29-4.53,1.65-.21,3.31-.37,4.97-.53,3.72-.36,7.57-.73,11.18-1.74,5.75-1.62,10.11-4.9,11.95-9.01,2.38-5.3.63-12.39-4.25-17.22-3.95-3.91-9.68-6.57-17.55-8.13-2.83-.56-5.76-.97-8.59-1.36-3.78-.53-7.69-1.07-11.49-2l.09-.38c-11.12-1.63-21.62-2.6-31.82-2.6Z"/><path class="cls-3" d="M819.3,521.89c-7.88,0-16-1-24.17-3.01-3.31-.82-6.78-1.85-9.71-3.88-3.35-2.32-5.46-5.75-5.65-9.17-.36-6.37,5.27-11.03,10.05-13.81,18.6-10.83,41.09-12.36,58.6-12.48,4.35-.02,8.59.07,12.52,1.58,4.68,1.8,8.22,5.35,9.71,9.72,1.37,4,.85,8.29-1.44,12.09-2.84,4.69-7.71,7.7-11.12,9.56-11.45,6.23-24.74,9.41-38.79,9.41ZM849.52,481.91c-.36,0-.72,0-1.08,0-17.22.12-39.31,1.61-57.42,12.16-4.21,2.45-9.16,6.46-8.87,11.62.15,2.7,1.89,5.45,4.63,7.35,2.61,1.8,5.83,2.76,8.92,3.52,21.83,5.39,44.15,3.14,61.25-6.17,5.11-2.78,8.27-5.47,10.23-8.71h0c1.93-3.18,2.36-6.76,1.23-10.09-1.27-3.71-4.3-6.72-8.32-8.27-3.23-1.25-6.83-1.43-10.56-1.43Z"/><path class="cls-3" d="M828.36,514.91c-1.63,0-3.25-.11-4.87-.35-3.78-.55-6.65-1.67-8.78-3.45-2.81-2.35-4.17-6-3.37-9.1,1.01-3.92,4.74-6.09,8.26-7.7,7.67-3.5,15.73-6.22,23.97-8.06,2.84-.64,11.49-2.58,14.62,2.91,2.73,4.78-.31,10.75-4.07,14.73h0c-6.61,7.01-16.15,11.02-25.75,11.02ZM850.15,487.79c-1.69,0-3.7.26-6.06.79-8.07,1.81-15.98,4.47-23.5,7.91-3.01,1.37-6.18,3.17-6.94,6.12-.66,2.57.83,5.21,2.59,6.68,1.78,1.48,4.26,2.44,7.59,2.92,10.41,1.5,21.34-2.3,28.55-9.95h0c3.03-3.21,5.83-8.26,3.74-11.92-.98-1.71-2.95-2.56-5.97-2.56Z"/><path class="cls-3" d="M352.32,766.43c-1.27,0-2.55-.3-3.75-1.05-2.15-1.35-3.48-4.04-3.48-7.02,0-2.64.93-5.09,1.81-7.18h0c3.9-9.29,10.07-21.75,18.6-22.56,4.4-.4,6.57,1.59,7.64,3.35,3.45,5.7.26,16.58-2.35,20.57-2.84,4.34-6.6,8.18-10.88,11.1-1.76,1.2-4.65,2.79-7.58,2.79ZM349.08,752.11c-.97,2.32-1.62,4.27-1.62,6.25,0,1.7.62,3.9,2.37,5,2.94,1.85,7.08-.56,8.73-1.69,4.02-2.74,7.56-6.35,10.23-10.44,2.41-3.69,4.98-13.6,2.3-18.03-1.05-1.74-2.81-2.47-5.37-2.21-8.1.77-14.53,16.08-16.64,21.11h0Z"/><path class="cls-3" d="M357.07,754.87c-.76,0-1.35-.22-1.79-.47-2.06-1.22-2.02-3.9-1.29-6.01.81-2.35,3.81-8.05,7.43-9.67,1.24-.56,2.5-.6,3.63-.12,1.76.74,2.92,2.69,2.87,4.84-.03,1.53-.62,3.11-1.79,4.85-1.53,2.25-3.57,4.18-5.92,5.57-1.27.75-2.31,1.01-3.15,1.01ZM363.41,740.65c-.32,0-.66.08-1.02.24-2.6,1.16-5.35,5.93-6.15,8.27h0c-.42,1.21-.52,2.72.25,3.18.7.4,1.87-.16,2.51-.54,2.04-1.21,3.83-2.89,5.16-4.85.91-1.34,1.36-2.51,1.38-3.57.02-.99-.46-2.19-1.41-2.6-.23-.1-.47-.15-.72-.15Z"/><path class="cls-3" d="M1107.54,1312.22l-2.05-1.2c43.03-73.81,55.82-131.7,40.23-182.16-13.45-43.53-47.58-76.1-80.58-107.6-18.37-17.53-37.37-35.66-52.91-55.66-40.35-51.92-58.59-119.09-50.04-184.29,1.43-10.88,3.61-21.81,5.71-32.37,2.31-11.57,4.7-23.54,6.08-35.43,3.18-27.21.25-48.96-8.96-66.5-11.27-21.46-33.62-34.99-54.34-32.95-18.61,1.85-33.5,14.92-42.7,25.56-6.33,7.31-11.91,15.46-17.3,23.35-4.22,6.16-8.57,12.52-13.28,18.49-20.63,26.13-48.55,45.41-75.54,64.06-20.8,14.37-42.3,29.22-60.4,47.13-61.94,61.33-80.64,152.63-93.3,233.4-5,31.92-9.14,63.08-4.83,93.39,4.87,34.3,20.98,63.12,44.19,79.07l-1.35,1.96c-23.76-16.33-40.24-45.74-45.2-80.7-4.35-30.63-.2-61.98,4.84-94.09,12.72-81.14,31.52-172.89,93.98-234.73,18.24-18.06,39.83-32.97,60.72-47.4,26.85-18.55,54.62-37.73,75.02-63.57,4.66-5.9,9-12.24,13.19-18.36,5.43-7.93,11.05-16.14,17.47-23.56,9.49-10.97,24.87-24.44,44.26-26.37,21.64-2.14,44.97,11.91,56.68,34.21,9.44,17.98,12.46,40.18,9.22,67.89-1.4,11.99-3.8,24-6.12,35.62-2.1,10.53-4.27,21.42-5.69,32.22-8.47,64.57,9.6,131.1,49.56,182.52,15.44,19.86,34.37,37.93,52.68,55.4,33.22,31.71,67.58,64.5,81.21,108.62,15.8,51.14,2.95,109.63-40.45,184.06Z"/><path class="cls-3" d="M1043.43,1329l-1.76-1.6c25.23-27.81,51.32-56.57,69.52-90.16,20.19-37.27,27.12-76.12,19.51-109.38-6.72-29.38-24.79-57.83-56.86-89.51-8.38-8.28-17.22-16.4-25.78-24.25-17.63-16.19-35.86-32.93-51.04-51.97-25.52-32.01-42.33-70.31-48.63-110.76-.98-6.31-1.74-12.82-2.47-19.12-2.33-20.06-4.73-40.81-14.84-58.23-12.81-22.08-38.68-37.79-67.51-40.99-24.8-2.75-51.61,2.7-79.67,16.22-53.34,25.7-98.23,74.23-126.42,136.65-23.08,51.11-35.71,111.69-38.63,185.2-.87,22.04-.88,45.48,4.93,67.51,6.36,24.11,19.3,43.63,36.45,54.96l-1.31,1.98c-17.64-11.65-30.93-31.65-37.44-56.33-5.89-22.34-5.88-45.98-5-68.21,2.93-73.82,15.63-134.69,38.84-186.09,28.41-62.93,73.71-111.88,127.55-137.81,28.47-13.72,55.7-19.25,80.96-16.44,29.57,3.28,56.12,19.43,69.3,42.16,10.35,17.85,12.79,38.85,15.14,59.15.73,6.27,1.48,12.76,2.45,19.03,6.23,40.05,22.87,77.96,48.13,109.65,15.07,18.9,33.23,35.57,50.8,51.7,8.57,7.87,17.43,16.01,25.84,24.31,32.41,32.01,50.68,60.82,57.51,90.67,7.74,33.83.73,73.27-19.74,111.05-18.33,33.85-44.52,62.71-69.85,90.63Z"/><path class="cls-3" d="M929.57,1379.48l-1.44-1.9c48.42-36.66,103.29-78.21,137.12-133.8,37.36-61.4,40.71-132.68,8.53-181.61-11.61-17.65-27.57-32.25-43-46.37-10.85-9.92-22.06-20.18-31.78-31.48-20.76-24.15-34.97-53.32-48.72-81.52-6.03-12.37-12.26-25.17-18.96-37.36-27.61-50.25-60.64-79.77-98.15-87.73-39.71-8.43-86.28,9.8-118.62,46.45-29.96,33.94-45.94,77.54-58.74,119.6-11.64,38.23-23.5,83.59-23.25,130.17.26,48.37,14.47,92.2,39.99,123.43l-1.84,1.51c-25.87-31.65-40.26-76.01-40.53-124.92-.26-46.89,11.66-92.47,23.35-130.87,12.88-42.32,28.98-86.2,59.23-120.48,32.9-37.27,80.35-55.81,120.9-47.2,38.22,8.11,71.77,38.03,99.74,88.91,6.73,12.24,12.97,25.06,19.01,37.46,13.68,28.07,27.82,57.1,48.38,81.02,9.63,11.2,20.79,21.41,31.58,31.28,15.54,14.22,31.61,28.91,43.38,46.81,32.68,49.69,29.34,121.97-8.49,184.15-34.06,55.98-89.13,97.67-137.72,134.46Z"/><path class="cls-3" d="M938.05,1346.46l-1.52-1.83c49.28-40.78,82.85-81.17,102.64-123.48,24.58-52.56,27.1-110.99,6.75-156.32-10.21-22.74-26.06-42.79-41.37-62.18-3.75-4.74-7.49-9.48-11.16-14.26-8.07-10.51-15.94-21.46-23.55-32.06-17.14-23.85-34.86-48.5-55.87-69.58-34.97-35.07-74.93-54.15-112.78-53.64-36.49.46-74.59,19.89-101.92,51.97-22.75,26.71-39.06,61.45-49.85,106.2-9.54,39.57-12.02,74.64-7.56,107.21,5.17,37.83,20.6,72.22,43.45,96.84l-1.75,1.62c-23.17-24.97-38.82-59.83-44.06-98.13-4.49-32.86-2.01-68.22,7.61-108.09,10.88-45.12,27.35-80.18,50.35-107.18,27.77-32.6,66.54-52.34,103.7-52.81,38.44-.58,79.07,18.81,114.49,54.34,21.15,21.21,38.92,45.95,56.11,69.87,7.6,10.58,15.46,21.52,23.51,32,3.66,4.77,7.4,9.5,11.14,14.24,15.41,19.5,31.35,39.67,41.68,62.68,20.64,45.95,18.11,105.13-6.76,158.31-19.94,42.63-53.72,83.29-103.28,124.3Z"/><path class="cls-3" d="M944.69,1306.42l-1.67-1.7c23.09-22.77,46.98-46.32,66.04-73.21,21.43-30.23,33.63-60.56,36.27-90.15,4.68-52.35-20.76-100.07-42.92-130.88-40.5-56.31-94.78-93.79-152.86-105.53-65.25-13.2-133.82,9.93-170.63,57.56-25.79,33.37-37.06,79.98-30.16,124.7,6.41,41.55,27.91,82.37,60.52,114.94l-1.68,1.68c-32.97-32.92-54.7-74.21-61.19-116.26-7-45.35,4.45-92.65,30.63-126.52,37.36-48.33,106.88-71.82,172.99-58.44,58.66,11.87,113.47,49.68,154.32,106.47,22.4,31.14,48.1,79.41,43.36,132.49-2.68,30.02-15.03,60.74-36.7,91.32-19.19,27.07-43.15,50.69-66.32,73.53Z"/><path class="cls-3" d="M905.19,1308.42l-1.63-1.74c32.44-30.39,65.98-61.81,90.58-99.76,27.33-42.17,38.95-87.42,32.72-127.41-4.69-30.11-19.71-60.08-43.45-86.67-48.86-54.74-126.67-82.9-198.23-71.71-44,6.87-80.11,28-99.06,57.97-15.66,24.76-21.51,57.43-17.4,97.1,3.31,31.93,15.82,90.82,62.52,126.49l-1.45,1.89c-47.4-36.22-60.1-95.83-63.44-128.14-4.16-40.22,1.81-73.39,17.76-98.62,19.32-30.55,56.02-52.07,100.7-59.05,72.34-11.29,150.99,17.16,200.38,72.48,24.04,26.94,39.27,57.33,44.03,87.89,6.32,40.57-5.43,86.4-33.07,129.07-24.75,38.2-58.4,69.72-90.95,100.21Z"/><path class="cls-3" d="M856.85,1328.52l-1.58-1.78c49.36-43.92,90.73-95.43,122.96-153.12,14.42-25.81,30.75-59.98,28.96-95.32-1.39-27.43-13.68-55.09-34.62-77.88-18-19.59-42.24-35.73-72.06-47.95-33.46-13.72-65.57-19.18-95.44-16.24-34.28,3.38-65.4,18.65-85.39,41.89-24.14,28.08-33.84,69.9-25.94,111.86,6.48,34.39,24.38,69.83,53.21,105.35l-1.85,1.5c-29.09-35.82-47.15-71.62-53.71-106.41-8.04-42.66,1.86-85.23,26.47-113.86,20.38-23.7,52.07-39.27,86.96-42.71,30.25-2.98,62.75,2.54,96.58,16.41,30.14,12.36,54.67,28.69,72.91,48.55,21.31,23.2,33.82,51.39,35.24,79.37,1.82,35.95-14.68,70.51-29.26,96.6-32.36,57.91-73.89,109.64-123.45,153.74Z"/><path class="cls-3" d="M814.3,1325.07l-1.45-1.88c34.93-26.99,71.04-54.89,101.67-87.7,34.34-36.79,57.11-75.2,67.68-114.17,6.06-22.34,12.94-65.23-9.1-101.43-16.13-26.49-43.31-41.46-63.26-49.36-30.25-11.96-61.12-15.19-89.3-9.34-31.15,6.47-58.01,24.28-73.68,48.86-16.91,26.53-21.71,61.95-13.52,99.73,7.24,33.37,23.05,64.19,40,95.44l-2.09,1.13c-17.04-31.41-32.94-62.39-40.24-96.07-8.32-38.4-3.41-74.45,13.84-101.51,16.01-25.12,43.42-43.31,75.2-49.91,28.63-5.95,59.98-2.68,90.65,9.46,20.3,8.03,47.94,23.27,64.42,50.33,22.5,36.95,15.52,80.57,9.36,103.28-10.67,39.34-33.63,78.09-68.24,115.16-30.76,32.96-66.96,60.92-101.96,87.96Z"/><path class="cls-3" d="M814.7,1287.87l-1.31-1.99c57.51-37.84,104.6-90.19,136.18-151.37,18.19-35.24,24.38-63.4,19.49-88.63-6.81-35.13-38.66-64.78-75.74-70.48-35.42-5.46-73.9,9.97-98.02,39.29-22.57,27.44-32.51,66.36-26.58,104.1,5.48,34.89,23.97,68.88,52.07,95.72l-1.64,1.72c-28.48-27.19-47.22-61.67-52.78-97.07-6.03-38.4,4.1-78.02,27.1-105.98,24.64-29.96,63.97-45.72,100.22-40.14,38.03,5.86,70.72,36.3,77.71,72.38,5,25.78-1.26,54.44-19.71,90.18-31.77,61.54-79.14,114.19-136.99,152.26Z"/><path class="cls-3" d="M832.54,1247.14l-1.46-1.88c52.95-41.17,93.12-99.1,113.1-163.13,5.29-16.94,10.94-41.61-.95-60.27-9.16-14.38-28.24-22.4-47.43-19.95-20.68,2.63-37.12,15.48-47.27,25.79-22.32,22.68-35.55,53.93-36.32,85.74-.77,31.81,10.95,63.66,32.15,87.39l-1.78,1.59c-21.6-24.18-33.54-56.62-32.76-89.03.78-32.41,14.27-64.25,37-87.35,10.41-10.58,27.31-23.76,48.66-26.48,20.11-2.54,40.1,5.9,49.74,21.04,12.42,19.5,6.64,44.87,1.21,62.26-20.12,64.48-60.57,122.83-113.91,164.3Z"/><path class="cls-3" d="M833.92,1236.35l-1.74-1.63c21.78-23.27,44.31-47.33,61.89-74.57,19.76-30.62,30.29-60.95,31.31-90.17.25-7.18-.46-24.44-12.4-29.7-13.48-5.94-27.62,8.79-31.63,13.44-32.84,38.14-42.96,93.36-25.78,140.67l-2.24.81c-17.47-48.11-7.18-104.26,26.21-143.04,4.28-4.97,19.41-20.67,34.4-14.06,13.27,5.85,14.09,24.3,13.82,31.96-1.03,29.65-11.69,60.4-31.69,91.38-17.69,27.42-40.3,51.56-62.16,74.91Z"/><rect class="cls-2" y=".25" width="1785.06" height="1190.04"/></g></svg>