<?xml version="1.0" encoding="UTF-8"?>
<svg id="Calque_2" data-name="Calque 2" xmlns="http://www.w3.org/2000/svg" viewBox="0 0 498.99 536.77">
  <defs>
    <style>
      .cls-1 {
        fill: #d1a4bc;
      }

      .cls-1, .cls-2, .cls-3, .cls-4, .cls-5, .cls-6, .cls-7, .cls-8, .cls-9, .cls-10, .cls-11, .cls-12, .cls-13, .cls-14, .cls-15, .cls-16, .cls-17, .cls-18 {
        stroke-width: 0px;
      }

      .cls-2 {
        fill: #6c234e;
      }

      .cls-3 {
        fill: #262618;
      }

      .cls-4 {
        fill: #dbc8d2;
      }

      .cls-5 {
        fill: #f39c95;
      }

      .cls-6 {
        fill: #281932;
      }

      .cls-7 {
        fill: #50214a;
      }

      .cls-8 {
        fill: #28253b;
      }

      .cls-9 {
        fill: #7e6464;
      }

      .cls-10 {
        fill: #e8ca69;
      }

      .cls-11 {
        fill: #b75184;
      }

      .cls-12 {
        fill: #e5809e;
      }

      .cls-13 {
        fill: #fceebb;
      }

      .cls-14 {
        fill: #d86c91;
      }

      .cls-15 {
        fill: #ea96a9;
      }

      .cls-16 {
        fill: #f8b880;
      }

      .cls-17 {
        fill: #973f73;
      }

      .cls-18 {
        fill: #852f64;
      }
    </style>
  </defs>
  <g id="Calque_1-2" data-name="Calque 1">
    <g>
      <path class="cls-6" d="M261.8,282.72c.53,20.16,1.01,40.34.8,60.51h1.6c-.65-14.39,2.43-28.62,3.21-42.88,3.08-.79,2.91,5.97,3.21,8.82.07.64.72.71.8,2.4.55,11.52-9.12,91.61-7.21,119.01,4.24-19.44,6.06-39.36,9.62-58.91,1.42-7.78,3.27-15.49,4.81-23.24,6.39.99,3.66-3.39,6.41-3.21-.23,1.12-.57,2.09-.8,3.21-9.76,46.89-21.23,93.78-22.44,141.86l.4,6.41c.86,0,.13-4.12.4-6.41,5.82-48.78,11.98-75.56,24.04-122.62,6.45-1.8-1.44,13.82-1.6,16.43-.18,3,1.49,1.81,1.6,2,1.29,2.24-.3,4.6,6.41-12.02-6.08,24.83,6.56-10.34,10.42-18.03,2.92-5.83,6.06-10.96,9.62-16.43-14.41,33.54-34.36,66.74-34.86,104.19,3.58-11.06,7.82-21.88,11.62-32.86,10.05-20.4,22.24-39.15,35.26-57.7,2.66-.47.6,2.41,2.81,2.4.3,0,3.45-3.16,4.41-4.01v.8c-15.62,17.65-34.61,53.63-43.28,75.74-6.31,16.11-20.67,64.98-23.24,80.95-1.33,8.27,3.1-2.95,4.01-5.21,4.45,5.36,5.35-12.59,12.82-18.43-6.61,14.71-8.41,19.43-13.62,34.46-1.96,5.64-4.91,11-6.41,16.83-.53,0-1.07,0-1.6,0-3.4-5.94-5.87-12.78-8.01-19.23-1.35-4.06-1.77-8.81-3.21-12.82l4.81,1.6q-.8-17.03-1.6-34.06c-4.29-17.75-5.5-36.23-8.82-54.1-1.89-10.17-4.08-20.37-6.41-30.45,6.75-3.12,2.9,14.1,8.01,15.23,2.12-1.29-1.65-25.05-2.4-28.85l2.4-.8.8-17.23c-.8-2.83-1.34-6.33-1.6-9.22-.72-8.03-.95-16.08-2.4-24.04-.53-12.12-2.41-24.06-4.01-36.07,4.89-2.94,2.25,4.48,4.81-.8,2.08,19.02,4.68,38.19,5.61,57.3,1.37,28.05-1.83,80.2,5.61,105.79,2.93,10.09.07-19.32,0-22.44-.54-23.07,1.09-46.21.8-69.33-.42-33.49-1.71-63.57-4.01-96.97,4.59,1.33,3.74,2.58,8.82,1.2.64,8.39-1.57,21.18,1.6,21.24Z"/>
      <path class="cls-8" d="M161.62,281.91c19.74,25.77,56.35,84.97,68.12,114.21,15.21,37.76,16.35,71.55,24.84,110.2l-4.81-1.6c-4.56-12.77-11.66-30.5-18.43-42.08-4.78-8.17-11.33-14.54-16.83-22.04-18.98-25.9-39.12-49.66-62.91-71.33-10.18-9.27-26.09-17.31-18.03-20.84,37.33,29.79,56.24,48.38,84.55,88.16,1.76.09.91-.33.4-2-1.15-3.79-7.77-14.31-10.42-18.03-25.31-51.77-94.15-136.38-138.25-171.51-25.64-20.42-61.35-37.62-62.11-41.27-.13-.65,1.36-3.41,2-3.61,2.99-.9,47.19,28.63,52.9,32.86,37.65,27.88,83.64,80.33,111.8,118.21,34.57,46.51,39.46,66.59,62.51,111.8,5.89,11.55,7.75,18.2,7.21,10.82-.38-5.26-6.88-33.86-8.82-41.27-6.26-23.98-10.31-32.74-20.84-54.5-5.03-10.4-13.49-26.58-19.23-36.47-26.62-45.79-41.08-58.38-72.13-95.77-12.88-15.51-26.68-30.31-39.27-46.08-8.16-10.22-68.34-90.22-71.33-95.37-3.09-5.33-1.69-7.97,2-6.81,5.79,1.82,61.74,87.37,72.53,97.38,23.36,30.15,51.35,56.7,74.53,86.96Z"/>
      <path class="cls-10" d="M240.97,318.78c-1.37-.99-1.87-2.49-2.4-4.01-2.39-6.75-6.45-23.7-8.01-26.85-1.86-3.73-1.25-.86-1.6-.4-1.14,1.48-.62,2.42-1.6,2.4-10.71-33.74-24.01-66.53-36.07-99.78-6.35-25.45-13.86-50.65-20.04-76.14-3.03-12.5-22.47-97.33-22.44-102.59.03-5.65,6.39-7.41,8.82-1.6,1.4,3.35,11.17,60.33,13.62,71.33,6.41,28.71,12.95,58.24,20.84,86.56,14.22,51,38.3,99.06,48.89,151.07Z"/>
      <path class="cls-10" d="M222.53,310.77c7.19,20.75,16.51,41.64,20.84,63.31.76,3.8,4.52,27.57,2.4,28.85-10.27-56.38-31.49-106.38-63.31-153.88-22.15-65.38-59.22-123.48-96.97-180.73-.6-4.23,4.4-6.79,7.21-3.21,18.64,35.96,43.71,68.35,62.51,104.19,24.25,46.21,39.26,97.14,67.32,141.46Z"/>
      <path class="cls-8" d="M313.9,338.82c-.98-.09-.73.69-.8.8-3.56,5.47-6.7,10.6-9.62,16.43-3.86,7.69-16.5,42.86-10.42,18.03.25-.63.39-1.37.8-2.4.41-1.04.54-1.75.8-2.4,3.57-9.04,6.53-18.32,10.42-27.25,29.04-66.72,79.21-151.2,126.63-206.37,6.56-7.64,57.75-63.48,62.11-64.52,3.06-.73,4.67,1.62,3.61,4.41-1.49,3.92-41.98,41.2-58.51,60.11-50.83,58.15-94.58,132.41-125.03,203.17Z"/>
      <path class="cls-8" d="M182.46,249.05c31.83,47.49,53.04,97.49,63.31,153.88-5.11-1.13-1.26-18.35-8.01-15.23-5.51-23.83-10.15-36.96-19.23-59.31-6.6-16.24-13.83-31.18-22.44-46.48-32.01-56.91-86.33-118.62-127.43-170.31.07-6.09,2.68-5.11,6.41-1.6,3.64,3.41,55.26,68.3,62.51,77.74,12.03,15.67,34.46,45.76,44.88,61.31Z"/>
      <path class="cls-10" d="M289.86,262.68c-1.51-2.96-.16-4.94-3.21-6.81-.58-3.82,1.57-2.65,1.6-2.81-.34,2.49,1.04,1.49,1.6-.4,3.86-12.9,7.02-42.46,0-9.22l-2.4-3.21c11.1-51.5,28.62-135.66,45.68-182.33,2.39-6.53,22.6-54.9,25.25-56.5,15.61-9.47-8.14,31.38-14.03,46.08-4.64,11.58-8.24,23.65-12.82,35.26-15.82,59.45-29.83,119.54-41.68,179.92Z"/>
      <path class="cls-8" d="M285.05,345.23c-2.75-.19-.02,4.19-6.41,3.21,17.99-90.34,41.19-179.34,65.72-268.08,1.93-3.69,2-11.19,7.21-5.61-12.28,46.99-25.66,94.06-38.47,141.05-7.5,43.54-19.06,86.25-28.05,129.43Z"/>
      <path class="cls-8" d="M386.03,116.82c2.98.04,4.2.55,4.01,3.61-.22,3.38-24.64,45.97-31.26,60.11-13,27.8-24.78,56.53-35.26,85.35-14.31,39.35-26.65,79.67-36.87,120.22-.11-.19-1.79,1-1.6-2,.16-2.61,8.05-18.23,1.6-16.43,16.29-63.56,35.09-119.79,62.51-179.52,10.73-23.37,23.31-45.79,34.46-68.92,1.47-3.06,2.33-2.25,2.4-2.4Z"/>
      <path class="cls-10" d="M349.16,188.14c-27.42,59.73-46.22,115.96-62.51,179.52-12.06,47.06-18.23,73.84-24.04,122.62h-.8c1.21-48.08,12.68-94.97,22.44-141.86,1.14.58,2.88-3.5,3.21-4.41,13.88-39.37,24.38-80.43,39.27-119.42,4.9-12.83,11.98-27.64,17.63-40.47l4.81,4.01Z"/>
      <path class="cls-10" d="M314.7,34.27c-19.85,78.8-19.16,97.07-28.05,173.91-3.4-.11.02,9.99-3.61,4.81-4.42,3.41,2.58,12.43-4.41,9.62,4.14-46.61,8.67-93.22,16.03-139.45,4.06-5.24,12.46-49.84,14.43-51.69,1.3-1.22,3.86,3.55,5.61,2.81Z"/>
      <path class="cls-11" d="M233.75,216.2c-2.43,10.33,6.54,25.06-1.6,20.84-10.9-72.3-29.38-142.98-48.09-213.59,2.25-3,5.23-2.72,7.21,0,16.73,63.75,31.97,127.65,42.48,192.75Z"/>
      <path class="cls-10" d="M285.05,466.25c-5.77,12.18-10.21,25.17-15.23,37.67-.91,2.26-5.34,13.48-4.01,5.21,2.57-15.97,16.93-64.84,23.24-80.95,8.67-22.11,27.65-58.09,43.28-75.74,1.08-1.22,22.02-22.28,23.64-22.44,10.01-1-14.9,21.63-22.84,31.66-5.98,7.55-14.52,19.09-19.23,27.25-9.97,17.26-26.14,57.5-28.85,77.34Z"/>
      <path class="cls-8" d="M245.78,373.28l-2.4.8c-4.32-21.67-13.65-42.56-20.84-63.31-13.69-39.5-28.65-78.56-44.08-117.41-.14-3.84,4.56-5.55,6.41-.8,20.58,60.11,50.14,117.75,60.91,180.73Z"/>
      <path class="cls-7" d="M260.2,137.65c-1.25,26.96-2.7,54.04,0,80.95-.06,10.18.73,20.34.8,30.45.06,8.33.62,16.56.8,24.84.06,2.94-.08,5.88,0,8.82-3.17-.06-.96-12.85-1.6-21.24-5.07,1.38-4.23.13-8.82-1.2-1.03-14.94-1.79-29.98-3.21-44.88,3.44.76,2.09-2.4,2.81-2.4.57,0,3.51,10.79,1.2-1.6-.15-20.83.2-41.68,0-62.51,3.35,1.78,2.67-1.76,3.21-7.21,5.64,1.02,1.34-4.12,4.81-4.01Z"/>
      <path class="cls-10" d="M208.11,416.56c2.65,3.73,9.26,14.24,10.42,18.03.51,1.68,1.36,2.09-.4,2-28.31-39.78-47.23-58.36-84.55-88.16-24.89-19.87-43.05-33.38-71.33-48.89l3.21-3.21c.32.18,1-1.49,3.61,0,37.84,21.56,83.05,56.54,112.6,88.56,2.89,3.13,24.84,29.4,26.45,31.66Z"/>
      <path class="cls-10" d="M255.39,357.25c.29,23.12-1.34,46.25-.8,69.33.07,3.12,2.93,32.53,0,22.44-7.44-25.59-4.24-77.74-5.61-105.79-.93-19.11-3.53-38.29-5.61-57.3-1.83-16.72-3.98-33.06-6.41-49.69,12.9,25.07,8.72,55.23,15.23,82.15.37,13.06.9,26,3.21,38.87Z"/>
      <path class="cls-10" d="M244.17,418.16c3.31,17.87,4.53,36.35,8.82,54.1q.8,17.03,1.6,34.06c-8.5-38.65-9.64-72.44-24.84-110.2-11.78-29.24-48.38-88.44-68.12-114.21,2.46-.49,6.27,3.91,8.01,6.01,16.68,20,50.82,78.92,62.51,103.39,4.19,8.76,7.15,19.66,12.02,26.85Z"/>
      <path class="cls-11" d="M244.97,155.29c1.24,10.96,2.67,21.91,4.01,32.86l-3.21,6.41c-1.21-27.52-22.57-160.18-22.44-169.51.13-9.31,4.97-6.26,5.61-4.81,2.74,6.22,14.06,117.66,16.03,135.04Z"/>
      <path class="cls-11" d="M260.2,218.6c-2.7-26.91-1.25-53.98,0-80.95.57-12.29,4.07-33.46-.8-31.26,1.04-10.64,1.33-21.39,2.4-32.06.81-8.01,4.68-64.88,7.61-66.52,1.26-.7,6.18-.13,5.21,2.81-10.06,68.68-14.04,138.59-14.43,207.98Z"/>
      <path class="cls-11" d="M290.66,83.96c-1.47,26.49-11.19,83.14-14.43,119.42-4.18,1.9,1.46,11.42-5.61,2.4,1.59-22.21,12.74-122.21,16.83-137.05,6.4,2.31,3.51,9.8,3.21,15.23Z"/>
      <path class="cls-8" d="M332.33,351.64c-.95.84-4.11,4.01-4.41,4.01-2.2,0-.15-2.87-2.81-2.4,28.87-41.16,63.09-77.97,98.18-113.81,2.66.44,3.42,1.73,2.81,4.41-.93,4.06-47.92,50.45-56.9,60.91-10.5,12.24-32.96,43.43-36.87,46.88Z"/>
      <path class="cls-11" d="M254.59,75.94c.6,13.28.98,26.94,3.21,40.07-.89,8.56-1.57,17.1-2.4,25.65-.53,5.46.15,9-3.21,7.21-.14-14.19-.41-28.29-.8-42.48-.91-32.47-3.13-64.94-4.81-97.38,1.22-.92,3.1-1.54,4.41-.4,2.7,2.36,3.22,58.68,3.61,67.32Z"/>
      <path class="cls-8" d="M288.25,474.26c-1.8,3.75-3.9,7.42-5.61,11.22-7.48,5.85-8.38,23.8-12.82,18.43,5.01-12.5,9.46-25.49,15.23-37.67,3.54-7.47,28.81-55.93,34.06-55.3,6.94.84-7.39,17.19-14.03,29.25-6.1,11.1-11.35,22.65-16.83,34.06Z"/>
      <path class="cls-12" d="M314.7,34.27c-1.75.75-4.31-4.03-5.61-2.81-1.97,1.85-10.37,46.46-14.43,51.69l-4.01.8c.3-5.43,3.2-12.92-3.21-15.23,2.89-10.46,7.62.3,8.82-2,2.84-13.77,6.01-54.16,14.03-45.28,1.84-.54.6-7.83,4.01-8.82,9.59-2.77,1.26,18.22.4,21.64Z"/>
      <g>
        <path class="cls-12" d="M383.62,119.22c-11.15,23.13-23.73,45.56-34.46,68.92l-4.81-4.01c10.6-24.08,22.97-46.93,34.46-70.53l4.81,5.61Z"/>
        <path class="cls-11" d="M386.03,116.82c-.07.15-.93-.65-2.4,2.4l-4.81-5.61c4.36-8.96,26.53-60.35,28.85-62.91,2.93-3.24,5.91-1.38,6.41,0,1.22,3.35-25.15,57.22-28.85,64.92-.05.11,1.05.69.8,1.2Z"/>
      </g>
      <path class="cls-8" d="M477.39,162.5c-25.11,17.3-47.98,40.64-72.13,59.31-.02-1.54-1.31-2.69-.8-4.41,1.28-4.34,64.8-57.96,69.33-58.1,1.31-.04,3.03,2.06,3.61,3.21Z"/>
      <path class="cls-12" d="M65.45,296.34l-3.21,3.21c-33.24-18.23-57.85-24.48-60.51-26.45-3.72-2.75-.91-7.53,3.21-7.21,4.71.37,47.47,21.44,55.3,25.65,5.81,3.12,4.9,4.64,5.21,4.81Z"/>
      <path class="cls-17" d="M276.23,203.37c-2.21,24.79-3.76,49.67-4.81,74.53-.44,10.38-.37,20.87-.8,31.26-.29-2.84-.13-9.6-3.21-8.82.82-15.11.05-30.55.8-45.68.38-7.72.38-15.51.8-23.24.46-8.57.99-17.08,1.6-25.65,7.07,9.01,1.43-.5,5.61-2.4Z"/>
      <g>
        <path class="cls-10" d="M398.85,331.6l4.81,3.21c-26.88,25.25-73.96,84.67-94.57,116.21-3.1-3.96,3.26-4.84,0-8.82,25.87-39.3,55.61-78.07,89.76-110.6Z"/>
        <path class="cls-12" d="M403.66,334.81l-4.81-3.21c12.42-11.83,28.53-25.12,42.88-34.46,7.12-4.63,49.09-28.64,54.5-26.45,11.62,4.7-16.96,12.92-21.64,15.23-25.38,12.52-50.27,29.49-70.93,48.89Z"/>
        <path class="cls-10" d="M309.09,451.02c-14.59,22.32-26.69,45.87-40.07,68.92,5.21-15.03,7.02-19.76,13.62-34.46,1.71-3.8,3.81-7.47,5.61-11.22,6.81-10.79,13.82-21.4,20.84-32.06,3.26,3.97-3.1,4.85,0,8.82Z"/>
      </g>
      <g>
        <path class="cls-10" d="M10.95,166.51c22.42,11.49,42.56,26.34,64.12,39.27,15.88,13.52,31.39,27.53,48.09,40.07,31.05,37.39,45.51,49.98,72.13,95.77,5.75,9.88,14.21,26.07,19.23,36.47-10-7.6-18.72-29.76-25.65-41.27-24.48-40.7-43.35-62.16-78.14-94.17-30.31-27.88-62.51-54.85-100.18-72.13-3.34-4.32.32-3.75.4-4.01Z"/>
        <path class="cls-12" d="M75.07,205.78c-21.55-12.93-41.7-27.78-64.12-39.27.09-.32-2.08-2.75,3.61-4.01,16.18,9.11,32.92,17.73,47.29,29.65,4.42,3.67,9.54,10.49,13.22,13.62Z"/>
      </g>
      <path class="cls-17" d="M236.96,236.23c2.44,16.63,4.59,32.97,6.41,49.69-2.56,5.28.08-2.14-4.81.8-2.19-16.48-3.94-33.28-6.41-49.69,8.14,4.22-.83-10.51,1.6-20.84,1.07,6.66,2.23,13.37,3.21,20.04Z"/>
      <g>
        <path class="cls-11" d="M395.65,165.7c-1.2-3.52-2.79-1.76-5.61-1.6,4.31-5.6,36.59-47.32,39.67-47.29.23,0,3.49,2.24,3.61,2.81.58,2.93-33.12,40.22-37.67,46.08Z"/>
        <path class="cls-14" d="M395.65,165.7c-10.48,13.5-20.99,27.45-30.45,41.68-1.51.08-2.18-1.2-4.01-.8,5.78-14.35,18.67-29.26,28.85-42.48,2.82-.15,4.41-1.92,5.61,1.6Z"/>
      </g>
      <path class="cls-4" d="M252.19,148.87c.2,20.83-.15,41.68,0,62.51-1.47-7.86-2.24-15.35-3.21-23.24-1.33-10.95-2.76-21.9-4.01-32.86,1.78-.18,4.75.28,5.21,0,2.1-1.27-1.33-41.82,1.2-48.89.4,14.19.66,28.28.8,42.48Z"/>
      <path class="cls-10" d="M238.56,314.77c.54,1.52,1.04,3.01,2.4,4.01.24,1.16,1.56,3.79,1.6,4.01,1.45,7.96,1.69,16.01,2.4,24.04-1.1.57-3.03-4.61-3.21-5.21-5.13-17.12-9-34.58-14.43-51.69.99.01.47-.92,1.6-2.4,3.36,8.48,4.93,21.09,9.62,27.25Z"/>
      <path class="cls-4" d="M269.02,231.42c-.42,7.73-.42,15.53-.8,23.24-5.1,4.07,3.37,17.96-6.41,19.23-.18-8.28-.74-16.52-.8-24.84,10.88-4.12,3.61-16.04,8.01-17.63Z"/>
      <path class="cls-10" d="M286.65,208.18c-1.08,9.35-2.13,18.7-3.21,28.05-4.79,1.47,1.26,15.55-7.21,9.62.62-7.76,1.72-15.48,2.4-23.24,6.99,2.81-.01-6.21,4.41-9.62,3.63,5.18.21-4.92,3.61-4.81Z"/>
      <path class="cls-4" d="M261.8,74.34c-1.08,10.66-1.36,21.42-2.4,32.06-.31,3.12-1.26,6.37-1.6,9.62-2.22-13.13-2.61-26.79-3.21-40.07l7.21-1.6Z"/>
      <path class="cls-10" d="M196.09,281.91c8.61,15.31,15.84,30.24,22.44,46.48-.82-.07-1.8.32-2.4-.4-1.58-1.88-21.02-41.7-21.64-44.08-.35-1.33-.06-2.32,1.6-2Z"/>
      <path class="cls-16" d="M283.44,236.23c-1.14,9.89-2.85,19.75-4.01,29.65-2.8-1.19,1.45-2.73-4.81-4.81.33-5.01,1.2-10.22,1.6-15.23,8.47,5.94,2.42-8.15,7.21-9.62Z"/>
      <path class="cls-5" d="M279.44,265.89c-.47,3.97-1.16,8.05-1.6,12.02-.41,3.69-.42,7.55-.8,11.22-.72-8.99-3.51-7.01-4.01-11.22-.22-1.83,1.31-12.41,1.6-16.83,6.26,2.08,2.01,3.62,4.81,4.81Z"/>
      <path class="cls-2" d="M252.19,211.39c2.31,12.39-.63,1.6-1.2,1.6-.72,0,.64,3.17-2.81,2.4-.66-6.95-1.44-13.92-2.4-20.84l3.21-6.41c.96,7.89,1.74,15.39,3.21,23.24Z"/>
      <path class="cls-1" d="M268.22,254.66c-.75,15.13.02,30.57-.8,45.68-.78,14.26-3.86,28.49-3.21,42.88h-1.6c.21-20.17-.27-40.35-.8-60.51-.08-2.93.06-5.88,0-8.82,9.78-1.27,1.32-15.17,6.41-19.23Z"/>
      <path class="cls-15" d="M273.02,277.91c.5,4.21,3.29,2.23,4.01,11.22-1.2,11.52-.09,26.62-5.61,22.44-.08-1.7-.74-1.76-.8-2.4.43-10.39.37-20.88.8-31.26h1.6Z"/>
      <path class="cls-9" d="M261.8,490.29h.8c-.27,2.29.46,6.41-.4,6.41l-.4-6.41Z"/>
      <path class="cls-13" d="M238.56,314.77c-4.69-6.16-6.26-18.77-9.62-27.25.35-.46-.25-3.33,1.6.4,1.57,3.15,5.63,20.1,8.01,26.85Z"/>
      <g>
        <path class="cls-10" d="M289.86,410.95c-3.81,10.98-8.04,21.8-11.62,32.86.5-37.44,20.45-70.64,34.86-104.19.07-.11-.18-.89.8-.8,23.09-29.6,44.14-61.28,68.12-90.16,7.58-9.12,15.62-17.78,23.24-26.85,24.15-18.67,47.02-42.01,72.13-59.31,2.2-1.52,11.32-8.66,9.62-.4-.45,2.19-26.56,18.11-36.47,26.05-40.94,32.79-117.77,125.65-141.46,171.91-8.39,16.4-13.28,33.69-19.23,50.89Z"/>
        <path class="cls-13" d="M327.92,324.39c2.31,1.01-12.17,19.23-13.62,21.64-2.1-.91,11.5-19.58,13.62-21.64Z"/>
      </g>
      <path class="cls-4" d="M278.64,222.61c-.69,7.76-1.78,15.48-2.4,23.24-.4,5.01-1.27,10.22-1.6,15.23-.29,4.43-1.82,15-1.6,16.83h-1.6c1.05-24.86,2.59-49.74,4.81-74.53,3.24-36.28,12.95-92.93,14.43-119.42l4.01-.8c-7.36,46.23-11.89,92.84-16.03,139.45Z"/>
      <g>
        <path class="cls-10" d="M289.86,243.44c-.68,3.2-1.04,6.42-1.6,9.62-.03.16-2.18-1.01-1.6,2.81,3.04,1.87,1.7,3.85,3.21,6.81-7.07,36.04-15.44,72.21-16.03,109-3.56,19.54-5.38,39.47-9.62,58.91-1.91-27.41,7.76-107.49,7.21-119.01,5.52,4.18,4.41-10.93,5.61-22.44.38-3.67.39-7.53.8-11.22.72-.08,2.05.33,2.4-.4.84-1.7,5.97-31.5,7.21-37.27l2.4,3.21Z"/>
        <path class="cls-13" d="M274.23,325.99c2.36-.53-.88,16.73-1.6,18.43-.92-6.25-.74-12.56,1.6-18.43Z"/>
        <path class="cls-13" d="M286.25,264.28c.5,14.46-4.46,16.43-.4.4l.4-.4Z"/>
      </g>
      <path class="cls-18" d="M260.2,137.65c-3.47-.11.83,5.03-4.81,4.01.84-8.55,1.51-17.09,2.4-25.65.34-3.25,1.3-6.5,1.6-9.62,4.87-2.2,1.37,18.97.8,31.26Z"/>
      <g>
        <path class="cls-10" d="M361.18,206.58c1.83-.4,2.5.88,4.01.8-9.33,14.02-31.23,50.51-37.67,64.52-3.61,7.85-22.2,58.27-23.24,64.12-.29,1.64-.27,6.01.8,6.01-3.89,8.93-6.85,18.21-10.42,27.25l-.8,2.4c-.41,1.04-.55,1.78-.8,2.4-6.72,16.62-5.12,14.26-6.41,12.02,10.22-40.55,22.56-80.87,36.87-120.22,7.69-11.69,13.36-24.64,20.84-36.47,1.87-2.95,13.32-21.7,14.43-22.44.99-.66,1.59-.22,2.4-.4Z"/>
        <path class="cls-3" d="M293.86,371.68l.8-2.4c-.26.66-.39,1.36-.8,2.4Z"/>
        <path class="cls-13" d="M344.75,234.63l-9.62,18.43c-1.79-.59,8.34-17.05,9.62-18.43Z"/>
      </g>
    </g>
  </g>
</svg>