<?xml version="1.0" encoding="UTF-8"?>
<svg id="Calque_2" data-name="Calque 2" xmlns="http://www.w3.org/2000/svg" viewBox="0 0 492.84 544.33">
  <defs>
    <style>
      .cls-1 {
        fill: #5e858f;
      }

      .cls-1, .cls-2, .cls-3, .cls-4, .cls-5, .cls-6, .cls-7, .cls-8, .cls-9, .cls-10, .cls-11, .cls-12, .cls-13, .cls-14, .cls-15, .cls-16, .cls-17, .cls-18, .cls-19, .cls-20, .cls-21, .cls-22 {
        stroke-width: 0px;
      }

      .cls-2 {
        fill: #d4c773;
      }

      .cls-3 {
        fill: #f6af88;
      }

      .cls-4 {
        fill: #19626f;
      }

      .cls-5 {
        fill: #aedbda;
      }

      .cls-6 {
        fill: #055361;
      }

      .cls-7 {
        fill: #ebdda4;
      }

      .cls-8 {
        fill: #063b4c;
      }

      .cls-9 {
        fill: #e9a7bb;
      }

      .cls-10 {
        fill: #2c9eaa;
      }

      .cls-11 {
        fill: #fef7ee;
      }

      .cls-12 {
        fill: #e3e7c2;
      }

      .cls-13 {
        fill: #f2f6f5;
      }

      .cls-14 {
        fill: #1c878b;
      }

      .cls-15 {
        fill: #fcf1ca;
      }

      .cls-16 {
        fill: #e8ca7b;
      }

      .cls-17 {
        fill: #3caeb6;
      }

      .cls-18 {
        fill: #0a2e41;
      }

      .cls-19 {
        fill: #fce4e4;
      }

      .cls-20 {
        fill: #e38291;
      }

      .cls-21 {
        fill: #de537a;
      }

      .cls-22 {
        fill: #e86567;
      }
    </style>
  </defs>
  <g id="Calque_1-2" data-name="Calque 1">
    <g>
      <path class="cls-16" d="M187.13,293.25c-1.97.84-15.35,4.49-23.24,7.21-8.82-1.72-58.23,12.58-60.91,2.81-2.71-9.92,31.86-5.98,35.26-10.42,3.07-4.01-2.65-10.66-16.43-9.22-10.54,1.11-74.59,21.06-78.54,19.23-20.79-9.6,57.66-22.63,68.92-28.05l-1.2-.8c.11-.02,1.49-1.21,1.6-1.6,6.4,1.38,17,1.66,24.44,3.21,18.03,3.75,36.87,10.07,54.1,15.63-1.34.54-2.71,1.45-4.01,2Z"/>
      <path class="cls-16" d="M321.77,341.34c13.03,9.19,27.82,15.54,41.27,24.04,14.92,9.43,28.96,21,44.08,30.45,15.37,9.6,45.16,20.06,32.86,26.45-3.86,2-32.02-14.3-37.67-17.63-17.07-10.09-38.78-26.1-56.1-37.67-8.34-5.57-25.72-14.08-32.46-19.23-3.13-2.39-16.54-16.06-16.03-18.43,8.33,3.52,15.96,8.1,24.04,12.02Z"/>
      <path class="cls-16" d="M372.26,273.22c0,.53-.22,1.38.4,1.6,1.22.43,20.13,2.12,25.65,4.01,19.74,2.18,64.11,1.38,67.32,2.4,2.14.68,4.21,4.62.8,7.21-7.23,5.51-101.13-3.16-117.41-2.4-3.59-.72-7.54-.87-11.22-1.6,6.82-9.1-8.66-10.59-27.25-12.82,20.61-.46,41.14.45,61.71,1.6Z"/>
      <path class="cls-16" d="M287.31,197.08c-4.29,4.79-7.81,10.43-12.02,15.23-7.69,8.76-13.84,19.33-23.24,26.45-2.4-.36-1.62-6.34-1.6-12.02.01-4.78.8-5.33.8-5.61,2.1-3.23,6-6.88,8.01-9.62l16.83-19.23c12.25-11.16,23.15-30.32,29.25-28.85,13.47,3.24-16.73,27.7-18.03,33.66Z"/>
      <path class="cls-16" d="M208.77,191.47c.03.08.09-.31.8,1.6.76,2.05,8.57,21.68,6.81,22.44-1.58-2.88-10.61-21.69-11.62-22.44-2.25-1.67-6.23-1.35-6.81,1.6-3.04-10.33-46.12-69.86-45.28-74.13.42-2.15,5.36-4.34,7.61-3.61,4.23,1.38,42.21,66.47,48.49,74.53Z"/>
      <path class="cls-7" d="M131.83,206.7c.35.34,5.18,7.59,5.61,8.01-8.51.48-41.22-21.28-41.68-28.85.96-1.19,2.98-3.79,4.41-4.01,3.4-.53,27.49,20.86,31.66,24.84Z"/>
      <g>
        <path class="cls-21" d="M266.47,90.49c-.21.54-2.64,3.47-.8,4.01-1.1,2.32-1.43,4.44-1.6,4.81-2.77,5.89-6.05,11.71-8.82,17.63-.73-2.27-1.01-4.42-.8-6.81,1.73-19.68,22.76-73.65,26.45-98.58,14.5-11.88,4.81,18.95,0,36.07-3.15,11.19-10.19,31.84-14.43,42.88Z"/>
        <path class="cls-9" d="M266.47,92.09c-.05.11-.02.76-.8,2.4-1.84-.54.6-3.47.8-4.01v1.6Z"/>
      </g>
      <g>
        <path class="cls-16" d="M246.44,322.11c7.36,15.42,15.88,29.58,23.24,44.88-.74,10.25,22.47,66.43,22.44,70.13-.03,4.71-6.86,9.8-11.22,3.21-5.81-8.79-31.21-93.22-33.66-97.78-1.49-2.78-1.96.21-1.6,3.21.34,2.8,12.15,46.65,14.43,54.5,5.22,18,44.12,131.55,41.68,139.45-.65,2.11-4.74,3.48-6.81,2.81-2.84-.92-12.8-41.29-14.83-47.69-11.13-35.2-24.79-69.63-34.06-105.39-.08,14.61,3.34,87.23.4,94.17-2.29,5.41-7.91,3.67-8.82.8-.98-3.1-.91-60.15-2.4-64.92-.66-2.1-3.35-2.1-4.01,0-1.18,3.76-.35,54.38-4.81,78.54-.8,4.34-8.92,32.21-10.42,33.66-3.05,2.97-8.78.85-8.82-4.01-.02-3.37,14.29-41.56,9.62-66.12.68-8.17,1.98-22.55-.8-24.84,1.39-5.68,1.79-15.26,3.21-21.24,4.17-17.64,9.77-34.99,14.43-52.49h.8c-.41,12.3-5.13,50.26,1.6,31.66,3.4-9.4,4.33-59.49,7.21-75.34l1.2-1.2c.59,1.36,1.37,2.68,2,4.01Z"/>
        <path class="cls-16" d="M224.8,297.26c.26,3.01-15.88,11.52-16.03,14.03-.34,5.71,13.12-4.23,14.83-5.21,6.01,21.14-.64,25.9-14.83,38.47-7.68,6.8-16.98,12.93-25.65,18.43-10.37,3.85-21.08,13.44-24.04,15.23-4.47,2.71-33.6,20.82-35.66,20.84-2.16.02-8.77-4.34-4.01-9.62,4.59-5.08,81.32-43.58,96.97-63.31-55.35,18.19-105.75,48.26-158.69,72.13-4.03-.89-5.84-4.61-3.21-8.01,1.94-2.5,47.32-28.97,54.1-32.86,2.63-1.51,5.68-2.38,8.01-4.41-.18-2.46-7.49,2.35-8.82,2.81-8.63,2.96-17.54,5.53-26.05,8.82-14.6,5.64-52.84,26.67-40.07,6.41,53.51-24.29,109.79-41.79,163.49-65.72v-1.6c-1.11-.82-15.99-.99-18.83-4.01,17.34-3.96,18.93-4.43,38.47-2.4Z"/>
        <path class="cls-16" d="M373.06,197.88q-16.63,11.62-33.26,23.24c-17.17,3.55-34.89,4.89-52.09,8.01-6.88,1.25-21.48,6.87-21.24,3.21,2.2-2.62,4.06-4.72,6.41-7.21,23.29-24.77,45.86-36.67,71.73-57.7,6.98-5.67,47.91-44.45,51.29-44.88,3.4-.44,7.25,2.99,5.21,7.61-4.2,9.53-91.64,76.36-104.59,92.57,58.48-30.06,114.54-65.18,167.5-104.19,4.34-.89,7.21,1.55,6.01,6.01-1.58,5.87-85.85,64.81-96.97,73.33Z"/>
        <path class="cls-16" d="M300.13,341.34c3.39-1.84,6.75,2.06,12.82,7.21,47.33,40.17,78.43,80.96,140.65,127.43,6.08,4.54,36.08,23.81,37.67,25.65,4.64,5.34-2.43,8.75-3.21,8.82-2.94.24-43.42-28.74-48.89-32.86-42.93-32.35-97-86.73-137.05-125.03l-.4,11.22c-7.82-10.44-16.06-20.9-24.04-31.26,8.59.86,14.93,14.01,22.44,8.82Z"/>
        <path class="cls-16" d="M167.09,182.65c4.56,6.31,28.42,45.9,33.26,46.48,6.51.79-6.05-12.03-6.01-14.83.09-6.89,7.51-1.04,8.82-5.21,2.3.19,2.83-.2,4.81,1.6,1.99,4.67,12.45,28.78,12.02,31.66-.49,3.33-8.24-11.68-8.82-1.6-.02.35,1.28,4.96,1.6,6.81-10.1-6.52-18.55-15.16-28.05-22.44-2.34-7.85-20.57-16.39-16.03-26.85-35.69-41.74-67.97-86.21-100.18-130.64-.62-7.38,5.17-9.38,9.62-3.21,28.07,40.56,60.09,78.27,88.96,118.21Z"/>
        <path class="cls-16" d="M212.78,424.69l-1.6,4.81c-6.71,11.48-52.34,101.33-58.1,102.59-1.59.35-6.44-2.06-6.81-3.61-.97-4.06,33.56-56.75,32.86-60.11-.31-1.5-10.44-1.6-10.42-6.41.02-3.55,34.77-48.71,36.87-60.51l16.83-24.84c.59,15.24-13.06,38.61-9.62,48.09Z"/>
        <path class="cls-16" d="M155.87,209.1c.24,1.3.62,2.82.8,4.01-.62-.17-1.04.84-1.2.8-4.94-1.25-47.31-55.35-55.7-62.91-8.92-13.97-83.67-98.36-84.95-104.99-.87-4.51,1.55-11.47,10.42-2.4,4.07,4.16,59.99,74.9,72.93,90.56,9.52,11.53,56.15,62.58,58.51,71.33.43,1.52-1.05,2.23-.8,3.61Z"/>
        <path class="cls-17" d="M252.05,124.15c-4.33,18.89-11.63,36.92-14.83,56.1-4.02-15.82,1.62-31.8.4-47.69-1.95,13.25-4.71,26.38-6.41,39.67-10.31,2.11-2.35-7.42-8.01-13.62-.91-11.12-1.83-22.49-1.6-33.66l4.81,2.4c.01,1.87,2.73,17.44,3.61,17.63,1.4-6.03,3.36-12.36,4.41-18.43,2.29-5.64,3.39-11.74,4.81-17.63,2.28-9.46,4.19-19.19,7.21-28.45,3.42-10.5,8.82-19.86,9.62-22.04,15.4,2.9,4.24,16.38,0,36.47-2.13,10.08-3.68,27.81-4.01,29.25Z"/>
        <path class="cls-16" d="M369.86,216.32c-4.31.74-8.52,1.66-12.82,2.4-7.87,1.36-15.77,4.14-23.64,5.61-23.74,4.42-48.56,6.24-71.73,12.42-.18-.39,4.34-3.84,4.81-4.41-.25,3.67,14.35-1.96,21.24-3.21,17.21-3.12,34.92-4.47,52.09-8.01q16.63-11.62,33.26-23.24c22.48-1.4,89.99-38.87,94.97-37.67.62.15,4.55,3.68,3.61,6.81-1.07,3.54-58.39,29.72-66.12,33.26-12.77,5.85-34.37,13.47-36.07,14.43-.91.51.42.76.4,1.6Z"/>
        <path class="cls-16" d="M346.62,227.54c-5.2,16.18-47.09,29.39-64.12,36.87-5.85-.22-30.88-.43-32.46-.8-15.43-3.59,32.64-11.24,34.86-16.43,3.49-8.17-24.37,2.27-31.66,2.81-16.15,1.18,25.82-11.77,30.45-12.82,20.52-4.67,42.22-5.83,62.91-9.62Z"/>
        <path class="cls-17" d="M156.67,213.11c-.18-1.19-.57-2.71-.8-4.01,3.16-5.61,19.29,8.7,28.85,16.03,9.5,7.28,17.95,15.93,28.05,22.44.38,2.19,4.8,11.07,2,11.22-33.94-19.48-54.4-27.75-13.22.4-14.53-5.25-29.84-12.38-44.08-19.64,8.56-4.95-2.82-6.8-12.82-16.83-1.93-1.93-3.78-4.58-7.21-8.01-.43-.43-5.26-7.68-5.61-8.01,3.01-6.26,20.04,6.13,25.25,10.42l1.2-.4c-.99-1.01-1.4-2.23-1.6-3.61Z"/>
        <path class="cls-16" d="M296.13,366.99c24.8,29.4,31.86,31.68,9.62,1.6,3.27-.84,10.59,7.49,14.43,11.62,30.43,32.78,58.66,67.85,90.56,99.38-2.26,13.25-20.45-7.56-32.06-19.23-14.1-14.18-59.12-68.96-63.71-70.13-.33-.08-2.81,1.35-6.81.8-5.7-9.27-8.6-14.42-13.62-24.04h1.6Z"/>
        <path class="cls-16" d="M119.81,223.53c3.2.96,10.4,8.4,11.22,8.82l-.8,6.41c-3.55-1.24-9-1.91-16.03-4.81-13.71-5.65-103.83-51.17-111-57.7-4.76-4.35-4.4-8.18,2.4-9.62,35.13,20.52,71.99,37.64,108.2,56.1.27.14.92-.88,6.01.8Z"/>
        <path class="cls-18" d="M280.1,215.51l-4.81-3.21c4.21-4.79,7.73-10.44,12.02-15.23,34.89-38.97,120.48-109.77,162.29-153.08,3.4-2.3,5.76-4.36,6.81,1.2-26.48,24.25-51.95,49.59-78.14,74.13-36.83,34.51-65.31,55.61-98.18,96.17Z"/>
        <path class="cls-17" d="M308.95,301.27c5.35,1.84,10.67,3.81,16.03,5.61l-6.01,7.21c5.32,3.1,31.72,8.75,30.05,16.43-1.75,8.08-16.72-1.54-30.45-6.81-6.08-2.33-29.17-14.32-29.65-6.41-5.76-3.28-42.87-24.07-42.48-28.45.06-.66,1.57-.32,1.6-.4,82.01,34.45,83.36,31.28,1.6-4.01-37.99-19.1-9.37-5.59,10.82,1.6,15.92,5.67,32.51,9.73,48.49,15.23Z"/>
        <path class="cls-18" d="M222.39,349.36c.2-2.63.37-5.37.4-8.01-1.07-.58-7.16,5.49-8.42,6.41-63.75,46.82-127.85,93.07-189.54,142.66-4.55.83-4.83-4.15-1.6-6.41,46.49-33,89.56-70.98,135.85-104.19,7.9-5.67,16.9-10.05,24.04-16.83,8.67-5.51,17.97-11.63,25.65-18.43,2.03,9.42,10.17-5.2,14.03-4.81,4.53.46,2.08,9.28-.4,9.62Z"/>
        <path class="cls-16" d="M351.03,325.31c2.65-1.87,51.3,27.79,56.9,31.26,6.18,3.83,51.38,33.81,53.7,36.07,7.07,6.88,2.56,11.15-4.81,8.82-4.62-1.46-54.47-36.68-64.92-43.28-5.31-3.35-42.13-22.28-42.88-25.25-.1-.38,1.68-7.39,2-7.61Z"/>
        <path class="cls-8" d="M261.66,338.94c5.65,11.81,12.23,23.33,17.63,35.26,23.36,51.57,40.46,105.7,63.31,157.48-.17,3.3-1.18,4.07-4.41,3.61-25.56-54.85-42.29-113.77-68.52-168.3-7.36-15.3-15.88-29.46-23.24-44.88,5.23,6.42,5.3,14.77,15.23,16.83Z"/>
        <path class="cls-17" d="M312.96,397.44c5.14,8.21,18.13,21.78,4.01,28.05-3.93-6.02-14.45-15.68-19.23-24.04-.21-.39.44-2.94-.8-5.21-4.24-7.77-10.68-16.74-17.63-22.04-5.4-11.93-11.98-23.45-17.63-35.26-16.41-34.32-2.37-6.98,12.82,2,10.74,14.74,20.08,39.28,28.85,51.29,3.26,4.46,13.27,18.22,9.62,5.21Z"/>
        <path class="cls-8" d="M211.97,134.57c1.55,11.69,8.88,28.94,11.22,41.68-.46,7.77-1.01,15.44-.8,23.24-2.67-5.58,2.8-37.65-6.41-21.64-6.76-39.63-27.72-90.5-44.08-127.83-2.57-5.87-19.93-38.6-20.04-40.87-.14-3.15,2.81-4.94,5.61-2.4,5.22,4.72,49.32,111.2,54.5,127.83Z"/>
        <path class="cls-21" d="M222.39,349.36c-.17,2.28-1.25,5.69-1.6,8.01-9.05,15.21-18.68,30.37-30.45,43.68-4.16,4.7-39.27,38.99-42.08,39.67-1.84.44-5.68-1-6.01-2.81-1.05-5.71,63.6-56.64,72.13-90.16,1.25-.92,7.34-6.99,8.42-6.41-.03,2.64-.2,5.38-.4,8.01Z"/>
        <path class="cls-18" d="M222.39,376.6l-16.83,24.84c-36.3,41.26-76.38,78.83-115.81,117.01-3.23.47-4.24-.3-4.41-3.61,32.2-32.04,101.89-95.36,124.22-129.43,5.71,7.32,6.6-7.66,12.82-8.82Z"/>
        <path class="cls-18" d="M259.26,190.67c-4.91,2.04,2.48-6.22-7.21,1.6,1-1.47,3.84-7.57,6.41-11.22,11.93-16.97,97.19-129.06,104.99-136.65,2.81-2.74,4.47-5.89,8.01-1.6-34.97,47.09-80.77,99.23-112.2,147.87Z"/>
        <path class="cls-10" d="M156.67,253.18q34.86,17.43,69.73,34.86c-12.6-.21-42.61-11.14-51.69-11.62-8.27-.44,13.12,6.04,4.01,4.81-3.92-.53-21.26-6.47-27.65-8.01.99-2.89-14.69-9.29-18.43-10.42l2.4-5.61c2.38,2.1,40.71,12.96,2.81-5.61l.4-4.81c.26,0,.54.01.8,0-3.2,3.93,13.06,11.26,14.03,11.22,3.95-.16,3.37-4.56,3.61-4.81Z"/>
        <path class="cls-18" d="M93.36,189.07c13.93,12.66,26.41,26.59,41.68,37.67,4.95,3.59,9.84,7.48,15.23,10.42-3.34,2.8-8.83-4.19-9.62,0-3.18-1.63-6.43-3.19-9.62-4.81-.82-.42-8.02-7.85-11.22-8.82-15.31-18.43-97.94-90.26-104.19-101.38-2.48-4.41-.9-6.87,2.81-6.01,2.6.6,26.86,28.85,36.87,38.47,12.32,11.84,25.43,22.97,38.07,34.46Z"/>
        <path class="cls-17" d="M123.82,261.2l1.6,6.41c-5.51-1.12-11.3-2.29-16.83-3.21-13.34-2.22-28.07-6.71-40.87-3.21-.9.25-1.88-.54-1.6,1.6-6.82-1.7-50.29-13.14-51.29-17.23-.62-2.52,1.19-5.65,3.61-6.01,2.93-.44,49.2,15.14,56.9,16.83,4.63,1.12.89-5.5,8.01-5.61,2.09-.03,35.37,8.99,40.47,10.42Z"/>
        <path class="cls-18" d="M328.18,302.07c.24.08.56-.08.8,0,4.61,1.65,9.14,3.66,13.62,5.61,17.29,10.62,123.65,34.2,129.43,37.67,3.4,2.04,2.53,5.53-2.4,5.61-4.73.08-80.86-21.56-91.36-24.84-18.01-5.63-35.44-13.23-53.3-19.23-5.36-1.8-10.68-3.77-16.03-5.61,5.68-2.54,18.21,9.96,19.23.8Z"/>
        <path class="cls-18" d="M292.92,264.4c7.14.08,13.66.25,20.84,0,3.37-.12,6.9.25,10.42,0,14.21,3.22,29.5,2.25,44.08,3.21,25.09,1.65,50.29,3.69,75.34,6.01,0,1.44.42,3.7-1.2,4.41-3.22,1.41-60.89-4.29-70.13-4.81-20.57-1.15-41.1-2.07-61.71-1.6-.2-.02.89-.31-4.01-.8-1.97-4.59-24.16,2.46-20.04-6.41,2.13.06,4.28-.02,6.41,0Z"/>
        <path class="cls-18" d="M235.22,360.58c-2.41-.33-1.29,1.24-1.6,2.4-4.66,17.5-10.25,34.86-14.43,52.49-1.42,5.98-1.81,15.56-3.21,21.24-2.45,9.96-4.81,19.9-8.01,29.65-6.3,19.19-34.29,73.64-40.47,76.94-13.31,7.11,9.74-24.93,10.82-26.85,16.43-29.16,26.92-53.59,32.86-86.96l1.6-4.81c.69.26,2.15,1.38,2.81.8,2.24-2,9.17-41.81,14.83-58.1.6-1.74,2.73-8.85,4.41-8.42.7.39.3,1.05.4,1.6Z"/>
        <path class="cls-18" d="M337.8,284.44c3.68.74,7.63.88,11.22,1.6,24.23,4.87,48.32,10.33,72.53,15.23,6.08,1.23,42.22,5.97,44.08,7.21,2.18,1.45,1.61,5.09-.8,5.61-4.92,1.06-86.18-16.04-98.98-18.43-13.34-2.5-26.75-4.53-40.07-7.21q3.61-2.81,7.21-5.61c1.24.25,3.57,1.35,4.81,1.6Z"/>
        <path class="cls-18" d="M197.55,153c2.68,6.67,9.27,16.62,14.43,28.85.91,2.17,1.58,4.24,2.4,6.41.81,2.12,1.68,4.27,2.4,6.41-2.48.48-2.11-3.62-2.81-4.01-1.45-.81-1.95,3.54-4.41,2.4-.71-1.91-.77-1.52-.8-1.6-7.49-19.51-20.36-43.24-31.26-61.31-11.67-19.37-33.42-46.7-33.66-49.69-.17-2.07,1.51-3.99,3.61-3.61,4.72.86,45.15,66.88,50.09,76.14Z"/>
        <path class="cls-17" d="M325.78,288.45c13.32,2.68,26.73,4.72,40.07,7.21.31.94-2.09,3.79-2.4,4.01-1.98,1.35-4.81,1.91-7.21,1.6-8.18-1.49-29.9-5.24-27.25.8-.24-.08-.56.08-.8,0-7.62-2.72-22.39-10.26-34.06-14.43-18.52-6.6-38.33-10.15-56.5-18.03,17.32,1.51,34.35,9.09,51.69,12.42,12.34,1.13,24.36,3.98,36.47,6.41Z"/>
        <path class="cls-8" d="M114.2,233.95c7.03,2.9,12.48,3.57,16.03,4.81,3.99,1.39,23.04,7.21,8.82,8.01-.26.01-.54,0-.8,0-1.22-.03-1.77-.57-3.21-.8-7.55-1.2-51.17-14.64-72.53-19.23-16.66-3.59-55.25-8.02-57.7-9.62-1.71-1.11-1.75-3.98,0-4.81,6.11-2.9,95.51,17.43,109.4,21.64Z"/>
        <path class="cls-8" d="M187.13,293.25c-7.67,9.84,10.45,1.16,14.83.8,3.39-.28,22.64.93,22.84,3.21-19.54-2.03-21.13-1.56-38.47,2.4-20.52,4.69-108.93,39.19-115.01,39.27-4.69.07-4.83-2.84-1.6-5.61,31.6-10.36,62.74-22.01,94.17-32.86,7.89-2.72,21.27-6.38,23.24-7.21Z"/>
        <path class="cls-21" d="M216.78,461.56c-1.51,18.11-6.73,44-16.03,59.71-9.93,16.77-16.1,14.85-15.23,8.01.43-3.35,21.49-30.66,22.44-62.91,3.2-9.75,5.57-19.7,8.01-29.65,2.78,2.3,1.48,16.68.8,24.84Z"/>
        <path class="cls-18" d="M267.27,105.72c-4.34-1.02.68-3.74-3.21-6.41.17-.37.5-2.49,1.6-4.81.78-1.64.75-2.29.8-2.4,6.27-13.09,13.74-25.77,20.04-38.87,3.39-7.05,21.2-50.1,23.24-52.09,1.7-1.66,5.07-1.57,5.61.8.71,3.12-22.43,51.51-25.65,58.51-6.73,14.62-16.2,30.61-22.44,45.28Z"/>
        <path class="cls-18" d="M307.35,327.72c19.69,10.4,40.38,20.08,60.51,29.65,9.53,4.53,29.38,10.15,26.05,14.03-1.33,1.55-2.57,1.38-4.41,1.2-3.71-.36-59.08-27.07-67.72-31.26-8.08-3.92-15.71-8.5-24.04-12.02-.26-.11-1.24-.34-2.4-.8.33-1.2,3.96-1.78,4.01-2.81,0-.18-1.7-.23-2.4-2.81,3.24,1.77,7.08,3.04,10.42,4.81Z"/>
        <path class="cls-16" d="M214.38,97.7c.15.42,5.75,4.27,7.21,4.81.15,7.44-2.25,14.99,0,22.44-.22,11.17.69,22.54,1.6,33.66.47,5.68,3.43,12.53,0,17.63-2.34-12.73-9.67-29.98-11.22-41.68-.9-6.82-2.92-37.31,2.4-36.87Z"/>
        <path class="cls-7" d="M203.16,209.1c-1.31,4.17-8.73-1.68-8.82,5.21-.03,2.8,12.52,15.61,6.01,14.83-4.84-.59-28.7-40.18-33.26-46.48,6.12-26.55,24.27,22.11,28.05,25.25,2.55,2.12,5.17.97,8.01,1.2Z"/>
        <path class="cls-21" d="M193.54,112.93c8.08,20.36,11.65,42.81,18.43,63.71.17.52,1.25,5.16,0,5.21-5.15-12.24-11.74-22.18-14.43-28.85-6.43-15.98-8.61-33.86-16.83-49.29,6.15-12.79,10.47,3.28,12.82,9.22Z"/>
        <path class="cls-8" d="M393.9,217.12c-8.96-2.41-23.2,7.23-29.25.8-.57,3.29-6.49,3.45-7.61.8,4.3-.75,8.52-1.66,12.82-2.4,15.6-2.69,31.11-6.27,46.88-8.01,5.58-.62,42.76-3.97,44.88-3.21,2.74.99,3.1,4.52-1.6,5.61-3.24.75-40.72,2.44-66.12,6.41Z"/>
        <path class="cls-8" d="M316.96,425.49c1.77,2.72,28.83,54.86,28.85,58.1.02,2.58-3.08,4.69-5.61,2.4-3.43-3.09-32.57-72.71-42.48-81.75-.12-1.03.18-2.47,0-2.81,4.78,8.37,15.3,18.02,19.23,24.04Z"/>
        <path class="cls-21" d="M221.59,102.51c-1.46-.54-7.06-4.39-7.21-4.81-.75-2.1-3.05-42.35-2.4-44.48.77-2.52,3.56-3.69,6.01-2.81,4.62,1.67,3.46,44.74,3.61,52.09Z"/>
        <g>
          <path class="cls-16" d="M256.05,58.43c-.8,2.18-6.19,11.54-9.62,22.04-3.02,9.26-4.94,18.99-7.21,28.45-7.68-4.34,5.38-54.19,8.82-63.71,2.33-6.46,4.15-16.66,11.62-14.83,8.07,1.98-1.55,22.45-3.61,28.05Z"/>
          <path class="cls-21" d="M234.41,126.55c-1.04,6.07-3.01,12.4-4.41,18.43-.88-.19-3.6-15.76-3.61-17.63-.02-3.42,3.02-22.93,6.01-23.24,7.1-.74,2.69,18.44,2,22.44Z"/>
        </g>
        <path class="cls-2" d="M318.57,323.71l-11.22,4.01c-3.34-1.77-7.18-3.04-10.42-4.81-3.49-1.91-7.59-5.37-8.01-5.61.48-7.91,23.57,4.08,29.65,6.41Z"/>
        <path class="cls-2" d="M356.23,301.27l.8,2.4q-7.21,2-14.43,4.01c-4.49-1.95-9.02-3.96-13.62-5.61-2.65-6.04,19.07-2.29,27.25-.8Z"/>
        <path class="cls-2" d="M259.26,193.87c-3.08,5.03-7.36,17.2-8.82,23.24-.06.25-1.45,1.02-1.6,4.81-4.06,4.07-3.53,1.09-8.01.8,6.31-13.93,9.48-17.29,16.83-28.85h1.6Z"/>
        <g>
          <path class="cls-3" d="M80.54,268.41l-4.81,7.21c-7.82.53-15.86.9-23.64,1.6-6.67.6-24.35,4.99-25.65,4.81-1.92-.27-12.4-6.8,8.01-11.22,14.22-3.08,31.63-3.72,46.08-2.4Z"/>
          <path class="cls-22" d="M106.18,271.61c2.9.62,5.5.61,6.41.8-.11.39-1.49,1.58-1.6,1.6-8.04,1.71-26.12.98-35.26,1.6l4.81-7.21c6.38.58,18.9,4.97,25.65,3.21Z"/>
        </g>
        <path class="cls-2" d="M132.63,262.8c3.74,1.13,19.42,7.53,18.43,10.42-8.49-2.06-17.08-3.88-25.65-5.61l-1.6-6.41c.43.12,2.77-.23,8.82,1.6Z"/>
        <path class="cls-8" d="M222.39,199.48c.04,1.33-.02,2.67,0,4.01-3.52,5.55-2.62,1.2-4.81-5.61.8-6.41-.52-13.71-1.6-20.04,9.21-16.01,3.75,16.06,6.41,21.64Z"/>
        <path class="cls-16" d="M138.24,246.77l-.4,4.81c37.9,18.57-.42,7.71-2.81,5.61-3.37-2.97-.84-7.85,0-11.22,1.43.23,1.98.77,3.21.8Z"/>
        <g>
          <path class="cls-21" d="M368.26,267.61c-14.58-.96-29.86.01-44.08-3.21,26.33-1.89,107.36-21.21,122.22-18.43,4.81.9,5.15,5.59,1.6,7.21-3.69,1.69-58.49,5.27-79.74,14.43Z"/>
          <path class="cls-20" d="M313.76,264.4c-7.18.25-13.7.08-20.84,0,4.16-3.63,20.64-8.63,20.84,0Z"/>
        </g>
        <path class="cls-11" d="M183.12,362.98c-7.14,6.78-16.15,11.16-24.04,16.83v-1.6c2.96-1.79,13.67-11.38,24.04-15.23Z"/>
        <path class="cls-12" d="M295.32,328.52c1.17.47,2.14.69,2.4.8-.52,2.37,12.9,16.04,16.03,18.43l-.8.8c-6.07-5.15-9.43-9.05-12.82-7.21,1.15-.79,3.16-1.82,3.21-2,.18-.76-9.22-10.59-10.42-11.62,1.09-.27,1.54.46,2.4.8Z"/>
        <g>
          <path class="cls-16" d="M258.46,181.05c-2.57,3.65-5.42,9.75-6.41,11.22-3.53,5.22-7.74,10.32-11.22,15.63,1.25-12.3,3.11-24.35,5.61-36.47,2.95-5.37,5.54-11.22,8.01-16.83,8.63-19.57,59.6-128.65,66.52-137.45,5.11-6.49,9.37-1.24,9.62.8,1.03,8.55-66.52,123.11-72.13,156.28-.34,1.98.24,4.68,0,6.81Z"/>
          <path class="cls-13" d="M254.45,154.6c-2.47,5.61-5.07,11.46-8.01,16.83.78-3.78,1.49-7.46,2.4-11.22,2.63,2.23,2.34-5.38,5.61-5.61Z"/>
        </g>
        <path class="cls-15" d="M108.59,357.37l-.8-1.6c1.32-.45,8.64-5.26,8.82-2.81-2.33,2.02-5.38,2.9-8.01,4.41Z"/>
        <path class="cls-17" d="M292.92,327.72c1.2,1.03,10.6,10.86,10.42,11.62-.04.18-2.06,1.21-3.21,2-7.51,5.2-13.85-7.95-22.44-8.82-4.29-5.57-15.65-15.98-19.64-25.65,10.01,7.37,25.91,13.15,34.86,20.84Z"/>
        <path class="cls-10" d="M231.21,172.24c-2.88,22.49-4.2,45.06-4.81,67.72-6.04-4.02-3.84-27.4-4.01-36.47-.02-1.33.04-2.67,0-4.01-.2-7.8.35-15.48.8-23.24,3.43-5.1.47-11.95,0-17.63,5.66,6.2-2.3,15.74,8.01,13.62Z"/>
        <path class="cls-17" d="M306.54,270.81c4.9.5,3.8.78,4.01.8,18.59,2.23,34.07,3.72,27.25,12.82-1.24-.25-3.57-1.36-4.81-1.6-21.44-4.27-42.85-8.95-64.52-12.02v-1.6c12.66,1.55,25.38.32,38.07,1.6Z"/>
        <path class="cls-17" d="M250.44,226.73c-.02,5.68-.8,11.66,1.6,12.02-1.71,1.29-7.41,5.84-9.22,5.61-.59-.08-9.16-7.02-9.22-7.61-.17-1.64,6.04-6.34,7.21-8.01.18-.49-1.73-2.19,0-6.01,4.48.29,3.95,3.27,8.01-.8-.13,3.16-.48,5.39,1.6,4.81Z"/>
        <path class="cls-6" d="M248.04,288.45c.09-.2,1.99-1.36,1.6-4.01,81.76,35.29,80.4,38.46-1.6,4.01Z"/>
        <path class="cls-6" d="M108.59,264.4c.83,5.45-1.89.88-10.02,4.81l-30.86-8.01c12.8-3.51,27.54.99,40.87,3.21Z"/>
        <path class="cls-16" d="M157.48,239.56c-.34-.17-4.69-1.03-7.21-2.4-5.39-2.93-10.27-6.82-15.23-10.42l9.62-4.01c10.01,10.03,21.38,11.88,12.82,16.83Z"/>
        <g>
          <path class="cls-8" d="M267.27,105.72c-7.43,17.49-13.93,36-18.43,54.5-.92,3.76-1.62,7.44-2.4,11.22-2.5,12.12-4.36,24.16-5.61,36.47,3.48-5.31,7.69-10.4,11.22-15.63,9.7-7.83,2.31.43,7.21-1.6-.1.15.01.66-1.6,3.21-7.35,11.56-10.52,14.92-16.83,28.85-1.73,3.82.18,5.52,0,6.01-1.17,1.67-7.38,6.37-7.21,8.01.06.59,8.62,7.54,9.22,7.61,1.8.23,7.51-4.32,9.22-5.61,9.4-7.12,15.55-17.69,23.24-26.45l4.81,3.21c-2.41,2.97-5.74,6.1-7.21,9.62-2.35,2.5-4.21,4.59-6.41,7.21-.47.56-4.99,4.02-4.81,4.41,23.17-6.18,47.99-8,71.73-12.42,7.87-1.47,15.77-4.25,23.64-5.61,1.13,2.65,7.05,2.49,7.61-.8,6.06,6.43,20.29-3.21,29.25-.8-15.43,2.41-30.7,6.04-46.08,8.82-.68.12-1.1,1.58-1.2,1.6-20.69,3.79-42.4,4.95-62.91,9.62-4.64,1.06-46.6,14.01-30.45,12.82,7.29-.53,35.15-10.98,31.66-2.81-2.22,5.19-50.29,12.84-34.86,16.43,1.58.37,26.61.58,32.46.8,1.33.05,2.67-.04,4.01,0-4.13,8.87,18.07,1.82,20.04,6.41-12.68-1.28-25.41-.06-38.07-1.6v1.6c21.66,3.07,43.08,7.75,64.52,12.02q-3.61,2.81-7.21,5.61c-12.11-2.43-24.13-5.28-36.47-6.41-17.35-3.33-34.37-10.91-51.69-12.42,18.17,7.88,37.99,11.43,56.5,18.03,11.68,4.16,26.44,11.7,34.06,14.43-1.03,9.16-13.56-3.34-19.23-.8-15.98-5.5-32.57-9.55-48.49-15.23-20.19-7.19-48.81-20.71-10.82-1.6.39,2.65-1.51,3.81-1.6,4.01-.04.08-1.54-.26-1.6.4-.39,4.38,36.71,25.17,42.48,28.45.43.24,4.53,3.7,8.01,5.61.7,2.58,2.41,2.62,2.4,2.81-.05,1.03-3.68,1.6-4.01,2.81-.86-.34-1.32-1.07-2.4-.8-8.95-7.68-24.85-13.47-34.86-20.84,3.99,9.67,15.34,20.08,19.64,25.65,7.98,10.35,16.22,20.81,24.04,31.26,1.32,1.77,2.83,3.22,4.01,4.81,22.25,30.07,15.18,27.8-9.62-1.6-2.16-2.56-3.64-5.61-6.01-8.01-.61,2.96,3.27,5.84,4.41,8.01,5.03,9.62,7.93,14.78,13.62,24.04,1.42,2.3,3.43,4.2,4.81,6.41,3.66,13.01-6.36-.75-9.62-5.21-8.77-12.01-18.11-36.55-28.85-51.29-15.2-8.99-29.23-36.32-12.82-2-9.93-2.06-10-10.41-15.23-16.83-.63-1.33-1.41-2.65-2-4.01l-1.2,1.2c-2.88,15.84-3.81,65.93-7.21,75.34-6.73,18.61-2.01-19.36-1.6-31.66.06-1.77.89-1.9.8-2.4-.1-.55.3-1.21-.4-1.6-1.68-.44-3.8,6.68-4.41,8.42-5.66,16.29-12.58,56.1-14.83,58.1-.65.58-2.11-.54-2.81-.8-3.44-9.48,10.21-32.85,9.62-48.09-6.22,1.16-7.11,16.13-12.82,8.82,1.64-2.51,10.14-15.5,10.42-16.43.17-.56.17-7.47.8-11.62.35-2.33,1.43-5.74,1.6-8.01,2.48-.34,4.93-9.16.4-9.62-3.85-.39-12,14.22-14.03,4.81,14.19-12.57,20.83-17.33,14.83-38.47-1.71.98-15.16,10.92-14.83,5.21.15-2.51,16.29-11.02,16.03-14.03-.2-2.28-19.45-3.48-22.84-3.21-4.38.36-22.5,9.04-14.83-.8,1.3-.55,2.67-1.47,4.01-2-17.22-5.56-36.07-11.88-54.1-15.63-7.45-1.55-18.05-1.83-24.44-3.21-.91-.2-3.51-.18-6.41-.8-13.3-2.86-26.89-5.53-40.07-8.82-.28-2.14.71-1.36,1.6-1.6l30.86,8.01c8.13-3.93,10.85.64,10.02-4.81,5.54.92,11.32,2.09,16.83,3.21,8.57,1.74,17.15,3.55,25.65,5.61,6.39,1.55,23.73,7.48,27.65,8.01,9.11,1.23-12.28-5.25-4.01-4.81,9.09.48,39.09,11.41,51.69,11.62q-34.86-17.43-69.73-34.86c1.1-1.15,21.59,5.33,24.44,6.41,2.54.96,32.64,16.37,31.66,13.22-23.93-12.2-48.2-23.43-72.13-35.66.78-4.19,6.28,2.8,9.62,0,2.52,1.37,6.87,2.23,7.21,2.4,14.24,7.25,29.55,14.38,44.08,19.64-41.18-28.15-20.71-19.88,13.22-.4,2.8-.15-1.62-9.03-2-11.22-.32-1.86-1.62-6.46-1.6-6.81.57-10.07,8.32,4.93,8.82,1.6.42-2.88-10.04-26.99-12.02-31.66-5.92-13.94-11.5-19.5-3.21-17.63,1.02.75,10.04,19.56,11.62,22.44,1.76-.76-6.05-20.39-6.81-22.44,2.45,1.13,2.95-3.21,4.41-2.4.7.39.33,4.49,2.81,4.01.31.93.5,2.26.8,3.21,2.18,6.81,1.29,11.16,4.81,5.61.16,9.07-2.03,32.45,4.01,36.47.61-22.66,1.93-45.24,4.81-67.72,1.7-13.29,4.46-26.42,6.41-39.67,1.22,15.89-4.42,31.86-.4,47.69,3.2-19.18,10.5-37.22,14.83-56.1,1.47-2.21,2.11-4.87,3.21-7.21,2.77-5.92,6.04-11.74,8.82-17.63,3.88,2.67-1.14,5.4,3.21,6.41Z"/>
          <g>
            <path class="cls-17" d="M140.65,237.15c23.93,12.23,48.2,23.47,72.13,35.66.98,3.15-29.12-12.27-31.66-13.22-2.86-1.08-23.35-7.56-24.44-6.41-.23.24.34,4.65-3.61,4.81-.96.04-17.22-7.29-14.03-11.22,14.22-.81-4.83-6.62-8.82-8.01l.8-6.41c3.19,1.62,6.43,3.18,9.62,4.81Z"/>
            <path class="cls-19" d="M231.21,331.72l5.61-4.81c-1.34,14.61-3.23,23.58-10.02,36.87-.15-10.85,3.06-21.45,4.41-32.06Z"/>
            <path class="cls-22" d="M236.82,326.91l-5.61,4.81c1.42-11.17,2.59-22.39,2.81-33.66,5.92,3.19,3.54,20.88,2.81,28.85Z"/>
            <path class="cls-5" d="M296.13,366.99h-1.6c-1.14-2.18-5.02-5.05-4.41-8.01,2.37,2.4,3.85,5.45,6.01,8.01Z"/>
            <path class="cls-14" d="M226,260.39c1.96-.04,2.69,2.51,1.6,3.21-1.12.71-4.02-3.15-1.6-3.21Z"/>
            <path class="cls-14" d="M234.01,258.79c.67-.41,2.05,1.1,2,1.2-.61,1.33-3.79-.11-2-1.2Z"/>
            <path class="cls-1" d="M235.22,360.58c.09.51-.74.63-.8,2.4h-.8c.31-1.17-.81-2.74,1.6-2.4Z"/>
          </g>
        </g>
        <g>
          <path class="cls-17" d="M268.88,197.88c-.4.73-8.2,11.71-9.62,13.62-2.02,2.74-5.91,6.38-8.01,9.62,0-.46-1.26-1.39-.8-4.01,1.46-6.04,5.74-18.22,8.82-23.24,7.53-12.28,16.73-9.03,9.62,4.01Z"/>
          <path class="cls-12" d="M259.26,211.51c1.41-1.92,9.22-12.89,9.62-13.62,1.71-.08,4.52-3.16,7.21-5.61l-16.83,19.23Z"/>
          <path class="cls-4" d="M251.25,221.12c0,.28-.79.83-.8,5.61-2.08.58-1.73-1.65-1.6-4.81.16-3.79,1.54-4.56,1.6-4.81-.46,2.62.81,3.54.8,4.01Z"/>
        </g>
      </g>
    </g>
  </g>
</svg>