<?xml version="1.0" encoding="UTF-8"?>
<svg id="Calque_2" data-name="Calque 2" xmlns="http://www.w3.org/2000/svg" viewBox="0 0 573.61 558.68">
  <defs>
    <style>
      .cls-1 {
        fill: #1d1933;
      }

      .cls-1, .cls-2, .cls-3, .cls-4 {
        stroke-width: 0px;
      }

      .cls-2 {
        fill: #e4e0da;
      }

      .cls-3 {
        fill: #f6eff1;
      }

      .cls-4 {
        fill: #b1adbc;
      }
    </style>
  </defs>
  <g id="Calque_1-2" data-name="Calque 1">
    <g>
      <path class="cls-1" d="M341.88,395.98c-26.06-19.93-41.29-49.51-47.29-81.35-1.76-1.71-7.5,18.16,7.21,44.08,8.63,15.21,25.08,29.51,38.47,40.47,18.08,14.81,82.11,56.52,84.15,61.31,1.55,3.64-.58,5.89-4.41,5.21l-71.33-52.09-1.2,1.2c19.75,28.94,64.15,62.71,77.34,77.34,7.62,8.45,3.27,10.16-1.6,8.01-3.32-1.46-46.2-43.18-52.9-49.69,2.1,7.25,26,48.8,26.05,51.69.03,1.94-2.76,4.67-4.41,4.41-5.38-.86-37.08-83.23-55.3-92.97q-13.82,25.05-27.65,50.09c6.39,14.28,11.84,29.09,18.43,43.28,6.04,12.98,20.33,35.55,20.04,37.67-.22,1.59-3.26,3.39-5.21,2.81-1.94-.58-5.68-10.55-7.21-12.82-1.04-.38-2.04,2.49-5.61,1.6-2.78-.69-34.3-37-38.47-42.48l-13.22,18.03c1.98,6.16,20.61,40.12,20.84,42.48.42,4.32-3.09,6.53-7.21,1.6-2.23-2.67-13.49-30.23-18.03-37.27-1.62-.38-14.59,25.88-17.23,14.83-.47-1.97,12.16-18.87,13.62-22.44-14.14-30.61-28.03-61.42-36.47-94.17l-18.03,22.84c2.15,15.04,5.86,76.51,2.4,85.75-.96,2.56-5.4,2.72-6.41,0-1.37-3.67,4.64-55.35-2.81-78.14l-22.04,24.44c1.04,6.97,10.89,39.92,9.62,43.28-6.01,15.87-12.8-36.66-15.63-37.27-2.95,2.32-35.96,38.95-33.26,22.84.37-2.18,29.22-25.36,32.06-30.45-6.96-23.52-8.22-47.04-2.81-70.93l-16.43,14.03c-4.5,13.37-20.3,92.48-22.44,96.97-2.2,4.61-6.92,3.58-7.21-.8-.3-4.62,19.24-77.29,21.24-90.16-17.59,13.75-74.3,60.53-87.36,68.12-9.96,5.79-11.1.85-6.41-4.01,4.27-4.42,83.43-61.27,97.38-74.94-.81-3.95,9.78-31.2,6.81-31.66-9.5,5.25-19.4,9.9-28.85,15.23-17.54,9.88-59.72,40.33-63.31,39.27-1.4-.41-2.35-2.91-2-4.41,1.28-5.5,84.58-54.92,96.57-58.1,7.35-14.58,17.13-27.36,27.25-40.07-43.57,14.51-85.05,34.65-124.22,58.51-8.44,5.14-58.06,40.3-61.71,40.87-24.8,3.92,39.55-32.46,42.48-35.26,4.8-4.4-3.11-3.52,3.21-10.42,2.92-3.19,59.27-51.11,65.72-56.1,13.33-10.32,35.29-25.39,51.29-29.65,38.65-10.29,62.89,7.11,98.18-2.81-52.42-14.27-81.77-23.41-135.04-2.81-36.13,13.98-113.87,67.49-123.42,71.33-2.78,1.11-9.7,3-6.81-2.81,2.97-5.98,100.83-60.73,113.81-69.73.22-.71-.7-1.81-1.2-2-2.65-1.04-48.47,3.03-56.9,0-2.29-.82-3.21-4.19.8-5.61,8.28,3.24,58.41-1.74,60.91,0,1.13.79-.65,5.58,1.6,6.41,3.78,1.39,36.4-19.93,78.14-16.43-17.12-6.4-37.45-13.7-55.7-14.83-47.1-2.9-123.87,32.53-130.64,32.86-4.81.23-5.74-3.78-2.4-6.41,4.28-3.38,89.09-30.05,104.19-32.06,67.3-8.96,101.2,30.47,164.7,34.06-92.46-35.46-87.93-63.97-196.75-43.68-11.21,2.09-38.31,11.28-39.67,8.42-2.96-6.22,25.93-11.98,31.66-13.22,22.32-4.86,45.09-5.96,67.72-8.42-38.58-8.43-48.71-20.13-91.77-24.44-5.65-.57-26.18.05-27.25-.8-11.45-9.1,39.84-2.57,41.27-4.41-4.51-4.98-32.2-28.54-31.26-32.86,2.08-9.49,18.17,12.83,32.46,23.64,37.24,28.18,84.62,30.42,121.82,44.08,23.58,8.66,44.59,23.36,67.32,33.66,4.82,2.19,14.2,6.35,13.22,4.41-53.49-42.75-84.06-57.4-145.46-85.35-10.5-9.34-80.67-45.49-84.15-48.89-4.03-3.94-1.38-7.13,3.21-6.41,5.9.92,70.36,41.54,82.55,48.09,26.45,14.2,60.22,26.14,85.75,40.87,25,14.43,45.78,34.41,69.33,50.89-39.9-53.69-72.24-65.78-123.02-102.99-13.52-7.94-79.01-35.61-82.55-38.47-4-3.23-1.91-6.92,3.21-6.41,4.63.46,59.29,29.61,70.93,32.46q-40.07-42.48-80.14-84.95c.83-13.67,14.27,5.4,24.84,16.43,29.1,30.33,56.65,62.2,87.76,90.56l1.2-.4c-8.26-14.51-14.06-30.14-20.04-45.68-12.2-7.94-56.85-40.04-63.31-42.88-3.37-2.28-1.49-7.11,3.61-5.61,4.15,1.23,46.28,31.1,54.5,36.87-4.99-17.63-10.76-35.07-16.43-52.49-.8-2.44-8.18-13.32-.4-12.42,1.81.21,12.18,16.73,22.84,28.45,14.83,16.31,31.98,30.64,46.08,47.69.61-12.43-21.4-98.22-18.03-102.18,8.27-9.73,10.96,39,13.62,44.08,1.87,3.08,4.99-5.6,8.82,0,2.01,2.94,10.64,40.26,35.66,60.51-2.44-31.65-7.62-63.11-6.01-94.97.29-5.68,2.67-40.69,9.22-38.87,4.11,1.14-1.65,24.92-2,31.66-1.88,36.3,2.76,72.17,6.41,108.2,17.48,14.83,32.35,32.55,43.68,52.49q-13.82-91.16-27.65-182.33c.48-4.23,4.86-6.5,7.21.8,2.63,8.16,19.77,144.3,26.05,169.51q16.63-24.64,33.26-49.29c-15.27-39.27-28.65-79.11-40.87-119.42,1.38-3.51,4.81-4.12,7.21-.8,1.77,2.44,14.76,49.42,17.63,57.7,6.21,17.92,14.1,35.4,20.44,53.3,15.47-20.56,31.09-41.95,33.26-68.52.96-11.82-2.18-28.07,1.2-29.25,8.5-2.98,6.06,38.38.4,54.9-5.02,14.65-22.66,37.12-32.86,49.69l1.2,1.2c10.29-10.55,68.1-60.73,75.34-63.31,5.63,6.35,21.79-20.63,28.05-17.63,1.38.66,1.52,3.21,1.2,4.41-.59,2.25-20.22,17.6-32.86,32.86-14.84,17.91-29.85,42.55-38.47,64.12-1.77,4.42-13.95,37.98-13.62,40.07.14.9-.2,1.32,1.2,1.2,13.46-16.16,96.05-83.04,106.59-88.16,1.32-.64,4.2.31,5.61.8,2.32-.71,37.97-42.42,33.26-22.84-.72,3-26.32,24.43-43.28,44.08-26.13,30.28-47.6,64.69-76.14,92.97,27.77-6.26,129.5-87.82,139.05-90.96,4.67-1.54,6.51,2.17,4.01,5.61-34.6,21.07-71.4,53.18-104.99,73.73-43.17,26.41-84.81,33.86-119.82,71.73,52.64-28.99,83.82-30.54,134.24-68.52,13.9-10.47,45.71-40.63,48.89-40.87,3.63-.28,4.7,3.43,2.4,7.21-2.49,4.1-65.77,53.54-75.34,59.31-31.17,18.78-67.54,26.84-98.58,45.68,59.7-11.43,111.34-22.09,161.89-57.7,16.91-11.92,42.73-37.45,45.68-37.67,18.01-1.31-32.83,34.51-34.46,38.47,9.09-3.01,71.65-16.34,75.34-15.23,1.52.46,2.67,3.86,2,5.21-1.03,2.07-34.48,5.97-45.28,8.42-54.05,12.24-56.41,20.81-102.99,41.27q11.02,7.01,22.04,14.03c34.18-12.81,52.64-27.87,91.36-24.84,3.65.29,26.1,4.32,26.85,6.81,3.26,10.87-23.69-5.32-56.5,1.2-13.93,2.77-40.34,17.2-55.7,22.04l28.45,19.64c7.79.52,54.36-11.07,57.3-7.61,6.38,7.49-44.31,10.69-48.89,13.62q15.03,11.42,30.05,22.84c47.3-7.77,59.68,1.2,7.61,5.21,5.12,5.18,45.81,34.75,46.48,37.67.68,2.95-1.83,5-4.41,4.41-3.17-.72-44.05-36.13-50.49-40.87q-9.42,1.4-18.83,2.81c5.09,3.76,39.63,33.41,40.07,36.07.33,1.97-2.55,4.36-2.81,4.41-2.97.53-39.35-35.99-45.68-39.27l-35.66,2.81c25.05,28.99,43.18,50.04,74.13,73.33,4.21,3.17,30.35,19.2,31.26,20.84,1.09,1.96.07,5.12-1.6,5.61-4.63,1.36-69.93-47.58-75.34-57.7-9.51,6.23-40.99-3.66-55.3-7.21,5.6,8.99,65.54,49.87,66.12,54.1,1.78,13-23.76-11.7-25.25-12.42-1.4-.68-2.1-1.15-2,.4,4.2,7.5,33.95,55.15,34.46,58.51.5,3.25-1.27,6.13-4.41,5.21-3.82-1.12-29.92-53.79-40.47-68.52-31.1-43.42-78.43-48.65-120.62-75.74,23.4,59.54,78.99,73.11,102.18,102.18,3.84,4.81,19.74,33.49,15.63,37.27-5.93,5.46-9.04-13.12-15.63-24.44-20.24-34.77-68.55-41.45-99.38-92.97-4.05-6.76-8.94-20.28-12.82-26.45-5.31-8.45-21.04-24.32-27.65-36.47,3.62,20.83,11.43,45.89,22.84,63.71,19.52,30.49,47.79,35.17,38.07,41.27-3.57,2.24-14.48-6.9-18.03-9.62Z"/>
      <g>
        <path class="cls-2" d="M97.44,89.03c6.47,2.83,51.12,34.93,63.31,42.88,5.98,15.55,11.78,31.18,20.04,45.68l-1.2.4c-31.1-28.36-58.66-60.23-87.76-90.56,5.97,3.87,5.31,1.47,5.61,1.6Z"/>
        <path class="cls-2" d="M234.89,352.7c1.41-.11,1.06.3,1.2,1.2.43,2.76-13.86,22.57-4.81,54.5q-23.04,27.45-46.08,54.9c-7.69-22.56-6.91-47.71,1.2-70.13,16.99-12.54,33.76-25.25,48.49-40.47Z"/>
        <path class="cls-2" d="M267.75,368.73c8.14,32.11,18.96,63.42,33.26,93.37.26,3.94-8.29,15.35-10.82,19.64-20.94-21.3-37.32-46.84-50.89-73.33q14.23-19.84,28.45-39.67Z"/>
        <path class="cls-2" d="M468.91,113.87c1.58-.2.99.79.4,2-.61,1.25-15.26,16.93-18.43,20.84-18.75,23.13-45.35,61.24-66.92,79.74-20.85,17.89-48.28,26.2-67.72,46.08,34.69-46.88,57.23-72.3,102.18-109.4,16.42-13.56,34.28-25.42,50.49-39.27Z"/>
        <path class="cls-2" d="M285.38,335.87c5.5,30.44,27.73,47.4,46.08,70.13l-25.25,49.29c-10.73-20.1-34.76-81.45-30.86-101.38.41-2.09,8.38-14.07,10.02-18.03Z"/>
        <path class="cls-2" d="M206.04,81.01c3.01-.39,5.03,12.27,8.42,19.64,8.08,17.57,20.22,32.88,36.07,44.08,7.55,37.41,27.2,70.68,38.07,106.99-21.88-44.07-57.93-53.57-70.13-100.58-4.58-17.66-6.74-48.97-13.62-68.92l1.2-1.2Z"/>
        <path class="cls-2" d="M189.21,300.61c13.75-1.04,27.24,1.88,40.87,3.21v1.6c-56.05,20.91-111.45,42.72-163.09,73.33,34.2-28.08,75.59-74.62,122.22-78.14Z"/>
        <path class="cls-2" d="M411.21,81.01c.58.31.52,1.43.4,2-.42,1.97-16.13,20.84-23.24,32.86-25.86,43.7-22.26,76.27-55.7,114.21-4.27-2.06,27.44-42.02,14.03-91.77,19.75-21.05,43.03-38.15,64.52-57.3Z"/>
        <path class="cls-2" d="M339.08,144.33c13.44,32.62-11.3,77.24-25.65,107.39l-7.61-53.3c6.99-20.28,18.43-38.62,33.26-54.1Z"/>
        <path class="cls-2" d="M171.57,138.72c43.02,41.38,93.02,78.78,119.42,133.84-20.07-24.12-40.21-47.93-65.72-66.52-30.58-22.29-35.09-12.24-53.7-67.32Z"/>
        <path class="cls-2" d="M399.19,338.28l47.29,5.61,33.26,38.87c-18.59.22-36.24-6.59-54.1-10.82q-13.22-16.83-26.45-33.66Z"/>
        <path class="cls-2" d="M304.61,294.2c24.88,17.8,51.08,37.39,82.55,40.07q13.02,17.03,26.05,34.06c-42.14-13.51-85.99-33.88-108.6-74.13Z"/>
        <path class="cls-2" d="M259.73,152.34c10.47,11.55,36.22,43.76,40.47,56.5,2.78,8.34,8.71,60.25,2,60.51-4.66-12.11-7.17-25.08-11.62-37.27-2.07-5.66-34.87-78.25-30.86-79.74Z"/>
        <path class="cls-2" d="M151.54,82.62c30.49,35.46,52.86,44.59,68.12,92.17-16.95-17.45-34.05-34.56-54.1-48.49q-7.01-21.84-14.03-43.68Z"/>
        <path class="cls-2" d="M414.41,266.95q10.62,7.01,21.24,14.03c-18.87,6.43-38.21,11.85-58.1,14.03q-14.63-5.01-29.25-10.02,33.06-9.02,66.12-18.03Z"/>
        <path class="cls-2" d="M277.37,310.23c-5.76,15.24-12.56,31.07-10.02,47.69l-30.05,41.27c-9.25-32.83,19.47-65.95,40.07-88.96Z"/>
        <path class="cls-2" d="M257.33,320.65l1.2.4c-30.07,27.98-59.6,56.57-94.57,78.54q4.61-15.03,9.22-30.05c29.56-13.69,58.37-28.8,84.15-48.89Z"/>
        <path class="cls-2" d="M368.73,303.01c13.23-.51,36.14,10.7,52.09,11.22l18.83,22.04q-22.24-3.01-44.48-6.01c-11.74-8.95-22.33-19.4-35.66-26.05,3.75,0,8.75-1.18,9.22-1.2Z"/>
        <path class="cls-2" d="M273.36,299.01c1.95-.22,3.44.05,2.4.8-32.99,19.72-62.46,44.7-98.18,59.71,8.04-13.54,21.38-28.4,34.86-36.47,7.19-4.3,54.9-23.36,60.91-24.04Z"/>
        <path class="cls-2" d="M444.07,286.18q13.62,9.22,27.25,18.43c-26.74,3.87-54.34,3.19-80.55-3.61q26.65-7.41,53.3-14.83Z"/>
        <path class="cls-2" d="M246.11,435.25c11.35,19.14,25.33,36.35,39.67,53.3l-10.82,15.63c-11.06-22.22-21.61-45.13-28.85-68.92Z"/>
        <path class="cls-2" d="M430.44,314.24c5.69.58,18.57-.8,21.64,0,1.8.47,25.15,19.91,30.05,22.04l-32.46,1.2q-9.62-11.62-19.23-23.24Z"/>
        <path class="cls-2" d="M304.61,471.32c24.66,61.77,43.55,76.09-10.02,17.23l10.02-17.23Z"/>
        <path class="cls-2" d="M476.93,310.23c7.03.17,24.53,17.93,32.46,22.04q-7.01,1.4-14.03,2.81c-6.08-.18-26.93-17.84-34.06-22.04q7.81-1.4,15.63-2.81Z"/>
        <g>
          <path class="cls-2" d="M341.88,395.98l-1.6,3.21c-13.39-10.97-29.84-25.26-38.47-40.47-14.71-25.92-8.98-45.79-7.21-44.08,6,31.84,21.23,61.42,47.29,81.35Z"/>
          <path class="cls-2" d="M325.45,299.81c20.71,4.91,35.82,13.03,52.49,26.05-19.05-4.95-35.63-16.34-52.49-26.05Z"/>
          <path class="cls-3" d="M316.64,288.59c15.44-.14,30.97,2.48,45.28,8.42-15.2-1.09-30.94-3.01-45.28-8.42Z"/>
          <path class="cls-4" d="M282.17,319.04c-3.45,17.94-8.76,20.66-.4.4l.4-.4Z"/>
        </g>
      </g>
    </g>
  </g>
</svg>