<?xml version="1.0" encoding="UTF-8"?>
<svg id="Calque_2" data-name="Calque 2" xmlns="http://www.w3.org/2000/svg" viewBox="0 0 745.43 596.25">
  <defs>
    <style>
      .cls-1 {
        fill: #9c9d9f;
      }

      .cls-1, .cls-2, .cls-3, .cls-4, .cls-5 {
        stroke-width: 0px;
      }

      .cls-2 {
        fill: #08090b;
      }

      .cls-3 {
        fill: #d4d7db;
      }

      .cls-4 {
        fill: #e8e8e7;
      }

      .cls-5 {
        fill: #c2c0c6;
      }
    </style>
  </defs>
  <g id="Calque_1-2" data-name="Calque 1">
    <g>
      <path class="cls-4" d="M684.58,0c.55,4.12,6.5,9.18,6.41,13.21-.05,2.34-9.99,14.32-2.4,45.64-13.06,13.44-21.87,56.06-2.4,66.46-7.58,12.31,3.43,12.58,0,29.63,8.61,9.77-3.9,19.14-6.41,42.44-.67,6.17-2.73,13.55,3.2,17.61,1.56,6.14-13.05,18.63,2.4,31.23-7.8,10.31-12.1,33.48,2.4,39.23-9.8,17.15-14.47,36.97,2.4,51.24,2.64,8.97-16.55,32.33,2.4,47.24-3.96,35.46,9.84,59.85,10.41,64.86,1.39,12.26-6.58,18.81,9.61,34.43-13.28,19.27,6.6,27.54,7.21,29.63-.53,12.19,2.51,25.99,6.41,37.63,7.14,21.33,16.63,25.69,19.22,45.24-216.15.97-432.4.44-648.55,0-11.71-18.1-1.89-29-2.4-48.44-.34-13.15-5.58-30.13-6.41-38.43-2.32-23.24,3.28-44.33-10.41-66.46,20.46-14.36-.57-23.8,12.81-36.83,3.56-14.81-7.1-20.85-3.2-42.44-15.19-25.42,10.26-36.61-7.21-51.24,7.22-17.88,1.68-64.11-8.01-81.67,6.45-17.02-1.67-15.28-4.8-28.82-2.95-12.72,4.58-24.97-9.61-32.83,5.57-19.47,1.5-15.05-2.4-24.82-3.78-9.47-.28-10.82-13.61-20.82-1.11-4.25,3.49-7.1,2.4-13.61-.47-2.84-13.54-23.12-16.01-28.82C24.21,43.1,4.48,26.61,0,0h684.58Z"/>
      <path class="cls-2" d="M476,19.22c4.98.88.8,74.6-2.4,83.27q19.82-27.02,39.63-54.05c39.75-40.27,2.47,1.36-10.41,18.42-9.94,13.16-19.09,26.98-28.02,40.83-12.38,38.35-29.22,74.93-49.64,109.69-.11,1.88,12.74,14.39,3.6,13.21-2.78-.36-5.51-17.41-12.01,9.61,10.5-3.3,18.45-9.46,26.82-16.41-1.16-1.29,1.78-9.18,2.4-10.41,17.7-34.88,55.24-88.52,89.68-108.09,5.88-9.17,21.24-82.59,25.22-84.47.92-.44,3.06.06,3.6,1.2,1.93,4.02-16.96,68.82-20.02,78.47,2.85-.45,4.93-2.45,6.41-4.8,4.43-7.07,21.99-59.32,25.22-59.65,1.25-.13,1.89.84,2,2,.28,2.98-20.07,48.57-23.22,55.25.98,1.65,28.54-14.15,31.23-16.81,6.61-10.75,17.58-41.61,20.02-45.64,1.46-2.41,4.64-6.67,5.6-1.6.44,2.33-14.98,38.85-17.61,44.04,22.85-7.11,32.86-17.14,26.42,15.21-4.73,23.78-15.5,28.13,9.21,10.81,3.5,1.15-6.85,45.34-8.41,50.84,39.26-48.37,25.9-24.13-4,12.01q-2,12.41-4,24.82c9.56-3.92,53.15-40.06,56.45-41.23,11.66-4.15-9.66,12.71-12.81,15.21-6.21,4.92-43.85,30.01-45.24,32.43-.31.54-1.04,9.05-3.2,12.01,12.35-6.55,21.28-.08,16.01,10.41-3.95,7.86-81.13,56.78-95.68,62.05-21.09,7.65-19.43-1.6-21.62-1.6-3.28,0-39.72,42.58-45.24,47.64-.22,2.88,22.8,12.24,26.02,14.81,69.61-28.77,121.28-92.59,177.75-140.92,2.78-.48,4.24.93,3.6,3.6-.6,2.51-31.91,32.04-36.43,36.43-38.83,37.73-87.69,80.57-135.72,105.29-.11,2.27,17.5,1.7,35.63,11.61,7.51,4.11,56.3,41.31,60.45,46.84,12.71,16.94,2.43,34.52-13.61,44.04-4.1,115.39-62.95,63.07-64.86,68.86,7.32,5.63,47.76,61.85,46.44,65.66-.73,2.1-2.61,1.16-4,0-3.21-2.67-27.89-48.47-48.04-68.06-7.95-7.73-20.6-14.22-28.42-22.82l-1.2,1.2c5.21,10.63,28.62,80.39,28.82,84.87.16,3.65-1.7,4.96-4,2.4-3.19-3.54-26.08-77.03-32.03-89.68-3.97-8.44-4.68-10.71-13.21-16.41-3.48,1.17,3.29,59.57-29.22,59.65,4.08,4.95,31.41,42.11,31.23,44.84-.13,1.91-1.6,2.49-3.2,1.6-4.06-2.25-24.06-48.61-53.25-60.45q-9.81,6.21-19.62,12.41c3.18,11.16,26.11,43.79,26.42,46.44.12,1.02-.18,2.48-1.2,2.8-2.96.94-23.33-37.84-25.62-42.44-1.23,6.58-2.12,43.75-6.01,31.63-.29-.92,1.54-16.41,1.6-19.22-13.46-5.07-26.44-11.45-37.23-21.22-4.5.64,3.65,40.88-2.4,38.43-2.71-1.1-2.8-36.8-2.8-42.04q-11.01-9.01-22.02-18.02c-3.99,0,11.08,27.35,5.2,34.83,12.04,33.54,4.61,36.31-3.2,1.6-2.07-2.89-28.91-1.14-50.84-46.04-7.73,8.05-3.71,12.85,2.8,25.22,15.56,29.55,42.71,51.95,41.64,55.25-1.45,4.41-23.82-22.24-26.42-25.62-9.66-12.56-17.21-26.35-24.42-40.43-8.12,10.55-21.62,58.13-23.62,61.25-.72,1.12-1.94,3.14-3.6,2-3.02-2.06,22.08-62.26,25.22-68.46-6.8-15.31-9.99-31.68-14.81-47.64-8.62,12.88-18.25,25.41-26.02,38.83-9.17,15.84-28.67,61.57-31.23,64.05-2.23,2.17-4.17.98-3.2-4,.85-4.39,19.44-45.13,23.22-52.04,10.74-19.64,25.13-37.53,37.63-56.05.36-.53-.36-3.48,0-4,.91-1.35,4.38,3.61,8.01-10.41l-1.2-1.2c-9.43,14.07-64.94,34.89-71.66,42.84-11.34,13.41-14.02,83.48-18.02,85.27-.84.38-2.54-.36-2.8-1.2-.97-3.07,9.8-55.15,9.21-63.65-8.09,11.67-15.26,24.17-23.62,35.63-1.98,2.71-17.81,25.73-18.42,19.22-.37-4.03,43.08-56.58,44.84-67.26l-1.2-1.2c-5.42,3.51-46.21,25.59-48.84,24.82-6.38-1.88,22.85-14.65,30.43-19.22,2.5-1.51,19.24-12.08,19.62-13.21l-.4-32.43c-3.48,1.56-29.25,18.95-29.22,13.21,0-2.68,27.73-21.15,42.04-33.23,14.55-12.28,28.46-25.54,42.84-38.03l-8.01-27.22c-25.35,20.49-84.65,87.38-98.48,112.9-2.27,4.2-14.57,39.11-17.61,34.43-1.91-2.93,16.91-32.59,12.81-37.63,28.59-45.29,64.52-85.04,104.89-120.1-2.55-1.82-6.87-8.53-10.01-8.41-7.03.29-55.96,36.15-63.25,43.24-7.57,10.9-22.19,25.66-33.63,34.43-24.73,18.95-19.53,9.36-.4-11.61,26.1-28.62,60.38-54.58,94.48-72.86l-10.01-10.81c-27.54,19.4-58.28,33.4-87.27,50.44-.81-.59-.47-2.35,0-3.2,2.58-4.71,74.25-39.65,83.67-50.04-12.45-16.38-53.09-43.48-55.65-46.04-9.92-9.95,9.22.55,23.22,11.21,10.69,8.13,34.37,32.64,36.83,32.83.73.06,10.24-7.06,12.41-7.61l-26.82-41.23c-55.67-7.59-67.38-13.66-4.4-5.2-2.38-5.65-27.83-36.06-28.02-38.43-.5-6.3,7.59,4.39,8.01,4q1.2-12.41,2.4-24.82c-4.78-5.92-37.31-47.31-37.63-50.44-.1-1.02.16-2.47,1.2-2.8,2.92-.94,30.74,44.74,37.23,48.44-.11-27.46,3.01-52.23-4.8-79.27-4.15-9.82-41.46-39.6-42.44-42.44-4.39-12.75,33.06,26.93,35.23,27.22-3.73-14.39-8.91-28.69-12.01-43.24-3.83-18-5-34.58,0-20.82,2.89,7.97,10.39,54.29,20.02,72.86,17.56,23.49,35.49,46.63,50.84,71.66l8.41-37.23c-8-23.83-14-48.37-22.42-72.06-2.46-6.91-17.52-38.74-16.81-40.83.41-1.22,2.06-1.55,3.2-.8,4.78,3.13,35.14,95.05,38.03,107.69,9.34-18.06,1.65-20.53.4-34.03-.66-7.05-.94-50.24.8-53.65.3-.59,1.38-.16,2-1.2.52.7,1.93,1.66,2,2,.53,2.47-1.6,40.88-.8,50.44,2.5,30.12,4.94,4.9,12.01-9.61,10.02-20.57,7.61,10.25,11.61,30.83,5.03-19.63,10.93-39.14,15.61-58.85,1.15-4.83,4.88-29.06,5.6-30.43,5.83-10.95.2,19.41-1.6,28.02-7.01,33.56-21.35,65.91-18.42,100.89,23.97,23.03,55.21,36.59,84.47,51.64,2.3-3.25,6.31-8.38,4-9.61-7.82-4.86-65.59-44.37-66.06-48.44-.92-8.05,14.38,7.69,16.41,9.21,10.31,7.72,32.92,24.39,42.44,30.43,23.48,14.88,1.26-4.94-11.61-26.02-12.9-21.12-21.99-44.87-24.02-69.66-2.49-2.04-20.79-12.21-20.82-13.61-.15-8.09,13.9,10.5,20.42,3.6,3.09,9.85,19.92,13.16,28.82,20.02,2.34-1.62-9.86-29.35-3.2-26.42,2.14.94,18.56,30.37,26.02,38.83,6.49,7.36,18.2,14.45,25.22,22.02,1.84.28,1.79-.4,2.8-1.2,2.2-1.73,25.52-40.81,31.23-46.44-27.82-27.7-86.04-34.05-111.69-43.64-1.5-.56-6.37-1.9-5.2-3.6,41.32,9.04,85.11,18.03,119.7,43.64,3.52-4.97,43.26-58.69,46.44-56.85,1.07,1.43-.46,3.1-1.2,4.4-2.12,3.74-35.28,41.67-42.44,54.45-.3,2.79,22.45,24.59,27.62,48.44,2.64.13,13.19-46.47,14.01-50.84,4.79-25.51,6.12-65.2,8.01-68.06,3.14-4.77,3.19,4.42,3.2,5.6.31,23.83-11.32,82.78-19.22,108.09l25.62-32.03c.97-15.78,4.78-31.46,5.6-47.24.86-16.47-1.62-39.72-.8-41.64.25-.58,1.39-.15,2-1.2Z"/>
      <g>
        <path class="cls-2" d="M588.9,502.03c2.55-1.98,3.28,3.34,3.6,5.2.58,3.33,6.65,63.89,6.41,67.26-.27,3.76-1.5,5.71-4,2.4,1.59-8.94-8.97-72.56-6.01-74.86Z"/>
        <g>
          <path class="cls-4" d="M482.41,346.69h3.2c30.71,38.93,87.4,42.72,86.47,93.68-31.76,14.05-93.57,14.18-121.7-6.41-9.3-6.8-23.14-24.89-32.43-34.03-.54-2.8,12.28-32.05,14.01-32.43,8.41,2.82,50.31,39.75,53.65,40.03,1.92.16,2.24-.02,2-2-.32-2.62-37.13-27.76-42.04-31.63,7.23,2.54,50.6,28.89,53.65,28.82,1.78-.04,3.56-2.43,1.6-4.8-2.55-3.08-65.44-33.49-66.06-37.23-.09-.55,4.89-8.74,6.01-9.21,2.19-.91,33.55-1.9,41.64-4.8Z"/>
          <path class="cls-4" d="M625.73,106.49c-4.99,46.12-9.66,55.93-39.63,88.48-4.83,5.24-16.97,18.78-21.22,22.02-20.91,15.93-80.12,34.51-107.29,40.03-3.67-4.01,14.62-8.65,29.63-18.42,18.65-12.14,103.12-84.97,110.89-108.49q13.81-11.81,27.62-23.62Z"/>
          <path class="cls-4" d="M461.59,448.38c35.66,10.93,74.83,11.31,110.49,0,.58,112.5-77.32,58.84-110.49,0Z"/>
          <path class="cls-4" d="M259.02,179.35c22.35,16.29,47.34,28.26,71.66,41.23l-27.62,40.43c-17.04-9.66-30.65-23.65-43.64-38.03l-.4-43.64Z"/>
          <path class="cls-4" d="M314.27,417.95c3.06,4.18,19.14,22.91,18.82,26.02-2.98,3.08-27.51,48.73-16.81,38.43,1.47-1.41,14.39-31.24,19.62-35.63l10.81,15.61q-5,27.82-10.01,55.65-12.61-11.01-25.22-22.02l-21.62-42.44,24.42-35.63Z"/>
          <path class="cls-4" d="M407.15,102.49c14.6,13.37,23.26,31.22,28.42,50.04-9.16,12.88-20.37,23.8-31.63,34.83l-28.42-37.23q15.81-23.82,31.63-47.64Z"/>
          <path class="cls-4" d="M516.04,258.62c.74-.04,1.7-.22,2,.4q-31.03,31.43-62.05,62.85-20.22-10.61-40.43-21.22,12.21-14.61,24.42-29.22c31.65,3.71,72.19-12.61,76.06-12.81Z"/>
          <path class="cls-4" d="M577.69,89.68c1.53,1.03.83,1.47.4,2.8-.62,1.91-18,30.1-20.82,34.43-36.06,55.35-67.74,86.21-126.91,116.5,12.38-15.12,30.97-23.49,45.64-36.03,28.86-24.69,49.94-57.98,61.25-94.08l40.43-23.62Z"/>
          <path class="cls-4" d="M615.32,73.66c1.69-.09,3.1-.34,2.8,1.2-3.43,14.74-6.68,30.08-16.01,42.44-8.78,11.62-71.08,66.58-88.48,77.27,30.3-31.9,56.13-68.22,74.06-108.49,1.3-1.46,26.05-12.33,27.62-12.41Z"/>
          <path class="cls-4" d="M298.25,104.89l28.42,14.81c5.8,19.86,17.95,36.9,29.63,53.65q-7.41,12.61-14.81,25.22c-20.92-27.46-40.57-58.41-43.24-93.68Z"/>
          <path class="cls-4" d="M166.14,160.14c11.3,17.97,24.57,28.29,42.04,39.63q-1,15.41-2,30.83c-30.77-28.07-31.59-20.25,1.2,5.2q-.6,15.81-1.2,31.63-21.02-32.23-42.04-64.45,1-21.42,2-42.84Z"/>
          <path class="cls-4" d="M245.41,227.39c17.78,13.05,37.7,23.11,54.05,38.03l-12.41,24.42c-22.84,2.22-29.01-8.44-43.64-22.82q1-19.82,2-39.63Z"/>
          <path class="cls-4" d="M349.5,468.4q13.41,16.61,26.82,33.23c.28,14.44,6.82,28.47,3.6,42.84-14.61-3.52-26.52-12.95-38.03-22.02.67-18.23,4.4-36.13,7.61-54.05Z"/>
          <path class="cls-4" d="M530.45,117.7l1.2,1.2c-19.21,47.16-39.23,74-82.07,102.09,18.64-37.76,48.41-76.29,80.87-103.29Z"/>
          <path class="cls-4" d="M409.55,305.06q21.42,11.01,42.84,22.02-7.81,9.41-15.61,18.82c-20.61,4.26-1.44,16.85-37.23-3.6,2.03-15.6-2.55-26.78,10.01-37.23Z"/>
          <path class="cls-4" d="M283.84,462.79c4.51-.01,29.46,65.2,31.23,74.46-23-4.42-36.61-26.03-46.84-45.24l15.61-29.22Z"/>
          <path class="cls-4" d="M402.34,195.37l2,.4,16.01,25.62c-12.27,21.25-4.17,27.73-29.22,16.41-2.27-1.02-16.94-9.5-17.21-10.81,7.36-12.29,18.69-21.36,28.42-31.63Z"/>
          <path class="cls-4" d="M222.99,151.33l22.02,17.21q-1.4,21.82-2.8,43.64c-10.08-3.59-19.31-8.7-26.82-16.41q3.8-22.22,7.61-44.44Z"/>
          <path class="cls-4" d="M283.04,311.46c3.23,1.15-3.22,24.93-2,29.22-8.35,5.85-16.38,12.1-25.22,17.21q-12.21-5.8-24.42-11.61c16.82-13.97,29.9-28.83,51.64-34.83Z"/>
          <path class="cls-4" d="M291.05,378.72c11.96,15.37.32,11.86-2.8,26.82-5.28,25.32,9.61,36.63-5.2,49.24q-11.01-16.21-22.02-32.43l30.03-43.64Z"/>
          <path class="cls-4" d="M383.13,167.34q9.01,11.41,18.02,22.82l-32.43,32.43q-7.41-5.4-14.81-10.81c1.82-3.19,12.45-24.42,14.81-24.42.43,0,5.21,7.16,6.01,2,.49-3.22-9.35.93,8.41-22.02Z"/>
          <path class="cls-4" d="M228.59,397.14c1.7-.05,4.48,7.92,4.4,8.41-.66,4.39-48.23,45.71-58.05,66.86q-.6-16.21-1.2-32.43c11.58-9.04,24-17.05,35.63-26.02,2.84-2.19,17.94-16.78,19.22-16.81Z"/>
          <path class="cls-4" d="M309.46,349.1c14.42,2.75,28.07,8.45,41.23,14.81q-7.41,11.01-14.81,22.02-19.42-9.41-38.83-18.82l12.41-18.02Z"/>
          <path class="cls-4" d="M355.1,365.91c12.49,7.5,24.72,15.5,35.63,25.22l-10.81,18.02q-19.82-11.01-39.63-22.02,7.41-10.61,14.81-21.22Z"/>
          <path class="cls-4" d="M214.98,202.57l26.02,21.22q-1,19.42-2,38.83l-25.22-24.42,1.2-35.63Z"/>
          <path class="cls-4" d="M251.01,448.38c7.03-2.21,24.01,4.97,30.03,10.01-1.2,3.16-10.83,23.39-12.01,24.02-2.08,1.12-2.65-1.91-3.6-2-6.33-.57,3.17,8.81-4.8,19.22-3.98-7.03-18.43-48.48-9.61-51.24Z"/>
          <path class="cls-4" d="M405.54,249.01c2.76.24,3.64,2.58,3.6,2.8-.55,3.91-60.45,35.4-71.26,32.03-.44-.73,4.36-14.75,5.2-15.61,3.21-3.28,57.52-19.65,62.45-19.22Z"/>
          <path class="cls-4" d="M377.52,339.49l17.21,7.61,1.2,35.63-36.43-22.02,18.02-21.22Z"/>
          <path class="cls-4" d="M238.2,413.95l3.6,22.02c-.87,3.5-47.06,27.16-54.05,30.03,13.55-20.19,32.28-36.17,50.44-52.04Z"/>
          <path class="cls-4" d="M435.17,160.14l4.4,22.02q-9.01,16.21-18.02,32.43-7.01-11.81-14.01-23.62,13.81-15.41,27.62-30.83Z"/>
          <path class="cls-4" d="M335.08,221.79c.6-.14,9.18,1.8,8.41,6.81-.24,1.53-9.73,26.02-11.21,28.82-7.51,14.22-13.49,22.24-25.62,6.41,4.48-4.3,25.96-41.44,28.42-42.04Z"/>
          <path class="cls-4" d="M162.14,125.71c5.84,7.77,45.15,60.59,46.04,64.45.26,1.14.16,3.95-1.2,4.4-2.71.9-35.92-27.16-40.43-39.63q-2.2-14.61-4.4-29.22Z"/>
          <path class="cls-4" d="M426.36,448.38l24.42,16.41c.28,5.61,1.25,11.17.8,16.81-1.12,14.05-2.21,13.06-23.22,3.2q-1-18.22-2-36.43Z"/>
          <path class="cls-4" d="M164.54,210.58q18.82,29.22,37.63,58.45c-4.05-2.15-15.21-3.25-17.61-4.8-1.64-1.05-22.35-29.73-22.82-31.63-.46-1.83,1.7-21.94,2.8-22.02Z"/>
          <path class="cls-4" d="M214.18,278.64l25.22,7.61c.1,4.86,2.53,28.72.4,30.83-17.66,7.37-10.6,2.32-16.41-10.81-2.54-5.74-10.1-15.39-9.21-27.62Z"/>
          <path class="cls-4" d="M239.8,97.68c3.03,21.41,6.87,43.26,4,64.86l-19.62-16.41,15.61-48.44Z"/>
          <path class="cls-4" d="M427.96,490.82q10.61,3.8,21.22,7.61c-6.07,21.41-10.22,33.86-32.83,17.61,7.59-9.47,9.99-24.84,11.61-25.22Z"/>
          <path class="cls-4" d="M243.81,287.44c15.52,5.41,38.91,5.63,40.83,6.41,10.51,4.23-35.42,17.36-39.23,20.82-1.9-.61-2.69-26.32-1.6-27.22Z"/>
          <path class="cls-4" d="M214.18,243.41c10.49,13.47,30.9,20.61,25.62,37.63-1.17.88-26.8-7.02-27.62-9.21q1-14.21,2-28.42Z"/>
          <path class="cls-4" d="M330.28,325.08q11.01,3,22.02,6.01-7.01,10.21-14.01,20.42l-22.82-8.41,14.81-18.02Z"/>
          <path class="cls-4" d="M299.05,393.13l12.41,22.02q-9.01,12.21-18.02,24.42c-3.42-13.98-5.66-35.97,5.6-46.44Z"/>
          <path class="cls-4" d="M249.41,171.35c1.04,1.59,6.51,4.63,6.81,6.01.45,2.09-2.83,35.42-1.2,42.84l-9.21-6.01q1.8-21.42,3.6-42.84Z"/>
          <g>
            <path class="cls-4" d="M616.92,208.98c5.41.24.97,4.77-.8,6.41-3.21,2.97-43.76,30.4-50.44,34.43-22.12,13.35-87.68,46.77-28.02,1.6,10.38-3.74,74.78-42.63,79.27-42.44Z"/>
            <path class="cls-4" d="M335.08,393.13l39.63,20.42q-6.21,7.81-12.41,15.61l-14.41-12.81c-11.91,22.04-4.87,19.59-26.82-7.61l14.01-15.61Z"/>
            <path class="cls-4" d="M499.22,351.5c19.78,4.27,34.09,20.21,50.44,31.23,20.1,13.53,65.17,26.72,29.63,54.45-3.49-50.24-49.82-55.39-80.07-85.67Z"/>
            <path class="cls-4" d="M556.07,226.59c3.86-.22-1.04,6.88-5.6,10.41-14.62,11.3-55.67,25.29-74.46,28.02-20.47,2.98-41.34,4.33-20.82-3.2,8.63-3.17,37.34-8.68,61.65-17.61,17.37-6.38,37.09-17.49,39.23-17.61Z"/>
            <path class="cls-4" d="M594.5,132.11c-15.88,25.83-84.25,86.62-108.09,102.49-10.21,6.8-37.04,22.01-13.61,2.4,10.62-8.89,33.11-21.89,50.44-36.83,19.4-16.72,49.55-49.48,71.26-68.06Z"/>
            <path class="cls-4" d="M371.92,293.05c.89-.1,17.23,4.31,17.21,5.2q-15.01,13.81-30.03,27.62l-22.02-6.81c4.98-3.45,32.52-25.77,34.83-26.02Z"/>
            <path class="cls-4" d="M362.31,436.37l15.61,14.01-4.4,38.03-20.42-32.43,9.21-19.62Z"/>
            <path class="cls-4" d="M328.68,299.45c5.73-.44,4.6-.06,2.4,2.4-1.6,1.79-33.49,26.78-37.63,29.63-13.7,9.42-8.59,7.48-4.8-22.42,1.46-1.45,37.27-9.39,40.03-9.61Z"/>
            <path class="cls-4" d="M381.52,453.18q9.41,10.21,18.82,20.42l2,30.03q-11.81-11.01-23.62-22.02l2.8-28.42Z"/>
            <path class="cls-4" d="M384.73,419.56l21.22,13.21q-3,15.41-6.01,30.83c-10.96-11.87-16.34-27.97-15.21-44.04Z"/>
            <path class="cls-4" d="M392.73,299.45c6.78-1.11,4.76,11.61,3.6,14.81-.43,1.2-16.78,17.72-18.02,18.02-1.66.4-14.53-4.3-14.81-5.2,3.12-3.79,27.24-27.3,29.22-27.62Z"/>
            <path class="cls-4" d="M347.9,226.59l14.81,6.81c-10.2,11.84-14.67,30.76-31.63,34.03,7.04-13.11,11.14-27.12,16.81-40.83Z"/>
            <path class="cls-4" d="M411.95,437.17c7.85-2.88,11.52,39.33,9.61,44.84q-7.41-5.8-14.81-11.61c-.2-4.11,3.29-32.53,5.2-33.23Z"/>
            <path class="cls-4" d="M416.75,409.15c2.68.05,30.1,37.96,28.02,44.84-3.49-3.64-20.06-12.54-21.22-14.01-1.03-1.31-13.13-30.94-6.81-30.83Z"/>
            <path class="cls-4" d="M465.6,120.1c2.85,1.05-20.68,52.38-23.22,56.05q-1.8-11.01-3.6-22.02,13.41-17.01,26.82-34.03Z"/>
            <path class="cls-4" d="M367.91,233.8c41.68,17.42,22.73,7.43-17.61,25.62-1.91-1.17,15.13-23.11,17.61-25.62Z"/>
            <path class="cls-4" d="M356.7,332.28l16.41,6.01c-3.28,1.77-17.44,20.25-18.82,20.42-.7.08-12.31-5.59-12.41-6.81q7.41-9.81,14.81-19.62Z"/>
            <path class="cls-4" d="M295.05,374.72l34.03,17.21q-5.8,6.21-11.61,12.41c-2.93-3.49-10.7-18.03-11.61-18.82-11.16-9.62,14.68,25.97,8.41,24.42-7.35-11.01-14.2-22.36-20.42-34.03l1.2-1.2Z"/>
            <path class="cls-4" d="M279.84,369.11c.44-.07,7.18,1.3,6.81,4.4-.31,2.55-26.76,35.68-28.42,42.84l6.01-30.03c2.01-2.21,14.47-17.02,15.61-17.21Z"/>
            <path class="cls-4" d="M333.48,124.91c16.04,6.07,19.4,24.31,30.03,36.43-1.42.84-3.89,6.67-4.4,6.81-2.5.67-28.39-41.74-25.62-43.24Z"/>
            <path class="cls-4" d="M392.73,393.93c4.86-2.09,16.84,31.21,15.21,32.03l-24.42-14.81c1.96-2.09,8.31-16.83,9.21-17.21Z"/>
            <path class="cls-4" d="M607.32,196.17c.72.38-1.5,9.21-2,10.01-1.39,2.22-39.41,23.08-45.64,25.62,10.52-17.72,31.9-23.61,47.64-35.63Z"/>
            <path class="cls-4" d="M261.42,388.33c-3.66,15.55-6.48,32.16-16.81,44.84l-2.8-23.62,19.62-21.22Z"/>
            <path class="cls-4" d="M399.94,349.9l18.82,10.01-17.21,24.42c-1.73.04-2.41-31.77-1.6-34.43Z"/>
            <path class="cls-4" d="M612.92,168.94l-3.6,21.22q-16.21,10.21-32.43,20.42,18.02-20.82,36.03-41.64Z"/>
            <path class="cls-4" d="M323.87,276.23l10.01,8.41c-.5,2.23-38.58,8.28-43.64,12.41-5.37-8.6,21.27-12.37,33.63-20.82Z"/>
            <path class="cls-4" d="M427.96,273.03c1.64-.02,3.08-.41,2.8,1.2-11.64,13.11-33.37,45.51-22.42,4,4.14-.8,18.6-5.19,19.62-5.2Z"/>
            <path class="cls-4" d="M377.52,415.55c3.94-.51,2.42,20.31,8.01,34.43l-20.42-18.02c1.27-2.16,11.39-16.28,12.41-16.41Z"/>
            <path class="cls-4" d="M262.22,363.51c1.71-.33,6.71,2.73,6.81,3.6.19,1.83-21.69,24.3-25.22,26.82-.21-1.62-2.89-9.5-2.8-10.01.24-1.45,19.77-20.13,21.22-20.42Z"/>
            <path class="cls-4" d="M422.36,361.11c.28-.04,4.32,2.08,4.4,3.6.09,1.67-13.62,25.75-14.81,30.03-1.32-1.01-8.35-6.06-8.41-6.81-.13-1.63,17.2-26.58,18.82-26.82Z"/>
            <path class="cls-4" d="M456.79,329.88c32.71,17.15,29.03,9.42-11.21,16.01-2.25-.97,10.4-14.35,11.21-16.01Z"/>
            <path class="cls-4" d="M407.15,478.81l13.21,9.21c-1.24,7.35-3.21,17.29-10.01,21.22-1.78-.39-5.15-30.28-3.2-30.43Z"/>
            <path class="cls-4" d="M349.5,421.96c15.33,13.89,8.5,9,1.6,28.82-.8.35-9.21-13.94-9.21-14.81,0-.85,6.6-11.36,7.61-14.01Z"/>
            <path class="cls-4" d="M189.36,269.83c3.88.77,14.53,2.44,16.41,5.2,12.13,48.69,8.17,29.17-16.41-5.2Z"/>
            <path class="cls-4" d="M258.22,425.96l17.61,24.82c-7.64-3.22-15.3-6.21-23.62-6.81l6.01-18.02Z"/>
            <path class="cls-4" d="M359.91,177.75c.46-.08,5.97,5.58,6.01,6.01.11,1.48-14.13,25.16-15.61,25.22-.34.01-5.1-3.37-5.2-4.4-.16-1.52,13.3-26.55,14.81-26.82Z"/>
            <path class="cls-4" d="M373.52,154.53c10.61,10.99,6.45,11.68-4.8,26.42-10.06-9.34-4.48-12.04,4.8-26.42Z"/>
            <path class="cls-4" d="M297.45,345.89c1.44-.49,7.36,1.32,7.61,2,.33.92-10.47,15.37-11.21,16.01-4.28,3.7-3.93,1.27-10.01-.4-.99-1.23,12.54-17.25,13.61-17.61Z"/>
            <path class="cls-4" d="M234.2,353.1l18.02,9.21-13.21,10.81q-3-9.41-6.01-18.82l1.2-1.2Z"/>
            <path class="cls-4" d="M378.32,486.01c4.58,7.65,18.11,15.79,22.42,20.02,15.18,14.91-32.21-8.6-22.42-20.02Z"/>
            <path class="cls-4" d="M212.58,311.46c10.78,19.25-1.78,24.19-11.61,6.81l11.61-6.81Z"/>
            <path class="cls-4" d="M255.82,318.67c1.02.04,1.37.02,1.2,1.2-12.05,7.54-28.2,26.21-27.22,12.01.22-3.22,24.53-13.27,26.02-13.21Z"/>
            <path class="cls-4" d="M303.06,269.03c18.57,9.36,6.49,9.28-8.81,16.01l8.81-16.01Z"/>
            <path class="cls-4" d="M381.52,507.63l15.61,8.41c-16.97,12.69-12.2,12.75-16.81-7.21l1.2-1.2Z"/>
            <path class="cls-3" d="M294.25,468.4c10.18,20.61,20.54,42.34,24.02,64.86q-12.01-32.43-24.02-64.86Z"/>
            <path class="cls-4" d="M222.99,352.3c1.65-.02,14.06,32.69,5.6,29.63-1.32-.48-8.62-25.43-8.41-26.82.03-.2,2.6-2.8,2.8-2.8Z"/>
            <path class="cls-4" d="M231.8,211.38c6.75,3.29,16.62,7.58,22.42,12.01,11.69,8.94,19.64,19.87-3.2,4-6.12-4.25-13.9-10.71-19.22-16.01Z"/>
            <path class="cls-4" d="M399.14,281.04c.69-.08,2.41-.24,2.8.4q-1.8,6.21-3.6,12.41-8.61-3-17.21-6.01c4.23-1.01,15.97-6.57,18.02-6.81Z"/>
            <path class="cls-4" d="M395.14,321.87c.12,14.55,3.53,22.68-12.41,12.41q6.21-6.21,12.41-12.41Z"/>
            <path class="cls-4" d="M518.44,353.1c17.52,9.29,32.55,22.33,48.44,34.03-18.04-8.34-32.69-22.21-48.44-34.03Z"/>
            <path class="cls-4" d="M449.58,254.62c5.79-.61-11.7,10.04-14.41,11.21-1.66.72-20.89,6.42-21.22,5.2,5.29-2.11,33.68-16.21,35.63-16.41Z"/>
            <path class="cls-4" d="M237.4,387.53c6.59,9.4-2.26,16.1-3.2,16.01-.96-.09-7.67-8.96,3.2-16.01Z"/>
            <path class="cls-4" d="M319.07,411.55c.79,2.6,22.41,25.63,17.61,26.42-1.64.27-22.44-26.17-17.61-26.42Z"/>
            <path class="cls-4" d="M352.7,137.72c3.25,2.1,21.73,17.91,12.81,20.02-1.24.29-12.11-17.3-12.81-20.02Z"/>
            <path class="cls-4" d="M287.84,345.09l1.2,1.2c-2.29,1.59-13.77,14.7-14.81,14.81-.29.03-5.14-2.51-5.2-2.8-.27-1.12,16.94-11.21,18.82-13.21Z"/>
            <path class="cls-4" d="M324.68,101.69c4.82,7.36,24.52,30.07,4.4,14.81l-4.4-14.81Z"/>
            <path class="cls-4" d="M243.81,273.03l13.21,12.41c-9.09.14-16.4-.71-13.21-12.41Z"/>
            <path class="cls-4" d="M321.47,327.48l1.2,1.2c-2.63,1.78-10.72,12.78-12.41,13.21-1.27.32-5.76-.72-6.01-1.2-.72-1.45,15.82-11.21,17.21-13.21Z"/>
            <path class="cls-4" d="M351.9,217.78c1.62-.42,30.18,17.81-1.6,5.6-2.12-.36.76-5.39,1.6-5.6Z"/>
            <path class="cls-4" d="M343.09,212.18c6.53-1.27,5.96,8.94,2.4,9.61-.38.07-6.74-3.19-6.81-3.6-.06-.37,4.04-5.93,4.4-6.01Z"/>
            <path class="cls-4" d="M336.69,271.43c-.55,14.11-8.62,4.36-8.41,3.6.19-.66,7.33-2.53,8.41-3.6Z"/>
            <path class="cls-4" d="M339.89,441.17c1.26,0,7.78,10.86,8.41,12.41,4.26,10.5-11.62-12.41-8.41-12.41Z"/>
            <path class="cls-4" d="M218.99,333.88c.93.26,3.61,8.58,3.2,8.81-12.49-5.86-4.16-9.08-3.2-8.81Z"/>
            <path class="cls-4" d="M218.99,308.26c.98,1.52,5.73,15.96,3.2,15.21l-3.2-15.21Z"/>
            <path class="cls-4" d="M431.17,351.5c5.52-.73-4.25,10.77-4.4,4.4,0-.31,4.1-4.36,4.4-4.4Z"/>
            <path class="cls-4" d="M420.76,242.61l.8,1.6c-10.87,8.08-10.97,2.13-.8-1.6Z"/>
            <path class="cls-4" d="M226.19,331.48c.83-.4,1.63,1.23,2,2,4.18,8.66-1.23,11.84-2-2Z"/>
            <path class="cls-1" d="M457.59,463.59c1.91-.84,11.31,7.95,3.2,3.2-.66-.39-4.42-2.66-3.2-3.2Z"/>
            <path class="cls-4" d="M287.84,456.39c.3.03,2.79,5.43,2.4,5.6-1.52.7-5.08-5.86-2.4-5.6Z"/>
            <path class="cls-4" d="M403.14,302.66c3.49-1.49.16,4.44-.8,4-1.1-.5.39-3.83.8-4Z"/>
            <path class="cls-5" d="M408.75,400.34c.7-.23,1.84.73,2,1.2,1.12,3.24-2.95,1.33-2-1.2Z"/>
          </g>
        </g>
      </g>
    </g>
  </g>
</svg>