<?xml version="1.0" encoding="UTF-8"?>
<svg id="Calque_2" data-name="Calque 2" xmlns="http://www.w3.org/2000/svg" viewBox="0 0 753.59 596.28">
  <defs>
    <style>
      .cls-1 {
        fill: #dddedc;
      }

      .cls-1, .cls-2, .cls-3, .cls-4, .cls-5, .cls-6, .cls-7, .cls-8, .cls-9, .cls-10, .cls-11 {
        stroke-width: 0px;
      }

      .cls-2 {
        fill: #f2f2f5;
      }

      .cls-3 {
        fill: #bcbfc5;
      }

      .cls-4 {
        fill: #4b4b4b;
      }

      .cls-5 {
        fill: #1b1b20;
      }

      .cls-6 {
        fill: #3a3b3d;
      }

      .cls-7 {
        fill: #73767c;
      }

      .cls-8 {
        fill: #54575d;
      }

      .cls-9 {
        fill: #2a2b2c;
      }

      .cls-10 {
        fill: #63656b;
      }

      .cls-11 {
        fill: #080808;
      }
    </style>
  </defs>
  <g id="Calque_1-2" data-name="Calque 1">
    <g>
      <g>
        <path class="cls-1" d="M726.18,274.9c-.09-.07-1.46-1.43-1.6-1.6-.92-1.08-1.5-2.49-2.4-3.6l1.2-1.2c2.7-1.03,29.28,1.99,29.98,3.6,2.45,5.64-16.04,10.78-27.19,2.8Z"/>
        <path class="cls-1" d="M733.38,381.24c-5.82-4.5-10.54-11.25-16.79-15.19,7.9-5.42,20.77-5.04,21.59,6.8.37,5.34-1.3,5.24-4.8,8.4Z"/>
        <path class="cls-1" d="M726.58,466.79c10.88-1.67,27.89,3.78,11.19,8-12.17-3.76-27.09-5.56-11.19-8Z"/>
        <path class="cls-1" d="M722.58,211.73c8.15,1.47,13.4,10.5,11.19,18.39-.32-2.55-14.07-16.64-11.19-18.39Z"/>
        <path class="cls-1" d="M729.38,104.59c-2.15,2.38-7.86-5.58-14.39-10.39,6.84,1.15,13.31,3.33,14.39,10.39Z"/>
        <path class="cls-1" d="M40.96,342.06c4.45,4.56,8.64,9.34,11.99,14.79l-21.19,9.19-2.8-.8c-1.08-6.11-15.3.06-12.79-8.4.47-1.59,22.62-9.06,21.59-16.39,4.18,5.04-2.13,6.51-2.8,11.19l6-9.59Z"/>
        <g>
          <path class="cls-8" d="M38.56,402.83c-3.1,1.77-.68-1.35-.8-1.6l3.2-7.6c-.83-1.6-2.47,2.01-6.4,2.8-6.13,1.24-12.18-.27-11.99-6.4,1.83,6.25,10.17,7.46,14.39,3.6-.38-.68-5.06.29-7.2-3.2-2.7-4.41,1.56-8.21,0-2.4,11.25,12.34,15.97-2.79,8.4-12.39-1.69-.44-5.34,4.83-10.79,4-3.82-.58-5.95-1.23-4.8-5.6,3.08,8.97,10.29,2.62,15.59-.8,10.58,15.25.46,28,.4,29.58Z"/>
          <path class="cls-1" d="M22.57,390.03c.23-7.44,3.28-5.86,4.8-10.39,5.45.83,9.1-4.44,10.79-4,7.58,9.61,2.86,24.73-8.4,12.39,1.56-5.81-2.7-2.01,0,2.4,2.13,3.49,6.81,2.52,7.2,3.2-4.22,3.86-12.56,2.65-14.39-3.6Z"/>
        </g>
        <path class="cls-1" d="M16.57,538.75c10.18-.68,1.06,12.61,21.99,16.39-5.63,6.33-12.9-1.96-20.39,5.2,1.34-15.79-14.72-20.72-1.6-21.59Z"/>
        <path class="cls-1" d="M32.96,565.94c-1.24-.47-1.91.86-2,.8-2.46-1.74.66-3.07-3.6-4.8-3.2-1.3-4.67,5.49-10.39,4-.36-.62.41-2.9.8-3.6,3.87-6.96,23.14-.69,28.78-10.79,1.9,2.88-11.82,10.75-13.59,14.39Z"/>
        <path class="cls-1" d="M38.56,439.61c-.4-.19-4.4-.39-8-3.6,1.58-1.18,6.76-8.05,7.2-8.4.83-.66,6.51-3.66,8-3.6q-3.6,7.8-7.2,15.59Z"/>
        <path class="cls-1" d="M37.76,401.23c-.13-.26-3.57-3.01-3.2-4.8,3.93-.79,5.57-4.4,6.4-2.8l-3.2,7.6Z"/>
        <g>
          <path class="cls-1" d="M4.18,198.94c.09,1.67,7.39,13.59,9.59,15.19-8.32,7.13-20.17-13.41-9.59-15.19Z"/>
          <path class="cls-1" d="M15.37,214.93l-11.19-16.79c1.24-4.34,19.2,15.01,19.19,16.39-.02,3.94-5.93,1.36-8,.4Z"/>
          <path class="cls-4" d="M15.37,214.93c-.46-.21-1.23-.53-1.6-.8-2.2-1.6-9.5-13.53-9.59-15.19-.01-.23-.06-.59,0-.8l11.19,16.79Z"/>
        </g>
        <g>
          <path class="cls-1" d="M722.18.65c.46,1.18-1.29,2.18-2,2.4-19.86,6.06-.19-1.31,4.4,19.59-14.14,8.14-18.16,1.96-23.59,2.8-9.95,1.53,6.6,4.76,8.4,10.79,1.41,4.74-7.33,7.65-4,13.59,2.44,4.34,29.29,9.25,25.59,22.39-.24.85-4.49,4.29-5.6,4.4-12.51-12.76-22.7-15.53-40.38-14.39v1.6c25.45-3.47,32.58,10.03,37.98,11.99-2.67,3.1-7.93,15.86-8,16.79-15.43-6.19,10.81,11.31,11.19,13.19.7,3.4-8.55,4.57-13.19-3.6.84,7.93,11.92,9.47,16.39,4,.37,12.59-7.85,16.98-8,17.99-.13.93,2.74,5.51,2.4,6.4-.41,1.05-11.69,3.69-17.59,13.59l12.79,7.2c-2.6,26.11,5.64,4.85,17.19,4.4,8.58-.33.04,12.05-2.4,12.79-2.84.87-7.8-.76-9.19-.8-4.72-.12-11.86-1.51-14.79-.8-5.68,1.38-41.6,32.08,1.6.8,4.44.22,8.8.87,13.19,1.6,1.53.25,5.76-.77,6.4,1.2.08.24-1.43,4.61-1.6,4.8-1.58,1.85-15.81.44-14.39,10.39,1.27,8.9,18.13,6.82,18.39,8.8-3.98,5.43-7.59,9.34-14.39,10.79,1.18-8.2,8.86-13.38,0-6-7.45,24.02-5.92,2.02-7.2-4-2.12-9.95-2.89,9.86,0,13.59,2.44,3.15,4.48,2.64,6.4-.4.09.76,3.49,8.05,4.8,9.99-23.79.47-3.78,4.03.8,11.19,1.3,2.04,3.36,6.96,2.4,9.19-3.71.06-8.9,1.25-12.39,2.4-22.61,7.43-14.36,7.59,11.59-1.6.53,3.25-.96,6.37-4,8-1.83-1.32-11.04-.08-12.79,2.8,5.14-1.61,8.03-2.9,13.59-1.2,1.39,5.24-6.36,10.91-6.4,11.59-.04.67,6.82,6.69,4.8,11.59-.43,1.05-22.15,19.14-5.2,7.2,1.82-1.28,5.62-6.18,6-6.4.16-.09.91.04,1.6,0l1.6,2.4c-1.79,1.41-5.02,6.05-8,8-34.87,5.69-18.82,3.83,4.8,1.6,3.62,2.37,6.55,12.09,21.99-.8-3.46,19.74-6.81,14.97-23.59,18.79q5.2,5.6,10.39,11.19-8.8,3.6-17.59,7.2c16.44,9.96-3.07-.91-3.2,7.2-.02,1.38,13.68,15.27,2.4,24.39-.27.22-2.18-.41-2.4.4,1.08,1.6,2.19,1.09,2.4,1.2,5.97,3.11,10.2,3.13,2.4,9.59-15.45-8.38-21.83-7.15,2,3.2q7.8,7.2,15.59,14.39c-.17.08-1.7,2.38-2.8,2.4-34.53-12.19-6.78,10.22-7.6,13.99-28.67,18.64,3.07,9.35,8.8,34.38-7.87,1.6-15.98,4.02-23.19,7.6-.49.24-2.16-.42-2.4.4,1.09,1.61,2.3,1.11,2.4,1.2,2.53,2.21,4.43,3.21,5.6,6.8.66,33.9.59,18.37,26.39,27.19-5.9,8.32-4.74,6.48-11.19,5.2-6.04-1.2-13.8-5.61-29.18-4-19.34,4.78,3.55.43,11.19.8,4.38.21,9.73,1.96,13.99,3.2-15.16,14.48-3.38,6.37,1.6,15.59,5.06,9.37-2.51,5.51-7.2,2.4,7.77,21.16-5.63,10.93-9.19,10.79-12.28-.46,12.3,15.07,10.39,29.58-2.04-2.15-5.8-6.14-8.8-6.4-14.43-1.24-.53,3.14.8,4,10.06,6.48,8.6,21.1,2.8,29.98,2.93,5.27,1.02,7.07.8,8.4-18.12,9.92-21.25,17.5-.8,1.6-12.44,18.73,11.65,7.35,15.99,18.39-231.02.81-462.2,1.18-693.22,0-4.36-5.02-7.95-5.84-2.4,0-4-.02-8,.03-11.99,0-5.7-12.76,7.8-25.09,5.2-8,1.79.07,5.69-1.57,6-1.6,7.73,1.35,11.7,11.58,17.99-7.2-.73-.1-5.74,12.11-9.99,9.59l8.8-19.19q-7.6-1.8-15.19-3.6c-.6-.87,12.43-9.03,14.39-15.19-2.09-1.32-3.53.45-4,.4-8.74-.98-13.28-4.93-14.39-13.99,10.11-3.82,25.8-10.7,9.19-17.99-14.69-6.44-28.38,2.95-2-19.59-13.39-12.76-3.72-13.25-3.2-15.19.47-1.76-8.82-11.72-1.6-12.39.11,4.9,25.05,21.44,26.79,21.59,5.3.45-10.12-7.91-15.99-11.99-6.99-4.86-8.68-8.43-9.19-8.8,11.67-8.8,2.93-13.91,3.2-15.59.19-1.18,13.51-8.26,15.19-10.79-10.98-10.27-22.68,1.79-4-25.19-1.48-2.51-21.5,16.78-22.39-3.6,2.85-3.87,20.07-2.05,24.79-.8,3.69,2.06,1.89-12.33-9.59-12.39-.55-.91,15.52-8.63,16.39-13.19l-20.39,13.59c0-.53-.02-1.07,0-1.6.06-1.58,10.18-14.33-.4-29.58-5.3,3.42-12.51,9.77-15.59.8.15-.59-.21-1.65,0-2,.44-.71,2.9-2.05,4-2.8,4.46-3.06,21.39-8.23,27.98-10.79-2.64-7.17-7.86-14.03-14.39-17.99-8.75-5.3-11.8-2.81-15.19-8-2.53-11.93,5.83-4.02,6.4-6-7.72-9.12-11.08-13.74-2.4-10.79,2.31,5.82,11.2,9.02,15.19,4.4-4.67-2.38-9.18-3.42-11.99-8.4,1.62-4.47,16-10.5,16.79-15.99,28.72.96-5.13-3.21-13.59-1.6-.25-.16-1.31.34-1.6-.4.21-13.42,2.24-15.15,11.99-23.19-9.92-5.64-18.59-12-23.19-22.79,11.22.57,22.83,1.69,33.58-2.8-11.3,1.6-23.33,3.89-34.38.4-5.82-17.59,1.54-18.85,15.19-9.59-12.05,3.36-6.12,10.77-1.2,4-10.07,4.71.35-6.76,9.59-3.2,1.26.48,7.24,8.2,2.4,0-3.03-1.57-5.81-1.98-9.19-1.6-.97-4.26-1.31-7.87,1.6-11.19,20.4,17.82,6.64-.89-4.8-4.8-.77-1.07-2.4-1.53-3.2-2.8,0-10.22,3.08-9.46,3.2-9.99l19.99-2c-6.23-1.45-17.43,3.91-19.99-1.2.99-4.42,1.62-8.91,3.2-13.19h-11.19c21.4-7.38,10.88-4.72-2.8-1.2-3.72-4.81-17.71-17.15-7.2-19.19,5.58-1.09,17.76,11.08,23.19,14.39,5.87-14.63,6.5-11.98,19.59-18.79-40.78-8.25-23.14-18.04-25.59-38.38-.06-.51-4.26-5.99-1.6-9.59-4.89-2.8-9.33,1.29-10.39-1.6-.25-.69,4.43-12.76,6.4-13.19l9.59,6.8-6.4-9.99c-.18-1.67,0-3.77,1.6-4.8.72.89,13.92,10.83,16.39,15.99,2.75-1.35-10.19-13.56-12.39-14.79l13.59-.8c-4.09-4.09-15.3,2.81-19.19-3.6-1.36-2.25-1.49-7.85,4.4-7.2,1.61.18,38.43,16.72,22.39,8-1.02-.55-13.86-5.23-17.19-6.4,11.42-8.21,1.1-7.92,0-13.99-1.93-10.65,13.72-9.66,2.8-13.19-7.34-2.37-29.1.28-26.39-15.99,14.23,6.18,34.34,6.8,21.59.8-3.19-1.5-14.18.1-6.4-19.99,12.7,9.07,3.37.39,3.6-10.39,1.39,1.58,19.83,13.43,23.99,13.99-8.27-6.97-27.87-14.09-24.79-20.39,1.91-2.19,5.94-1.63,4.8-5.6C267.99-.4,495.15-.01,722.18.65Z"/>
          <g>
            <path class="cls-11" d="M601.05,370.04c9.44-1.51-8.9,9.22-13.99,12.39,26.32,3.37,6.35,5.09-5.6,3.2-1.64-1.96,18.34-15.39,19.59-15.59Z"/>
            <path class="cls-10" d="M53.75,446c-6.63-4.13-14.32-4.26-15.59-4.8-.94-.39.85-1.39.4-1.6q3.6-7.8,7.2-15.59c-1.48-.06-7.17,2.94-8,3.6-8.22,2.37-13.95-5.56-10.39-10.39.89,20.38,20.91,1.09,22.39,3.6-18.68,26.98-6.99,14.91,4,25.19Z"/>
            <path class="cls-6" d="M725.38,76.61c-1.29.13-1.45-.45-2.4-.8-5.4-1.96-12.53-15.46-37.98-11.99v-1.6c17.68-1.14,27.86,1.63,40.38,14.39Z"/>
            <path class="cls-4" d="M714.99,92.6c-.04.53.02,1.07,0,1.6,6.53,4.81,12.24,12.78,14.39,10.39.08.51-.02,1.07,0,1.6-4.48,5.47-15.55,3.94-16.39-4,4.65,8.17,13.89,7,13.19,3.6-.39-1.89-26.62-19.39-11.19-13.19Z"/>
            <path class="cls-6" d="M52.15,416.42c2.4-12.42-12.15-10.2-13.59-11.99l20.39-13.59c-.87,4.56-16.94,12.29-16.39,13.19,11.49.06,13.28,14.45,9.59,12.39Z"/>
            <path class="cls-6" d="M714.19,364.45c.13.07,1.6,1.1,2.4,1.6,6.25,3.94,10.97,10.69,16.79,15.19-2.04,1.85-.61.32-1.6.8q-7.8-7.2-15.59-14.39c-23.83-10.35-17.45-11.58-2-3.2Z"/>
            <path class="cls-6" d="M50.55,569.14c-5.97.33-11.97-1.09-17.59-3.2,1.77-3.64,15.49-11.51,13.59-14.39-.03-.05-.89.18-.8-.8.46.05,1.91-1.72,4-.4-1.96,6.17-14.99,14.32-14.39,15.19q7.6,1.8,15.19,3.6Z"/>
            <path class="cls-9" d="M724.58,167.76v1.6c-4.39-.73-8.75-1.38-13.19-1.6-43.2,31.28-7.28.58-1.6-.8,2.93-.71,10.07.68,14.79.8Z"/>
            <path class="cls-4" d="M33.76,94.2c-1.9-2.36-1.52-3.04-1.6-3.2,3.88,6.41,15.1-.49,19.19,3.6l-13.59.8c2.21,1.23,15.14,13.45,12.39,14.79-2.48-5.16-15.67-15.1-16.39-15.99Z"/>
            <path class="cls-9" d="M35.36,472.39c.52.37,2.21,3.93,9.19,8.8,5.87,4.08,21.29,12.44,15.99,11.99-1.73-.15-26.68-16.68-26.79-21.59.32-.03,1.28.57,1.6.8Z"/>
            <path class="cls-8" d="M41.76,85.4c3.33,1.17,16.17,5.84,17.19,6.4,16.04,8.72-20.78-7.82-22.39-8-5.89-.65-5.76,4.95-4.4,7.2-5.83-12.25,4.65-7.33,9.59-5.6Z"/>
            <g>
              <path class="cls-4" d="M708.99,462.79c.92.12,1.38-.1,1.2,1.2-14.08,11.85-31.81,22.77-5.6,2.4l-.4-1.2c-29.46,13.33-.69-3.08,4.8-2.4Z"/>
              <path class="cls-4" d="M727.78,481.18c-.72,1.94-2.93.31-4,0-4.26-1.24-9.61-2.99-13.99-3.2-7.64-.37-30.53,3.98-11.19-.8,15.38-1.61,23.15,2.8,29.18,4Z"/>
            </g>
            <path class="cls-6" d="M36.96,12.64c-4.11-4.66-2.33-4.64-.8-6.4-3.09,6.3,16.51,13.42,24.79,20.39-4.16-.57-22.59-12.41-23.99-13.99Z"/>
            <path class="cls-10" d="M28.96,315.67c2.93.99,3.91,2.84,6,4.8,16.33,1.29-5.27-1.97-2.8-8.8,2.81,4.97,7.33,6.01,11.99,8.4-3.99,4.62-12.88,1.43-15.19-4.4Z"/>
            <g>
              <path class="cls-8" d="M22.57,247.71c-.37-.88-.52-1.56-.8-2.4,11.05,3.49,23.08,1.2,34.38-.4-10.75,4.48-22.36,3.37-33.58,2.8Z"/>
              <path class="cls-8" d="M36.96,235.72c.78-.22.91-.72,1.6-.8,3.38-.38,6.16.03,9.19,1.6,4.84,8.2-1.14.48-2.4,0-9.25-3.56-19.66,7.91-9.59,3.2-4.92,6.77-10.85-.63,1.2-4Z"/>
            </g>
            <g>
              <path class="cls-6" d="M26.56,369.25l2.4-4,2.8.8,21.19-9.19c-3.35-5.45-7.54-10.23-11.99-14.79-.06-.06-.68-1.18-.8-1.6,6.54,3.96,11.75,10.82,14.39,17.99-6.59,2.56-23.52,7.74-27.98,10.79Z"/>
              <path class="cls-7" d="M40.16,340.46c.12.42.74,1.54.8,1.6l-6,9.59c.67-4.68,6.98-6.16,2.8-11.19-3.86-4.65-11.17-.32-12.79-8,3.39,5.18,6.44,2.7,15.19,8Z"/>
            </g>
            <g>
              <path class="cls-4" d="M36.96,595.52c-.8,0-1.6,0-2.4,0-5.55-5.84-1.97-5.02,2.4,0Z"/>
              <path class="cls-4" d="M33.76,585.93c4.01-.44,4.61-.96,8,2.4,4.26,2.51,9.26-9.69,9.99-9.59-6.29,18.78-10.26,8.55-17.99,7.2Z"/>
            </g>
            <path class="cls-4" d="M40.16,223.73c-1.84-1.61-3.31-2.75-4.8-4.8,11.43,3.91,25.19,22.62,4.8,4.8Z"/>
            <path class="cls-9" d="M48.95,295.69c-2.12-.07-12.47-.9-13.59-1.6,8.46-1.61,42.31,2.56,13.59,1.6Z"/>
            <path class="cls-6" d="M35.36,206.13c.2-.95-.49-1.03,0-3.2,2.56,5.11,13.76-.25,19.99,1.2l-19.99,2Z"/>
            <path class="cls-6" d="M714.99,575.53c-.13.8-.83.9-.8,1.6-20.45,15.9-17.32,8.32.8-1.6Z"/>
            <path class="cls-10" d="M28.96,102.19c1.75-.39,3.19,1.99,4.8,2,.15-2.02-1.38-3.13-1.6-5.2l6.4,9.99-9.59-6.8Z"/>
            <path class="cls-10" d="M724.58,273.3c.14.17,1.51,1.53,1.6,1.6.08,1.26-1.37.62-1.6.8l-1.6-2.4c.53-.03,1.07.02,1.6,0Z"/>
            <path class="cls-1" d="M706.99,440.41v1.6c-.1-.09-1.31.41-2.4-1.2.24-.82,1.91-.16,2.4-.4Z"/>
            <path class="cls-1" d="M711.79,353.25v1.6c-.21-.11-1.32.4-2.4-1.2.22-.81,2.12-.18,2.4-.4Z"/>
            <g>
              <path class="cls-11" d="M179.68,87c6.44-1.87,102.44,60.47,115.14,68.76,66.31,43.3,129.81,91.03,196.69,133.53q5.6,6,11.19,11.99-44.98-29.38-89.95-58.77c60.26,50.76,120.61,102.31,171.91,162.31-.42.61-1.31.47-2,.4-3.46-.36-41.26-45.24-48.77-49.57,5.15,8.26,12.22,15.68,18.79,22.79,10.07,10.89,28.12,26.01,27.98,27.98-.09,1.39-.52,1.47-2,1.2-3.2-.59-40.01-39.87-46.37-45.57-13.12-11.76-28.33-21.45-41.58-32.78-28.74-24.57-56.87-49.87-86.35-73.56l.8-1.6c6.2.5,82.4,69.85,95.95,79.16,6.02,4.14,17.96,10.41,13.59,6.4-1.12-1.03-9.06-5.72-12.79-8.8-11.76-9.69-22.55-20.72-34.38-30.38-46.62-38.08-96.61-72.29-143.52-109.94,58.67,36.83,113.05,83.88,168.31,126.73-91.73-89.85-204.26-158.05-314.23-224.68-1.2-1.62-.05-5.12,1.6-5.6Z"/>
              <path class="cls-11" d="M354.38,298.88c-4.51-3.36-29.06-21.81-30.38-23.19-.36-.37-2.36-2.74-1.2-3.2,75.57,50.91,185.07,122.87,251.06,182.3,5.83,5.25,47.82,42.68,48.37,45.97.45,2.65-3.2,5.38-5.2,3.6-42.5-41.64-87.44-80.91-136.72-114.34,19.54,23.44,95.45,107.78,105.14,124.33,1.02,1.74,3.15,4.06,1.2,5.2-15.82-17.77-28.85-38.25-46.37-54.37,9.67,24.8-6.2-3.8-14.79-15.59-16.97-23.29-41.23-54.11-62.77-72.36,34.85,48.38,75.4,92.73,106.74,143.52l-1.2.4c-35.98-50.56-75.39-98.46-112.34-148.32-32.02-27.17-67.98-48.94-101.54-73.96Z"/>
              <path class="cls-11" d="M262.43,60.61c39.33,27.63,74.69,60.8,113.14,89.55,24.44,18.27,50.24,34.24,75.56,51.17,23.26,15.56,47.54,29.4,69.16,47.17,6.76,3.78,52.36,27.17,51.57,32.38-1.09,7.2-14.09-2.63-17.59-2.4,5.34,4.43,43.57,37.03,43.98,39.98.21,1.54-1.83,4.86-5.2,3.6-1.85-.7-20.15-19.74-28.78-27.19-52.83-45.52-70.45-53.11-119.53-87.95-67.34-47.79-113.45-89.86-175.9-137.52-10.07-7.68-20.42-14.98-30.38-22.79.95-2.14,21.89,12.52,23.99,13.99Z"/>
              <path class="cls-1" d="M454.33,198.94l-3.2,2.4c-25.32-16.93-51.12-32.9-75.56-51.17-38.45-28.75-73.81-61.92-113.14-89.55l4.8-1.6c21.03,16.27,43.3,30.96,64.36,47.17,23.59,18.15,45.7,38.14,69.56,55.97,17.18,12.84,35.21,25.05,53.17,36.78Z"/>
              <path class="cls-11" d="M588.26,100.59c1.16-.21,1.95.89,2,2,.1,2.05-16.08,31.64-18.39,36.78-9.27,20.61-17.74,41.72-25.99,62.77,20.29-28.94,34.84-61.44,53.57-91.15.37.49,1.17.98,1.2,1.2.61,5.47-47.88,86.07-55.17,95.15-1.81,2.25-17.46,19.88-18.79,19.59-4.93-1.08,11.63-14.6,13.19-17.19.47-.77-.84-1.52-.8-1.6,7.28-12.84,43.35-106.48,49.17-107.54Z"/>
              <path class="cls-11" d="M146.1,87.8q47.77,36.98,95.55,73.96c-12.84-5.86-92.17-65.86-95.55-70.76-.87-1.26-2.3-1.3,0-3.2Z"/>
              <path class="cls-11" d="M617.04,199.74c3.75-.5-1.94,7.33-6.8,14.79-3.93,6.03-37.72,56.84-41.18,56.37-.33-.05-1.49-1.34-1.2-2,7.32-6.77,44.97-68.61,49.17-69.16Z"/>
              <path class="cls-11" d="M230.05,530.76c3.59.09,7.47,2.9,6,6.8-.43,1.13-18.39,13.92-19.59,13.99-9.3.58,22.49-16.01,15.99-18.39-2.63-.97-42.18,15.1-47.97,18.39l-1.2-1.2c0-2.71,42.53-19.7,46.77-19.59Z"/>
              <path class="cls-11" d="M593.05,208.53l1.2,1.2c-14.79,17.67-27.55,37.28-43.58,53.97,2.66-7.41,38.9-54.97,42.38-55.17Z"/>
              <path class="cls-11" d="M307.61,505.97c1,5.98-19.22,31.39-20.79,30.38-.6-.44-.51-1.36-.4-2,.29-1.75,19.14-24.03,21.19-28.38Z"/>
              <path class="cls-11" d="M264.43,510.77c-2.52,4.48-23.2,29.75-26.39,28.78-.36-.48-1.2-1.02-1.2-1.2.04-1.95,24.45-24.16,27.58-27.58Z"/>
              <path class="cls-11" d="M258.04,431.61c42.5,15.43,16.51,13.53,1.6,2.4-1.19-.89-2.41-2.26-1.6-2.4Z"/>
              <path class="cls-9" d="M718.98,205.34c-.02.16-1.21-.47-.8,3.2-1.92,3.04-3.96,3.55-6.4.4-2.89-3.74-2.12-23.54,0-13.59,1.28,6.01-.26,28.02,7.2,4,8.86-7.39,1.18-2.2,0,6Z"/>
              <path class="cls-6" d="M726.18,238.92c-.1.23.16.88-.8.8-25.95,9.19-34.2,9.03-11.59,1.6,3.49-1.15,8.68-2.34,12.39-2.4Z"/>
              <path class="cls-6" d="M721.38,285.29c-23.62,2.23-39.67,4.1-4.8-1.6,2.84.05,2.55.13,4.8,1.6Z"/>
              <path class="cls-5" d="M721.38,273.3c-.38.22-4.18,5.11-6,6.4-16.95,11.95,4.76-6.15,5.2-7.2l.8.8Z"/>
              <path class="cls-4" d="M721.38,247.71c.07.05.71,1.26.8,1.6-5.56-1.7-8.45-.41-13.59,1.2,1.76-2.88,10.97-4.12,12.79-2.8Z"/>
              <g>
                <path class="cls-11" d="M323.2,277.3c9.53,7.65,18.78,15.94,27.98,23.99,16.67,14.56,81.3,75.31,95.15,89.95,7.83,8.28,40.09,48.07,42.78,49.97.27.19,2.4,1.3,2-.4-26.34-32.22-52.34-64.69-80.76-95.15.29-.53,1.58-.58,2-.4,1.35.59,17.79,18.43,20.39,21.19,58.25,61.89,100.75,137.55,167.11,191.89-1.23,7.1-6.2,1.88-9.19-.4-10.13-7.7-29.87-29.11-43.18-38.38-1.72,6.74-2.98,49.41-4.4,51.57-.34.53-2.54.6-2.8.4-2.2-1.71,5.4-48.81,3.6-55.57-.9-3.1-35.99-27.34-41.98-30.78,4.86,15.85,9.46,32.16,15.59,47.57,6.52,16.38,19.21,31.3,9.99,31.58q-46.77-50.77-93.55-101.54,3,16.19,6,32.38c7.36,7.89,60.52,61.96,61.57,66.36.75,3.15-1.77,4.39-4.4,3.6-3.85-1.16-46.16-53.23-54.37-59.17l8.4,58.77-2,1.2c-11.57-16.62-23.84-32.93-34.78-49.97-10.6-16.51-20.73-37.05-30.38-51.97-9.8-15.14-23.76-29.76,0-4,20.22,33.12,40.58,66.09,62.77,97.95l-8.4-56.37q-36.18-34.58-72.36-69.16c-4.21,3.22,20.86,58.28,16.39,68.36,4.62,5.54,13.78,14.68,7.6,20.39-2.58-12.49-13.5-21.17-19.19-32.78-1.12-.09-6.05,20.09-6,21.19.14,2.88,19.17,51.49,19.19,54.37.13,16.09-16.59-39.67-19.59-46.77-3.01-.41-3.5,23.17-7.2,23.99-6.09,1.34-.49-4.82-.4-5.2,2.1-9.25,3.01-18.83,5.6-27.98q-6.2-19.79-12.39-39.58c-21.85,38.06-23.65,35.43-5.2,63.57,3.27,4.98,26.29,35.72,8,15.99-4.82-5.19-14.26-20.69-19.59-27.58.91,8.66,11.08,41.94,10.79,45.97-1.51,21.37-12.57-52.39-15.59-52.37-2.64,5.47-12.2,46.76-14.39,47.97-.81.45-3.77.09-4.4-1.2-1.28-2.65,8.97-50.92,11.99-57.57-.04-3.94-9.04-13.04-9.19-33.98-3.25-2.48-15.07,34.71-16.39,37.18-2.51,4.7-17.01,21.09-17.59,22.39-1.69,3.79-7.92,44.09-10.79,45.18-.28.11-2.28.08-2.4,0-1.85-1.23,11.22-37.39,9.59-43.18-6.81,10.59-33.82,34.81-25.19,38.78-13.84,1.36,4.01-13.44,6.4-34.38,3.7-3.13-1.83,13.84-.4,14.79,7.8-7.86,34.89-40.48,37.98-45.97,2.14-3.8,7.77-21.75,10.79-28.38-30.02,19.56-60.59,40.9-93.15,54.77,12.17-9.04,26.74-14.9,38.78-24.39-15.01-2.02-105.13,1.01-110.34-.8-1.5-.52-1.5-2.68,0-3.2,5.55-1.92,101.98,2.97,117.54.8,6.21-4.68,52.85-32.45,52.37-36.38l-3.6-1.2c-18.97.75-132.31,5.43-139.12,4-1.69-.35-4.83-.93-3.2-3.2,42.26-1.12,84.93.04,127.13-2.4,3.9-.23,20.98-.77,22.79-2.8.87-4.12,7.51-24.13,7.2-25.59-.08-.35-4.86-4.45-5.2-4.4-2.15.33-5.64,19.77-7.2,19.99-13.23-12.8-29.66-20.18-46.37-27.19h-2.4l-20.79,17.59c-57.71-17.26-60.48-23.7-.8-3.2q9.39-7.8,18.79-15.59c-3.79-1.33-26.88-10.98-28.38-10.79-.34.04-4.62,4.57-5.6,4-2.08-1.22,2.03-4.16,2-4.4-.22-1.81-28.21-9.11-34.38-4-.5-6.26,6.67-4.86,13.99-3.6,15.31-13.41,19.84-11.68,4.4-.4,23.51,9.34,22.58,2.6,42.38-10.39.02-1.1-17-8.39-17.99-8.4-2.71,0-18.58,13.15-8.8.8-29.75-7.04-16.82-6.84,4-1.6,30.4-21.22,20.73-8.05,2.4-30.38,8.45,3.05,51.83,38.63,55.17,39.18,2.19.36,6.05-5.58,6-6-.23-1.73-27.1-18.22-28.38-20.39-.72-1.22-.61-1.61.8-1.6,4.17.02,53.59,36.87,59.17,44.78.94-.2,4.31-9.87,3.2-11.99-.96-1.83-29.29-20.98-33.58-23.99-16.29-11.4-33.37-21.69-50.37-31.98-2.2-.23-36.59,13.12-41.58,15.19-10.7,4.44-39.87,20.81-31.98,11.99,4.49-5.02,58.26-25.44,69.16-29.18.8-1.83-32.84-18.52-32.78-22.39.01-.86,2.67-3.77,4.4-3.6,5.23.53,79.8,48.35,89.55,55.17,26.13,18.29,50.52,38.74,73.56,60.77,5.57-7.06,38.67,17.63,45.57,23.19,5.89,4.74,7.32,6.76-.8,2.4-2.6-1.4-40.29-29.79-41.18-22.79q29.78,29.38,59.57,58.77l-6-31.58c-52.98-51.6-116.53-86.12-178.3-125.53,2.52-.18,10.35,4.04,13.99,6,29.18,15.65,94.78,57.34,120.73,77.56,51.73,40.3,92.4,92.03,137.92,138.72-23.68-34.33-50.22-67-69.16-104.34-96.19-67.52-195.34-130.93-301.83-181.1-.21-2.2,1.44-4.31,3.6-4.4,4.7-.2,74.94,35.55,84.75,40.78,104.22,55.5,199.04,126.87,295.04,195.09l-35.18-43.98c-1.49.52-4.14,1.41-5.6.8-4.77-1.99-53.77-44.16-67.16-50.37l-2.4-4.8c-55.9-34.38-115.36-77.29-174.3-105.54-16.14-7.74-63.64-24.94-64.36-28.38-.14-.65,1.36-3.39,2-3.6,5.84-1.85,77.15,30.74,89.15,33.98-14.8-9.97-29.22-20.54-44.38-29.98-14.49-9.03-65.64-35.99-68.76-38.38-1.59-1.22-4.79-3.76-.8-4,4.02-.24,62.51,34.29,70.36,39.18,33.09,20.59,51.67,40.1,92.35,52.37-25.55-20.52-50.74-41.76-77.16-61.17-11.32-8.32-65.63-43.85-68.76-47.17-4.12-4.38-3.25-7.29,0-7.2,4.05.12,60.29,38.52,67.96,43.98,53.8,38.28,100.8,85.2,158.31,118.34l.4-1.2c-52.58-47.96-96.63-87.23-154.72-129.13-25.2-18.18-85.14-59.24-110.34-71.96-3.34-1.69-19.49-7.37-20.79-8.8-2.78-3.05-.65-5.78,3.2-5.6,8.62.42,93.76,42.75,107.94,50.37,71.6,38.47,138.17,85.05,208.29,125.93-66.16-51.23-134.24-100.5-203.49-147.52-6.52-4.42-52.46-31.63-52.37-34.78.04-1.36,2.31-3.6,5.2-2.8,93.58,54.2,177.17,123.54,262.66,189.1-74.04-62.6-144.92-129.65-223.48-186.7-8.2-5.96-33.29-20.23-25.59-19.99,6.49.2,89.27,64.3,100.74,73.56,56.65,45.7,133.39,119.66,182.3,156.71,26.41,20.01,58.62,37.13,83.95,58.37,4.26,3.57,28.9,26.22,27.58,29.18-2.38,5.38-13.26-9.55-22.79-17.19-33.92-27.23-100.96-61.53-140.72-91.95-81.8-47.28-158.57-103.87-245.07-142.72,29.9,20.99,61.11,39.85,92.35,58.77,12.2,11.02,26.84,19.37,39.58,29.58Z"/>
                <g>
                  <path class="cls-1" d="M354.38,298.88l-3.2,2.4c-9.21-8.04-18.45-16.34-27.98-23.99l.8-1.6c1.33,1.37,25.88,19.83,30.38,23.19Z"/>
                  <path class="cls-1" d="M282.02,309.28c45.76,18.08,91.01,39.55,130.33,69.56,3.43,2.62,30.43,24.05,29.98,25.99-.25,1.06-5.56,1.22-6.8,2-49.19-35.68-100.2-68.41-153.52-97.55Z"/>
                  <path class="cls-1" d="M459.53,455.6l38.78,25.99,18.79,57.97c-20.68-26.91-39.62-55.16-57.57-83.95Z"/>
                  <path class="cls-1" d="M280.42,404.43q16.19,11.79,32.38,23.59l-5.2,17.99c-13-11.52-28.49-18.7-44.38-25.19l17.19-16.39Z"/>
                  <path class="cls-1" d="M255.64,393.23q10.99,5,21.99,9.99c-21.86,22.79-13.36,17.02-46.37,6.4l24.39-16.39Z"/>
                  <path class="cls-1" d="M294.02,388.43c1.86-.43,24.06,18.82,24.39,20.39.24,1.15-4.24,15.38-5.2,15.59q-14.99-10.99-29.98-21.99l10.79-13.99Z"/>
                  <path class="cls-1" d="M345.19,450.8l3.6,12.39q-10.59,20.99-21.19,41.98c-7.68-6.25,8.86-24.14,3.6-45.97l13.99-8.4Z"/>
                  <path class="cls-1" d="M345.19,423.62c4.28,6.77,18.21,17.08,19.59,19.59,2.86,5.2,8.64,29.27,3.6,35.58-3.72-5.45-27.31-52.44-23.19-55.17Z"/>
                  <path class="cls-1" d="M327.6,460.4c6.43.34-2.37,31.53-5.6,36.78-5.88-9.24-6.21-17.73-6.8-28.38.36-1.13,11.65-8.43,12.39-8.4Z"/>
                  <path class="cls-1" d="M326,415.62c8.4,10.76,20.07,17.12,19.19,32.78q-10.99-8.2-21.99-16.39l2.8-16.39Z"/>
                  <path class="cls-1" d="M250.84,370.84l13.19,9.19c-8.66,15.18-11.23,8.68-27.98,2.4q7.4-5.8,14.79-11.59Z"/>
                  <path class="cls-1" d="M323.6,437.21l17.19,12.39-23.59,12.39-1.2-1.2,7.6-23.59Z"/>
                  <path class="cls-1" d="M353.98,459.6c1.33-.14,13.78,21.47,13.99,22.79.36,2.21-3.52,14.94-4.4,18.79-1.93-3.94-12.39-34.44-12.39-36.38,0-.94,2.25-5.14,2.8-5.2Z"/>
                  <path class="cls-1" d="M266.03,381.24c1.68,2.73,18.55,12.07,18.79,13.19.14.67-4.63,6.73-5.2,6.8-1.18.14-18.09-9.95-21.19-10.79l7.6-9.19Z"/>
                  <path class="cls-1" d="M444.33,408.42c1.07-.01,2.13,0,3.2,0,55.19,52.11,37.63,36.55-9.19,2,.09-.34,5.58-1.99,6-2Z"/>
                  <path class="cls-1" d="M330,401.23c11.79,3.02,10.07,17.29,11.19,27.19-9.38-14.91-19.41-12.18-11.19-27.19Z"/>
                  <path class="cls-1" d="M323.6,505.97c6.94,3.34-7.81,36.6-10.39,49.57,1.64-16.82,6.4-33.18,10.39-49.57Z"/>
                  <path class="cls-1" d="M341.99,410.82c2.94,2.51,19.81,19.07,20.39,20.39,7.96,18.09-25.55-17.58-20.39-20.39Z"/>
                  <path class="cls-1" d="M373.97,470.79q2.8,13.19,5.6,26.39c-7.63-10.63-10.2-13.09-5.6-26.39Z"/>
                  <path class="cls-1" d="M321.2,410.82c3.98-1.14.15,18.79-.8,19.19-7.44,3.16-.67-18.77.8-19.19Z"/>
                  <path class="cls-1" d="M348.39,443.6c7.41,10.46,3.28,16.15,2.4,15.99-.8-.14-3.15-15.63-2.4-15.99Z"/>
                  <path class="cls-1" d="M471.52,345.26q9.39,7,18.79,13.99c-5.02-2.37-17.12-9.69-18.79-13.99Z"/>
                  <path class="cls-3" d="M449.93,332.47c19.36,9.58,19.43,14.51,0,.8l-.4-.4.4-.4Z"/>
                </g>
              </g>
              <g>
                <path class="cls-11" d="M454.33,198.94c-17.96-11.73-35.99-23.94-53.17-36.78-23.86-17.83-45.97-37.82-69.56-55.97-21.06-16.21-43.34-30.91-64.36-47.17-10.41-8.06-31.02-23.53-13.19-13.59q50.77,37.18,101.54,74.36c-10.58-14.41-37-29.74-54.37-43.18-18.26-14.13-36.24-28.78-53.97-43.58.3-2.62,5.32,1.04,6.8,2,18.68,12.12,67.94,57.89,94.75,71.56-22.79-25.37-51.26-45.49-71.96-72.76.33-.57,1.45-.54,2-.4,3.95,1,47.18,49.87,58.37,56.77,1.47-8.81-28.17-50.99-27.58-53.97,1.57-7.98,21.83,33.11,23.19,35.18,7.3,4.76,24.67,32.36,22.79,33.18-6.74-7.24-11.38-16.26-17.59-23.99,6.6,23.09,36.45,54.55,55.17,70.36,5.11,4.32,45.78,36.43,48.77,35.98,2.15-.33,7.45-11.22,1.6-11.19-.97,0-3.24,6.93-8,4.8-2-.89-.76-6.23-3.2-9.59-5.28-7.28-72.67-39.81-76.36-79.56-1.55-16.63,6.54,18.21,15.59,28.38-8.3-32.72-23.73-63.12-37.18-93.95,1.22-1.3,3.3,2.13,4,3.2,10.1,15.47,31.44,73.64,37.58,95.15,14.04,13.16,29.54,24.44,45.18,35.58,10.37-.53-45.01-51.49-45.97-56.37-.27-1.35.18-2,1.2-2.8,7.4,9.56,40.98,43.25,42.78,45.97,5.21,7.91,2.54,15.66,11.59,19.59,1.93-17.22-18.3-54.95-4-11.99-6.02-6.8-7.07-19.32-8.4-28.38-20.49-35.39-47.13-66.83-68.76-101.54,1.81-2.33,2.32-.78,4,.8,4.38,4.13,60.69,86.01,67.56,99.55-1.3-20.6,4.11-25.17-9.99-33.98-3.43-14.37.48-.77,9.99,4.4,4.39-14.39-2.89-29.32-8.4-42.78-1.42-3.47-15.13-27.41-10.79-26.79,3.18.46,20.25,40.48,21.59,46.37,3.3.14,5.17-45.31,10.39-43.18,5.63,2.3,1.07,68.03,1.2,77.96q13.79,14.99,27.58,29.98.6-24.99,1.2-49.97c-17.9-35.08-18.92-52.33-1.2-9.19,1.67-2.55,1.55-48.17,6.8-39.58,1.3,2.12-5.19,40.72-4,49.57q7.8,20.19,15.59,40.38c.81-2.68,6.68-13.22,6.8-13.99.8-5.48-.35-67.04.8-70.36.52-1.5,2.68-1.5,3.2,0,1.09,3.14-2.36,56.78-1.6,66.36,2.93-2.47,19.53-24.36,21.19-24.39,3.58-.06,1.07,11.29,3.2,20.79,15.77-17.45,13.16-66.78,18.79-71.56,13.68-11.61-2.54,60.32-3.2,64.76-2.89,19.58-4.16,39.75-8,59.17-.55,2.8-10.46,50.56-15.19,37.58-1.39-3.81,9.58-69.37,5.6-80.76-2.99.72-13.85,21.99-15.99,18.39q8-11.59,15.99-23.19c-3.37-29.48,1.39-25.01-19.19-1.6-19.97,32.49-3.97,26.22-5.6,56.77,7.15,14.26,9.47,30.75,11.99,46.37l42.78,34.78c17.32-20.27,65.31-122.69,69.96-128.33.42-.51,2.47-2.98,3.2-1.6-20.98,46.47-44.95,92.08-73.16,134.73-4.17-4.54-36.67-31.63-39.18-31.98-3.22-.46,7.76,11.12,4,11.19q-5.6-8.8-11.19-17.59c-4.4-4.05-35.09-20.3-36.38-21.99-1.38-1.82-6.34-15.37.4-11.59,1.13.63-2.16,9.36,17.19,17.19-11.56-44.83-7.18-54.31-43.58-86.75,3.51,11.93,9.59,55.78,11.59,61.17,3.71,10.01,14.59,2.4,0,18.39q16.79,11.99,33.58,23.99c-.67,2.01-23.03-13.65-24.79-14.79Z"/>
                <g>
                  <path class="cls-1" d="M529.89,86.2c-6.7,35.72-7.77,72.65-19.99,107.14,2.97-27.74,7.4-55.55,5.2-83.55q7.4-11.79,14.79-23.59Z"/>
                  <path class="cls-1" d="M465.92,98.19c2.62,3.9,13.04,31.4,13.19,33.18.28,3.29-3.57,20.3-4.4,25.99-13.46-17.14-6.85-38.91-8.8-59.17Z"/>
                  <path class="cls-1" d="M481.11,139.77c7.34,17.26,1.67,11,.4,13.99-1.17,2.76,3.07,4.86,3.2,5.6.83,4.86-1.53,41.18-3.6,41.18-1.36-5.77-10.01-38.3-9.99-40.38.03-6.28,3.46,7.07,5.6,3.2l4.4-23.59Z"/>
                  <path class="cls-1" d="M423.55,100.59c.82-.67,6.29,5.6,6.8,6.8,1.06,2.53,9.34,45.5,9.99,53.97-13.07-24.12-17.42-31.59-16.79-60.77Z"/>
                  <path class="cls-1" d="M433.14,37.43c3.01.03.06,55.54-1.6,59.97l-5.2-17.99q3.4-20.99,6.8-41.98Z"/>
                  <path class="cls-1" d="M487.51,173.35c5.64,10.67,6.76,24.29,9.59,35.98l-13.19-7.6,3.6-28.38Z"/>
                  <path class="cls-1" d="M535.48,37.43c3.81.15-4.4,46.79-6.4,45.57-.05-4.22,3.47-45.69,6.4-45.57Z"/>
                  <path class="cls-1" d="M430.74,148.57c1.36-.55,13.7,23.71,11.99,24.79-12.85-4.16-8.21-13.65-11.99-24.79Z"/>
                  <path class="cls-1" d="M425.14,89.4l4,11.19c-6.03-3.29-5.34-5.04-4-11.19Z"/>
                </g>
              </g>
              <g>
                <path class="cls-11" d="M266.43,74.21c48.58,35.69,93.86,76.68,143.52,111.14,14.11,11.23,26.09,24.92,39.58,36.78,34.04,29.94,68.63,59.61,101.94,90.35,4.4,4.06,36.66,32.28,36.38,34.78-.04.32-1.34,1.49-2,1.2-35.74-31.72-70.08-65.54-106.34-96.75-8.37-7.2-19.61-17.82-29.18-21.99,16.53,15.21,128.35,131.33,130.33,140.72.62,2.96-1.79,5-4.4,4.4-31.92-36.18-63.47-72.99-98.35-106.34-45.77-31.91-90.76-65.11-136.72-96.75-22.83-15.71-47.65-28.9-70.36-44.78-31.27-21.85-64.28-50.03-91.15-76.76q31.58,19.99,63.17,39.98,107.14,78.76,214.28,157.51c.46-.59,1.28-.64.8-1.6-1.85-3.71-56.03-46.45-63.96-52.77-19.33-15.41-39.67-29.58-59.17-44.78l-120.73-106.34c-1.04-3.15.24-3.06,2.4-2.4,2.9.88,44.12,30.08,49.97,34.38Z"/>
                <path class="cls-1" d="M444.73,206.93c-4.17-.37-4.99,3.99-4.8,4.4,1.44,3.11,8.75,6.59,9.59,10.79-13.49-11.86-25.47-25.55-39.58-36.78-49.66-34.46-94.94-75.45-143.52-111.14,2.13-1.98,3.63-1.7,2.4-4.8,62.46,47.66,108.56,89.73,175.9,137.52Z"/>
                <path class="cls-2" d="M319.6,123.78c21.36,13.59,118.34,86.48,125.93,101.14.46.88.9,2.16.8,3.2l-101.14-81.16-25.59-23.19Z"/>
                <path class="cls-1" d="M208.46,71.81c35.34,21.93,69.13,46.44,100.34,73.96-36.77-19.19-70.08-45.66-100.34-73.96Z"/>
                <path class="cls-1" d="M229.25,52.62c26.56,15.51,46.44,39.29,69.16,59.57-24.66-17.77-45.29-40.66-69.16-59.57Z"/>
              </g>
              <g>
                <path class="cls-11" d="M572.26,41.43c9.48-4.16-1.59,37.57-2.8,41.98-4.28,15.59-43.65,118.99-50.37,128.73-.52.76-2.7,4.05-3.6,3.6,1.63-7.3,20.52-47.28,20.39-49.97-.15-3.04-5.65,6.37-5.6.8.02-2.41,12.51-29.14,17.59-44.78,5.29-16.26,20.54-78.67,24.39-80.36Z"/>
                <path class="cls-1" d="M572.26,48.62c-1.18,24.25-10.61,47.16-19.19,69.56,5.94-23.3,9.96-47.26,19.19-69.56Z"/>
              </g>
            </g>
          </g>
        </g>
      </g>
      <path class="cls-8" d="M27.36,561.94c-.96,2.88-8.64,7-10.39,4,5.72,1.49,7.2-5.29,10.39-4Z"/>
    </g>
  </g>
</svg>