<?xml version="1.0" encoding="UTF-8"?>
<svg id="Calque_2" data-name="Calque 2" xmlns="http://www.w3.org/2000/svg" viewBox="0 0 725.14 595.64">
  <defs>
    <style>
      .cls-1 {
        fill: #9c9ca3;
      }

      .cls-1, .cls-2, .cls-3, .cls-4, .cls-5, .cls-6, .cls-7, .cls-8, .cls-9 {
        stroke-width: 0px;
      }

      .cls-2 {
        fill: #0e0e11;
      }

      .cls-3 {
        fill: #c7c6c4;
      }

      .cls-4 {
        fill: #5e5d63;
      }

      .cls-5 {
        fill: #b0afb4;
      }

      .cls-6 {
        fill: #c1c0c9;
      }

      .cls-7 {
        fill: #757378;
      }

      .cls-8 {
        fill: #fcfcfe;
      }

      .cls-9 {
        fill: #e7e7e5;
      }
    </style>
  </defs>
  <g id="Calque_1-2" data-name="Calque 1">
    <g>
      <path class="cls-9" d="M666.91.37c8.22,29.21,19.99,57.64,25.59,87.55,3.7,19.78,3.4,46.61,10.39,59.17l.8,67.16c1.67,11.27,9.12,24.3,10.39,29.58,3.03,12.57,3.46,47,4.8,51.17,1.6,4.99,2.18-13.43,4.8-3.2,5.45,21.3-6.24,77.15-4,103.14l-18.39,123.13c-3.17,10.76-4.77,22.04-8,32.78-4.54,15.12-12.57,29.78-16.79,44.38-208.67.49-417.39.56-626.06,0-10.43-31.8-19.42-63.93-30.38-95.55-18.47-19.12-7.91-54.42-15.99-79.96,3.95-33.78-2.76-59.69-4-83.95-.25-4.83.12-41.88.8-43.98.14-.42,1.38-1.6,1.6-.8.16,9.38-1.05,65.12,3.2,68.76.66.56,1.97.72,2.4,0-2.84-29.42.89-58.61,1.6-87.95.04-1.65-2.82-15.61-1.6-32.78,1.84-25.82,13.14-61.63,17.59-87.15,3.76-21.57,4.54-44.02,8-65.56,2.18-13.61,9.08-27.63,6.4-39.98,6.66-.92,8.21-21.65,6.8-21.19-5.58,10.58.02-15.35,2.8-24.79C255.39-.2,461.17-.04,666.91.37Z"/>
      <path class="cls-2" d="M313.9,24.35c3.07,0,13.89,47.72,16.79,47.97,2.92-2.79,28.36-26.91,29.98-24.39q-14.79,13.59-29.58,27.19c5.32,11.43,1.41,14.1-2.8,24.39,34.1-26.9,71.32-49.15,107.14-73.56,7.02,1.91.58,6.18-2.4,8.8-15.42,13.5-91.02,54.04-115.54,83.55l24.39,37.18c16.05-10.54-2.73-23.89-2-27.58,1.99-10.02,13.24,13.98,14.79,13.99,19.52-22.34,38.14-45.37,59.97-65.56l2,.4,5.2,12.39c12.97-16.86,19.01-52.25,21.59-53.57,13.17-6.71-9.76,44.87-11.59,48.37,7.38,21.27,7.95,44.04,12.39,65.96q7.6-7.6,15.19-15.19c1.6-.01-2.01,12.15,1.2,6,11.71-22.47.2-76.41,30.38-108.74,14.86-15.92-7.14,14.4-8,15.99-12.56,23.35-10.55,49.85-15.19,75.16-.94,5.14-11.68,39.35-9.19,41.18l16.39-11.59c1.57-8.88,3.13-17.69,5.6-26.39.47-1.65-1.07-2.28-.8-3.2.16-.56,2.23-1.83,2.4-2.4,2.4-8.08,21.03-65.81,23.59-68.36,2.88-2.87,4.61,1.67,4.4,4.4-.27,3.56-18.37,50.73-20.79,61.57,13.79-13.2,25.16-28.65,38.78-41.98l1.2,1.2c-4.26,8.19-41.02,45.08-42.38,47.97-.57,1.2-3.38,17.41-3.6,21.19l49.97-32.38c2.99-7.4,28.94-62.61,32.38-63.57,2.88-.8,3.78.87,3.6,3.6-.19,2.97-24.88,45.69-25.99,53.17,10.49-4.87,60.39-37.3,63.96-38.38,2.77-.84,6.46-1.5,5.2,2.8-1.28,4.38-72.3,42.23-75.16,45.57-.92,1.08-7.64,19.46-10.39,23.99,23.76-4.66-.8,6.28-4.8,10.39-1.88,1.93-18.81,27.11-31.98,43.18-.56.69,1.37,1.71.8,2.4-6.58,7.92-19.59,11.87-18.39,23.99,16.19-16.58,31.89-33.77,47.17-51.17,9.25-10.52,33.62-42.92,36.38-43.58,2.54-.6,4.25.85,3.6,3.6-.51,2.13-23.71,30.21-27.19,34.38-8.08,9.71-53.24,56.43-52.77,64.76l1.2,1.2q49.97-43.58,99.95-87.15c5.8-3.25,39.7-32.66,42.38-32.78.77-.03,1.58-.23,2,.4.4,1.77-.54,1.9-1.2,2.8-2.28,3.13-50.03,38.72-60.77,47.97-12.98,11.2-25.28,23.26-37.98,34.78,19.97-8.17,50.57-24.45,71.56-17.19,28.2-23.99,26.52-17.53.4,4.4,10.12,38.88-79.19,75.76-107.14,99.15,2.15,1.17,9.45,4.41,9.99,4.4,8.19-.24,48.66-41.12,51.97-41.58,8.92-1.22-8.65,14.02-9.59,16.79,11.77-3.65,32.71-12.73,43.18-8,17.72-5.94,34.77-5.99,49.97,6-.31,3.2-14.9-6-21.19-6.8-9.24-1.16-18.13,1.92-27.19,3.2-1.1,24.46-26.24,40.21-40.78,57.57,17.51-14.15,20.61-20.99,43.18-29.58,31.68-12.06,41.07-6.74,12.79,16.79-34.25,28.49-76.94,34.88-109.14,63.57,56.06-9.35,108.77-33.94,163.51-49.17,2.5,2.02,2.51,2.85.8,5.6l-137.12,44.38c16.9,3.95,37.77,4.76,54.77,1.2,11.1-2.32,28.93-13.12,23.99-4.8-1.1,1.84-30.17,15.13-35.18,23.19,29.17,3.1,72.04-18.87,73.96-15.59,1.98,3.37-31.62,13.29-34.78,13.99-18.46,4.09-44.12,4.19-46.37,4.8-.36.1-3.96,3.89-6,4.4,15.99,10.22,89.86,25.75,91.15,30.38.6,2.13-1.61,3.56-3.6,3.6-2.91.05-47.14-15.54-55.97-15.99q-11.39,8.6-22.79,17.19c2.44,3.33,24.23,23.6,25.99,23.59,4.95-.04,3.98-14.8,4.8-18.39,5.16,5.33,3.08,16.14-1.2,21.99q21.19,15.59,42.38,31.18c-.26,2.11-5.71-1.39-10.79-4.4-11.56-6.85-21.86-16.2-32.78-23.99-21.11,19.98-79.32-5.52-106.34-12.79l-13.99,13.19q23.39.6,46.77,1.2c6.45,1.23,83.07,48.69,89.55,55.17,14.1,14.09-26.33-15.12-32.78-19.19-18.44-11.63-37.76-22.12-56.77-32.78q-19.39,20.99-38.78,41.98c14.38,16.1,54.88,32.32,57.17,34.78,8.54,9.19-29.02-11.05-31.98-12.79-9.32-5.5-18.05-12.3-26.39-19.19l-14.79,14.79c2.16,6.77,30.12,40.55,30.38,43.18.29,2.87-2.31,4.85-5.6,2.4-2-1.49-23.4-34.58-29.18-40.38l-13.99,15.59c22.42,9.31,13.74,13.62-4.4,4.4-20.55,25.56-28.86,22.27-6.8-1.2-19.7-8.06-41.92-11.86-59.57-25.19l-16.39,25.99c10.24,4.08,53.86,8.63,41.98,13.99-2.12.95-39.92-7.62-45.57-8.8-10.46,18.05-17.69,15.67-6.8-.4l-1.2-2c-7.65.21-44.69-15.22-47.17-15.19-6.77.08-6.12,27.67-13.59,25.59-4.86-1.35,6.37-23.47,6-28.38l-22.79-13.99c-5.92,5.38-31.94,52.31-35.18,51.97-4-.42-1.34-5.46-.4-7.6,5.26-11.91,30.88-45.13,31.18-47.97.2-1.85-3.7-6.14-5.2-6-5.24.52-36.33,61.19-39.98,61.57-3.29.34.31-5.89,2-9.19,7.86-15.39,26.39-39.87,35.98-55.97q-6.6-12.59-13.19-25.19c-2.92,3.22-16.73,28.37-18.39,28.78-11.96,2.95,15.36-32.54,15.59-34.78.17-1.68-4.85-10.62-6-10.79-3.01-.46-37.17,40.24-39.98,40.78-1.27.24-3.37-1.06-3.6-2-1.08-4.41,41.23-42.5,41.58-45.57.08-.72-6.88-12.29-7.6-12.39-27.33,16.9-56.65,30.14-84.75,45.57-5.75,3.16-40.74,26.18-43.18,25.59-.28-.07-.73-.87-1.2-1.2-.1-.81-.06-1.27.4-2,3.72-5.89,108.07-57.78,121.93-67.56-24.51,3.47-48.93,10.81-73.96,7.6-23.2,14.37-26.6,11.63-2-2.8,1.69-14.4,7.85-28.38,18.39-38.38l-1.2-1.2c-13.37,5.07-64.91,41.9-68.76,43.18-9.17,3.03.54-3.98,7.2-8.8,28.95-20.93,61.22-37.37,93.15-53.17l-17.99-9.19q-26.39,11.99-52.77,23.99c-6.41-2.49,49.57-23.98,49.17-26.79q-8.6-5-17.19-9.99c-13.58,6.92-57.27,38.08-63.96,40.78-6.5,2.62-8.04-.47-3.2-4.8,10.49-9.38,79.36-47.36,82.35-51.17.87-1.1,1.49-1.03,1.2-3.6-1.1-9.61-16.88,15.49-39.58,16.39-40.03,1.59,4.13-37.61,16.79-44.78,33.89-19.17,53.55-3.22,10.39-21.59-18.63,4.44-57.54,13.14-74.36,15.19-3.07.37-18.37,1.05-8.8-4,4.35-2.29,77.53-12.26,78.76-16.39-10.09-12.34-18.25-26.03-25.19-40.38-7.4-2.27-34.91,1.36-35.58-2.8-.84-5.22,28.24-1.82,33.18-2.8,1.15-.82-1.92-15.94,2.8-23.59-3.76-4.38-35.37-20.12-36.38-21.99-1.05-1.94.38-4.57,1.6-4.8,2.14-.39,35.43,21.35,37.58,21.59,4.36.48,3.12-12.49,48.77,14.39,23.79,14.01,26.92,29.19,24.79-10.39-35.06-20.27-73.46-31.71-112.34-41.98-.39-1.53,1.52-1.34,3.6-1.2,5.76.39,43.84,11.5,53.97,14.79-2.65-9.45-44.31-51.64-44.78-55.17-.12-.88.89-1.96,1.2-2,3.19-.37,36.77,43.3,41.58,48.77,19.19,7.12,36.7,18.14,53.57,29.58l1.2-1.2c-2.55-4.94-4.49-18.61-5.6-20.79-4.03-7.93-68.34-60.72-81.56-68.76.1-3.41,15.42,7.44,21.19,11.59,20.37,14.67,37.97,33.11,57.17,49.17-5.59-15.12-19.05-36.96-15.99-51.97-15.17-26.03-14.34-30.77,2-2.8.67-2.02,4.57-8.07,4.4-9.19-.54-3.48-53.03-42.31-51.97-47.17.37-1.71,1.87-2.39,3.6-2,3.04.7,40.29,36.62,47.17,40.78,4.11-10.69,15.44-5.41,16.39-8.4-4.15-6.12-25.39-53.73-24.79-56.77,1.57-7.92,12.6,26.23,16.79,35.18,1.35,2.89,10.21,21.61,11.19,22.39,11.92,9.4,21.11-29.07,27.19-39.18.98-1.64,3.8-6.02,4.8-7.2,19.71-23.26,6.71,18.97,8,41.58l10.79,6.8c10.5-49.03,22.01-38.4,23.59-40.38-1.39-6.2-21.32-37.72-21.59-39.98-.38-3.12,1.61-4.64,4.4-3.6,2.47.92,20.29,37.91,25.99,45.97,4.16,5.89,17.05,18.74,22.79,25.99q11.79-10.99,23.59-21.99c-1.5-6.36-15.83-47.06-15.19-49.57.07-.29.87-.73,1.2-1.2Z"/>
      <path class="cls-9" d="M357.88,404.95c.98-.14,4.4,3.31,4.4,3.6,0,1.36-17.46,19.33-18.79,19.59-11.78,2.33,8.43-14.33,14.39-23.19Z"/>
      <g>
        <g>
          <path class="cls-3" d="M662.91,35.55c3.09,7.66,8.28,15.39,8.4,23.99-3.27-7.82-5.57-16.02-8.4-23.99Z"/>
          <path class="cls-3" d="M658.92,25.15c-2.05-5.02-4-9.12-5.6-14.39,2.8,6.02,3.49,8.68,5.6,14.39Z"/>
          <path class="cls-3" d="M662.91,35.55c-.87-2.15-1.56-4.34-2.4-6.4.78,2.15,1.61,4.18,2.4,6.4Z"/>
          <path class="cls-3" d="M653.32,10.76c-.11-.25-2.21-2.22-2-4.8,1.79-.18,1.63,3.59,2,4.8Z"/>
          <path class="cls-3" d="M660.51,29.15c-.46-1.28-1.09-2.62-1.6-4,.55,1.34,1.06,2.68,1.6,4Z"/>
        </g>
        <g>
          <path class="cls-9" d="M419.45,105.11c5.7,18.12,13.85,35.78,15.59,54.77q-25.79,20.59-51.57,41.18-6.6-12.99-13.19-25.99c18.49-21.77,34.2-45.7,49.17-69.96Z"/>
          <path class="cls-9" d="M484.21,372.96c12.6,12.99,27.03,24.09,43.58,31.58l-16.79,13.59c19.79,19.66,24.19,15.45-2,21.19-23.91-12.59-6.56-9.69-5.2-17.99,1.95-11.9-24.01-2.2-29.18-.4q-13.39-12.19-26.79-24.39,18.19-11.79,36.38-23.59Z"/>
          <path class="cls-9" d="M582.56,182.67c1.79-.07,9.27-.31,9.19,2.8-.06,2.36-18.03,19.5-21.19,21.99-17.06,13.46-53.24,30.32-73.16,44.38,6.12-17.74,17.03-33.06,27.58-48.37,12.55-6.62,45.24-20.27,57.57-20.79Z"/>
          <path class="cls-9" d="M413.05,81.12c1.13.1,5.66,12.89,5.2,15.59-.74,4.34-42.77,64.27-49.97,72.36q-6.2-11.79-12.39-23.59c18.16-22.3,37.21-43.67,57.17-64.36Z"/>
          <path class="cls-9" d="M270.73,74.73c9.95-1.19,22.87,20.56,29.18,27.58l-33.18,34.78-13.99-9.99c-.17-9.11,8.11-51.19,17.99-52.37Z"/>
          <path class="cls-9" d="M353.08,500.09l13.19,17.99q-9.79,14.19-19.59,28.38c-6.1-2.29-50.95-14.75-51.57-17.99-.07-.34,2.86-5.91,3.6-6,.37-.04,5.95,4.03,6,4.4.03.24-4.12,3.25-2,4.4,2.6,1.42,44.15-28.07,50.37-31.18Z"/>
          <path class="cls-9" d="M195.57,393.75c11.71-1.08,10.13,9.46,13.19,17.19-8.14,3.26-60.7,36.88-64.36,36.38-.12-.02-1.25-1.04-2-1.2,3.45-13.58,8.45-24.97,19.59-33.98,3.39-2.75,31.68-18.21,33.58-18.39Z"/>
          <path class="cls-9" d="M313.11,122.7l25.19,37.98-16.39,20.39-31.58-25.99q11.39-16.19,22.79-32.38Z"/>
          <path class="cls-9" d="M428.24,491.3c3.71-.7,20.6,27.6,24.39,31.58l-17.19,17.99c-4,.82-32.59-20.69-37.18-25.19q14.99-12.19,29.98-24.39Z"/>
          <path class="cls-9" d="M341.89,468.11l9.19,26.79c-5.71,2.94-40.26,26.65-42.78,26.79-1.22.06-9.07-5.02-9.19-6-.14-1.14,7.36-20.63,8-21.59,2.07-3.15,28.86-21.34,34.78-25.99Z"/>
          <path class="cls-9" d="M435.44,188.26c1.84.19,3.95,19.59.8,21.59-7.78,3.54-52.58,38.15-55.97,38.38-.77.05-10.66-5.39-10.79-6,20.55-19.72,42.96-37.25,65.96-53.97Z"/>
          <path class="cls-9" d="M128.41,255.43c21.34,2.64,42.13,10.21,59.57,22.79l-35.58,16.39c-3.3-3.46-27.17-37.08-23.99-39.18Z"/>
          <path class="cls-9" d="M157.19,320.99c.71-.07,11.17,2.6,13.99,2.8-3.78,16.73-29.45,37.51-45.97,37.18-28.29-.57,23.7-39.11,31.98-39.98Z"/>
          <path class="cls-9" d="M127.61,228.24q34.78,17.19,69.56,34.38c1.36,20.27-4.67,9.85-14.39,4.8-11.11-5.77-23.08-11.16-35.18-14.39-18.13-4.85-29.29,3.9-19.99-24.79Z"/>
          <path class="cls-9" d="M461.82,464.11c2.14-.42,37.75,1.1,43.58,2q-16.59,17.39-33.18,34.78c-1.8-4.21-17-27.5-17.19-29.18-.3-2.67,6.3-7.5,6.8-7.6Z"/>
          <path class="cls-9" d="M429.04,408.94q11.79,9.79,23.59,19.59-15.79,7.4-31.58,14.79-10.99-9.79-21.99-19.59c.18-1.78,18.68-5.2,29.98-14.79Z"/>
          <path class="cls-9" d="M535.38,438.53c10.45,5.53,31.23,13.16,40.78,8.8l8.4,7.6c-14.3,16.18-61.38-2.82-81.56-8,10.61-3.19,21.81-4.77,32.38-8.4Z"/>
          <path class="cls-9" d="M591.35,195.46c-5.04,20.75-44.08,43.95-63.17,55.97-2.81,1.77-34.73,22.27-35.58,20.39,1.78-2.84,1.15-9.24,2.8-11.59,4.43-6.3,86.81-45.9,95.95-64.76Z"/>
          <path class="cls-9" d="M528.19,124.3c1.01.45-7.74,19.5-8.4,20.39-1.65,2.26-35.97,33.19-41.98,37.18q1.4-12.99,2.8-25.99l47.57-31.58Z"/>
          <path class="cls-9" d="M321.1,446.52c1.3-.39,7.51,3.19,7.6,3.6.37,1.69-15.63,22.46-19.19,28.78-6.02,10.7-10.3,22.15-15.59,33.18l-13.99-13.99c5.3-5.85,38.02-50.63,41.18-51.57Z"/>
          <path class="cls-9" d="M273.13,428.13c1.5-.54,12.31,4.34,12.39,5.2-4.61,6.2-25.08,28.53-26.39,32.78-5.63,18.28,12.79,17.92-2,33.18-2.02.19-11.94-22.41-13.19-25.99,2.87-5.62,26.65-44.27,29.18-45.18Z"/>
          <path class="cls-9" d="M287.52,161.08l29.98,24.39-12.39,15.59q-14.59-9.39-29.18-18.79l11.59-21.19Z"/>
          <path class="cls-9" d="M209.16,416.94c1.76.09,9.94,20.35,8,21.59-4.5,1.37-66.26,12.8-65.16,9.19l57.17-30.78Z"/>
          <path class="cls-9" d="M450.63,472.91c3.23-.33,15.83,26.3,18.79,29.98l-12.39,14.79q-11.39-14.99-22.79-29.98,8.2-7.4,16.39-14.79Z"/>
          <path class="cls-9" d="M433.84,165.08c1.96.23,2.55,13.91,2,15.59-.9,2.71-40.66,29.51-45.97,33.98-.78-2.91-5.24-8.67-5.2-9.19.24-3.17,43.69-35.75,49.17-40.38Z"/>
          <path class="cls-9" d="M301.11,105.11c2.05,2.19,8.63,9.94,8.4,12.39-.19,2.03-21.18,28.46-23.59,33.18l-16.39-12.39q15.79-16.59,31.58-33.18Z"/>
          <path class="cls-9" d="M291.52,434.53q8.2,3,16.39,6-19.79,21.79-39.58,43.58c-14.69-15.5,13.6-35.45,23.19-49.57Z"/>
          <path class="cls-9" d="M611.34,283.41c.88.15,1.31-.22,1.2,1.2-24.74,25.06-57.49,40.18-89.55,53.57,15.84-8.72,50.12-38.68,55.57-41.98,3.08-1.86,31.05-13.08,32.78-12.79Z"/>
          <path class="cls-9" d="M508.2,214.65l1.2.4c-8.09,13.01-15.17,26.76-19.19,41.58l-26.79,17.99c3.25-24.83,26.2-44.96,44.78-59.97Z"/>
          <path class="cls-9" d="M578.56,263.42c9.7-.03-20.36,31.48-23.99,34.38l-28.38-3.6c7.11-2.76,49.33-30.77,52.37-30.78Z"/>
          <path class="cls-9" d="M265.13,143.49l17.99,12.39-12.39,21.99-18.79-17.19,13.19-17.19Z"/>
          <path class="cls-9" d="M265.13,211.45l15.59,21.19-10.79,21.19-13.99-13.99,9.19-28.38Z"/>
          <path class="cls-9" d="M182.78,125.1l17.19,15.59-3.6,32.38c-2.58-5.73-19.41-33.26-19.59-35.58-.2-2.59,4.55-9.63,6-12.39Z"/>
          <path class="cls-9" d="M341.09,249.03l14.79,17.99-19.59,13.19-13.19-11.59,17.99-19.59Z"/>
          <path class="cls-9" d="M237.95,57.14c2.69.39-4.39,39.17-2.8,43.58l-18.79.4c-2.26-1.08,13.86-40.63,21.59-43.98Z"/>
          <path class="cls-9" d="M200.37,335.38l.4,26.79c-12.03,10.43-13.72,2.86-27.98-8l27.58-18.79Z"/>
          <path class="cls-9" d="M237.95,402.55c24.59,10.61-4.59,17.05-9.59,23.99-2.64,3.66,2.79,12.08-4,9.59-1.15-.42-9.01-21.28-8.4-22.79q10.99-5.4,21.99-10.79Z"/>
          <path class="cls-9" d="M241.94,197.86l18.79,9.99-8.4,28.38-12.39-12.39,2-25.99Z"/>
          <path class="cls-9" d="M209.16,121.9c14.75,15.76,33.16,22.44,25.59,39.18-3.62-2.79-27.9-21.03-28.38-22.79-.54-1.98,1.82-16.08,2.8-16.39Z"/>
          <path class="cls-9" d="M362.68,452.12l5.2,29.98c-15.97,14.62-13.92,7.8-20.79-18.39q7.8-5.8,15.59-11.59Z"/>
          <path class="cls-9" d="M298.71,218.65l17.99,10.79q-6.2,10.19-12.39,20.39l-15.59-15.59,9.99-15.59Z"/>
          <path class="cls-9" d="M341.09,166.68l10.79,21.19-9.99,12.39-16.39-14.79,15.59-18.79Z"/>
          <path class="cls-9" d="M529.79,409.74c20.99,15.49,31.27,17.2,1.6,23.99l-13.99-13.99,12.39-9.99Z"/>
          <path class="cls-9" d="M226.75,300.2c.85-.04,3.11-.3,3.6.4-.98,9.63,2.61,20.2,2.4,29.58-.26,11.47-19.82-19.89-21.59-23.99.17-1.06,14.76-5.96,15.59-6Z"/>
          <path class="cls-9" d="M207.56,332.19c36.66,8.45,22.36,12.38-.8,26.39l-1.2-1.2,2-25.19Z"/>
          <path class="cls-9" d="M321.1,190.66l16.39,13.99c-10.6,18.38-11.42,10.14-27.98,0l11.59-13.99Z"/>
          <path class="cls-9" d="M205.16,168.28c19.86,9.06,30.42,3.54,25.99,19.59-1.58,2.35-16.24-8.64-26.79-1.2-.78-3.54-2.96-17.38.8-18.39Z"/>
          <path class="cls-9" d="M535.38,405.75c1.87-.43,32.56,5.06,37.98,5.2q-9.79,6.6-19.59,13.19c-7.22-7.58-24.85-16.92-18.39-18.39Z"/>
          <path class="cls-9" d="M178.78,324.19l21.19,5.2c-3.86,1.8-26.73,19.17-28.38,18.79-.87-.2-2.89-6.83-2.8-7.6.12-.95,9.14-13.6,9.99-16.39Z"/>
          <path class="cls-9" d="M401.86,485.7q5.4,5.8,10.79,11.59c-16.73,11.28-18.07,19.9-27.19,5.6l16.39-17.19Z"/>
          <path class="cls-9" d="M190.77,282.61c3.14.53-6.72,18.95-8,21.59q-11.39-3-22.79-6l30.78-15.59Z"/>
          <path class="cls-9" d="M167.59,357.77l17.19,13.19c-16.07,10.09-13.42,3.07-29.98-4.4l12.79-8.8Z"/>
          <g>
            <path class="cls-9" d="M175.58,141.89c6.76,12.54,20.87,31.42,20.39,44.38,10.86,15.8,5-1.92,24.39,2,1.06.21,9.78,3.9,9.99,4.4q-.6,15.79-1.2,31.58l-31.58-28.38c-.62-4.37-25.69-52.72-21.99-53.97Z"/>
            <path class="cls-9" d="M513,368.17c8.31-.12,37.09,9.32,65.96,2q-10.99,7.8-21.99,15.59c-22.44-.52-44.08-6.71-65.56-12.79,3.77-1.19,19.7-4.77,21.59-4.8Z"/>
            <path class="cls-9" d="M436.24,215.45c1.61.23,1.59,13.53,1.2,14.79-.72,2.3-36.37,28.5-38.78,28.38-.67-.03-9.69-5.63-11.59-6.8l49.17-36.38Z"/>
            <path class="cls-9" d="M213.96,269.82c1.17-.47,19.59,7.84,23.19,8l17.99,29.98c-5.14-1.87-40.98-24.2-42.78-25.99-3.1-3.09.98-11.74,1.6-11.99Z"/>
            <path class="cls-9" d="M529.79,321.79c.76-.07,2.36-.24,2.8.4-19.88,14.21-42.69,26.51-67.96,25.59l9.99-10.79c12.13-1.17,50.63-14.76,55.17-15.19Z"/>
            <path class="cls-9" d="M365.88,378.56c1.33,0,3.7,3.54,3.6,4.4-.34,2.73-33.75,34.34-36.38,41.18q-7-3-13.99-6c7.43-2.76,43.71-39.6,46.77-39.58Z"/>
            <path class="cls-9" d="M254.74,415.34c.66,0,10.79,6.94,10.79,7.6-11.54,8.43-22.16,18.33-31.58,29.18l-6.8-12.39,15.19-10.39c-30.6,13.39,10.22-13.98,12.39-13.99Z"/>
            <path class="cls-9" d="M309.91,441.73c1.47-.29,6.04,1.7,5.2,3.6-6.4,4.26-36.46,48.6-39.58,48.37-.52-.04-5.28-6.02-5.2-6.8.32-2.99,36.63-44.6,39.58-45.18Z"/>
            <path class="cls-9" d="M472.22,161.88c4.05-.4-1,13.14-.4,22.79-1.45,4.38-15.69,9.46-19.99,12.79-1.66,8.56.22,21.33-4.4,24.39-2.38-20.72,8.25-30.57,9.99-49.17,2.18-1.24,13.88-10.7,14.79-10.79Z"/>
            <path class="cls-9" d="M325.9,379.36c1.68-.44,15.42.95,15.59,2-5.28,2.88-34.79,30.11-37.18,29.98-.46-.02-7.59-4.74-7.6-5.2-.01-1.98,27.27-26.28,29.18-26.79Z"/>
            <path class="cls-9" d="M376.27,440.13c1.7-.02,13.6,23.82,13.19,25.19l-16.39,12.39c-1.88-.27-5.23-28.11-4.4-30.78.15-.49,7.09-6.79,7.6-6.8Z"/>
            <path class="cls-9" d="M237.15,249.83c3.61,2.03,27.92,17.93,28.38,19.59.59,2.11-3.01,5.1-.4,13.99l-13.59-11.19c-16.38,2.85-18.27-8.03-14.39-22.39Z"/>
            <path class="cls-9" d="M471.42,369.76c.86,0,1.76-.22,2,.4-6.98,4.85-41.57,30.71-44.38,31.58-2.81.87-6.74-3.94-6.8-4.4-.11-.88,10.07-13.48,10.79-13.99,1.67-1.17,36.34-13.6,38.38-13.59Z"/>
            <path class="cls-9" d="M495.41,376.96c8.73,1.46,17,5.32,25.59,7.2,32.11,7.02,42.58.73,11.19,15.99-12.6-7.01-26.61-12.57-36.78-23.19Z"/>
            <path class="cls-9" d="M461.82,435.33c.83-.07,14.81,6.15,14.79,7.6-17.25,14.05-23.24,28.96-32.78,6.4,3.1-1.87,16.5-13.87,17.99-13.99Z"/>
            <path class="cls-9" d="M321.9,233.04l15.59,10.79-18.79,20.39-9.99-10.79,13.19-20.39Z"/>
            <path class="cls-9" d="M572.96,258.63c.67-.06,2.48-.25,2.8.4-8.03,3-53.15,31.96-56.37,32.38-2.13.28-7.47-2.41-7.6-2.8-1.37-4.24,46.11-28.63,61.17-29.98Z"/>
            <path class="cls-9" d="M357.88,433.73c5.52.06-16.43,15.02-13.99,25.19q-14.99,11.79-29.98,23.59c3.32-6.25,29.38-43.52,31.58-45.18,1.86-1.4,10.6-3.62,12.39-3.6Z"/>
            <path class="cls-9" d="M444.23,398.55c1.75-.02,22.57,20.98,25.99,23.59-13.19,11.06-21.14-5.03-36.78-15.99,1.39-1.28,10.13-7.59,10.79-7.6Z"/>
            <path class="cls-9" d="M205.16,145.09c3.18,3.32,27.96,21.02,28.38,22.79,2.91,12.06-17.36,0-30.38-4l2-18.79Z"/>
            <path class="cls-9" d="M401.06,265.82c1.54-.17,11.69,5.25,11.59,6.8-20.91,16.51-15.2,19.79-35.18,9.59,3.18-2.31,22.16-16.24,23.59-16.39Z"/>
            <path class="cls-9" d="M305.91,374.56c.98-.12,7.81,3.92,9.99,4.4-3.76,2.52-23.48,23.33-25.19,23.59-1.46.22-8.83-5.57-10.79-6.8,3.56-2.39,24.32-20.98,25.99-21.19Z"/>
            <path class="cls-9" d="M434.64,456.92l15.59,9.19q-10.19,7.8-20.39,15.59l-9.19-13.19,13.99-11.59Z"/>
            <path class="cls-9" d="M507.4,307.4c1.6.9,22.93,7.73,20.79,9.59l-47.57,13.19q13.39-11.39,26.79-22.79Z"/>
            <path class="cls-9" d="M391.46,428.93l13.99,25.19c-15.57,12.92-10.24,4.1-23.99-17.59l9.99-7.6Z"/>
            <path class="cls-9" d="M436.24,238.64c4.34,17.05-3.76,17.4-19.19,29.58l-10.79-6.8q14.99-11.39,29.98-22.79Z"/>
            <path class="cls-9" d="M309.91,324.99c.65.05,8.72,7.21,9.99,8.4-20.36,13.51-23.12,23.65-31.98,6.4,2.87-1.92,20.67-14.9,21.99-14.79Z"/>
            <path class="cls-9" d="M325.9,336.98c1.99-.22,7.6,5.51,7.6,6,0,1.62-22.8,21.48-24.39,21.19-.61-.11-8.48-8.3-8.4-9.19.15-1.54,23.65-17.82,25.19-17.99Z"/>
            <path class="cls-9" d="M272.33,330.59c16.67,10.12-1.04,12.25-9.59,21.59-1.29,1.38-15.68-7.47-15.59-8.4l25.19-13.19Z"/>
            <path class="cls-9" d="M199.57,201.86c3.3,3.71,38.9,30.67,31.98,35.98-18.89-14.03-28.97-9.57-31.98-35.98Z"/>
            <path class="cls-9" d="M391.46,470.51c11.68,13.41,4.53,11.26-9.59,27.98-13.4-18.54-6.23-14.44,9.59-27.98Z"/>
            <path class="cls-9" d="M236.35,375.36l16.39,10.79q-5.8,5.4-11.59,10.79-9.39-7.8-18.79-15.59,7-3,13.99-6Z"/>
            <path class="cls-9" d="M328.3,78.72c11.31-.21-12.46,31.98-14.39,31.98-.68,0-7.77-9.66-7.6-10.79.23-1.51,20.46-21.16,21.99-21.19Z"/>
            <path class="cls-9" d="M281.92,368.17q7,3.4,13.99,6.8-10.19,8.2-20.39,16.39l-8.4-9.99,14.79-13.19Z"/>
            <path class="cls-9" d="M210.76,114.7c1.47-.59,24.94,9.01,27.58,13.19l-1.2,16.39c-7.23-9.05-32.64-27.05-26.39-29.58Z"/>
            <path class="cls-9" d="M236.35,305l21.99,13.99q-9.79,7.4-19.59,14.79l-2.4-28.78Z"/>
            <path class="cls-9" d="M307.51,419.34q10.59,5,21.19,9.99c-10.28,15.16-8.94,8.32-31.18.8l9.99-10.79Z"/>
            <path class="cls-9" d="M365.88,181.07c10.3,19.26,17.66,22.73,4,32.78-1.16-3.37-11.62-22.27-11.59-23.59.03-1.3,6.25-7.64,7.6-9.19Z"/>
            <path class="cls-9" d="M450.63,289.81c1.92-.26,9.71,4.34,12.39,5.2-2.66,2.53-23.68,18.36-25.19,17.99-.48-.12-5.22-7.9-5.2-8.4.06-1.16,16.84-14.64,17.99-14.79Z"/>
            <path class="cls-9" d="M381.07,256.23c1.54-.21,12.52,4.98,12.39,6.8-19.22,12.55-20.06,20.88-28.78,4.8,2.51-1.38,15.4-11.46,16.39-11.59Z"/>
            <path class="cls-9" d="M487.41,265.82c.55.4-.91,12.6-1.2,13.19-.48,1-16.22,11.82-18.79,11.59-.53-.05-7.86-4.22-9.19-5.2l29.18-19.59Z"/>
            <path class="cls-9" d="M274.73,299.4q5.8,5,11.59,9.99l-7.6,17.19-12.39-9.99,8.4-17.19Z"/>
            <path class="cls-9" d="M293.12,246.63l9.99,9.99-8.4,16.39c-17.28-7.88-13.8-6.66-1.6-26.39Z"/>
            <path class="cls-9" d="M136.4,222.65c7.21-.8,54.85,26.87,62.77,34.78-22.58-9.38-43.78-21.85-65.56-32.78-.43-.92,2.63-1.98,2.8-2Z"/>
            <path class="cls-9" d="M319.5,273.02l12.39,10.79c-13.92,10.03-14.02,15.14-25.59,5.6l13.19-16.39Z"/>
            <path class="cls-9" d="M428.24,89.12c3.51,19.13,8.51,38.68,10.79,57.97.13,1.12,1.56,10.81-.4,10.79-2.11-22.08-21.33-59.27-10.39-68.76Z"/>
            <path class="cls-9" d="M373.07,334.58c1.2-.2,8.5,3.64,8.4,5.2-.1,1.47-20.52,19.74-21.99,19.59-.48-.05-6.07-6.91-6-7.6.14-1.3,18.3-16.97,19.59-17.19Z"/>
            <path class="cls-9" d="M352.28,152.28c1.4,2.94,11.68,20.75,11.59,21.99-.04.56-7.03,8.39-7.6,8.4-1.21.01-11.68-19.98-11.59-21.19.05-.7,6.84-7.17,7.6-9.19Z"/>
            <path class="cls-9" d="M337.89,346.58c1.62-.17,5.31,5.06,5.2,6-.19,1.52-19.68,21.75-21.19,21.99-1.2.19-7.6-4.46-7.6-5.2,0-1.64,21.96-22.62,23.59-22.79Z"/>
            <path class="cls-9" d="M412.25,281.81c1.4-.07,5.28,5.18,5.2,6-.15,1.46-19.72,20.4-21.19,20.39-.52,0-6.24-7.4-6-8.4.34-1.38,20.57-17.92,21.99-17.99Z"/>
            <path class="cls-9" d="M519.39,298.6c2.36-.48,24.19,3.99,29.18,5.2-3.14,2.74-8.64,9.4-12.39,9.19l-22.39-8.8c-1.35-.77,5.21-5.52,5.6-5.6Z"/>
            <path class="cls-9" d="M215.56,383.36c1.23.06,14.74,12.67,17.19,14.79-5.68,3.16-11.99,8.55-17.99,3.6-4.82-3.98-6.3-18.76.8-18.39Z"/>
            <path class="cls-9" d="M335.49,311.4c18.46,9.93,10.13,6.38-8,18.39-18.5-7.66-5.12-8.88,8-18.39Z"/>
            <path class="cls-9" d="M381.87,508.09c.45,0,6.05,6.13,6,6.8-.04.49-3.89,3.43-4,4-1.42,7.48,9.14-.53,9.99-.4,1.35.21,14.31,13.54,21.19,17.19-6.25.67-40.38-15.5-40.78-19.19-.06-.56,7.03-8.4,7.6-8.4Z"/>
            <path class="cls-9" d="M378.67,398.55l8.4,12.39c-.07.95-13.59,11.14-15.59,10.79-.62-.11-6.87-7.64-6.8-8.4.11-1.01,12.73-12.31,13.99-14.79Z"/>
            <path class="cls-9" d="M233.95,348.98q6.2,8.2,12.39,16.39c-10.59,7.85-12.85.49-26.39-7.2l13.99-9.19Z"/>
            <path class="cls-9" d="M457.83,353.77l12.39,12.39c-39.41,10.66-39.23,19.21-12.39-12.39Z"/>
            <path class="cls-9" d="M353.88,194.66c15.7,25.04,14.65,40.89-8.4,11.59l8.4-11.59Z"/>
            <path class="cls-9" d="M421.85,293.81c.54.1,4.58,6.63,4.4,7.6-.28,1.5-21.31,20.8-22.79,20.39-.4-.11-3.66-7.18-3.6-7.6.23-1.48,20.51-20.65,21.99-20.39Z"/>
            <path class="cls-9" d="M246.74,281.01q11.39,7,22.79,13.99l-6.8,15.59-17.19-28.38,1.2-1.2Z"/>
            <path class="cls-9" d="M413.05,386.56c4.51-.11,3.75-.2,2.4,1.6-.89,1.18-21.71,18.3-23.19,18.39-.79.05-9.13-7.39-3.2-12.79,4.3-3.92,18.3-7.06,23.99-7.2Z"/>
            <path class="cls-9" d="M275.53,504.09c1.07-.28,16.85,12.94,17.19,13.99.35,1.09-2.29,8.17-2.8,8.4-1.61.72-21.05-11.53-21.19-13.19-.05-.57,6.24-9.05,6.8-9.19Z"/>
            <path class="cls-9" d="M481.81,301c1.14-.29,6.82.78,6.8,2-.05,2.07-28.73,27.79-30.78,27.58-.8-.08-3.87-3.75-3.6-5.2.34-1.81,25.8-23.94,27.58-24.39Z"/>
            <path class="cls-9" d="M358.68,272.22c.76-.02,9.85,7.78,7.2,11.19-.46.6-12.04,7.96-12.79,8-2.27.12-8-5.79-10.79-6.8,1.78-1.87,15.36-12.36,16.39-12.39Z"/>
            <path class="cls-9" d="M368.27,488.9l2,.4c5.68,14.47,11.51,11.05-.4,22.79q-5.8-7.4-11.59-14.79l9.99-8.4Z"/>
            <path class="cls-9" d="M205.96,230.64c1.63,2.62,12.27,17.67,12.39,18.79.34,2.98-3.23,17.62-14.39,4.8l2-23.59Z"/>
            <path class="cls-9" d="M274.73,400.95c1.42-.22,10.17,5.07,9.99,6.8-.09.9-12.29,12.42-13.19,12.39-.66-.02-9.04-6.79-10.79-7.6,2.16-1.37,13.09-11.46,13.99-11.59Z"/>
            <path class="cls-9" d="M555.37,431.33c4.17-.06,14.24,12.45,18.79,14.79.29,3.1-30.24-5.35-33.18-7.6l14.39-7.2Z"/>
            <path class="cls-9" d="M248.34,161.88c2.19,3,20.86,17.41,21.19,18.79.15.62-3.01,6.7-3.6,6.8-1.21.19-19.24-13.61-19.59-14.79-.36-1.23,1.48-10.61,2-10.79Z"/>
            <path class="cls-9" d="M457.83,140.29c-2.62,10.7-.43,28.06-11.19,31.98-4.53-20.21-1.54-18.08,11.19-31.98Z"/>
            <path class="cls-9" d="M193.97,372.96c1.18,0,8.8,4.02,9.19,5.2,5.17,15.49-18.28,6.62-24.79,2.4,2.01-1.4,14.72-7.59,15.59-7.6Z"/>
            <path class="cls-9" d="M336.29,288.21c2.2-.33,9.47,6.09,11.59,7.6-13.05,9.49-11.05,10.99-24.79,3.2-.26-.81,12.35-10.67,13.19-10.79Z"/>
            <path class="cls-9" d="M371.47,286.61c8.25,11.44,14.82,12.36-1.6,18.39l-11.59-9.19,13.19-9.19Z"/>
            <path class="cls-9" d="M289.92,410.54c1.46-.43,10.9,5.17,10.79,6.8-10.7,9.58-9,15.51-22.39,5.6,2.37-1.13,10.78-12.15,11.59-12.39Z"/>
            <path class="cls-9" d="M285.12,238.64c.43,0,5.38,4.73,5.2,6.8-.12,1.35-13.06,22.1-14.79,21.99-.28-.02-3.49-2.26-3.6-2.8-.28-1.44,11.4-25.97,13.19-25.99Z"/>
            <path class="cls-9" d="M353.08,300.2c2.31-.08,10.2,7.18,12.39,9.19-12.48,9.73-12.09,7.21-23.99-1.6,2.08-1.43,10.62-7.56,11.59-7.6Z"/>
            <path class="cls-9" d="M200.37,308.2c1.18.05,2.31-.29,2.8.4l-2,14.79c-.78.59-18.47-4.28-18.79-5.2-1.78-5.08,14.64-10.13,17.99-9.99Z"/>
            <path class="cls-9" d="M437.84,358.57c1.16-.23,5.21,1.4,5.2,2.8-.01,1.02-12.32,15.06-13.19,15.59-.99.61-13.41,3.93-17.19,5.2,2.89-3.15,23.49-23.26,25.19-23.59Z"/>
            <path class="cls-9" d="M416.25,472.91l9.19,12.39c-10.92,13.12-8.66,7.5-19.19-3.2l9.99-9.19Z"/>
            <path class="cls-9" d="M428.24,308.2c.58.06,4.54,7.78,4.4,8.4-.76,3.18-56.63,37.42-4.4-8.4Z"/>
            <path class="cls-9" d="M257.94,390.55c.88-.13,10.89,6.25,10.79,7.6-13.49,10.23-11.73,13.47-22.39,2.4,1.98-1.08,10.84-9.88,11.59-9.99Z"/>
            <path class="cls-9" d="M279.52,278.61c2.24,1.46,18.68,10.5,18.79,11.59.04.37-4.84,5.12-5.2,5.2-1.13.23-13.26-4.13-16.79-4-2.5-1.53,1.36-7.77,3.2-12.79Z"/>
            <path class="cls-9" d="M282.72,344.18c1.17.07,5.82,8.07,7.6,9.19-9.73,10.16-9.85,9.71-21.59,2.4-.19-.89,13.09-11.65,13.99-11.59Z"/>
            <path class="cls-9" d="M348.29,356.17c.51,0,6.89,6.72,6.8,7.6-.08.76-10.06,10.58-10.79,10.79-1.9.55-8-.39-11.19,0l-1.2-1.2c2.85-1.44,15.2-17.19,16.39-17.19Z"/>
            <path class="cls-9" d="M509,158.68c1.6-.19,1,.56.4,2-3.18,7.7-25.9,32.37-33.98,39.58-.68-13.36,6.83-13.29,14.39-20.79,6.7-6.64,13.44-13.27,19.19-20.79Z"/>
            <path class="cls-9" d="M468.22,192.26c.6-.09,1.7-.2,2,.4-2.36,16.5-5.2,13.35-15.59,23.59l.4-16.39c2.29-1.16,12.44-7.48,13.19-7.6Z"/>
            <path class="cls-9" d="M261.93,432.13l1.2.4c-4.01,2.95-20.76,33.6-22.79,33.18-.43-.09-4.45-7.16-4.4-7.6.22-1.82,22.62-23.14,25.99-25.99Z"/>
            <path class="cls-9" d="M195.57,113.11c10.79-2.16,8.13,15.04,5.6,20.79-1.28-2.33-13.99-12.23-13.99-13.19,0-.57,7.84-7.48,8.4-7.6Z"/>
            <path class="cls-9" d="M341.09,210.65c1.05-.23,14.79,14.52,14.79,15.59,0,8-21.28-5.15-21.59-6.4-.15-.62,6.24-9.07,6.8-9.19Z"/>
            <path class="cls-9" d="M213.96,362.57c2.04-.14,15.84,8.14,15.59,9.19-15.22,7.65-12.68,3.36-25.59-4,2.05-.64,9.43-5.16,9.99-5.2Z"/>
            <path class="cls-9" d="M460.22,259.43c-2.81,34.15-18.13,21.12-17.99,18.79.08-1.3,16.21-16.04,17.99-18.79Z"/>
            <path class="cls-9" d="M219.56,105.11c12.95-1.93,18.49-.88,16.39,13.19l-23.59-9.19v-1.6c2.04-.42,5.65-2.17,7.2-2.4Z"/>
            <path class="cls-9" d="M353.08,322.59c2.12-.11,6.05,3.25,6,3.6-.17,1.24-19.95,13.38-21.19,13.19-.36-.05-5.17-4.83-5.2-5.2-.09-1.31,19.22-11.54,20.39-11.59Z"/>
            <path class="cls-9" d="M251.54,133.89l11.59,7.6q-7,8.2-13.99,16.39,1.2-11.99,2.4-23.99Z"/>
            <path class="cls-9" d="M234.75,194.66c.69-.56,2.85.85,3.6,1.2l-1.2,45.18c-.06-3.05-4.32-12.5-4.4-13.19-.17-1.65.7-32.14,2-33.18Z"/>
            <path class="cls-9" d="M269.93,198.66c.7-.15,11.35,7.72,11.59,8.4.56,1.57-1.43,13.79-2.8,13.99-2.22-2.99-17.07-20.6-8.8-22.39Z"/>
            <path class="cls-9" d="M495.41,304.2c.44-.07,4.37,1.76,4.4,2,.29,2.45-33.66,27.14-37.18,32.38l-1.2-2c4.83-3.29,31.66-32.03,33.98-32.38Z"/>
            <path class="cls-9" d="M407.45,459.32c10.38,10.86,3.98,8.74-4.8,17.59-9.36-13.13-5.98-8.95,4.8-17.59Z"/>
            <path class="cls-9" d="M504.2,343.38c.58-.06,1.83-.2,2,.4-7.9,1.62-32.9,15.88-34.78,15.59-.52-.08-5.4-5.73-6.8-6.8,11.18-.52,37.55-8.99,39.58-9.19Z"/>
            <path class="cls-9" d="M305.91,259.43c1.09,1.88,9.07,7.19,9.19,8.4.06.59-7.01,9.07-7.6,9.19-1.46.33-8.22-2.68-8.4-3.6-.14-.76,5.5-12.32,6.8-13.99Z"/>
            <path class="cls-9" d="M291.52,313q6.2,3.8,12.39,7.6c-13.37,11.35-24.54,11-12.39-7.6Z"/>
            <path class="cls-9" d="M422.65,353.77c.37-.05,6.11,2.84,6,4.4-.08,1.1-15.29,14.8-16.39,14.79-1,0-3.65-5.65-3.6-6,.14-.95,13.04-13.08,13.99-13.19Z"/>
            <path class="cls-9" d="M466.62,215.45c.41,15.08-5.09,13.15-13.59,22.39-3.37-14.51,4.31-14.23,13.59-22.39Z"/>
            <path class="cls-9" d="M297.11,300.2c1.31-.44,15.27,1.76,15.59,3.6l-9.19,8.4c-1.53-1.83-9.69-4.88-9.99-6-.34-1.24,2.62-5.67,3.6-6Z"/>
            <path class="cls-9" d="M263.53,360.97c2.25-.5,11.54,4.56,11.59,5.2-1.83,1.09-10.09,9.12-10.79,9.19-1.44.15-7.66-6.87-7.6-7.6.04-.48,6.33-6.69,6.8-6.8Z"/>
            <path class="cls-9" d="M348.29,383.36c2.95-.37-2.1,4.49-2.4,4.8-2.97,3.11-25.34,23.04-27.98,24.79-1.29.85-6.77,5.37-6.8,1.2-.02-2.41,33.32-26.75,37.18-30.78Z"/>
            <path class="cls-9" d="M244.34,181.07c19.63,23.52,23.26,26.63-2,12.39l2-12.39Z"/>
            <path class="cls-9" d="M261.13,321.79c1.48-.13,5.15,2.75,5.2,3.6.08,1.55-26.39,15.73-27.19,14.39-1.63-2.74,20.54-17.86,21.99-17.99Z"/>
            <path class="cls-9" d="M203.57,283.41l18.79,12.39-13.19,4.4-6.8-15.59,1.2-1.2Z"/>
            <path class="cls-9" d="M463.42,236.24c1.11,14.23-5.98,14.43-12.79,23.99-3.1-15.38,4.21-14.11,12.79-23.99Z"/>
            <path class="cls-9" d="M216.36,235.44c14.25,8.76,18.02,6.18,14.39,23.99l-14.39-23.99Z"/>
            <path class="cls-9" d="M255.54,244.23c1.17-.45,19.96,15.51,11.99,18.39-.86.31-14.63-9.89-14.79-10.79-.07-.4,2.42-7.45,2.8-7.6Z"/>
            <path class="cls-9" d="M357.88,242.63c.95-.11,16.54,9.05,16.39,9.99-.08.49-7.51,5.33-8.4,5.2-.81-.12-11.59-10.77-11.59-11.59,0-.25,3.35-3.57,3.6-3.6Z"/>
            <path class="cls-9" d="M471.42,297.8c1.44-.22,2.4.63,3.6,1.2-4.14,1.55-22.78,21.04-24.39,21.19-1.56.14-3.62-3.34-3.6-3.6.13-1.54,22.86-18.56,24.39-18.79Z"/>
            <path class="cls-9" d="M241.14,229.84c8.33,9.72,14.19,6.95,7.2,19.19-10.17-4.61-7.8-8.56-7.2-19.19Z"/>
            <path class="cls-9" d="M369.87,313.8c1.79-.14,9.2,7,9.19,7.6,0,.45-6.34,5.96-6.8,6-.69.05-9.61-6.9-11.59-7.6,1.67-.51,8.65-5.95,9.19-6Z"/>
            <path class="cls-9" d="M329.9,224.24c.99-.12,17.09,9.01,17.19,9.99.04.37-3.97,4.62-6,4.4-.89-.1-14.63-9.12-14.79-9.99-.06-.34,3.08-4.33,3.6-4.4Z"/>
            <path class="cls-9" d="M478.61,425.73c9.41-.04,9.02,19.44-12.39,5.2,2.53-1.19,11.72-5.19,12.39-5.2Z"/>
            <path class="cls-9" d="M305.91,209.85c1.76-.45,17.98,10.39,17.99,11.59,0,.14-1.49,2.3-1.6,2.4-2.4,2.14-25.78-11.62-16.39-13.99Z"/>
            <path class="cls-9" d="M389.06,341.78c.17,0,2.2,1.84,2,2.8-8.32,5.6-28.62,30.14-27.19,19.99.24-1.68,23.49-22.8,25.19-22.79Z"/>
            <path class="cls-9" d="M362.68,328.99c7.27-.29-9.79,14.55-11.99,15.99-3.75,2.45-6.52,1.4-6.8-1.2-.13-1.19,17.59-14.74,18.79-14.79Z"/>
            <path class="cls-9" d="M547.38,396.15c37.75,12.49,21.29,8.36-6.4,5.6-2.47-1.23,6.14-4.85,6.4-5.6Z"/>
            <path class="cls-9" d="M146.8,190.66q20.19,11.39,40.38,22.79c-10.18-5.65-37.31-12.85-40.38-22.79Z"/>
            <path class="cls-9" d="M380.27,210.65c10.87,7.17-1.4,15.19-2.4,15.19-1,0-10.61-6.59,2.4-15.19Z"/>
            <path class="cls-9" d="M438.64,339.38c1-.1,5.18,4.06,5.2,4.4.26,4.5-16.63,13.3-15.99,5.6.06-.73,10.06-9.92,10.79-9.99Z"/>
            <path class="cls-9" d="M196.37,288.21c7.09,12.93,9.88,13.78-5.6,16.79l-1.2-1.2,6.8-15.59Z"/>
            <path class="cls-9" d="M241.94,131.5c2.8-.1,2.05,4.71,2,9.19-.42,38.78-9.06,35.71-2-9.19Z"/>
            <path class="cls-9" d="M240.35,107.51l8.4,5.2c-1.29,22.09-11.68,9.91-8.4-5.2Z"/>
            <path class="cls-9" d="M367.48,224.24c.4.03,5.19,5.6,5.2,6,.02,2.79-16.1,12-15.19,3.2.07-.68,9.32-9.25,9.99-9.19Z"/>
            <path class="cls-9" d="M492.21,433.73c1.67-.26,10.5,5.9,13.19,6.8-20.83,8.8-20.17-5.72-13.19-6.8Z"/>
            <path class="cls-9" d="M434.64,327.39c.29.03,2.88,3.75,2.8,4.4-.15,1.27-16.77,17.23-19.59,13.99-.82-.94,15.55-18.51,16.79-18.39Z"/>
            <path class="cls-9" d="M435.44,261.02c2.42.33,5.95,24.29-9.99,9.19l9.99-9.19Z"/>
            <path class="cls-9" d="M453.03,434.53c.45-.02,1-.15,1.2.4-3.01,2.28-19.59,15.7-21.19,15.59-.61-.04-4.43-3.27-4.4-3.6.14-1.36,23.02-12.33,24.39-12.39Z"/>
            <path class="cls-9" d="M436.24,283.41c.8-.08,6.74,3.04,6.8,3.6.08.77-11.64,9.36-12.39,9.19-.39-.08-3.68-5.6-3.6-6,.12-.56,8.63-6.74,9.19-6.8Z"/>
            <path class="cls-9" d="M401.86,360.17c6.66-.94-17.59,22.56-19.19,22.39-6.54-.72,16.7-19.83,19.19-22.39Z"/>
            <path class="cls-9" d="M421.05,450.52c2.68-.32,6.9,3.19,6.8,4.4-.05.63-9.37,7.66-9.99,7.6-.7-.07-4.59-5.87-4.4-6.8.1-.51,7.14-5.14,7.6-5.2Z"/>
            <path class="cls-9" d="M320.3,305c1.97-.44,7.74,2.32,7.6,3.6-32.4,22.69-9.4-3.2-7.6-3.6Z"/>
            <path class="cls-9" d="M384.27,304.2c.61.05,6.09,6.71,6,7.6-.06.56-6.04,5.28-6.8,5.2-.51-.05-7-6.81-6.8-7.6.12-.45,7.14-5.23,7.6-5.2Z"/>
            <path class="cls-9" d="M266.73,492.9c.4-.04,5.16,5.6,5.2,6,.05.64-6.63,9.61-8.4,9.19-.34-.08-3.77-4.43-3.6-6,.06-.57,6.23-9.14,6.8-9.19Z"/>
            <path class="cls-9" d="M220.36,253.03q5,7.4,9.99,14.79l-1.2,1.2c-12.36-7.54-16.97-3.97-8.8-15.99Z"/>
            <path class="cls-9" d="M485.81,287.41c.87-.02,16.37,7.38,7.2,9.59-2.32.56-10.73-3.55-14.39-4,.26-1.37,6.74-5.59,7.2-5.6Z"/>
            <path class="cls-9" d="M241.14,346.58c1.92,2.31,16.54,9.4,16.39,11.59-.02.34-4.86,4.42-5.2,4.4-.99-.06-12.72-15.56-11.19-15.99Z"/>
            <path class="cls-9" d="M405.85,369.76c.67.14,3.04,5.86,2.8,6.8-.45,1.74-31.58,17.17-2.8-6.8Z"/>
            <path class="cls-9" d="M333.89,432.13c1.31-.35,5.14,2.43,5.2,2.8.1.69-7.28,10.18-9.19,9.99-7.66-.76,3.18-12.57,4-12.79Z"/>
            <path class="cls-9" d="M347.49,244.23c2.63,2.16,21.7,17.55,13.59,18.39-1.99.21-15.45-17.21-13.59-18.39Z"/>
            <path class="cls-9" d="M293.92,359.37c1.03,0,12.46,9.54,7.2,10.39-.72.12-13.18-5.27-13.19-6,0-.37,5.62-4.39,6-4.4Z"/>
            <path class="cls-9" d="M402.66,435.33c1.26,2.37,13.66,9.79,13.19,11.59-.09.34-5.65,3.67-6,3.6-.82-.16-7.17-13-7.2-15.19Z"/>
            <path class="cls-9" d="M500.2,348.98c1.76-.05,1.3.41,0,1.6-14.86,13.63-48.51,20.68,0-1.6Z"/>
            <path class="cls-9" d="M275.53,189.86c.6-.06,9.84,6.21,9.99,6.8,2.83,11.04-19.57-5.89-9.99-6.8Z"/>
            <path class="cls-9" d="M208.36,313.8q4,7.2,8,14.39l-9.19-3.6,1.2-10.79Z"/>
            <path class="cls-9" d="M386.66,362.57c3.98.36-17.54,21.69-14.79,10.79.22-.89,12.8-9.5,14.79-10.79Z"/>
            <path class="cls-9" d="M291.52,200.26c.72-.38,9.05,4.69,9.19,5.2,1.99,6.97-10.54,3.55-11.19,0-.05-.27,1.75-5.07,2-5.2Z"/>
            <path class="cls-9" d="M287.52,212.25c2.72-1.29,8.98,3-2.4,16.79-1.12-.53,1.63-16.43,2.4-16.79Z"/>
            <path class="cls-9" d="M205.16,265.82c6.62-2.2,4.4,11.15,2.4,11.99-5.67,2.38-5.63-10.91-2.4-11.99Z"/>
            <path class="cls-9" d="M249.94,370.56c.8.09,12.32,10.96,8,11.99-.75.18-12.47-8.43-12.39-9.19.03-.31,4.14-2.83,4.4-2.8Z"/>
            <path class="cls-9" d="M445.83,231.44c.76,2.15-.08,12.43-.4,13.19-3.83,9.25-7.93-8.81.4-13.19Z"/>
            <path class="cls-9" d="M451.43,176.27c.53-.14,1.71-.16,2,.4l-5.2,16.39c-1.31-4.01-1.18-15.66,3.2-16.79Z"/>
            <path class="cls-9" d="M420.25,275.42c.49-.05,8.73,4.18,8.4,5.2-9.42,8.5-12.82-4.7-8.4-5.2Z"/>
            <path class="cls-9" d="M440.24,157.88c.98.29,3.5,17.25.8,19.19-1.58,0-4.1-20.16-.8-19.19Z"/>
            <path class="cls-9" d="M476.22,225.84q-3.6,8.4-7.2,16.79c-.21-8.35-.16-12.22,7.2-16.79Z"/>
            <path class="cls-9" d="M236.35,180.27c3.47-2.69,4.85,10.67,3.2,11.99-4.53,3.63-5.22-10.42-3.2-11.99Z"/>
            <path class="cls-9" d="M384.27,325.79c1.85-.15,7.92,7.95,2.4,8.8-5.29.81-8.49-8.29-2.4-8.8Z"/>
            <path class="cls-9" d="M494.61,420.94c2.1-.12,3.98-.36,3.6,1.2-7.96,11.52-18.42-.37-3.6-1.2Z"/>
            <path class="cls-8" d="M393.86,318.59c2.25-.16,6.13,7.96,1.6,8.8-5.39,1-6.86-8.43-1.6-8.8Z"/>
            <path class="cls-9" d="M269.13,272.22c4.65-1.5,5.69,9.61,2.4,10.39-2.2.52-6.4-9.1-2.4-10.39Z"/>
            <path class="cls-9" d="M443.43,183.47c.58.46.76,13.68.4,14.79-2.8,8.7-4.93-18.33-.4-14.79Z"/>
            <path class="cls-9" d="M443.43,205.85c1.36-.01.57,15.24.4,16.39-1.84,12.61-4.46-1.8-.4-16.39Z"/>
            <path class="cls-9" d="M506.6,293.81c14.79-3.21-7.44,14.2-5.2,4.4.08-.33,4.86-4.33,5.2-4.4Z"/>
            <path class="cls-9" d="M372.27,390.55c6.88-.73-4.83,10.33-5.6,10.39-6.83.59,4.83-10.31,5.6-10.39Z"/>
            <path class="cls-9" d="M418.65,401.75c11.68-1.77-6.42,14.06-5.2,5.2.05-.36,4.83-5.14,5.2-5.2Z"/>
            <path class="cls-9" d="M359.48,368.97c4.39-.31,2.48,6.73-3.2,8-9.06,2.02,2.46-7.94,3.2-8Z"/>
            <path class="cls-9" d="M361.08,420.14c.79-.07,3.62,5.16,4.4,6-17.36,5.52-5.35-5.91-4.4-6Z"/>
            <path class="cls-9" d="M449.03,329.79c4.12-.77,6.81,6.75,2.4,7.2-2.41.25-7.36-6.27-2.4-7.2Z"/>
            <path class="cls-9" d="M281.12,268.22c4.01-.51,25.56,20.44-1.2,1.2.49-.36.97-1.17,1.2-1.2Z"/>
            <path class="cls-9" d="M410.65,351.37c9.44-1.96-6,14.13-4.4,4.4.05-.31,4.09-4.33,4.4-4.4Z"/>
            <path class="cls-9" d="M444.23,253.83c.46.35.73,9.92.4,10.79-1.73,4.57-6.61-7.37-.4-10.79Z"/>
            <path class="cls-9" d="M299.51,277.82c2.66-.72,7.92,5.71,2.4,6.4-3.03.38-5.85-5.47-2.4-6.4Z"/>
            <path class="cls-1" d="M396.26,348.98c.48-.07,1.03-.11,1.2.4-27.88,21.5-5.56.2-1.2-.4Z"/>
            <path class="cls-9" d="M381.87,289.01c1.22.86,7.42,1.56,7.6,2.8.14,1.03-4.6,6.02-7.6-2.8Z"/>
            <path class="cls-9" d="M285.12,329.79c.64-.24,5.25-.59,5.2,1.2-.13,4.81-13.08,1.75-5.2-1.2Z"/>
            <path class="cls-9" d="M186.77,110.71c6.92-1.39-4.2,9.87-3.6,3.6.02-.25,3.35-3.55,3.6-3.6Z"/>
            <path class="cls-8" d="M397.06,334.58c3.46-.6,4.19,4.28,1.6,4.8-4.25.86-5.12-4.19-1.6-4.8Z"/>
            <path class="cls-6" d="M363.48,440.93c.56.31.54,1.46.4,2-.68,2.64-19.68,14.2-.4-2Z"/>
            <path class="cls-9" d="M442.63,320.99c3.14-.44,3.43,5.37.8,5.6-2.73.23-3.47-5.22-.8-5.6Z"/>
            <path class="cls-9" d="M406.65,411.34c1.75.07.8,1.11,2,2-11.6,6.83-3.69-2.07-2-2Z"/>
            <path class="cls-9" d="M284.32,299.4c7.72-.96,5.71,3.76,4,4-.28.04-4.37-2.98-4-4Z"/>
            <path class="cls-3" d="M386.66,420.14c1.78,1.5,1.06,1.1,0,2.4-3.22,3.95-10.73,4.96,0-2.4Z"/>
            <path class="cls-9" d="M259.53,189.06c2.12.85,6.02,3.85,3.2,5.6l-3.2-5.6Z"/>
            <path class="cls-4" d="M408.25,400.15c1.22,2.21-5.54,6.7-6,5.2q3-2.6,6-5.2Z"/>
            <path class="cls-5" d="M410.65,338.58c3.12-.6-4.98,6.24-6,4.4l6-4.4Z"/>
            <path class="cls-7" d="M397.86,410.54l1.2,1.2c-7.56,6.31-8.44,5.64-1.2-1.2Z"/>
            <path class="cls-9" d="M446.63,351.37c3.21-.89.96,5.39-1.6,4-.93-.51,1.39-3.94,1.6-4Z"/>
            <path class="cls-9" d="M173.98,316.19c4.12.83-3.69,4.9-4.4,2-.13-.52,4.16-2.05,4.4-2Z"/>
            <path class="cls-8" d="M458.63,340.98c5-.71-2.71,7-2,2,.02-.14,1.86-1.98,2-2Z"/>
            <path class="cls-9" d="M237.95,173.07c3.3.1,1.55,8.7-1.2,2.8-.48-1.04.75-2.81,1.2-2.8Z"/>
            <path class="cls-9" d="M450.63,345.78c1.48-.42,2.85,2.33,1.6,3.2-2.11,1.46-3.37-2.69-1.6-3.2Z"/>
            <path class="cls-9" d="M385.87,390.55c2.76.01-1.34,4.12-1.6,4-1.56-.73.98-4,1.6-4Z"/>
            <path class="cls-9" d="M377.87,384.16c.62.17,3.58,1.79,3.6,2,.1,1.26-3.45,2.23-3.6-2Z"/>
            <path class="cls-2" d="M349.89,416.14c1.34.94-.48,5.61-1.6,4.8-1.83-1.33,1.27-5.03,1.6-4.8Z"/>
          </g>
        </g>
      </g>
    </g>
  </g>
</svg>